G04 #@! TF.GenerationSoftware,KiCad,Pcbnew,5.1.5+dfsg1-2build2*
G04 #@! TF.CreationDate,2021-12-25T17:24:44+01:00*
G04 #@! TF.ProjectId,ntc-6251-qmk-pcb-rounded,6e74632d-3632-4353-912d-716d6b2d7063,rev?*
G04 #@! TF.SameCoordinates,Original*
G04 #@! TF.FileFunction,Legend,Top*
G04 #@! TF.FilePolarity,Positive*
%FSLAX46Y46*%
G04 Gerber Fmt 4.6, Leading zero omitted, Abs format (unit mm)*
G04 Created by KiCad (PCBNEW 5.1.5+dfsg1-2build2) date 2021-12-25 17:24:44*
%MOMM*%
%LPD*%
G04 APERTURE LIST*
%ADD10C,0.120000*%
%ADD11C,0.300000*%
%ADD12C,0.150000*%
G04 APERTURE END LIST*
D10*
X49780000Y-67590000D02*
X49780000Y-65350000D01*
X49780000Y-65350000D02*
X45540000Y-65350000D01*
X45540000Y-65350000D02*
X45540000Y-67590000D01*
X45540000Y-67590000D02*
X49780000Y-67590000D01*
X50430000Y-66470000D02*
X49780000Y-66470000D01*
X44890000Y-66470000D02*
X45540000Y-66470000D01*
X49060000Y-67590000D02*
X49060000Y-65350000D01*
X48940000Y-67590000D02*
X48940000Y-65350000D01*
X49180000Y-67590000D02*
X49180000Y-65350000D01*
X68720000Y-64180000D02*
X70960000Y-64180000D01*
X68720000Y-63940000D02*
X70960000Y-63940000D01*
X68720000Y-64060000D02*
X70960000Y-64060000D01*
X69840000Y-59890000D02*
X69840000Y-60540000D01*
X69840000Y-65430000D02*
X69840000Y-64780000D01*
X68720000Y-60540000D02*
X68720000Y-64780000D01*
X70960000Y-60540000D02*
X68720000Y-60540000D01*
X70960000Y-64780000D02*
X70960000Y-60540000D01*
X68720000Y-64780000D02*
X70960000Y-64780000D01*
X87743333Y-64780000D02*
X89983333Y-64780000D01*
X89983333Y-64780000D02*
X89983333Y-60540000D01*
X89983333Y-60540000D02*
X87743333Y-60540000D01*
X87743333Y-60540000D02*
X87743333Y-64780000D01*
X88863333Y-65430000D02*
X88863333Y-64780000D01*
X88863333Y-59890000D02*
X88863333Y-60540000D01*
X87743333Y-64060000D02*
X89983333Y-64060000D01*
X87743333Y-63940000D02*
X89983333Y-63940000D01*
X87743333Y-64180000D02*
X89983333Y-64180000D01*
X106766666Y-64180000D02*
X109006666Y-64180000D01*
X106766666Y-63940000D02*
X109006666Y-63940000D01*
X106766666Y-64060000D02*
X109006666Y-64060000D01*
X107886666Y-59890000D02*
X107886666Y-60540000D01*
X107886666Y-65430000D02*
X107886666Y-64780000D01*
X106766666Y-60540000D02*
X106766666Y-64780000D01*
X109006666Y-60540000D02*
X106766666Y-60540000D01*
X109006666Y-64780000D02*
X109006666Y-60540000D01*
X106766666Y-64780000D02*
X109006666Y-64780000D01*
X125790000Y-64180000D02*
X128030000Y-64180000D01*
X125790000Y-63940000D02*
X128030000Y-63940000D01*
X125790000Y-64060000D02*
X128030000Y-64060000D01*
X126910000Y-59890000D02*
X126910000Y-60540000D01*
X126910000Y-65430000D02*
X126910000Y-64780000D01*
X125790000Y-60540000D02*
X125790000Y-64780000D01*
X128030000Y-60540000D02*
X125790000Y-60540000D01*
X128030000Y-64780000D02*
X128030000Y-60540000D01*
X125790000Y-64780000D02*
X128030000Y-64780000D01*
X50230000Y-84460000D02*
X52470000Y-84460000D01*
X50230000Y-84220000D02*
X52470000Y-84220000D01*
X50230000Y-84340000D02*
X52470000Y-84340000D01*
X51350000Y-80170000D02*
X51350000Y-80820000D01*
X51350000Y-85710000D02*
X51350000Y-85060000D01*
X50230000Y-80820000D02*
X50230000Y-85060000D01*
X52470000Y-80820000D02*
X50230000Y-80820000D01*
X52470000Y-85060000D02*
X52470000Y-80820000D01*
X50230000Y-85060000D02*
X52470000Y-85060000D01*
X297462141Y-85060000D02*
X299702141Y-85060000D01*
X299702141Y-85060000D02*
X299702141Y-80820000D01*
X299702141Y-80820000D02*
X297462141Y-80820000D01*
X297462141Y-80820000D02*
X297462141Y-85060000D01*
X298582141Y-85710000D02*
X298582141Y-85060000D01*
X298582141Y-80170000D02*
X298582141Y-80820000D01*
X297462141Y-84340000D02*
X299702141Y-84340000D01*
X297462141Y-84220000D02*
X299702141Y-84220000D01*
X297462141Y-84460000D02*
X299702141Y-84460000D01*
X268786360Y-103490000D02*
X271026360Y-103490000D01*
X268786360Y-103250000D02*
X271026360Y-103250000D01*
X268786360Y-103370000D02*
X271026360Y-103370000D01*
X269906360Y-99200000D02*
X269906360Y-99850000D01*
X269906360Y-104740000D02*
X269906360Y-104090000D01*
X268786360Y-99850000D02*
X268786360Y-104090000D01*
X271026360Y-99850000D02*
X268786360Y-99850000D01*
X271026360Y-104090000D02*
X271026360Y-99850000D01*
X268786360Y-104090000D02*
X271026360Y-104090000D01*
X254600000Y-122530000D02*
X256840000Y-122530000D01*
X254600000Y-122290000D02*
X256840000Y-122290000D01*
X254600000Y-122410000D02*
X256840000Y-122410000D01*
X255720000Y-118240000D02*
X255720000Y-118890000D01*
X255720000Y-123780000D02*
X255720000Y-123130000D01*
X254600000Y-118890000D02*
X254600000Y-123130000D01*
X256840000Y-118890000D02*
X254600000Y-118890000D01*
X256840000Y-123130000D02*
X256840000Y-118890000D01*
X254600000Y-123130000D02*
X256840000Y-123130000D01*
X264700000Y-141580000D02*
X266940000Y-141580000D01*
X264700000Y-141340000D02*
X266940000Y-141340000D01*
X264700000Y-141460000D02*
X266940000Y-141460000D01*
X265820000Y-137290000D02*
X265820000Y-137940000D01*
X265820000Y-142830000D02*
X265820000Y-142180000D01*
X264700000Y-137940000D02*
X264700000Y-142180000D01*
X266940000Y-137940000D02*
X264700000Y-137940000D01*
X266940000Y-142180000D02*
X266940000Y-137940000D01*
X264700000Y-142180000D02*
X266940000Y-142180000D01*
X345600000Y-103490000D02*
X347840000Y-103490000D01*
X345600000Y-103250000D02*
X347840000Y-103250000D01*
X345600000Y-103370000D02*
X347840000Y-103370000D01*
X346720000Y-99200000D02*
X346720000Y-99850000D01*
X346720000Y-104740000D02*
X346720000Y-104090000D01*
X345600000Y-99850000D02*
X345600000Y-104090000D01*
X347840000Y-99850000D02*
X345600000Y-99850000D01*
X347840000Y-104090000D02*
X347840000Y-99850000D01*
X345600000Y-104090000D02*
X347840000Y-104090000D01*
X450630000Y-103490000D02*
X452870000Y-103490000D01*
X450630000Y-103250000D02*
X452870000Y-103250000D01*
X450630000Y-103370000D02*
X452870000Y-103370000D01*
X451750000Y-99200000D02*
X451750000Y-99850000D01*
X451750000Y-104740000D02*
X451750000Y-104090000D01*
X450630000Y-99850000D02*
X450630000Y-104090000D01*
X452870000Y-99850000D02*
X450630000Y-99850000D01*
X452870000Y-104090000D02*
X452870000Y-99850000D01*
X450630000Y-104090000D02*
X452870000Y-104090000D01*
X69247857Y-84460000D02*
X71487857Y-84460000D01*
X69247857Y-84220000D02*
X71487857Y-84220000D01*
X69247857Y-84340000D02*
X71487857Y-84340000D01*
X70367857Y-80170000D02*
X70367857Y-80820000D01*
X70367857Y-85710000D02*
X70367857Y-85060000D01*
X69247857Y-80820000D02*
X69247857Y-85060000D01*
X71487857Y-80820000D02*
X69247857Y-80820000D01*
X71487857Y-85060000D02*
X71487857Y-80820000D01*
X69247857Y-85060000D02*
X71487857Y-85060000D01*
X316480000Y-85060000D02*
X318720000Y-85060000D01*
X318720000Y-85060000D02*
X318720000Y-80820000D01*
X318720000Y-80820000D02*
X316480000Y-80820000D01*
X316480000Y-80820000D02*
X316480000Y-85060000D01*
X317600000Y-85710000D02*
X317600000Y-85060000D01*
X317600000Y-80170000D02*
X317600000Y-80820000D01*
X316480000Y-84340000D02*
X318720000Y-84340000D01*
X316480000Y-84220000D02*
X318720000Y-84220000D01*
X316480000Y-84460000D02*
X318720000Y-84460000D01*
X287810000Y-104090000D02*
X290050000Y-104090000D01*
X290050000Y-104090000D02*
X290050000Y-99850000D01*
X290050000Y-99850000D02*
X287810000Y-99850000D01*
X287810000Y-99850000D02*
X287810000Y-104090000D01*
X288930000Y-104740000D02*
X288930000Y-104090000D01*
X288930000Y-99200000D02*
X288930000Y-99850000D01*
X287810000Y-103370000D02*
X290050000Y-103370000D01*
X287810000Y-103250000D02*
X290050000Y-103250000D01*
X287810000Y-103490000D02*
X290050000Y-103490000D01*
X273640000Y-123130000D02*
X275880000Y-123130000D01*
X275880000Y-123130000D02*
X275880000Y-118890000D01*
X275880000Y-118890000D02*
X273640000Y-118890000D01*
X273640000Y-118890000D02*
X273640000Y-123130000D01*
X274760000Y-123780000D02*
X274760000Y-123130000D01*
X274760000Y-118240000D02*
X274760000Y-118890000D01*
X273640000Y-122410000D02*
X275880000Y-122410000D01*
X273640000Y-122290000D02*
X275880000Y-122290000D01*
X273640000Y-122530000D02*
X275880000Y-122530000D01*
X300230000Y-142180000D02*
X302470000Y-142180000D01*
X302470000Y-142180000D02*
X302470000Y-137940000D01*
X302470000Y-137940000D02*
X300230000Y-137940000D01*
X300230000Y-137940000D02*
X300230000Y-142180000D01*
X301350000Y-142830000D02*
X301350000Y-142180000D01*
X301350000Y-137290000D02*
X301350000Y-137940000D01*
X300230000Y-141460000D02*
X302470000Y-141460000D01*
X300230000Y-141340000D02*
X302470000Y-141340000D01*
X300230000Y-141580000D02*
X302470000Y-141580000D01*
X364650000Y-104090000D02*
X366890000Y-104090000D01*
X366890000Y-104090000D02*
X366890000Y-99850000D01*
X366890000Y-99850000D02*
X364650000Y-99850000D01*
X364650000Y-99850000D02*
X364650000Y-104090000D01*
X365770000Y-104740000D02*
X365770000Y-104090000D01*
X365770000Y-99200000D02*
X365770000Y-99850000D01*
X364650000Y-103370000D02*
X366890000Y-103370000D01*
X364650000Y-103250000D02*
X366890000Y-103250000D01*
X364650000Y-103490000D02*
X366890000Y-103490000D01*
X462100000Y-103960000D02*
X462100000Y-101720000D01*
X461860000Y-103960000D02*
X461860000Y-101720000D01*
X461980000Y-103960000D02*
X461980000Y-101720000D01*
X457810000Y-102840000D02*
X458460000Y-102840000D01*
X463350000Y-102840000D02*
X462700000Y-102840000D01*
X458460000Y-103960000D02*
X462700000Y-103960000D01*
X458460000Y-101720000D02*
X458460000Y-103960000D01*
X462700000Y-101720000D02*
X458460000Y-101720000D01*
X462700000Y-103960000D02*
X462700000Y-101720000D01*
X88265714Y-84460000D02*
X90505714Y-84460000D01*
X88265714Y-84220000D02*
X90505714Y-84220000D01*
X88265714Y-84340000D02*
X90505714Y-84340000D01*
X89385714Y-80170000D02*
X89385714Y-80820000D01*
X89385714Y-85710000D02*
X89385714Y-85060000D01*
X88265714Y-80820000D02*
X88265714Y-85060000D01*
X90505714Y-80820000D02*
X88265714Y-80820000D01*
X90505714Y-85060000D02*
X90505714Y-80820000D01*
X88265714Y-85060000D02*
X90505714Y-85060000D01*
X54850000Y-104090000D02*
X57090000Y-104090000D01*
X57090000Y-104090000D02*
X57090000Y-99850000D01*
X57090000Y-99850000D02*
X54850000Y-99850000D01*
X54850000Y-99850000D02*
X54850000Y-104090000D01*
X55970000Y-104740000D02*
X55970000Y-104090000D01*
X55970000Y-99200000D02*
X55970000Y-99850000D01*
X54850000Y-103370000D02*
X57090000Y-103370000D01*
X54850000Y-103250000D02*
X57090000Y-103250000D01*
X54850000Y-103490000D02*
X57090000Y-103490000D01*
X304550000Y-122530000D02*
X306790000Y-122530000D01*
X304550000Y-122290000D02*
X306790000Y-122290000D01*
X304550000Y-122410000D02*
X306790000Y-122410000D01*
X305670000Y-118240000D02*
X305670000Y-118890000D01*
X305670000Y-123780000D02*
X305670000Y-123130000D01*
X304550000Y-118890000D02*
X304550000Y-123130000D01*
X306790000Y-118890000D02*
X304550000Y-118890000D01*
X306790000Y-123130000D02*
X306790000Y-118890000D01*
X304550000Y-123130000D02*
X306790000Y-123130000D01*
X52630000Y-141580000D02*
X54870000Y-141580000D01*
X52630000Y-141340000D02*
X54870000Y-141340000D01*
X52630000Y-141460000D02*
X54870000Y-141460000D01*
X53750000Y-137290000D02*
X53750000Y-137940000D01*
X53750000Y-142830000D02*
X53750000Y-142180000D01*
X52630000Y-137940000D02*
X52630000Y-142180000D01*
X54870000Y-137940000D02*
X52630000Y-137940000D01*
X54870000Y-142180000D02*
X54870000Y-137940000D01*
X52630000Y-142180000D02*
X54870000Y-142180000D01*
X55130000Y-157270000D02*
X57370000Y-157270000D01*
X55130000Y-157030000D02*
X57370000Y-157030000D01*
X55130000Y-157150000D02*
X57370000Y-157150000D01*
X56250000Y-152980000D02*
X56250000Y-153630000D01*
X56250000Y-158520000D02*
X56250000Y-157870000D01*
X55130000Y-153630000D02*
X55130000Y-157870000D01*
X57370000Y-153630000D02*
X55130000Y-153630000D01*
X57370000Y-157870000D02*
X57370000Y-153630000D01*
X55130000Y-157870000D02*
X57370000Y-157870000D01*
X383710000Y-103490000D02*
X385950000Y-103490000D01*
X383710000Y-103250000D02*
X385950000Y-103250000D01*
X383710000Y-103370000D02*
X385950000Y-103370000D01*
X384830000Y-99200000D02*
X384830000Y-99850000D01*
X384830000Y-104740000D02*
X384830000Y-104090000D01*
X383710000Y-99850000D02*
X383710000Y-104090000D01*
X385950000Y-99850000D02*
X383710000Y-99850000D01*
X385950000Y-104090000D02*
X385950000Y-99850000D01*
X383710000Y-104090000D02*
X385950000Y-104090000D01*
X412580000Y-122530000D02*
X414820000Y-122530000D01*
X412580000Y-122290000D02*
X414820000Y-122290000D01*
X412580000Y-122410000D02*
X414820000Y-122410000D01*
X413700000Y-118240000D02*
X413700000Y-118890000D01*
X413700000Y-123780000D02*
X413700000Y-123130000D01*
X412580000Y-118890000D02*
X412580000Y-123130000D01*
X414820000Y-118890000D02*
X412580000Y-118890000D01*
X414820000Y-123130000D02*
X414820000Y-118890000D01*
X412580000Y-123130000D02*
X414820000Y-123130000D01*
X107283571Y-85060000D02*
X109523571Y-85060000D01*
X109523571Y-85060000D02*
X109523571Y-80820000D01*
X109523571Y-80820000D02*
X107283571Y-80820000D01*
X107283571Y-80820000D02*
X107283571Y-85060000D01*
X108403571Y-85710000D02*
X108403571Y-85060000D01*
X108403571Y-80170000D02*
X108403571Y-80820000D01*
X107283571Y-84340000D02*
X109523571Y-84340000D01*
X107283571Y-84220000D02*
X109523571Y-84220000D01*
X107283571Y-84460000D02*
X109523571Y-84460000D01*
X78550000Y-104090000D02*
X80790000Y-104090000D01*
X80790000Y-104090000D02*
X80790000Y-99850000D01*
X80790000Y-99850000D02*
X78550000Y-99850000D01*
X78550000Y-99850000D02*
X78550000Y-104090000D01*
X79670000Y-104740000D02*
X79670000Y-104090000D01*
X79670000Y-99200000D02*
X79670000Y-99850000D01*
X78550000Y-103370000D02*
X80790000Y-103370000D01*
X78550000Y-103250000D02*
X80790000Y-103250000D01*
X78550000Y-103490000D02*
X80790000Y-103490000D01*
X57160000Y-123130000D02*
X59400000Y-123130000D01*
X59400000Y-123130000D02*
X59400000Y-118890000D01*
X59400000Y-118890000D02*
X57160000Y-118890000D01*
X57160000Y-118890000D02*
X57160000Y-123130000D01*
X58280000Y-123780000D02*
X58280000Y-123130000D01*
X58280000Y-118240000D02*
X58280000Y-118890000D01*
X57160000Y-122410000D02*
X59400000Y-122410000D01*
X57160000Y-122290000D02*
X59400000Y-122290000D01*
X57160000Y-122530000D02*
X59400000Y-122530000D01*
X74230000Y-142180000D02*
X76470000Y-142180000D01*
X76470000Y-142180000D02*
X76470000Y-137940000D01*
X76470000Y-137940000D02*
X74230000Y-137940000D01*
X74230000Y-137940000D02*
X74230000Y-142180000D01*
X75350000Y-142830000D02*
X75350000Y-142180000D01*
X75350000Y-137290000D02*
X75350000Y-137940000D01*
X74230000Y-141460000D02*
X76470000Y-141460000D01*
X74230000Y-141340000D02*
X76470000Y-141340000D01*
X74230000Y-141580000D02*
X76470000Y-141580000D01*
X102550000Y-157870000D02*
X104790000Y-157870000D01*
X104790000Y-157870000D02*
X104790000Y-153630000D01*
X104790000Y-153630000D02*
X102550000Y-153630000D01*
X102550000Y-153630000D02*
X102550000Y-157870000D01*
X103670000Y-158520000D02*
X103670000Y-157870000D01*
X103670000Y-152980000D02*
X103670000Y-153630000D01*
X102550000Y-157150000D02*
X104790000Y-157150000D01*
X102550000Y-157030000D02*
X104790000Y-157030000D01*
X102550000Y-157270000D02*
X104790000Y-157270000D01*
X345610000Y-157870000D02*
X347850000Y-157870000D01*
X347850000Y-157870000D02*
X347850000Y-153630000D01*
X347850000Y-153630000D02*
X345610000Y-153630000D01*
X345610000Y-153630000D02*
X345610000Y-157870000D01*
X346730000Y-158520000D02*
X346730000Y-157870000D01*
X346730000Y-152980000D02*
X346730000Y-153630000D01*
X345610000Y-157150000D02*
X347850000Y-157150000D01*
X345610000Y-157030000D02*
X347850000Y-157030000D01*
X345610000Y-157270000D02*
X347850000Y-157270000D01*
X431610000Y-123130000D02*
X433850000Y-123130000D01*
X433850000Y-123130000D02*
X433850000Y-118890000D01*
X433850000Y-118890000D02*
X431610000Y-118890000D01*
X431610000Y-118890000D02*
X431610000Y-123130000D01*
X432730000Y-123780000D02*
X432730000Y-123130000D01*
X432730000Y-118240000D02*
X432730000Y-118890000D01*
X431610000Y-122410000D02*
X433850000Y-122410000D01*
X431610000Y-122290000D02*
X433850000Y-122290000D01*
X431610000Y-122530000D02*
X433850000Y-122530000D01*
X126301428Y-84460000D02*
X128541428Y-84460000D01*
X126301428Y-84220000D02*
X128541428Y-84220000D01*
X126301428Y-84340000D02*
X128541428Y-84340000D01*
X127421428Y-80170000D02*
X127421428Y-80820000D01*
X127421428Y-85710000D02*
X127421428Y-85060000D01*
X126301428Y-80820000D02*
X126301428Y-85060000D01*
X128541428Y-80820000D02*
X126301428Y-80820000D01*
X128541428Y-85060000D02*
X128541428Y-80820000D01*
X126301428Y-85060000D02*
X128541428Y-85060000D01*
X97573636Y-104090000D02*
X99813636Y-104090000D01*
X99813636Y-104090000D02*
X99813636Y-99850000D01*
X99813636Y-99850000D02*
X97573636Y-99850000D01*
X97573636Y-99850000D02*
X97573636Y-104090000D01*
X98693636Y-104740000D02*
X98693636Y-104090000D01*
X98693636Y-99200000D02*
X98693636Y-99850000D01*
X97573636Y-103370000D02*
X99813636Y-103370000D01*
X97573636Y-103250000D02*
X99813636Y-103250000D01*
X97573636Y-103490000D02*
X99813636Y-103490000D01*
X83390000Y-122530000D02*
X85630000Y-122530000D01*
X83390000Y-122290000D02*
X85630000Y-122290000D01*
X83390000Y-122410000D02*
X85630000Y-122410000D01*
X84510000Y-118240000D02*
X84510000Y-118890000D01*
X84510000Y-123780000D02*
X84510000Y-123130000D01*
X83390000Y-118890000D02*
X83390000Y-123130000D01*
X85630000Y-118890000D02*
X83390000Y-118890000D01*
X85630000Y-123130000D02*
X85630000Y-118890000D01*
X83390000Y-123130000D02*
X85630000Y-123130000D01*
X93277000Y-142180000D02*
X95517000Y-142180000D01*
X95517000Y-142180000D02*
X95517000Y-137940000D01*
X95517000Y-137940000D02*
X93277000Y-137940000D01*
X93277000Y-137940000D02*
X93277000Y-142180000D01*
X94397000Y-142830000D02*
X94397000Y-142180000D01*
X94397000Y-137290000D02*
X94397000Y-137940000D01*
X93277000Y-141460000D02*
X95517000Y-141460000D01*
X93277000Y-141340000D02*
X95517000Y-141340000D01*
X93277000Y-141580000D02*
X95517000Y-141580000D01*
X183280000Y-157270000D02*
X185520000Y-157270000D01*
X183280000Y-157030000D02*
X185520000Y-157030000D01*
X183280000Y-157150000D02*
X185520000Y-157150000D01*
X184400000Y-152980000D02*
X184400000Y-153630000D01*
X184400000Y-158520000D02*
X184400000Y-157870000D01*
X183280000Y-153630000D02*
X183280000Y-157870000D01*
X185520000Y-153630000D02*
X183280000Y-153630000D01*
X185520000Y-157870000D02*
X185520000Y-153630000D01*
X183280000Y-157870000D02*
X185520000Y-157870000D01*
X364660000Y-141580000D02*
X366900000Y-141580000D01*
X364660000Y-141340000D02*
X366900000Y-141340000D01*
X364660000Y-141460000D02*
X366900000Y-141460000D01*
X365780000Y-137290000D02*
X365780000Y-137940000D01*
X365780000Y-142830000D02*
X365780000Y-142180000D01*
X364660000Y-137940000D02*
X364660000Y-142180000D01*
X366900000Y-137940000D02*
X364660000Y-137940000D01*
X366900000Y-142180000D02*
X366900000Y-137940000D01*
X364660000Y-142180000D02*
X366900000Y-142180000D01*
X450630000Y-122530000D02*
X452870000Y-122530000D01*
X450630000Y-122290000D02*
X452870000Y-122290000D01*
X450630000Y-122410000D02*
X452870000Y-122410000D01*
X451750000Y-118240000D02*
X451750000Y-118890000D01*
X451750000Y-123780000D02*
X451750000Y-123130000D01*
X450630000Y-118890000D02*
X450630000Y-123130000D01*
X452870000Y-118890000D02*
X450630000Y-118890000D01*
X452870000Y-123130000D02*
X452870000Y-118890000D01*
X450630000Y-123130000D02*
X452870000Y-123130000D01*
X154450000Y-64780000D02*
X156690000Y-64780000D01*
X156690000Y-64780000D02*
X156690000Y-60540000D01*
X156690000Y-60540000D02*
X154450000Y-60540000D01*
X154450000Y-60540000D02*
X154450000Y-64780000D01*
X155570000Y-65430000D02*
X155570000Y-64780000D01*
X155570000Y-59890000D02*
X155570000Y-60540000D01*
X154450000Y-64060000D02*
X156690000Y-64060000D01*
X154450000Y-63940000D02*
X156690000Y-63940000D01*
X154450000Y-64180000D02*
X156690000Y-64180000D01*
X145319285Y-85060000D02*
X147559285Y-85060000D01*
X147559285Y-85060000D02*
X147559285Y-80820000D01*
X147559285Y-80820000D02*
X145319285Y-80820000D01*
X145319285Y-80820000D02*
X145319285Y-85060000D01*
X146439285Y-85710000D02*
X146439285Y-85060000D01*
X146439285Y-80170000D02*
X146439285Y-80820000D01*
X145319285Y-84340000D02*
X147559285Y-84340000D01*
X145319285Y-84220000D02*
X147559285Y-84220000D01*
X145319285Y-84460000D02*
X147559285Y-84460000D01*
X116597272Y-103490000D02*
X118837272Y-103490000D01*
X116597272Y-103250000D02*
X118837272Y-103250000D01*
X116597272Y-103370000D02*
X118837272Y-103370000D01*
X117717272Y-99200000D02*
X117717272Y-99850000D01*
X117717272Y-104740000D02*
X117717272Y-104090000D01*
X116597272Y-99850000D02*
X116597272Y-104090000D01*
X118837272Y-99850000D02*
X116597272Y-99850000D01*
X118837272Y-104090000D02*
X118837272Y-99850000D01*
X116597272Y-104090000D02*
X118837272Y-104090000D01*
X102413333Y-123130000D02*
X104653333Y-123130000D01*
X104653333Y-123130000D02*
X104653333Y-118890000D01*
X104653333Y-118890000D02*
X102413333Y-118890000D01*
X102413333Y-118890000D02*
X102413333Y-123130000D01*
X103533333Y-123780000D02*
X103533333Y-123130000D01*
X103533333Y-118240000D02*
X103533333Y-118890000D01*
X102413333Y-122410000D02*
X104653333Y-122410000D01*
X102413333Y-122290000D02*
X104653333Y-122290000D01*
X102413333Y-122530000D02*
X104653333Y-122530000D01*
X112324000Y-142180000D02*
X114564000Y-142180000D01*
X114564000Y-142180000D02*
X114564000Y-137940000D01*
X114564000Y-137940000D02*
X112324000Y-137940000D01*
X112324000Y-137940000D02*
X112324000Y-142180000D01*
X113444000Y-142830000D02*
X113444000Y-142180000D01*
X113444000Y-137290000D02*
X113444000Y-137940000D01*
X112324000Y-141460000D02*
X114564000Y-141460000D01*
X112324000Y-141340000D02*
X114564000Y-141340000D01*
X112324000Y-141580000D02*
X114564000Y-141580000D01*
X264000000Y-157870000D02*
X266240000Y-157870000D01*
X266240000Y-157870000D02*
X266240000Y-153630000D01*
X266240000Y-153630000D02*
X264000000Y-153630000D01*
X264000000Y-153630000D02*
X264000000Y-157870000D01*
X265120000Y-158520000D02*
X265120000Y-157870000D01*
X265120000Y-152980000D02*
X265120000Y-153630000D01*
X264000000Y-157150000D02*
X266240000Y-157150000D01*
X264000000Y-157030000D02*
X266240000Y-157030000D01*
X264000000Y-157270000D02*
X266240000Y-157270000D01*
X364660000Y-157280000D02*
X366900000Y-157280000D01*
X364660000Y-157040000D02*
X366900000Y-157040000D01*
X364660000Y-157160000D02*
X366900000Y-157160000D01*
X365780000Y-152990000D02*
X365780000Y-153640000D01*
X365780000Y-158530000D02*
X365780000Y-157880000D01*
X364660000Y-153640000D02*
X364660000Y-157880000D01*
X366900000Y-153640000D02*
X364660000Y-153640000D01*
X366900000Y-157880000D02*
X366900000Y-153640000D01*
X364660000Y-157880000D02*
X366900000Y-157880000D01*
X412580000Y-142183220D02*
X414820000Y-142183220D01*
X414820000Y-142183220D02*
X414820000Y-137943220D01*
X414820000Y-137943220D02*
X412580000Y-137943220D01*
X412580000Y-137943220D02*
X412580000Y-142183220D01*
X413700000Y-142833220D02*
X413700000Y-142183220D01*
X413700000Y-137293220D02*
X413700000Y-137943220D01*
X412580000Y-141463220D02*
X414820000Y-141463220D01*
X412580000Y-141343220D02*
X414820000Y-141343220D01*
X412580000Y-141583220D02*
X414820000Y-141583220D01*
X173473333Y-64180000D02*
X175713333Y-64180000D01*
X173473333Y-63940000D02*
X175713333Y-63940000D01*
X173473333Y-64060000D02*
X175713333Y-64060000D01*
X174593333Y-59890000D02*
X174593333Y-60540000D01*
X174593333Y-65430000D02*
X174593333Y-64780000D01*
X173473333Y-60540000D02*
X173473333Y-64780000D01*
X175713333Y-60540000D02*
X173473333Y-60540000D01*
X175713333Y-64780000D02*
X175713333Y-60540000D01*
X173473333Y-64780000D02*
X175713333Y-64780000D01*
X164337142Y-84460000D02*
X166577142Y-84460000D01*
X164337142Y-84220000D02*
X166577142Y-84220000D01*
X164337142Y-84340000D02*
X166577142Y-84340000D01*
X165457142Y-80170000D02*
X165457142Y-80820000D01*
X165457142Y-85710000D02*
X165457142Y-85060000D01*
X164337142Y-80820000D02*
X164337142Y-85060000D01*
X166577142Y-80820000D02*
X164337142Y-80820000D01*
X166577142Y-85060000D02*
X166577142Y-80820000D01*
X164337142Y-85060000D02*
X166577142Y-85060000D01*
X135620908Y-104090000D02*
X137860908Y-104090000D01*
X137860908Y-104090000D02*
X137860908Y-99850000D01*
X137860908Y-99850000D02*
X135620908Y-99850000D01*
X135620908Y-99850000D02*
X135620908Y-104090000D01*
X136740908Y-104740000D02*
X136740908Y-104090000D01*
X136740908Y-99200000D02*
X136740908Y-99850000D01*
X135620908Y-103370000D02*
X137860908Y-103370000D01*
X135620908Y-103250000D02*
X137860908Y-103250000D01*
X135620908Y-103490000D02*
X137860908Y-103490000D01*
X121436666Y-122530000D02*
X123676666Y-122530000D01*
X121436666Y-122290000D02*
X123676666Y-122290000D01*
X121436666Y-122410000D02*
X123676666Y-122410000D01*
X122556666Y-118240000D02*
X122556666Y-118890000D01*
X122556666Y-123780000D02*
X122556666Y-123130000D01*
X121436666Y-118890000D02*
X121436666Y-123130000D01*
X123676666Y-118890000D02*
X121436666Y-118890000D01*
X123676666Y-123130000D02*
X123676666Y-118890000D01*
X121436666Y-123130000D02*
X123676666Y-123130000D01*
X131371000Y-141580000D02*
X133611000Y-141580000D01*
X131371000Y-141340000D02*
X133611000Y-141340000D01*
X131371000Y-141460000D02*
X133611000Y-141460000D01*
X132491000Y-137290000D02*
X132491000Y-137940000D01*
X132491000Y-142830000D02*
X132491000Y-142180000D01*
X131371000Y-137940000D02*
X131371000Y-142180000D01*
X133611000Y-137940000D02*
X131371000Y-137940000D01*
X133611000Y-142180000D02*
X133611000Y-137940000D01*
X131371000Y-142180000D02*
X133611000Y-142180000D01*
X311760000Y-157270000D02*
X314000000Y-157270000D01*
X311760000Y-157030000D02*
X314000000Y-157030000D01*
X311760000Y-157150000D02*
X314000000Y-157150000D01*
X312880000Y-152980000D02*
X312880000Y-153630000D01*
X312880000Y-158520000D02*
X312880000Y-157870000D01*
X311760000Y-153630000D02*
X311760000Y-157870000D01*
X314000000Y-153630000D02*
X311760000Y-153630000D01*
X314000000Y-157870000D02*
X314000000Y-153630000D01*
X311760000Y-157870000D02*
X314000000Y-157870000D01*
X383710000Y-157270000D02*
X385950000Y-157270000D01*
X383710000Y-157030000D02*
X385950000Y-157030000D01*
X383710000Y-157150000D02*
X385950000Y-157150000D01*
X384830000Y-152980000D02*
X384830000Y-153630000D01*
X384830000Y-158520000D02*
X384830000Y-157870000D01*
X383710000Y-153630000D02*
X383710000Y-157870000D01*
X385950000Y-153630000D02*
X383710000Y-153630000D01*
X385950000Y-157870000D02*
X385950000Y-153630000D01*
X383710000Y-157870000D02*
X385950000Y-157870000D01*
X431620000Y-141580000D02*
X433860000Y-141580000D01*
X431620000Y-141340000D02*
X433860000Y-141340000D01*
X431620000Y-141460000D02*
X433860000Y-141460000D01*
X432740000Y-137290000D02*
X432740000Y-137940000D01*
X432740000Y-142830000D02*
X432740000Y-142180000D01*
X431620000Y-137940000D02*
X431620000Y-142180000D01*
X433860000Y-137940000D02*
X431620000Y-137940000D01*
X433860000Y-142180000D02*
X433860000Y-137940000D01*
X431620000Y-142180000D02*
X433860000Y-142180000D01*
X192496666Y-64780000D02*
X194736666Y-64780000D01*
X194736666Y-64780000D02*
X194736666Y-60540000D01*
X194736666Y-60540000D02*
X192496666Y-60540000D01*
X192496666Y-60540000D02*
X192496666Y-64780000D01*
X193616666Y-65430000D02*
X193616666Y-64780000D01*
X193616666Y-59890000D02*
X193616666Y-60540000D01*
X192496666Y-64060000D02*
X194736666Y-64060000D01*
X192496666Y-63940000D02*
X194736666Y-63940000D01*
X192496666Y-64180000D02*
X194736666Y-64180000D01*
X183354999Y-84460000D02*
X185594999Y-84460000D01*
X183354999Y-84220000D02*
X185594999Y-84220000D01*
X183354999Y-84340000D02*
X185594999Y-84340000D01*
X184474999Y-80170000D02*
X184474999Y-80820000D01*
X184474999Y-85710000D02*
X184474999Y-85060000D01*
X183354999Y-80820000D02*
X183354999Y-85060000D01*
X185594999Y-80820000D02*
X183354999Y-80820000D01*
X185594999Y-85060000D02*
X185594999Y-80820000D01*
X183354999Y-85060000D02*
X185594999Y-85060000D01*
X154644544Y-104090000D02*
X156884544Y-104090000D01*
X156884544Y-104090000D02*
X156884544Y-99850000D01*
X156884544Y-99850000D02*
X154644544Y-99850000D01*
X154644544Y-99850000D02*
X154644544Y-104090000D01*
X155764544Y-104740000D02*
X155764544Y-104090000D01*
X155764544Y-99200000D02*
X155764544Y-99850000D01*
X154644544Y-103370000D02*
X156884544Y-103370000D01*
X154644544Y-103250000D02*
X156884544Y-103250000D01*
X154644544Y-103490000D02*
X156884544Y-103490000D01*
X140459999Y-122530000D02*
X142699999Y-122530000D01*
X140459999Y-122290000D02*
X142699999Y-122290000D01*
X140459999Y-122410000D02*
X142699999Y-122410000D01*
X141579999Y-118240000D02*
X141579999Y-118890000D01*
X141579999Y-123780000D02*
X141579999Y-123130000D01*
X140459999Y-118890000D02*
X140459999Y-123130000D01*
X142699999Y-118890000D02*
X140459999Y-118890000D01*
X142699999Y-123130000D02*
X142699999Y-118890000D01*
X140459999Y-123130000D02*
X142699999Y-123130000D01*
X150418000Y-142180000D02*
X152658000Y-142180000D01*
X152658000Y-142180000D02*
X152658000Y-137940000D01*
X152658000Y-137940000D02*
X150418000Y-137940000D01*
X150418000Y-137940000D02*
X150418000Y-142180000D01*
X151538000Y-142830000D02*
X151538000Y-142180000D01*
X151538000Y-137290000D02*
X151538000Y-137940000D01*
X150418000Y-141460000D02*
X152658000Y-141460000D01*
X150418000Y-141340000D02*
X152658000Y-141340000D01*
X150418000Y-141580000D02*
X152658000Y-141580000D01*
X326550000Y-64180000D02*
X328790000Y-64180000D01*
X326550000Y-63940000D02*
X328790000Y-63940000D01*
X326550000Y-64060000D02*
X328790000Y-64060000D01*
X327670000Y-59890000D02*
X327670000Y-60540000D01*
X327670000Y-65430000D02*
X327670000Y-64780000D01*
X326550000Y-60540000D02*
X326550000Y-64780000D01*
X328790000Y-60540000D02*
X326550000Y-60540000D01*
X328790000Y-64780000D02*
X328790000Y-60540000D01*
X326550000Y-64780000D02*
X328790000Y-64780000D01*
X412580000Y-85060000D02*
X414820000Y-85060000D01*
X414820000Y-85060000D02*
X414820000Y-80820000D01*
X414820000Y-80820000D02*
X412580000Y-80820000D01*
X412580000Y-80820000D02*
X412580000Y-85060000D01*
X413700000Y-85710000D02*
X413700000Y-85060000D01*
X413700000Y-80170000D02*
X413700000Y-80820000D01*
X412580000Y-84340000D02*
X414820000Y-84340000D01*
X412580000Y-84220000D02*
X414820000Y-84220000D01*
X412580000Y-84460000D02*
X414820000Y-84460000D01*
X450650000Y-142183220D02*
X452890000Y-142183220D01*
X452890000Y-142183220D02*
X452890000Y-137943220D01*
X452890000Y-137943220D02*
X450650000Y-137943220D01*
X450650000Y-137943220D02*
X450650000Y-142183220D01*
X451770000Y-142833220D02*
X451770000Y-142183220D01*
X451770000Y-137293220D02*
X451770000Y-137943220D01*
X450650000Y-141463220D02*
X452890000Y-141463220D01*
X450650000Y-141343220D02*
X452890000Y-141343220D01*
X450650000Y-141583220D02*
X452890000Y-141583220D01*
X211520000Y-64180000D02*
X213760000Y-64180000D01*
X211520000Y-63940000D02*
X213760000Y-63940000D01*
X211520000Y-64060000D02*
X213760000Y-64060000D01*
X212640000Y-59890000D02*
X212640000Y-60540000D01*
X212640000Y-65430000D02*
X212640000Y-64780000D01*
X211520000Y-60540000D02*
X211520000Y-64780000D01*
X213760000Y-60540000D02*
X211520000Y-60540000D01*
X213760000Y-64780000D02*
X213760000Y-60540000D01*
X211520000Y-64780000D02*
X213760000Y-64780000D01*
X202372856Y-84460000D02*
X204612856Y-84460000D01*
X202372856Y-84220000D02*
X204612856Y-84220000D01*
X202372856Y-84340000D02*
X204612856Y-84340000D01*
X203492856Y-80170000D02*
X203492856Y-80820000D01*
X203492856Y-85710000D02*
X203492856Y-85060000D01*
X202372856Y-80820000D02*
X202372856Y-85060000D01*
X204612856Y-80820000D02*
X202372856Y-80820000D01*
X204612856Y-85060000D02*
X204612856Y-80820000D01*
X202372856Y-85060000D02*
X204612856Y-85060000D01*
X173668180Y-104090000D02*
X175908180Y-104090000D01*
X175908180Y-104090000D02*
X175908180Y-99850000D01*
X175908180Y-99850000D02*
X173668180Y-99850000D01*
X173668180Y-99850000D02*
X173668180Y-104090000D01*
X174788180Y-104740000D02*
X174788180Y-104090000D01*
X174788180Y-99200000D02*
X174788180Y-99850000D01*
X173668180Y-103370000D02*
X175908180Y-103370000D01*
X173668180Y-103250000D02*
X175908180Y-103250000D01*
X173668180Y-103490000D02*
X175908180Y-103490000D01*
X159483332Y-122530000D02*
X161723332Y-122530000D01*
X159483332Y-122290000D02*
X161723332Y-122290000D01*
X159483332Y-122410000D02*
X161723332Y-122410000D01*
X160603332Y-118240000D02*
X160603332Y-118890000D01*
X160603332Y-123780000D02*
X160603332Y-123130000D01*
X159483332Y-118890000D02*
X159483332Y-123130000D01*
X161723332Y-118890000D02*
X159483332Y-118890000D01*
X161723332Y-123130000D02*
X161723332Y-118890000D01*
X159483332Y-123130000D02*
X161723332Y-123130000D01*
X169465000Y-141580000D02*
X171705000Y-141580000D01*
X169465000Y-141340000D02*
X171705000Y-141340000D01*
X169465000Y-141460000D02*
X171705000Y-141460000D01*
X170585000Y-137290000D02*
X170585000Y-137940000D01*
X170585000Y-142830000D02*
X170585000Y-142180000D01*
X169465000Y-137940000D02*
X169465000Y-142180000D01*
X171705000Y-137940000D02*
X169465000Y-137940000D01*
X171705000Y-142180000D02*
X171705000Y-137940000D01*
X169465000Y-142180000D02*
X171705000Y-142180000D01*
X345610000Y-64780000D02*
X347850000Y-64780000D01*
X347850000Y-64780000D02*
X347850000Y-60540000D01*
X347850000Y-60540000D02*
X345610000Y-60540000D01*
X345610000Y-60540000D02*
X345610000Y-64780000D01*
X346730000Y-65430000D02*
X346730000Y-64780000D01*
X346730000Y-59890000D02*
X346730000Y-60540000D01*
X345610000Y-64060000D02*
X347850000Y-64060000D01*
X345610000Y-63940000D02*
X347850000Y-63940000D01*
X345610000Y-64180000D02*
X347850000Y-64180000D01*
X431610000Y-84460000D02*
X433850000Y-84460000D01*
X431610000Y-84220000D02*
X433850000Y-84220000D01*
X431610000Y-84340000D02*
X433850000Y-84340000D01*
X432730000Y-80170000D02*
X432730000Y-80820000D01*
X432730000Y-85710000D02*
X432730000Y-85060000D01*
X431610000Y-80820000D02*
X431610000Y-85060000D01*
X433850000Y-80820000D02*
X431610000Y-80820000D01*
X433850000Y-85060000D02*
X433850000Y-80820000D01*
X431610000Y-85060000D02*
X433850000Y-85060000D01*
X462098200Y-141970000D02*
X462098200Y-139730000D01*
X461858200Y-141970000D02*
X461858200Y-139730000D01*
X461978200Y-141970000D02*
X461978200Y-139730000D01*
X457808200Y-140850000D02*
X458458200Y-140850000D01*
X463348200Y-140850000D02*
X462698200Y-140850000D01*
X458458200Y-141970000D02*
X462698200Y-141970000D01*
X458458200Y-139730000D02*
X458458200Y-141970000D01*
X462698200Y-139730000D02*
X458458200Y-139730000D01*
X462698200Y-141970000D02*
X462698200Y-139730000D01*
X240390000Y-64180000D02*
X242630000Y-64180000D01*
X240390000Y-63940000D02*
X242630000Y-63940000D01*
X240390000Y-64060000D02*
X242630000Y-64060000D01*
X241510000Y-59890000D02*
X241510000Y-60540000D01*
X241510000Y-65430000D02*
X241510000Y-64780000D01*
X240390000Y-60540000D02*
X240390000Y-64780000D01*
X242630000Y-60540000D02*
X240390000Y-60540000D01*
X242630000Y-64780000D02*
X242630000Y-60540000D01*
X240390000Y-64780000D02*
X242630000Y-64780000D01*
X221390713Y-85060000D02*
X223630713Y-85060000D01*
X223630713Y-85060000D02*
X223630713Y-80820000D01*
X223630713Y-80820000D02*
X221390713Y-80820000D01*
X221390713Y-80820000D02*
X221390713Y-85060000D01*
X222510713Y-85710000D02*
X222510713Y-85060000D01*
X222510713Y-80170000D02*
X222510713Y-80820000D01*
X221390713Y-84340000D02*
X223630713Y-84340000D01*
X221390713Y-84220000D02*
X223630713Y-84220000D01*
X221390713Y-84460000D02*
X223630713Y-84460000D01*
X192691816Y-103490000D02*
X194931816Y-103490000D01*
X192691816Y-103250000D02*
X194931816Y-103250000D01*
X192691816Y-103370000D02*
X194931816Y-103370000D01*
X193811816Y-99200000D02*
X193811816Y-99850000D01*
X193811816Y-104740000D02*
X193811816Y-104090000D01*
X192691816Y-99850000D02*
X192691816Y-104090000D01*
X194931816Y-99850000D02*
X192691816Y-99850000D01*
X194931816Y-104090000D02*
X194931816Y-99850000D01*
X192691816Y-104090000D02*
X194931816Y-104090000D01*
X178506665Y-123130000D02*
X180746665Y-123130000D01*
X180746665Y-123130000D02*
X180746665Y-118890000D01*
X180746665Y-118890000D02*
X178506665Y-118890000D01*
X178506665Y-118890000D02*
X178506665Y-123130000D01*
X179626665Y-123780000D02*
X179626665Y-123130000D01*
X179626665Y-118240000D02*
X179626665Y-118890000D01*
X178506665Y-122410000D02*
X180746665Y-122410000D01*
X178506665Y-122290000D02*
X180746665Y-122290000D01*
X178506665Y-122530000D02*
X180746665Y-122530000D01*
X188512000Y-142180000D02*
X190752000Y-142180000D01*
X190752000Y-142180000D02*
X190752000Y-137940000D01*
X190752000Y-137940000D02*
X188512000Y-137940000D01*
X188512000Y-137940000D02*
X188512000Y-142180000D01*
X189632000Y-142830000D02*
X189632000Y-142180000D01*
X189632000Y-137290000D02*
X189632000Y-137940000D01*
X188512000Y-141460000D02*
X190752000Y-141460000D01*
X188512000Y-141340000D02*
X190752000Y-141340000D01*
X188512000Y-141580000D02*
X190752000Y-141580000D01*
X364660000Y-64780000D02*
X366900000Y-64780000D01*
X366900000Y-64780000D02*
X366900000Y-60540000D01*
X366900000Y-60540000D02*
X364660000Y-60540000D01*
X364660000Y-60540000D02*
X364660000Y-64780000D01*
X365780000Y-65430000D02*
X365780000Y-64780000D01*
X365780000Y-59890000D02*
X365780000Y-60540000D01*
X364660000Y-64060000D02*
X366900000Y-64060000D01*
X364660000Y-63940000D02*
X366900000Y-63940000D01*
X364660000Y-64180000D02*
X366900000Y-64180000D01*
X450630000Y-85060000D02*
X452870000Y-85060000D01*
X452870000Y-85060000D02*
X452870000Y-80820000D01*
X452870000Y-80820000D02*
X450630000Y-80820000D01*
X450630000Y-80820000D02*
X450630000Y-85060000D01*
X451750000Y-85710000D02*
X451750000Y-85060000D01*
X451750000Y-80170000D02*
X451750000Y-80820000D01*
X450630000Y-84340000D02*
X452870000Y-84340000D01*
X450630000Y-84220000D02*
X452870000Y-84220000D01*
X450630000Y-84460000D02*
X452870000Y-84460000D01*
X421920000Y-157870000D02*
X424160000Y-157870000D01*
X424160000Y-157870000D02*
X424160000Y-153630000D01*
X424160000Y-153630000D02*
X421920000Y-153630000D01*
X421920000Y-153630000D02*
X421920000Y-157870000D01*
X423040000Y-158520000D02*
X423040000Y-157870000D01*
X423040000Y-152980000D02*
X423040000Y-153630000D01*
X421920000Y-157150000D02*
X424160000Y-157150000D01*
X421920000Y-157030000D02*
X424160000Y-157030000D01*
X421920000Y-157270000D02*
X424160000Y-157270000D01*
X259413333Y-64180000D02*
X261653333Y-64180000D01*
X259413333Y-63940000D02*
X261653333Y-63940000D01*
X259413333Y-64060000D02*
X261653333Y-64060000D01*
X260533333Y-59890000D02*
X260533333Y-60540000D01*
X260533333Y-65430000D02*
X260533333Y-64780000D01*
X259413333Y-60540000D02*
X259413333Y-64780000D01*
X261653333Y-60540000D02*
X259413333Y-60540000D01*
X261653333Y-64780000D02*
X261653333Y-60540000D01*
X259413333Y-64780000D02*
X261653333Y-64780000D01*
X240408570Y-85060000D02*
X242648570Y-85060000D01*
X242648570Y-85060000D02*
X242648570Y-80820000D01*
X242648570Y-80820000D02*
X240408570Y-80820000D01*
X240408570Y-80820000D02*
X240408570Y-85060000D01*
X241528570Y-85710000D02*
X241528570Y-85060000D01*
X241528570Y-80170000D02*
X241528570Y-80820000D01*
X240408570Y-84340000D02*
X242648570Y-84340000D01*
X240408570Y-84220000D02*
X242648570Y-84220000D01*
X240408570Y-84460000D02*
X242648570Y-84460000D01*
X211715452Y-103490000D02*
X213955452Y-103490000D01*
X211715452Y-103250000D02*
X213955452Y-103250000D01*
X211715452Y-103370000D02*
X213955452Y-103370000D01*
X212835452Y-99200000D02*
X212835452Y-99850000D01*
X212835452Y-104740000D02*
X212835452Y-104090000D01*
X211715452Y-99850000D02*
X211715452Y-104090000D01*
X213955452Y-99850000D02*
X211715452Y-99850000D01*
X213955452Y-104090000D02*
X213955452Y-99850000D01*
X211715452Y-104090000D02*
X213955452Y-104090000D01*
X197529998Y-122530000D02*
X199769998Y-122530000D01*
X197529998Y-122290000D02*
X199769998Y-122290000D01*
X197529998Y-122410000D02*
X199769998Y-122410000D01*
X198649998Y-118240000D02*
X198649998Y-118890000D01*
X198649998Y-123780000D02*
X198649998Y-123130000D01*
X197529998Y-118890000D02*
X197529998Y-123130000D01*
X199769998Y-118890000D02*
X197529998Y-118890000D01*
X199769998Y-123130000D02*
X199769998Y-118890000D01*
X197529998Y-123130000D02*
X199769998Y-123130000D01*
X207559000Y-141580000D02*
X209799000Y-141580000D01*
X207559000Y-141340000D02*
X209799000Y-141340000D01*
X207559000Y-141460000D02*
X209799000Y-141460000D01*
X208679000Y-137290000D02*
X208679000Y-137940000D01*
X208679000Y-142830000D02*
X208679000Y-142180000D01*
X207559000Y-137940000D02*
X207559000Y-142180000D01*
X209799000Y-137940000D02*
X207559000Y-137940000D01*
X209799000Y-142180000D02*
X209799000Y-137940000D01*
X207559000Y-142180000D02*
X209799000Y-142180000D01*
X345610000Y-84460000D02*
X347850000Y-84460000D01*
X345610000Y-84220000D02*
X347850000Y-84220000D01*
X345610000Y-84340000D02*
X347850000Y-84340000D01*
X346730000Y-80170000D02*
X346730000Y-80820000D01*
X346730000Y-85710000D02*
X346730000Y-85060000D01*
X345610000Y-80820000D02*
X345610000Y-85060000D01*
X347850000Y-80820000D02*
X345610000Y-80820000D01*
X347850000Y-85060000D02*
X347850000Y-80820000D01*
X345610000Y-85060000D02*
X347850000Y-85060000D01*
X458440000Y-92040000D02*
X458440000Y-94280000D01*
X458680000Y-92040000D02*
X458680000Y-94280000D01*
X458560000Y-92040000D02*
X458560000Y-94280000D01*
X462730000Y-93160000D02*
X462080000Y-93160000D01*
X457190000Y-93160000D02*
X457840000Y-93160000D01*
X462080000Y-92040000D02*
X457840000Y-92040000D01*
X462080000Y-94280000D02*
X462080000Y-92040000D01*
X457840000Y-94280000D02*
X462080000Y-94280000D01*
X457840000Y-92040000D02*
X457840000Y-94280000D01*
X450640000Y-157860000D02*
X452880000Y-157860000D01*
X452880000Y-157860000D02*
X452880000Y-153620000D01*
X452880000Y-153620000D02*
X450640000Y-153620000D01*
X450640000Y-153620000D02*
X450640000Y-157860000D01*
X451760000Y-158510000D02*
X451760000Y-157860000D01*
X451760000Y-152970000D02*
X451760000Y-153620000D01*
X450640000Y-157140000D02*
X452880000Y-157140000D01*
X450640000Y-157020000D02*
X452880000Y-157020000D01*
X450640000Y-157260000D02*
X452880000Y-157260000D01*
X278436666Y-64780000D02*
X280676666Y-64780000D01*
X280676666Y-64780000D02*
X280676666Y-60540000D01*
X280676666Y-60540000D02*
X278436666Y-60540000D01*
X278436666Y-60540000D02*
X278436666Y-64780000D01*
X279556666Y-65430000D02*
X279556666Y-64780000D01*
X279556666Y-59890000D02*
X279556666Y-60540000D01*
X278436666Y-64060000D02*
X280676666Y-64060000D01*
X278436666Y-63940000D02*
X280676666Y-63940000D01*
X278436666Y-64180000D02*
X280676666Y-64180000D01*
X259426427Y-85060000D02*
X261666427Y-85060000D01*
X261666427Y-85060000D02*
X261666427Y-80820000D01*
X261666427Y-80820000D02*
X259426427Y-80820000D01*
X259426427Y-80820000D02*
X259426427Y-85060000D01*
X260546427Y-85710000D02*
X260546427Y-85060000D01*
X260546427Y-80170000D02*
X260546427Y-80820000D01*
X259426427Y-84340000D02*
X261666427Y-84340000D01*
X259426427Y-84220000D02*
X261666427Y-84220000D01*
X259426427Y-84460000D02*
X261666427Y-84460000D01*
X230739088Y-104090000D02*
X232979088Y-104090000D01*
X232979088Y-104090000D02*
X232979088Y-99850000D01*
X232979088Y-99850000D02*
X230739088Y-99850000D01*
X230739088Y-99850000D02*
X230739088Y-104090000D01*
X231859088Y-104740000D02*
X231859088Y-104090000D01*
X231859088Y-99200000D02*
X231859088Y-99850000D01*
X230739088Y-103370000D02*
X232979088Y-103370000D01*
X230739088Y-103250000D02*
X232979088Y-103250000D01*
X230739088Y-103490000D02*
X232979088Y-103490000D01*
X216553331Y-123130000D02*
X218793331Y-123130000D01*
X218793331Y-123130000D02*
X218793331Y-118890000D01*
X218793331Y-118890000D02*
X216553331Y-118890000D01*
X216553331Y-118890000D02*
X216553331Y-123130000D01*
X217673331Y-123780000D02*
X217673331Y-123130000D01*
X217673331Y-118240000D02*
X217673331Y-118890000D01*
X216553331Y-122410000D02*
X218793331Y-122410000D01*
X216553331Y-122290000D02*
X218793331Y-122290000D01*
X216553331Y-122530000D02*
X218793331Y-122530000D01*
X226606000Y-142180000D02*
X228846000Y-142180000D01*
X228846000Y-142180000D02*
X228846000Y-137940000D01*
X228846000Y-137940000D02*
X226606000Y-137940000D01*
X226606000Y-137940000D02*
X226606000Y-142180000D01*
X227726000Y-142830000D02*
X227726000Y-142180000D01*
X227726000Y-137290000D02*
X227726000Y-137940000D01*
X226606000Y-141460000D02*
X228846000Y-141460000D01*
X226606000Y-141340000D02*
X228846000Y-141340000D01*
X226606000Y-141580000D02*
X228846000Y-141580000D01*
X364650000Y-85060000D02*
X366890000Y-85060000D01*
X366890000Y-85060000D02*
X366890000Y-80820000D01*
X366890000Y-80820000D02*
X364650000Y-80820000D01*
X364650000Y-80820000D02*
X364650000Y-85060000D01*
X365770000Y-85710000D02*
X365770000Y-85060000D01*
X365770000Y-80170000D02*
X365770000Y-80820000D01*
X364650000Y-84340000D02*
X366890000Y-84340000D01*
X364650000Y-84220000D02*
X366890000Y-84220000D01*
X364650000Y-84460000D02*
X366890000Y-84460000D01*
X412580000Y-104090000D02*
X414820000Y-104090000D01*
X414820000Y-104090000D02*
X414820000Y-99850000D01*
X414820000Y-99850000D02*
X412580000Y-99850000D01*
X412580000Y-99850000D02*
X412580000Y-104090000D01*
X413700000Y-104740000D02*
X413700000Y-104090000D01*
X413700000Y-99200000D02*
X413700000Y-99850000D01*
X412580000Y-103370000D02*
X414820000Y-103370000D01*
X412580000Y-103250000D02*
X414820000Y-103250000D01*
X412580000Y-103490000D02*
X414820000Y-103490000D01*
X297460000Y-64780000D02*
X299700000Y-64780000D01*
X299700000Y-64780000D02*
X299700000Y-60540000D01*
X299700000Y-60540000D02*
X297460000Y-60540000D01*
X297460000Y-60540000D02*
X297460000Y-64780000D01*
X298580000Y-65430000D02*
X298580000Y-64780000D01*
X298580000Y-59890000D02*
X298580000Y-60540000D01*
X297460000Y-64060000D02*
X299700000Y-64060000D01*
X297460000Y-63940000D02*
X299700000Y-63940000D01*
X297460000Y-64180000D02*
X299700000Y-64180000D01*
X278444284Y-84460000D02*
X280684284Y-84460000D01*
X278444284Y-84220000D02*
X280684284Y-84220000D01*
X278444284Y-84340000D02*
X280684284Y-84340000D01*
X279564284Y-80170000D02*
X279564284Y-80820000D01*
X279564284Y-85710000D02*
X279564284Y-85060000D01*
X278444284Y-80820000D02*
X278444284Y-85060000D01*
X280684284Y-80820000D02*
X278444284Y-80820000D01*
X280684284Y-85060000D02*
X280684284Y-80820000D01*
X278444284Y-85060000D02*
X280684284Y-85060000D01*
X249762724Y-104090000D02*
X252002724Y-104090000D01*
X252002724Y-104090000D02*
X252002724Y-99850000D01*
X252002724Y-99850000D02*
X249762724Y-99850000D01*
X249762724Y-99850000D02*
X249762724Y-104090000D01*
X250882724Y-104740000D02*
X250882724Y-104090000D01*
X250882724Y-99200000D02*
X250882724Y-99850000D01*
X249762724Y-103370000D02*
X252002724Y-103370000D01*
X249762724Y-103250000D02*
X252002724Y-103250000D01*
X249762724Y-103490000D02*
X252002724Y-103490000D01*
X235576664Y-122530000D02*
X237816664Y-122530000D01*
X235576664Y-122290000D02*
X237816664Y-122290000D01*
X235576664Y-122410000D02*
X237816664Y-122410000D01*
X236696664Y-118240000D02*
X236696664Y-118890000D01*
X236696664Y-123780000D02*
X236696664Y-123130000D01*
X235576664Y-118890000D02*
X235576664Y-123130000D01*
X237816664Y-118890000D02*
X235576664Y-118890000D01*
X237816664Y-123130000D02*
X237816664Y-118890000D01*
X235576664Y-123130000D02*
X237816664Y-123130000D01*
X245653000Y-142180000D02*
X247893000Y-142180000D01*
X247893000Y-142180000D02*
X247893000Y-137940000D01*
X247893000Y-137940000D02*
X245653000Y-137940000D01*
X245653000Y-137940000D02*
X245653000Y-142180000D01*
X246773000Y-142830000D02*
X246773000Y-142180000D01*
X246773000Y-137290000D02*
X246773000Y-137940000D01*
X245653000Y-141460000D02*
X247893000Y-141460000D01*
X245653000Y-141340000D02*
X247893000Y-141340000D01*
X245653000Y-141580000D02*
X247893000Y-141580000D01*
X383700000Y-84460000D02*
X385940000Y-84460000D01*
X383700000Y-84220000D02*
X385940000Y-84220000D01*
X383700000Y-84340000D02*
X385940000Y-84340000D01*
X384820000Y-80170000D02*
X384820000Y-80820000D01*
X384820000Y-85710000D02*
X384820000Y-85060000D01*
X383700000Y-80820000D02*
X383700000Y-85060000D01*
X385940000Y-80820000D02*
X383700000Y-80820000D01*
X385940000Y-85060000D02*
X385940000Y-80820000D01*
X383700000Y-85060000D02*
X385940000Y-85060000D01*
X431610000Y-104090000D02*
X433850000Y-104090000D01*
X433850000Y-104090000D02*
X433850000Y-99850000D01*
X433850000Y-99850000D02*
X431610000Y-99850000D01*
X431610000Y-99850000D02*
X431610000Y-104090000D01*
X432730000Y-104740000D02*
X432730000Y-104090000D01*
X432730000Y-99200000D02*
X432730000Y-99850000D01*
X431610000Y-103370000D02*
X433850000Y-103370000D01*
X431610000Y-103250000D02*
X433850000Y-103250000D01*
X431610000Y-103490000D02*
X433850000Y-103490000D01*
X400570000Y-58450000D02*
X400780000Y-58450000D01*
X402940000Y-58450000D02*
X403671000Y-58450000D01*
X405130000Y-58450000D02*
X405690000Y-58450000D01*
X400570000Y-60570000D02*
X400780000Y-60570000D01*
X402940000Y-60570000D02*
X403671000Y-60570000D01*
X405130000Y-60570000D02*
X405690000Y-60570000D01*
X400570000Y-58450000D02*
X400570000Y-60570000D01*
X405690000Y-58450000D02*
X405690000Y-60570000D01*
X400690000Y-58450000D02*
X400690000Y-60570000D01*
X423890000Y-58450000D02*
X423890000Y-60570000D01*
X428890000Y-58450000D02*
X428890000Y-60570000D01*
X423770000Y-58450000D02*
X423770000Y-60570000D01*
X428330000Y-60570000D02*
X428890000Y-60570000D01*
X426140000Y-60570000D02*
X426871000Y-60570000D01*
X423770000Y-60570000D02*
X423980000Y-60570000D01*
X428330000Y-58450000D02*
X428890000Y-58450000D01*
X426140000Y-58450000D02*
X426871000Y-58450000D01*
X423770000Y-58450000D02*
X423980000Y-58450000D01*
X446970000Y-58450000D02*
X447180000Y-58450000D01*
X449340000Y-58450000D02*
X450071000Y-58450000D01*
X451530000Y-58450000D02*
X452090000Y-58450000D01*
X446970000Y-60570000D02*
X447180000Y-60570000D01*
X449340000Y-60570000D02*
X450071000Y-60570000D01*
X451530000Y-60570000D02*
X452090000Y-60570000D01*
X446970000Y-58450000D02*
X446970000Y-60570000D01*
X452090000Y-58450000D02*
X452090000Y-60570000D01*
X447090000Y-58450000D02*
X447090000Y-60570000D01*
X368280000Y-112740000D02*
X368280000Y-114070000D01*
X366950000Y-112740000D02*
X368280000Y-112740000D01*
X317420000Y-128040000D02*
X368220000Y-128040000D01*
X317420000Y-130580000D02*
X317420000Y-128040000D01*
X368220000Y-130580000D02*
X317420000Y-130580000D01*
X368220000Y-128040000D02*
X368220000Y-130580000D01*
X317360000Y-112740000D02*
X365680000Y-112740000D01*
X317360000Y-115400000D02*
X317360000Y-112740000D01*
X365680000Y-115400000D02*
X317360000Y-115400000D01*
X365680000Y-112740000D02*
X365680000Y-115400000D01*
X316245000Y-110315000D02*
X369395000Y-110315000D01*
X316245000Y-133065000D02*
X316245000Y-110315000D01*
X369395000Y-133065000D02*
X316245000Y-133065000D01*
X369395000Y-110315000D02*
X369395000Y-133065000D01*
X323831000Y-126832000D02*
X323831000Y-116552000D01*
X321171000Y-116552000D02*
X321171000Y-126832000D01*
X321171000Y-126832000D02*
X323831000Y-126832000D01*
X323831000Y-116552000D02*
X321171000Y-116552000D01*
X402400000Y-66710000D02*
X402400000Y-66380000D01*
X402400000Y-66380000D02*
X408940000Y-66380000D01*
X408940000Y-66380000D02*
X408940000Y-66710000D01*
X402400000Y-68790000D02*
X402400000Y-69120000D01*
X402400000Y-69120000D02*
X408940000Y-69120000D01*
X408940000Y-69120000D02*
X408940000Y-68790000D01*
X432140000Y-69120000D02*
X432140000Y-68790000D01*
X425600000Y-69120000D02*
X432140000Y-69120000D01*
X425600000Y-68790000D02*
X425600000Y-69120000D01*
X432140000Y-66380000D02*
X432140000Y-66710000D01*
X425600000Y-66380000D02*
X432140000Y-66380000D01*
X425600000Y-66710000D02*
X425600000Y-66380000D01*
X448800000Y-66710000D02*
X448800000Y-66380000D01*
X448800000Y-66380000D02*
X455340000Y-66380000D01*
X455340000Y-66380000D02*
X455340000Y-66710000D01*
X448800000Y-68790000D02*
X448800000Y-69120000D01*
X448800000Y-69120000D02*
X455340000Y-69120000D01*
X455340000Y-69120000D02*
X455340000Y-68790000D01*
D11*
X330033825Y-146349320D02*
X330033825Y-144825320D01*
X330033825Y-145551034D02*
X330904682Y-145551034D01*
X330904682Y-146349320D02*
X330904682Y-144825320D01*
X331412682Y-144825320D02*
X331920682Y-146349320D01*
X332428682Y-144825320D01*
X332864111Y-145913892D02*
X333589825Y-145913892D01*
X332718968Y-146349320D02*
X333226968Y-144825320D01*
X333734968Y-146349320D01*
X334678396Y-144825320D02*
X334678396Y-145913892D01*
X334605825Y-146131606D01*
X334460682Y-146276749D01*
X334242968Y-146349320D01*
X334097825Y-146349320D01*
D12*
X46921904Y-69042380D02*
X46921904Y-68042380D01*
X47160000Y-68042380D01*
X47302857Y-68090000D01*
X47398095Y-68185238D01*
X47445714Y-68280476D01*
X47493333Y-68470952D01*
X47493333Y-68613809D01*
X47445714Y-68804285D01*
X47398095Y-68899523D01*
X47302857Y-68994761D01*
X47160000Y-69042380D01*
X46921904Y-69042380D01*
X48445714Y-69042380D02*
X47874285Y-69042380D01*
X48160000Y-69042380D02*
X48160000Y-68042380D01*
X48064761Y-68185238D01*
X47969523Y-68280476D01*
X47874285Y-68328095D01*
X51208095Y-68722380D02*
X51208095Y-67722380D01*
X51779523Y-68722380D02*
X51350952Y-68150952D01*
X51779523Y-67722380D02*
X51208095Y-68293809D01*
X68172380Y-63398095D02*
X67172380Y-63398095D01*
X67172380Y-63160000D01*
X67220000Y-63017142D01*
X67315238Y-62921904D01*
X67410476Y-62874285D01*
X67600952Y-62826666D01*
X67743809Y-62826666D01*
X67934285Y-62874285D01*
X68029523Y-62921904D01*
X68124761Y-63017142D01*
X68172380Y-63160000D01*
X68172380Y-63398095D01*
X67267619Y-62445714D02*
X67220000Y-62398095D01*
X67172380Y-62302857D01*
X67172380Y-62064761D01*
X67220000Y-61969523D01*
X67267619Y-61921904D01*
X67362857Y-61874285D01*
X67458095Y-61874285D01*
X67600952Y-61921904D01*
X68172380Y-62493333D01*
X68172380Y-61874285D01*
X68492380Y-66731904D02*
X67492380Y-66731904D01*
X68492380Y-66160476D02*
X67920952Y-66589047D01*
X67492380Y-66160476D02*
X68063809Y-66731904D01*
X87195713Y-63398095D02*
X86195713Y-63398095D01*
X86195713Y-63160000D01*
X86243333Y-63017142D01*
X86338571Y-62921904D01*
X86433809Y-62874285D01*
X86624285Y-62826666D01*
X86767142Y-62826666D01*
X86957618Y-62874285D01*
X87052856Y-62921904D01*
X87148094Y-63017142D01*
X87195713Y-63160000D01*
X87195713Y-63398095D01*
X86195713Y-62493333D02*
X86195713Y-61874285D01*
X86576666Y-62207619D01*
X86576666Y-62064761D01*
X86624285Y-61969523D01*
X86671904Y-61921904D01*
X86767142Y-61874285D01*
X87005237Y-61874285D01*
X87100475Y-61921904D01*
X87148094Y-61969523D01*
X87195713Y-62064761D01*
X87195713Y-62350476D01*
X87148094Y-62445714D01*
X87100475Y-62493333D01*
X87515713Y-66731904D02*
X86515713Y-66731904D01*
X87515713Y-66160476D02*
X86944285Y-66589047D01*
X86515713Y-66160476D02*
X87087142Y-66731904D01*
X106219046Y-63398095D02*
X105219046Y-63398095D01*
X105219046Y-63160000D01*
X105266666Y-63017142D01*
X105361904Y-62921904D01*
X105457142Y-62874285D01*
X105647618Y-62826666D01*
X105790475Y-62826666D01*
X105980951Y-62874285D01*
X106076189Y-62921904D01*
X106171427Y-63017142D01*
X106219046Y-63160000D01*
X106219046Y-63398095D01*
X105552380Y-61969523D02*
X106219046Y-61969523D01*
X105171427Y-62207619D02*
X105885713Y-62445714D01*
X105885713Y-61826666D01*
X106539046Y-66731904D02*
X105539046Y-66731904D01*
X106539046Y-66160476D02*
X105967618Y-66589047D01*
X105539046Y-66160476D02*
X106110475Y-66731904D01*
X125242380Y-63398095D02*
X124242380Y-63398095D01*
X124242380Y-63160000D01*
X124290000Y-63017142D01*
X124385238Y-62921904D01*
X124480476Y-62874285D01*
X124670952Y-62826666D01*
X124813809Y-62826666D01*
X125004285Y-62874285D01*
X125099523Y-62921904D01*
X125194761Y-63017142D01*
X125242380Y-63160000D01*
X125242380Y-63398095D01*
X124242380Y-61921904D02*
X124242380Y-62398095D01*
X124718571Y-62445714D01*
X124670952Y-62398095D01*
X124623333Y-62302857D01*
X124623333Y-62064761D01*
X124670952Y-61969523D01*
X124718571Y-61921904D01*
X124813809Y-61874285D01*
X125051904Y-61874285D01*
X125147142Y-61921904D01*
X125194761Y-61969523D01*
X125242380Y-62064761D01*
X125242380Y-62302857D01*
X125194761Y-62398095D01*
X125147142Y-62445714D01*
X125562380Y-66731904D02*
X124562380Y-66731904D01*
X125562380Y-66160476D02*
X124990952Y-66589047D01*
X124562380Y-66160476D02*
X125133809Y-66731904D01*
X49682380Y-83678095D02*
X48682380Y-83678095D01*
X48682380Y-83440000D01*
X48730000Y-83297142D01*
X48825238Y-83201904D01*
X48920476Y-83154285D01*
X49110952Y-83106666D01*
X49253809Y-83106666D01*
X49444285Y-83154285D01*
X49539523Y-83201904D01*
X49634761Y-83297142D01*
X49682380Y-83440000D01*
X49682380Y-83678095D01*
X48682380Y-82249523D02*
X48682380Y-82440000D01*
X48730000Y-82535238D01*
X48777619Y-82582857D01*
X48920476Y-82678095D01*
X49110952Y-82725714D01*
X49491904Y-82725714D01*
X49587142Y-82678095D01*
X49634761Y-82630476D01*
X49682380Y-82535238D01*
X49682380Y-82344761D01*
X49634761Y-82249523D01*
X49587142Y-82201904D01*
X49491904Y-82154285D01*
X49253809Y-82154285D01*
X49158571Y-82201904D01*
X49110952Y-82249523D01*
X49063333Y-82344761D01*
X49063333Y-82535238D01*
X49110952Y-82630476D01*
X49158571Y-82678095D01*
X49253809Y-82725714D01*
X50002380Y-87011904D02*
X49002380Y-87011904D01*
X50002380Y-86440476D02*
X49430952Y-86869047D01*
X49002380Y-86440476D02*
X49573809Y-87011904D01*
X296914521Y-83678095D02*
X295914521Y-83678095D01*
X295914521Y-83440000D01*
X295962141Y-83297142D01*
X296057379Y-83201904D01*
X296152617Y-83154285D01*
X296343093Y-83106666D01*
X296485950Y-83106666D01*
X296676426Y-83154285D01*
X296771664Y-83201904D01*
X296866902Y-83297142D01*
X296914521Y-83440000D01*
X296914521Y-83678095D01*
X295914521Y-82773333D02*
X295914521Y-82106666D01*
X296914521Y-82535238D01*
X297234521Y-87011904D02*
X296234521Y-87011904D01*
X297234521Y-86440476D02*
X296663093Y-86869047D01*
X296234521Y-86440476D02*
X296805950Y-87011904D01*
X268238740Y-102708095D02*
X267238740Y-102708095D01*
X267238740Y-102470000D01*
X267286360Y-102327142D01*
X267381598Y-102231904D01*
X267476836Y-102184285D01*
X267667312Y-102136666D01*
X267810169Y-102136666D01*
X268000645Y-102184285D01*
X268095883Y-102231904D01*
X268191121Y-102327142D01*
X268238740Y-102470000D01*
X268238740Y-102708095D01*
X267667312Y-101565238D02*
X267619693Y-101660476D01*
X267572074Y-101708095D01*
X267476836Y-101755714D01*
X267429217Y-101755714D01*
X267333979Y-101708095D01*
X267286360Y-101660476D01*
X267238740Y-101565238D01*
X267238740Y-101374761D01*
X267286360Y-101279523D01*
X267333979Y-101231904D01*
X267429217Y-101184285D01*
X267476836Y-101184285D01*
X267572074Y-101231904D01*
X267619693Y-101279523D01*
X267667312Y-101374761D01*
X267667312Y-101565238D01*
X267714931Y-101660476D01*
X267762550Y-101708095D01*
X267857788Y-101755714D01*
X268048264Y-101755714D01*
X268143502Y-101708095D01*
X268191121Y-101660476D01*
X268238740Y-101565238D01*
X268238740Y-101374761D01*
X268191121Y-101279523D01*
X268143502Y-101231904D01*
X268048264Y-101184285D01*
X267857788Y-101184285D01*
X267762550Y-101231904D01*
X267714931Y-101279523D01*
X267667312Y-101374761D01*
X268558740Y-106041904D02*
X267558740Y-106041904D01*
X268558740Y-105470476D02*
X267987312Y-105899047D01*
X267558740Y-105470476D02*
X268130169Y-106041904D01*
X254052380Y-121748095D02*
X253052380Y-121748095D01*
X253052380Y-121510000D01*
X253100000Y-121367142D01*
X253195238Y-121271904D01*
X253290476Y-121224285D01*
X253480952Y-121176666D01*
X253623809Y-121176666D01*
X253814285Y-121224285D01*
X253909523Y-121271904D01*
X254004761Y-121367142D01*
X254052380Y-121510000D01*
X254052380Y-121748095D01*
X254052380Y-120700476D02*
X254052380Y-120510000D01*
X254004761Y-120414761D01*
X253957142Y-120367142D01*
X253814285Y-120271904D01*
X253623809Y-120224285D01*
X253242857Y-120224285D01*
X253147619Y-120271904D01*
X253100000Y-120319523D01*
X253052380Y-120414761D01*
X253052380Y-120605238D01*
X253100000Y-120700476D01*
X253147619Y-120748095D01*
X253242857Y-120795714D01*
X253480952Y-120795714D01*
X253576190Y-120748095D01*
X253623809Y-120700476D01*
X253671428Y-120605238D01*
X253671428Y-120414761D01*
X253623809Y-120319523D01*
X253576190Y-120271904D01*
X253480952Y-120224285D01*
X254372380Y-125081904D02*
X253372380Y-125081904D01*
X254372380Y-124510476D02*
X253800952Y-124939047D01*
X253372380Y-124510476D02*
X253943809Y-125081904D01*
X264152380Y-141274285D02*
X263152380Y-141274285D01*
X263152380Y-141036190D01*
X263200000Y-140893333D01*
X263295238Y-140798095D01*
X263390476Y-140750476D01*
X263580952Y-140702857D01*
X263723809Y-140702857D01*
X263914285Y-140750476D01*
X264009523Y-140798095D01*
X264104761Y-140893333D01*
X264152380Y-141036190D01*
X264152380Y-141274285D01*
X264152380Y-139750476D02*
X264152380Y-140321904D01*
X264152380Y-140036190D02*
X263152380Y-140036190D01*
X263295238Y-140131428D01*
X263390476Y-140226666D01*
X263438095Y-140321904D01*
X263152380Y-139131428D02*
X263152380Y-139036190D01*
X263200000Y-138940952D01*
X263247619Y-138893333D01*
X263342857Y-138845714D01*
X263533333Y-138798095D01*
X263771428Y-138798095D01*
X263961904Y-138845714D01*
X264057142Y-138893333D01*
X264104761Y-138940952D01*
X264152380Y-139036190D01*
X264152380Y-139131428D01*
X264104761Y-139226666D01*
X264057142Y-139274285D01*
X263961904Y-139321904D01*
X263771428Y-139369523D01*
X263533333Y-139369523D01*
X263342857Y-139321904D01*
X263247619Y-139274285D01*
X263200000Y-139226666D01*
X263152380Y-139131428D01*
X264472380Y-144131904D02*
X263472380Y-144131904D01*
X264472380Y-143560476D02*
X263900952Y-143989047D01*
X263472380Y-143560476D02*
X264043809Y-144131904D01*
X345052380Y-103184285D02*
X344052380Y-103184285D01*
X344052380Y-102946190D01*
X344100000Y-102803333D01*
X344195238Y-102708095D01*
X344290476Y-102660476D01*
X344480952Y-102612857D01*
X344623809Y-102612857D01*
X344814285Y-102660476D01*
X344909523Y-102708095D01*
X345004761Y-102803333D01*
X345052380Y-102946190D01*
X345052380Y-103184285D01*
X345052380Y-101660476D02*
X345052380Y-102231904D01*
X345052380Y-101946190D02*
X344052380Y-101946190D01*
X344195238Y-102041428D01*
X344290476Y-102136666D01*
X344338095Y-102231904D01*
X345052380Y-100708095D02*
X345052380Y-101279523D01*
X345052380Y-100993809D02*
X344052380Y-100993809D01*
X344195238Y-101089047D01*
X344290476Y-101184285D01*
X344338095Y-101279523D01*
X345372380Y-106041904D02*
X344372380Y-106041904D01*
X345372380Y-105470476D02*
X344800952Y-105899047D01*
X344372380Y-105470476D02*
X344943809Y-106041904D01*
X450082380Y-103184285D02*
X449082380Y-103184285D01*
X449082380Y-102946190D01*
X449130000Y-102803333D01*
X449225238Y-102708095D01*
X449320476Y-102660476D01*
X449510952Y-102612857D01*
X449653809Y-102612857D01*
X449844285Y-102660476D01*
X449939523Y-102708095D01*
X450034761Y-102803333D01*
X450082380Y-102946190D01*
X450082380Y-103184285D01*
X450082380Y-101660476D02*
X450082380Y-102231904D01*
X450082380Y-101946190D02*
X449082380Y-101946190D01*
X449225238Y-102041428D01*
X449320476Y-102136666D01*
X449368095Y-102231904D01*
X449177619Y-101279523D02*
X449130000Y-101231904D01*
X449082380Y-101136666D01*
X449082380Y-100898571D01*
X449130000Y-100803333D01*
X449177619Y-100755714D01*
X449272857Y-100708095D01*
X449368095Y-100708095D01*
X449510952Y-100755714D01*
X450082380Y-101327142D01*
X450082380Y-100708095D01*
X450402380Y-106041904D02*
X449402380Y-106041904D01*
X450402380Y-105470476D02*
X449830952Y-105899047D01*
X449402380Y-105470476D02*
X449973809Y-106041904D01*
X68700237Y-84154285D02*
X67700237Y-84154285D01*
X67700237Y-83916190D01*
X67747857Y-83773333D01*
X67843095Y-83678095D01*
X67938333Y-83630476D01*
X68128809Y-83582857D01*
X68271666Y-83582857D01*
X68462142Y-83630476D01*
X68557380Y-83678095D01*
X68652618Y-83773333D01*
X68700237Y-83916190D01*
X68700237Y-84154285D01*
X68700237Y-82630476D02*
X68700237Y-83201904D01*
X68700237Y-82916190D02*
X67700237Y-82916190D01*
X67843095Y-83011428D01*
X67938333Y-83106666D01*
X67985952Y-83201904D01*
X67700237Y-82297142D02*
X67700237Y-81678095D01*
X68081190Y-82011428D01*
X68081190Y-81868571D01*
X68128809Y-81773333D01*
X68176428Y-81725714D01*
X68271666Y-81678095D01*
X68509761Y-81678095D01*
X68604999Y-81725714D01*
X68652618Y-81773333D01*
X68700237Y-81868571D01*
X68700237Y-82154285D01*
X68652618Y-82249523D01*
X68604999Y-82297142D01*
X69020237Y-87011904D02*
X68020237Y-87011904D01*
X69020237Y-86440476D02*
X68448809Y-86869047D01*
X68020237Y-86440476D02*
X68591666Y-87011904D01*
X315932380Y-84154285D02*
X314932380Y-84154285D01*
X314932380Y-83916190D01*
X314980000Y-83773333D01*
X315075238Y-83678095D01*
X315170476Y-83630476D01*
X315360952Y-83582857D01*
X315503809Y-83582857D01*
X315694285Y-83630476D01*
X315789523Y-83678095D01*
X315884761Y-83773333D01*
X315932380Y-83916190D01*
X315932380Y-84154285D01*
X315932380Y-82630476D02*
X315932380Y-83201904D01*
X315932380Y-82916190D02*
X314932380Y-82916190D01*
X315075238Y-83011428D01*
X315170476Y-83106666D01*
X315218095Y-83201904D01*
X315265714Y-81773333D02*
X315932380Y-81773333D01*
X314884761Y-82011428D02*
X315599047Y-82249523D01*
X315599047Y-81630476D01*
X316252380Y-87011904D02*
X315252380Y-87011904D01*
X316252380Y-86440476D02*
X315680952Y-86869047D01*
X315252380Y-86440476D02*
X315823809Y-87011904D01*
X287262380Y-103184285D02*
X286262380Y-103184285D01*
X286262380Y-102946190D01*
X286310000Y-102803333D01*
X286405238Y-102708095D01*
X286500476Y-102660476D01*
X286690952Y-102612857D01*
X286833809Y-102612857D01*
X287024285Y-102660476D01*
X287119523Y-102708095D01*
X287214761Y-102803333D01*
X287262380Y-102946190D01*
X287262380Y-103184285D01*
X287262380Y-101660476D02*
X287262380Y-102231904D01*
X287262380Y-101946190D02*
X286262380Y-101946190D01*
X286405238Y-102041428D01*
X286500476Y-102136666D01*
X286548095Y-102231904D01*
X286262380Y-100755714D02*
X286262380Y-101231904D01*
X286738571Y-101279523D01*
X286690952Y-101231904D01*
X286643333Y-101136666D01*
X286643333Y-100898571D01*
X286690952Y-100803333D01*
X286738571Y-100755714D01*
X286833809Y-100708095D01*
X287071904Y-100708095D01*
X287167142Y-100755714D01*
X287214761Y-100803333D01*
X287262380Y-100898571D01*
X287262380Y-101136666D01*
X287214761Y-101231904D01*
X287167142Y-101279523D01*
X287582380Y-106041904D02*
X286582380Y-106041904D01*
X287582380Y-105470476D02*
X287010952Y-105899047D01*
X286582380Y-105470476D02*
X287153809Y-106041904D01*
X273092380Y-122224285D02*
X272092380Y-122224285D01*
X272092380Y-121986190D01*
X272140000Y-121843333D01*
X272235238Y-121748095D01*
X272330476Y-121700476D01*
X272520952Y-121652857D01*
X272663809Y-121652857D01*
X272854285Y-121700476D01*
X272949523Y-121748095D01*
X273044761Y-121843333D01*
X273092380Y-121986190D01*
X273092380Y-122224285D01*
X273092380Y-120700476D02*
X273092380Y-121271904D01*
X273092380Y-120986190D02*
X272092380Y-120986190D01*
X272235238Y-121081428D01*
X272330476Y-121176666D01*
X272378095Y-121271904D01*
X272092380Y-119843333D02*
X272092380Y-120033809D01*
X272140000Y-120129047D01*
X272187619Y-120176666D01*
X272330476Y-120271904D01*
X272520952Y-120319523D01*
X272901904Y-120319523D01*
X272997142Y-120271904D01*
X273044761Y-120224285D01*
X273092380Y-120129047D01*
X273092380Y-119938571D01*
X273044761Y-119843333D01*
X272997142Y-119795714D01*
X272901904Y-119748095D01*
X272663809Y-119748095D01*
X272568571Y-119795714D01*
X272520952Y-119843333D01*
X272473333Y-119938571D01*
X272473333Y-120129047D01*
X272520952Y-120224285D01*
X272568571Y-120271904D01*
X272663809Y-120319523D01*
X273412380Y-125081904D02*
X272412380Y-125081904D01*
X273412380Y-124510476D02*
X272840952Y-124939047D01*
X272412380Y-124510476D02*
X272983809Y-125081904D01*
X299682380Y-141274285D02*
X298682380Y-141274285D01*
X298682380Y-141036190D01*
X298730000Y-140893333D01*
X298825238Y-140798095D01*
X298920476Y-140750476D01*
X299110952Y-140702857D01*
X299253809Y-140702857D01*
X299444285Y-140750476D01*
X299539523Y-140798095D01*
X299634761Y-140893333D01*
X299682380Y-141036190D01*
X299682380Y-141274285D01*
X299682380Y-139750476D02*
X299682380Y-140321904D01*
X299682380Y-140036190D02*
X298682380Y-140036190D01*
X298825238Y-140131428D01*
X298920476Y-140226666D01*
X298968095Y-140321904D01*
X298682380Y-139417142D02*
X298682380Y-138750476D01*
X299682380Y-139179047D01*
X300002380Y-144131904D02*
X299002380Y-144131904D01*
X300002380Y-143560476D02*
X299430952Y-143989047D01*
X299002380Y-143560476D02*
X299573809Y-144131904D01*
X364102380Y-103184285D02*
X363102380Y-103184285D01*
X363102380Y-102946190D01*
X363150000Y-102803333D01*
X363245238Y-102708095D01*
X363340476Y-102660476D01*
X363530952Y-102612857D01*
X363673809Y-102612857D01*
X363864285Y-102660476D01*
X363959523Y-102708095D01*
X364054761Y-102803333D01*
X364102380Y-102946190D01*
X364102380Y-103184285D01*
X364102380Y-101660476D02*
X364102380Y-102231904D01*
X364102380Y-101946190D02*
X363102380Y-101946190D01*
X363245238Y-102041428D01*
X363340476Y-102136666D01*
X363388095Y-102231904D01*
X363530952Y-101089047D02*
X363483333Y-101184285D01*
X363435714Y-101231904D01*
X363340476Y-101279523D01*
X363292857Y-101279523D01*
X363197619Y-101231904D01*
X363150000Y-101184285D01*
X363102380Y-101089047D01*
X363102380Y-100898571D01*
X363150000Y-100803333D01*
X363197619Y-100755714D01*
X363292857Y-100708095D01*
X363340476Y-100708095D01*
X363435714Y-100755714D01*
X363483333Y-100803333D01*
X363530952Y-100898571D01*
X363530952Y-101089047D01*
X363578571Y-101184285D01*
X363626190Y-101231904D01*
X363721428Y-101279523D01*
X363911904Y-101279523D01*
X364007142Y-101231904D01*
X364054761Y-101184285D01*
X364102380Y-101089047D01*
X364102380Y-100898571D01*
X364054761Y-100803333D01*
X364007142Y-100755714D01*
X363911904Y-100708095D01*
X363721428Y-100708095D01*
X363626190Y-100755714D01*
X363578571Y-100803333D01*
X363530952Y-100898571D01*
X364422380Y-106041904D02*
X363422380Y-106041904D01*
X364422380Y-105470476D02*
X363850952Y-105899047D01*
X363422380Y-105470476D02*
X363993809Y-106041904D01*
X459365714Y-105412380D02*
X459365714Y-104412380D01*
X459603809Y-104412380D01*
X459746666Y-104460000D01*
X459841904Y-104555238D01*
X459889523Y-104650476D01*
X459937142Y-104840952D01*
X459937142Y-104983809D01*
X459889523Y-105174285D01*
X459841904Y-105269523D01*
X459746666Y-105364761D01*
X459603809Y-105412380D01*
X459365714Y-105412380D01*
X460889523Y-105412380D02*
X460318095Y-105412380D01*
X460603809Y-105412380D02*
X460603809Y-104412380D01*
X460508571Y-104555238D01*
X460413333Y-104650476D01*
X460318095Y-104698095D01*
X461365714Y-105412380D02*
X461556190Y-105412380D01*
X461651428Y-105364761D01*
X461699047Y-105317142D01*
X461794285Y-105174285D01*
X461841904Y-104983809D01*
X461841904Y-104602857D01*
X461794285Y-104507619D01*
X461746666Y-104460000D01*
X461651428Y-104412380D01*
X461460952Y-104412380D01*
X461365714Y-104460000D01*
X461318095Y-104507619D01*
X461270476Y-104602857D01*
X461270476Y-104840952D01*
X461318095Y-104936190D01*
X461365714Y-104983809D01*
X461460952Y-105031428D01*
X461651428Y-105031428D01*
X461746666Y-104983809D01*
X461794285Y-104936190D01*
X461841904Y-104840952D01*
X464128095Y-105092380D02*
X464128095Y-104092380D01*
X464699523Y-105092380D02*
X464270952Y-104520952D01*
X464699523Y-104092380D02*
X464128095Y-104663809D01*
X87718094Y-84154285D02*
X86718094Y-84154285D01*
X86718094Y-83916190D01*
X86765714Y-83773333D01*
X86860952Y-83678095D01*
X86956190Y-83630476D01*
X87146666Y-83582857D01*
X87289523Y-83582857D01*
X87479999Y-83630476D01*
X87575237Y-83678095D01*
X87670475Y-83773333D01*
X87718094Y-83916190D01*
X87718094Y-84154285D01*
X86813333Y-83201904D02*
X86765714Y-83154285D01*
X86718094Y-83059047D01*
X86718094Y-82820952D01*
X86765714Y-82725714D01*
X86813333Y-82678095D01*
X86908571Y-82630476D01*
X87003809Y-82630476D01*
X87146666Y-82678095D01*
X87718094Y-83249523D01*
X87718094Y-82630476D01*
X86718094Y-82011428D02*
X86718094Y-81916190D01*
X86765714Y-81820952D01*
X86813333Y-81773333D01*
X86908571Y-81725714D01*
X87099047Y-81678095D01*
X87337142Y-81678095D01*
X87527618Y-81725714D01*
X87622856Y-81773333D01*
X87670475Y-81820952D01*
X87718094Y-81916190D01*
X87718094Y-82011428D01*
X87670475Y-82106666D01*
X87622856Y-82154285D01*
X87527618Y-82201904D01*
X87337142Y-82249523D01*
X87099047Y-82249523D01*
X86908571Y-82201904D01*
X86813333Y-82154285D01*
X86765714Y-82106666D01*
X86718094Y-82011428D01*
X88038094Y-87011904D02*
X87038094Y-87011904D01*
X88038094Y-86440476D02*
X87466666Y-86869047D01*
X87038094Y-86440476D02*
X87609523Y-87011904D01*
X54302380Y-103184285D02*
X53302380Y-103184285D01*
X53302380Y-102946190D01*
X53350000Y-102803333D01*
X53445238Y-102708095D01*
X53540476Y-102660476D01*
X53730952Y-102612857D01*
X53873809Y-102612857D01*
X54064285Y-102660476D01*
X54159523Y-102708095D01*
X54254761Y-102803333D01*
X54302380Y-102946190D01*
X54302380Y-103184285D01*
X53397619Y-102231904D02*
X53350000Y-102184285D01*
X53302380Y-102089047D01*
X53302380Y-101850952D01*
X53350000Y-101755714D01*
X53397619Y-101708095D01*
X53492857Y-101660476D01*
X53588095Y-101660476D01*
X53730952Y-101708095D01*
X54302380Y-102279523D01*
X54302380Y-101660476D01*
X54302380Y-100708095D02*
X54302380Y-101279523D01*
X54302380Y-100993809D02*
X53302380Y-100993809D01*
X53445238Y-101089047D01*
X53540476Y-101184285D01*
X53588095Y-101279523D01*
X54622380Y-106041904D02*
X53622380Y-106041904D01*
X54622380Y-105470476D02*
X54050952Y-105899047D01*
X53622380Y-105470476D02*
X54193809Y-106041904D01*
X304002380Y-122224285D02*
X303002380Y-122224285D01*
X303002380Y-121986190D01*
X303050000Y-121843333D01*
X303145238Y-121748095D01*
X303240476Y-121700476D01*
X303430952Y-121652857D01*
X303573809Y-121652857D01*
X303764285Y-121700476D01*
X303859523Y-121748095D01*
X303954761Y-121843333D01*
X304002380Y-121986190D01*
X304002380Y-122224285D01*
X303097619Y-121271904D02*
X303050000Y-121224285D01*
X303002380Y-121129047D01*
X303002380Y-120890952D01*
X303050000Y-120795714D01*
X303097619Y-120748095D01*
X303192857Y-120700476D01*
X303288095Y-120700476D01*
X303430952Y-120748095D01*
X304002380Y-121319523D01*
X304002380Y-120700476D01*
X303097619Y-120319523D02*
X303050000Y-120271904D01*
X303002380Y-120176666D01*
X303002380Y-119938571D01*
X303050000Y-119843333D01*
X303097619Y-119795714D01*
X303192857Y-119748095D01*
X303288095Y-119748095D01*
X303430952Y-119795714D01*
X304002380Y-120367142D01*
X304002380Y-119748095D01*
X304322380Y-125081904D02*
X303322380Y-125081904D01*
X304322380Y-124510476D02*
X303750952Y-124939047D01*
X303322380Y-124510476D02*
X303893809Y-125081904D01*
X52082380Y-141274285D02*
X51082380Y-141274285D01*
X51082380Y-141036190D01*
X51130000Y-140893333D01*
X51225238Y-140798095D01*
X51320476Y-140750476D01*
X51510952Y-140702857D01*
X51653809Y-140702857D01*
X51844285Y-140750476D01*
X51939523Y-140798095D01*
X52034761Y-140893333D01*
X52082380Y-141036190D01*
X52082380Y-141274285D01*
X51177619Y-140321904D02*
X51130000Y-140274285D01*
X51082380Y-140179047D01*
X51082380Y-139940952D01*
X51130000Y-139845714D01*
X51177619Y-139798095D01*
X51272857Y-139750476D01*
X51368095Y-139750476D01*
X51510952Y-139798095D01*
X52082380Y-140369523D01*
X52082380Y-139750476D01*
X51082380Y-139417142D02*
X51082380Y-138798095D01*
X51463333Y-139131428D01*
X51463333Y-138988571D01*
X51510952Y-138893333D01*
X51558571Y-138845714D01*
X51653809Y-138798095D01*
X51891904Y-138798095D01*
X51987142Y-138845714D01*
X52034761Y-138893333D01*
X52082380Y-138988571D01*
X52082380Y-139274285D01*
X52034761Y-139369523D01*
X51987142Y-139417142D01*
X52402380Y-144131904D02*
X51402380Y-144131904D01*
X52402380Y-143560476D02*
X51830952Y-143989047D01*
X51402380Y-143560476D02*
X51973809Y-144131904D01*
X54582380Y-156964285D02*
X53582380Y-156964285D01*
X53582380Y-156726190D01*
X53630000Y-156583333D01*
X53725238Y-156488095D01*
X53820476Y-156440476D01*
X54010952Y-156392857D01*
X54153809Y-156392857D01*
X54344285Y-156440476D01*
X54439523Y-156488095D01*
X54534761Y-156583333D01*
X54582380Y-156726190D01*
X54582380Y-156964285D01*
X53677619Y-156011904D02*
X53630000Y-155964285D01*
X53582380Y-155869047D01*
X53582380Y-155630952D01*
X53630000Y-155535714D01*
X53677619Y-155488095D01*
X53772857Y-155440476D01*
X53868095Y-155440476D01*
X54010952Y-155488095D01*
X54582380Y-156059523D01*
X54582380Y-155440476D01*
X53915714Y-154583333D02*
X54582380Y-154583333D01*
X53534761Y-154821428D02*
X54249047Y-155059523D01*
X54249047Y-154440476D01*
X54902380Y-159821904D02*
X53902380Y-159821904D01*
X54902380Y-159250476D02*
X54330952Y-159679047D01*
X53902380Y-159250476D02*
X54473809Y-159821904D01*
X383162380Y-103184285D02*
X382162380Y-103184285D01*
X382162380Y-102946190D01*
X382210000Y-102803333D01*
X382305238Y-102708095D01*
X382400476Y-102660476D01*
X382590952Y-102612857D01*
X382733809Y-102612857D01*
X382924285Y-102660476D01*
X383019523Y-102708095D01*
X383114761Y-102803333D01*
X383162380Y-102946190D01*
X383162380Y-103184285D01*
X382257619Y-102231904D02*
X382210000Y-102184285D01*
X382162380Y-102089047D01*
X382162380Y-101850952D01*
X382210000Y-101755714D01*
X382257619Y-101708095D01*
X382352857Y-101660476D01*
X382448095Y-101660476D01*
X382590952Y-101708095D01*
X383162380Y-102279523D01*
X383162380Y-101660476D01*
X382162380Y-100755714D02*
X382162380Y-101231904D01*
X382638571Y-101279523D01*
X382590952Y-101231904D01*
X382543333Y-101136666D01*
X382543333Y-100898571D01*
X382590952Y-100803333D01*
X382638571Y-100755714D01*
X382733809Y-100708095D01*
X382971904Y-100708095D01*
X383067142Y-100755714D01*
X383114761Y-100803333D01*
X383162380Y-100898571D01*
X383162380Y-101136666D01*
X383114761Y-101231904D01*
X383067142Y-101279523D01*
X383482380Y-106041904D02*
X382482380Y-106041904D01*
X383482380Y-105470476D02*
X382910952Y-105899047D01*
X382482380Y-105470476D02*
X383053809Y-106041904D01*
X412032380Y-122224285D02*
X411032380Y-122224285D01*
X411032380Y-121986190D01*
X411080000Y-121843333D01*
X411175238Y-121748095D01*
X411270476Y-121700476D01*
X411460952Y-121652857D01*
X411603809Y-121652857D01*
X411794285Y-121700476D01*
X411889523Y-121748095D01*
X411984761Y-121843333D01*
X412032380Y-121986190D01*
X412032380Y-122224285D01*
X411127619Y-121271904D02*
X411080000Y-121224285D01*
X411032380Y-121129047D01*
X411032380Y-120890952D01*
X411080000Y-120795714D01*
X411127619Y-120748095D01*
X411222857Y-120700476D01*
X411318095Y-120700476D01*
X411460952Y-120748095D01*
X412032380Y-121319523D01*
X412032380Y-120700476D01*
X411032380Y-119843333D02*
X411032380Y-120033809D01*
X411080000Y-120129047D01*
X411127619Y-120176666D01*
X411270476Y-120271904D01*
X411460952Y-120319523D01*
X411841904Y-120319523D01*
X411937142Y-120271904D01*
X411984761Y-120224285D01*
X412032380Y-120129047D01*
X412032380Y-119938571D01*
X411984761Y-119843333D01*
X411937142Y-119795714D01*
X411841904Y-119748095D01*
X411603809Y-119748095D01*
X411508571Y-119795714D01*
X411460952Y-119843333D01*
X411413333Y-119938571D01*
X411413333Y-120129047D01*
X411460952Y-120224285D01*
X411508571Y-120271904D01*
X411603809Y-120319523D01*
X412352380Y-125081904D02*
X411352380Y-125081904D01*
X412352380Y-124510476D02*
X411780952Y-124939047D01*
X411352380Y-124510476D02*
X411923809Y-125081904D01*
X106735951Y-84154285D02*
X105735951Y-84154285D01*
X105735951Y-83916190D01*
X105783571Y-83773333D01*
X105878809Y-83678095D01*
X105974047Y-83630476D01*
X106164523Y-83582857D01*
X106307380Y-83582857D01*
X106497856Y-83630476D01*
X106593094Y-83678095D01*
X106688332Y-83773333D01*
X106735951Y-83916190D01*
X106735951Y-84154285D01*
X105831190Y-83201904D02*
X105783571Y-83154285D01*
X105735951Y-83059047D01*
X105735951Y-82820952D01*
X105783571Y-82725714D01*
X105831190Y-82678095D01*
X105926428Y-82630476D01*
X106021666Y-82630476D01*
X106164523Y-82678095D01*
X106735951Y-83249523D01*
X106735951Y-82630476D01*
X105735951Y-82297142D02*
X105735951Y-81630476D01*
X106735951Y-82059047D01*
X107055951Y-87011904D02*
X106055951Y-87011904D01*
X107055951Y-86440476D02*
X106484523Y-86869047D01*
X106055951Y-86440476D02*
X106627380Y-87011904D01*
X78002380Y-103184285D02*
X77002380Y-103184285D01*
X77002380Y-102946190D01*
X77050000Y-102803333D01*
X77145238Y-102708095D01*
X77240476Y-102660476D01*
X77430952Y-102612857D01*
X77573809Y-102612857D01*
X77764285Y-102660476D01*
X77859523Y-102708095D01*
X77954761Y-102803333D01*
X78002380Y-102946190D01*
X78002380Y-103184285D01*
X77097619Y-102231904D02*
X77050000Y-102184285D01*
X77002380Y-102089047D01*
X77002380Y-101850952D01*
X77050000Y-101755714D01*
X77097619Y-101708095D01*
X77192857Y-101660476D01*
X77288095Y-101660476D01*
X77430952Y-101708095D01*
X78002380Y-102279523D01*
X78002380Y-101660476D01*
X77430952Y-101089047D02*
X77383333Y-101184285D01*
X77335714Y-101231904D01*
X77240476Y-101279523D01*
X77192857Y-101279523D01*
X77097619Y-101231904D01*
X77050000Y-101184285D01*
X77002380Y-101089047D01*
X77002380Y-100898571D01*
X77050000Y-100803333D01*
X77097619Y-100755714D01*
X77192857Y-100708095D01*
X77240476Y-100708095D01*
X77335714Y-100755714D01*
X77383333Y-100803333D01*
X77430952Y-100898571D01*
X77430952Y-101089047D01*
X77478571Y-101184285D01*
X77526190Y-101231904D01*
X77621428Y-101279523D01*
X77811904Y-101279523D01*
X77907142Y-101231904D01*
X77954761Y-101184285D01*
X78002380Y-101089047D01*
X78002380Y-100898571D01*
X77954761Y-100803333D01*
X77907142Y-100755714D01*
X77811904Y-100708095D01*
X77621428Y-100708095D01*
X77526190Y-100755714D01*
X77478571Y-100803333D01*
X77430952Y-100898571D01*
X78322380Y-106041904D02*
X77322380Y-106041904D01*
X78322380Y-105470476D02*
X77750952Y-105899047D01*
X77322380Y-105470476D02*
X77893809Y-106041904D01*
X56612380Y-122224285D02*
X55612380Y-122224285D01*
X55612380Y-121986190D01*
X55660000Y-121843333D01*
X55755238Y-121748095D01*
X55850476Y-121700476D01*
X56040952Y-121652857D01*
X56183809Y-121652857D01*
X56374285Y-121700476D01*
X56469523Y-121748095D01*
X56564761Y-121843333D01*
X56612380Y-121986190D01*
X56612380Y-122224285D01*
X55707619Y-121271904D02*
X55660000Y-121224285D01*
X55612380Y-121129047D01*
X55612380Y-120890952D01*
X55660000Y-120795714D01*
X55707619Y-120748095D01*
X55802857Y-120700476D01*
X55898095Y-120700476D01*
X56040952Y-120748095D01*
X56612380Y-121319523D01*
X56612380Y-120700476D01*
X56612380Y-120224285D02*
X56612380Y-120033809D01*
X56564761Y-119938571D01*
X56517142Y-119890952D01*
X56374285Y-119795714D01*
X56183809Y-119748095D01*
X55802857Y-119748095D01*
X55707619Y-119795714D01*
X55660000Y-119843333D01*
X55612380Y-119938571D01*
X55612380Y-120129047D01*
X55660000Y-120224285D01*
X55707619Y-120271904D01*
X55802857Y-120319523D01*
X56040952Y-120319523D01*
X56136190Y-120271904D01*
X56183809Y-120224285D01*
X56231428Y-120129047D01*
X56231428Y-119938571D01*
X56183809Y-119843333D01*
X56136190Y-119795714D01*
X56040952Y-119748095D01*
X56932380Y-125081904D02*
X55932380Y-125081904D01*
X56932380Y-124510476D02*
X56360952Y-124939047D01*
X55932380Y-124510476D02*
X56503809Y-125081904D01*
X73682380Y-141274285D02*
X72682380Y-141274285D01*
X72682380Y-141036190D01*
X72730000Y-140893333D01*
X72825238Y-140798095D01*
X72920476Y-140750476D01*
X73110952Y-140702857D01*
X73253809Y-140702857D01*
X73444285Y-140750476D01*
X73539523Y-140798095D01*
X73634761Y-140893333D01*
X73682380Y-141036190D01*
X73682380Y-141274285D01*
X72682380Y-140369523D02*
X72682380Y-139750476D01*
X73063333Y-140083809D01*
X73063333Y-139940952D01*
X73110952Y-139845714D01*
X73158571Y-139798095D01*
X73253809Y-139750476D01*
X73491904Y-139750476D01*
X73587142Y-139798095D01*
X73634761Y-139845714D01*
X73682380Y-139940952D01*
X73682380Y-140226666D01*
X73634761Y-140321904D01*
X73587142Y-140369523D01*
X72682380Y-139131428D02*
X72682380Y-139036190D01*
X72730000Y-138940952D01*
X72777619Y-138893333D01*
X72872857Y-138845714D01*
X73063333Y-138798095D01*
X73301428Y-138798095D01*
X73491904Y-138845714D01*
X73587142Y-138893333D01*
X73634761Y-138940952D01*
X73682380Y-139036190D01*
X73682380Y-139131428D01*
X73634761Y-139226666D01*
X73587142Y-139274285D01*
X73491904Y-139321904D01*
X73301428Y-139369523D01*
X73063333Y-139369523D01*
X72872857Y-139321904D01*
X72777619Y-139274285D01*
X72730000Y-139226666D01*
X72682380Y-139131428D01*
X74002380Y-144131904D02*
X73002380Y-144131904D01*
X74002380Y-143560476D02*
X73430952Y-143989047D01*
X73002380Y-143560476D02*
X73573809Y-144131904D01*
X102002380Y-156964285D02*
X101002380Y-156964285D01*
X101002380Y-156726190D01*
X101050000Y-156583333D01*
X101145238Y-156488095D01*
X101240476Y-156440476D01*
X101430952Y-156392857D01*
X101573809Y-156392857D01*
X101764285Y-156440476D01*
X101859523Y-156488095D01*
X101954761Y-156583333D01*
X102002380Y-156726190D01*
X102002380Y-156964285D01*
X101002380Y-156059523D02*
X101002380Y-155440476D01*
X101383333Y-155773809D01*
X101383333Y-155630952D01*
X101430952Y-155535714D01*
X101478571Y-155488095D01*
X101573809Y-155440476D01*
X101811904Y-155440476D01*
X101907142Y-155488095D01*
X101954761Y-155535714D01*
X102002380Y-155630952D01*
X102002380Y-155916666D01*
X101954761Y-156011904D01*
X101907142Y-156059523D01*
X102002380Y-154488095D02*
X102002380Y-155059523D01*
X102002380Y-154773809D02*
X101002380Y-154773809D01*
X101145238Y-154869047D01*
X101240476Y-154964285D01*
X101288095Y-155059523D01*
X102322380Y-159821904D02*
X101322380Y-159821904D01*
X102322380Y-159250476D02*
X101750952Y-159679047D01*
X101322380Y-159250476D02*
X101893809Y-159821904D01*
X345062380Y-156964285D02*
X344062380Y-156964285D01*
X344062380Y-156726190D01*
X344110000Y-156583333D01*
X344205238Y-156488095D01*
X344300476Y-156440476D01*
X344490952Y-156392857D01*
X344633809Y-156392857D01*
X344824285Y-156440476D01*
X344919523Y-156488095D01*
X345014761Y-156583333D01*
X345062380Y-156726190D01*
X345062380Y-156964285D01*
X344062380Y-156059523D02*
X344062380Y-155440476D01*
X344443333Y-155773809D01*
X344443333Y-155630952D01*
X344490952Y-155535714D01*
X344538571Y-155488095D01*
X344633809Y-155440476D01*
X344871904Y-155440476D01*
X344967142Y-155488095D01*
X345014761Y-155535714D01*
X345062380Y-155630952D01*
X345062380Y-155916666D01*
X345014761Y-156011904D01*
X344967142Y-156059523D01*
X344157619Y-155059523D02*
X344110000Y-155011904D01*
X344062380Y-154916666D01*
X344062380Y-154678571D01*
X344110000Y-154583333D01*
X344157619Y-154535714D01*
X344252857Y-154488095D01*
X344348095Y-154488095D01*
X344490952Y-154535714D01*
X345062380Y-155107142D01*
X345062380Y-154488095D01*
X345382380Y-159821904D02*
X344382380Y-159821904D01*
X345382380Y-159250476D02*
X344810952Y-159679047D01*
X344382380Y-159250476D02*
X344953809Y-159821904D01*
X431062380Y-122224285D02*
X430062380Y-122224285D01*
X430062380Y-121986190D01*
X430110000Y-121843333D01*
X430205238Y-121748095D01*
X430300476Y-121700476D01*
X430490952Y-121652857D01*
X430633809Y-121652857D01*
X430824285Y-121700476D01*
X430919523Y-121748095D01*
X431014761Y-121843333D01*
X431062380Y-121986190D01*
X431062380Y-122224285D01*
X430062380Y-121319523D02*
X430062380Y-120700476D01*
X430443333Y-121033809D01*
X430443333Y-120890952D01*
X430490952Y-120795714D01*
X430538571Y-120748095D01*
X430633809Y-120700476D01*
X430871904Y-120700476D01*
X430967142Y-120748095D01*
X431014761Y-120795714D01*
X431062380Y-120890952D01*
X431062380Y-121176666D01*
X431014761Y-121271904D01*
X430967142Y-121319523D01*
X430062380Y-120367142D02*
X430062380Y-119748095D01*
X430443333Y-120081428D01*
X430443333Y-119938571D01*
X430490952Y-119843333D01*
X430538571Y-119795714D01*
X430633809Y-119748095D01*
X430871904Y-119748095D01*
X430967142Y-119795714D01*
X431014761Y-119843333D01*
X431062380Y-119938571D01*
X431062380Y-120224285D01*
X431014761Y-120319523D01*
X430967142Y-120367142D01*
X431382380Y-125081904D02*
X430382380Y-125081904D01*
X431382380Y-124510476D02*
X430810952Y-124939047D01*
X430382380Y-124510476D02*
X430953809Y-125081904D01*
X125753808Y-84154285D02*
X124753808Y-84154285D01*
X124753808Y-83916190D01*
X124801428Y-83773333D01*
X124896666Y-83678095D01*
X124991904Y-83630476D01*
X125182380Y-83582857D01*
X125325237Y-83582857D01*
X125515713Y-83630476D01*
X125610951Y-83678095D01*
X125706189Y-83773333D01*
X125753808Y-83916190D01*
X125753808Y-84154285D01*
X124753808Y-83249523D02*
X124753808Y-82630476D01*
X125134761Y-82963809D01*
X125134761Y-82820952D01*
X125182380Y-82725714D01*
X125229999Y-82678095D01*
X125325237Y-82630476D01*
X125563332Y-82630476D01*
X125658570Y-82678095D01*
X125706189Y-82725714D01*
X125753808Y-82820952D01*
X125753808Y-83106666D01*
X125706189Y-83201904D01*
X125658570Y-83249523D01*
X125087142Y-81773333D02*
X125753808Y-81773333D01*
X124706189Y-82011428D02*
X125420475Y-82249523D01*
X125420475Y-81630476D01*
X126073808Y-87011904D02*
X125073808Y-87011904D01*
X126073808Y-86440476D02*
X125502380Y-86869047D01*
X125073808Y-86440476D02*
X125645237Y-87011904D01*
X97026016Y-103184285D02*
X96026016Y-103184285D01*
X96026016Y-102946190D01*
X96073636Y-102803333D01*
X96168874Y-102708095D01*
X96264112Y-102660476D01*
X96454588Y-102612857D01*
X96597445Y-102612857D01*
X96787921Y-102660476D01*
X96883159Y-102708095D01*
X96978397Y-102803333D01*
X97026016Y-102946190D01*
X97026016Y-103184285D01*
X96026016Y-102279523D02*
X96026016Y-101660476D01*
X96406969Y-101993809D01*
X96406969Y-101850952D01*
X96454588Y-101755714D01*
X96502207Y-101708095D01*
X96597445Y-101660476D01*
X96835540Y-101660476D01*
X96930778Y-101708095D01*
X96978397Y-101755714D01*
X97026016Y-101850952D01*
X97026016Y-102136666D01*
X96978397Y-102231904D01*
X96930778Y-102279523D01*
X96026016Y-100755714D02*
X96026016Y-101231904D01*
X96502207Y-101279523D01*
X96454588Y-101231904D01*
X96406969Y-101136666D01*
X96406969Y-100898571D01*
X96454588Y-100803333D01*
X96502207Y-100755714D01*
X96597445Y-100708095D01*
X96835540Y-100708095D01*
X96930778Y-100755714D01*
X96978397Y-100803333D01*
X97026016Y-100898571D01*
X97026016Y-101136666D01*
X96978397Y-101231904D01*
X96930778Y-101279523D01*
X97346016Y-106041904D02*
X96346016Y-106041904D01*
X97346016Y-105470476D02*
X96774588Y-105899047D01*
X96346016Y-105470476D02*
X96917445Y-106041904D01*
X82842380Y-122224285D02*
X81842380Y-122224285D01*
X81842380Y-121986190D01*
X81890000Y-121843333D01*
X81985238Y-121748095D01*
X82080476Y-121700476D01*
X82270952Y-121652857D01*
X82413809Y-121652857D01*
X82604285Y-121700476D01*
X82699523Y-121748095D01*
X82794761Y-121843333D01*
X82842380Y-121986190D01*
X82842380Y-122224285D01*
X81842380Y-121319523D02*
X81842380Y-120700476D01*
X82223333Y-121033809D01*
X82223333Y-120890952D01*
X82270952Y-120795714D01*
X82318571Y-120748095D01*
X82413809Y-120700476D01*
X82651904Y-120700476D01*
X82747142Y-120748095D01*
X82794761Y-120795714D01*
X82842380Y-120890952D01*
X82842380Y-121176666D01*
X82794761Y-121271904D01*
X82747142Y-121319523D01*
X81842380Y-119843333D02*
X81842380Y-120033809D01*
X81890000Y-120129047D01*
X81937619Y-120176666D01*
X82080476Y-120271904D01*
X82270952Y-120319523D01*
X82651904Y-120319523D01*
X82747142Y-120271904D01*
X82794761Y-120224285D01*
X82842380Y-120129047D01*
X82842380Y-119938571D01*
X82794761Y-119843333D01*
X82747142Y-119795714D01*
X82651904Y-119748095D01*
X82413809Y-119748095D01*
X82318571Y-119795714D01*
X82270952Y-119843333D01*
X82223333Y-119938571D01*
X82223333Y-120129047D01*
X82270952Y-120224285D01*
X82318571Y-120271904D01*
X82413809Y-120319523D01*
X83162380Y-125081904D02*
X82162380Y-125081904D01*
X83162380Y-124510476D02*
X82590952Y-124939047D01*
X82162380Y-124510476D02*
X82733809Y-125081904D01*
X92729380Y-141274285D02*
X91729380Y-141274285D01*
X91729380Y-141036190D01*
X91777000Y-140893333D01*
X91872238Y-140798095D01*
X91967476Y-140750476D01*
X92157952Y-140702857D01*
X92300809Y-140702857D01*
X92491285Y-140750476D01*
X92586523Y-140798095D01*
X92681761Y-140893333D01*
X92729380Y-141036190D01*
X92729380Y-141274285D01*
X91729380Y-140369523D02*
X91729380Y-139750476D01*
X92110333Y-140083809D01*
X92110333Y-139940952D01*
X92157952Y-139845714D01*
X92205571Y-139798095D01*
X92300809Y-139750476D01*
X92538904Y-139750476D01*
X92634142Y-139798095D01*
X92681761Y-139845714D01*
X92729380Y-139940952D01*
X92729380Y-140226666D01*
X92681761Y-140321904D01*
X92634142Y-140369523D01*
X91729380Y-139417142D02*
X91729380Y-138750476D01*
X92729380Y-139179047D01*
X93049380Y-144131904D02*
X92049380Y-144131904D01*
X93049380Y-143560476D02*
X92477952Y-143989047D01*
X92049380Y-143560476D02*
X92620809Y-144131904D01*
X182732380Y-156964285D02*
X181732380Y-156964285D01*
X181732380Y-156726190D01*
X181780000Y-156583333D01*
X181875238Y-156488095D01*
X181970476Y-156440476D01*
X182160952Y-156392857D01*
X182303809Y-156392857D01*
X182494285Y-156440476D01*
X182589523Y-156488095D01*
X182684761Y-156583333D01*
X182732380Y-156726190D01*
X182732380Y-156964285D01*
X181732380Y-156059523D02*
X181732380Y-155440476D01*
X182113333Y-155773809D01*
X182113333Y-155630952D01*
X182160952Y-155535714D01*
X182208571Y-155488095D01*
X182303809Y-155440476D01*
X182541904Y-155440476D01*
X182637142Y-155488095D01*
X182684761Y-155535714D01*
X182732380Y-155630952D01*
X182732380Y-155916666D01*
X182684761Y-156011904D01*
X182637142Y-156059523D01*
X182160952Y-154869047D02*
X182113333Y-154964285D01*
X182065714Y-155011904D01*
X181970476Y-155059523D01*
X181922857Y-155059523D01*
X181827619Y-155011904D01*
X181780000Y-154964285D01*
X181732380Y-154869047D01*
X181732380Y-154678571D01*
X181780000Y-154583333D01*
X181827619Y-154535714D01*
X181922857Y-154488095D01*
X181970476Y-154488095D01*
X182065714Y-154535714D01*
X182113333Y-154583333D01*
X182160952Y-154678571D01*
X182160952Y-154869047D01*
X182208571Y-154964285D01*
X182256190Y-155011904D01*
X182351428Y-155059523D01*
X182541904Y-155059523D01*
X182637142Y-155011904D01*
X182684761Y-154964285D01*
X182732380Y-154869047D01*
X182732380Y-154678571D01*
X182684761Y-154583333D01*
X182637142Y-154535714D01*
X182541904Y-154488095D01*
X182351428Y-154488095D01*
X182256190Y-154535714D01*
X182208571Y-154583333D01*
X182160952Y-154678571D01*
X183052380Y-159821904D02*
X182052380Y-159821904D01*
X183052380Y-159250476D02*
X182480952Y-159679047D01*
X182052380Y-159250476D02*
X182623809Y-159821904D01*
X364112380Y-141274285D02*
X363112380Y-141274285D01*
X363112380Y-141036190D01*
X363160000Y-140893333D01*
X363255238Y-140798095D01*
X363350476Y-140750476D01*
X363540952Y-140702857D01*
X363683809Y-140702857D01*
X363874285Y-140750476D01*
X363969523Y-140798095D01*
X364064761Y-140893333D01*
X364112380Y-141036190D01*
X364112380Y-141274285D01*
X363112380Y-140369523D02*
X363112380Y-139750476D01*
X363493333Y-140083809D01*
X363493333Y-139940952D01*
X363540952Y-139845714D01*
X363588571Y-139798095D01*
X363683809Y-139750476D01*
X363921904Y-139750476D01*
X364017142Y-139798095D01*
X364064761Y-139845714D01*
X364112380Y-139940952D01*
X364112380Y-140226666D01*
X364064761Y-140321904D01*
X364017142Y-140369523D01*
X364112380Y-139274285D02*
X364112380Y-139083809D01*
X364064761Y-138988571D01*
X364017142Y-138940952D01*
X363874285Y-138845714D01*
X363683809Y-138798095D01*
X363302857Y-138798095D01*
X363207619Y-138845714D01*
X363160000Y-138893333D01*
X363112380Y-138988571D01*
X363112380Y-139179047D01*
X363160000Y-139274285D01*
X363207619Y-139321904D01*
X363302857Y-139369523D01*
X363540952Y-139369523D01*
X363636190Y-139321904D01*
X363683809Y-139274285D01*
X363731428Y-139179047D01*
X363731428Y-138988571D01*
X363683809Y-138893333D01*
X363636190Y-138845714D01*
X363540952Y-138798095D01*
X364432380Y-144131904D02*
X363432380Y-144131904D01*
X364432380Y-143560476D02*
X363860952Y-143989047D01*
X363432380Y-143560476D02*
X364003809Y-144131904D01*
X450082380Y-122224285D02*
X449082380Y-122224285D01*
X449082380Y-121986190D01*
X449130000Y-121843333D01*
X449225238Y-121748095D01*
X449320476Y-121700476D01*
X449510952Y-121652857D01*
X449653809Y-121652857D01*
X449844285Y-121700476D01*
X449939523Y-121748095D01*
X450034761Y-121843333D01*
X450082380Y-121986190D01*
X450082380Y-122224285D01*
X449415714Y-120795714D02*
X450082380Y-120795714D01*
X449034761Y-121033809D02*
X449749047Y-121271904D01*
X449749047Y-120652857D01*
X449082380Y-120081428D02*
X449082380Y-119986190D01*
X449130000Y-119890952D01*
X449177619Y-119843333D01*
X449272857Y-119795714D01*
X449463333Y-119748095D01*
X449701428Y-119748095D01*
X449891904Y-119795714D01*
X449987142Y-119843333D01*
X450034761Y-119890952D01*
X450082380Y-119986190D01*
X450082380Y-120081428D01*
X450034761Y-120176666D01*
X449987142Y-120224285D01*
X449891904Y-120271904D01*
X449701428Y-120319523D01*
X449463333Y-120319523D01*
X449272857Y-120271904D01*
X449177619Y-120224285D01*
X449130000Y-120176666D01*
X449082380Y-120081428D01*
X450402380Y-125081904D02*
X449402380Y-125081904D01*
X450402380Y-124510476D02*
X449830952Y-124939047D01*
X449402380Y-124510476D02*
X449973809Y-125081904D01*
X153902380Y-63874285D02*
X152902380Y-63874285D01*
X152902380Y-63636190D01*
X152950000Y-63493333D01*
X153045238Y-63398095D01*
X153140476Y-63350476D01*
X153330952Y-63302857D01*
X153473809Y-63302857D01*
X153664285Y-63350476D01*
X153759523Y-63398095D01*
X153854761Y-63493333D01*
X153902380Y-63636190D01*
X153902380Y-63874285D01*
X153235714Y-62445714D02*
X153902380Y-62445714D01*
X152854761Y-62683809D02*
X153569047Y-62921904D01*
X153569047Y-62302857D01*
X153902380Y-61398095D02*
X153902380Y-61969523D01*
X153902380Y-61683809D02*
X152902380Y-61683809D01*
X153045238Y-61779047D01*
X153140476Y-61874285D01*
X153188095Y-61969523D01*
X154222380Y-66731904D02*
X153222380Y-66731904D01*
X154222380Y-66160476D02*
X153650952Y-66589047D01*
X153222380Y-66160476D02*
X153793809Y-66731904D01*
X144771665Y-84154285D02*
X143771665Y-84154285D01*
X143771665Y-83916190D01*
X143819285Y-83773333D01*
X143914523Y-83678095D01*
X144009761Y-83630476D01*
X144200237Y-83582857D01*
X144343094Y-83582857D01*
X144533570Y-83630476D01*
X144628808Y-83678095D01*
X144724046Y-83773333D01*
X144771665Y-83916190D01*
X144771665Y-84154285D01*
X144104999Y-82725714D02*
X144771665Y-82725714D01*
X143724046Y-82963809D02*
X144438332Y-83201904D01*
X144438332Y-82582857D01*
X143866904Y-82249523D02*
X143819285Y-82201904D01*
X143771665Y-82106666D01*
X143771665Y-81868571D01*
X143819285Y-81773333D01*
X143866904Y-81725714D01*
X143962142Y-81678095D01*
X144057380Y-81678095D01*
X144200237Y-81725714D01*
X144771665Y-82297142D01*
X144771665Y-81678095D01*
X145091665Y-87011904D02*
X144091665Y-87011904D01*
X145091665Y-86440476D02*
X144520237Y-86869047D01*
X144091665Y-86440476D02*
X144663094Y-87011904D01*
X116049652Y-103184285D02*
X115049652Y-103184285D01*
X115049652Y-102946190D01*
X115097272Y-102803333D01*
X115192510Y-102708095D01*
X115287748Y-102660476D01*
X115478224Y-102612857D01*
X115621081Y-102612857D01*
X115811557Y-102660476D01*
X115906795Y-102708095D01*
X116002033Y-102803333D01*
X116049652Y-102946190D01*
X116049652Y-103184285D01*
X115382986Y-101755714D02*
X116049652Y-101755714D01*
X115002033Y-101993809D02*
X115716319Y-102231904D01*
X115716319Y-101612857D01*
X115049652Y-101327142D02*
X115049652Y-100708095D01*
X115430605Y-101041428D01*
X115430605Y-100898571D01*
X115478224Y-100803333D01*
X115525843Y-100755714D01*
X115621081Y-100708095D01*
X115859176Y-100708095D01*
X115954414Y-100755714D01*
X116002033Y-100803333D01*
X116049652Y-100898571D01*
X116049652Y-101184285D01*
X116002033Y-101279523D01*
X115954414Y-101327142D01*
X116369652Y-106041904D02*
X115369652Y-106041904D01*
X116369652Y-105470476D02*
X115798224Y-105899047D01*
X115369652Y-105470476D02*
X115941081Y-106041904D01*
X101865713Y-122224285D02*
X100865713Y-122224285D01*
X100865713Y-121986190D01*
X100913333Y-121843333D01*
X101008571Y-121748095D01*
X101103809Y-121700476D01*
X101294285Y-121652857D01*
X101437142Y-121652857D01*
X101627618Y-121700476D01*
X101722856Y-121748095D01*
X101818094Y-121843333D01*
X101865713Y-121986190D01*
X101865713Y-122224285D01*
X101199047Y-120795714D02*
X101865713Y-120795714D01*
X100818094Y-121033809D02*
X101532380Y-121271904D01*
X101532380Y-120652857D01*
X101199047Y-119843333D02*
X101865713Y-119843333D01*
X100818094Y-120081428D02*
X101532380Y-120319523D01*
X101532380Y-119700476D01*
X102185713Y-125081904D02*
X101185713Y-125081904D01*
X102185713Y-124510476D02*
X101614285Y-124939047D01*
X101185713Y-124510476D02*
X101757142Y-125081904D01*
X111776380Y-141274285D02*
X110776380Y-141274285D01*
X110776380Y-141036190D01*
X110824000Y-140893333D01*
X110919238Y-140798095D01*
X111014476Y-140750476D01*
X111204952Y-140702857D01*
X111347809Y-140702857D01*
X111538285Y-140750476D01*
X111633523Y-140798095D01*
X111728761Y-140893333D01*
X111776380Y-141036190D01*
X111776380Y-141274285D01*
X111109714Y-139845714D02*
X111776380Y-139845714D01*
X110728761Y-140083809D02*
X111443047Y-140321904D01*
X111443047Y-139702857D01*
X110776380Y-138845714D02*
X110776380Y-139321904D01*
X111252571Y-139369523D01*
X111204952Y-139321904D01*
X111157333Y-139226666D01*
X111157333Y-138988571D01*
X111204952Y-138893333D01*
X111252571Y-138845714D01*
X111347809Y-138798095D01*
X111585904Y-138798095D01*
X111681142Y-138845714D01*
X111728761Y-138893333D01*
X111776380Y-138988571D01*
X111776380Y-139226666D01*
X111728761Y-139321904D01*
X111681142Y-139369523D01*
X112096380Y-144131904D02*
X111096380Y-144131904D01*
X112096380Y-143560476D02*
X111524952Y-143989047D01*
X111096380Y-143560476D02*
X111667809Y-144131904D01*
X263452380Y-156964285D02*
X262452380Y-156964285D01*
X262452380Y-156726190D01*
X262500000Y-156583333D01*
X262595238Y-156488095D01*
X262690476Y-156440476D01*
X262880952Y-156392857D01*
X263023809Y-156392857D01*
X263214285Y-156440476D01*
X263309523Y-156488095D01*
X263404761Y-156583333D01*
X263452380Y-156726190D01*
X263452380Y-156964285D01*
X262785714Y-155535714D02*
X263452380Y-155535714D01*
X262404761Y-155773809D02*
X263119047Y-156011904D01*
X263119047Y-155392857D01*
X262452380Y-154583333D02*
X262452380Y-154773809D01*
X262500000Y-154869047D01*
X262547619Y-154916666D01*
X262690476Y-155011904D01*
X262880952Y-155059523D01*
X263261904Y-155059523D01*
X263357142Y-155011904D01*
X263404761Y-154964285D01*
X263452380Y-154869047D01*
X263452380Y-154678571D01*
X263404761Y-154583333D01*
X263357142Y-154535714D01*
X263261904Y-154488095D01*
X263023809Y-154488095D01*
X262928571Y-154535714D01*
X262880952Y-154583333D01*
X262833333Y-154678571D01*
X262833333Y-154869047D01*
X262880952Y-154964285D01*
X262928571Y-155011904D01*
X263023809Y-155059523D01*
X263772380Y-159821904D02*
X262772380Y-159821904D01*
X263772380Y-159250476D02*
X263200952Y-159679047D01*
X262772380Y-159250476D02*
X263343809Y-159821904D01*
X364112380Y-156974285D02*
X363112380Y-156974285D01*
X363112380Y-156736190D01*
X363160000Y-156593333D01*
X363255238Y-156498095D01*
X363350476Y-156450476D01*
X363540952Y-156402857D01*
X363683809Y-156402857D01*
X363874285Y-156450476D01*
X363969523Y-156498095D01*
X364064761Y-156593333D01*
X364112380Y-156736190D01*
X364112380Y-156974285D01*
X363445714Y-155545714D02*
X364112380Y-155545714D01*
X363064761Y-155783809D02*
X363779047Y-156021904D01*
X363779047Y-155402857D01*
X363112380Y-155117142D02*
X363112380Y-154450476D01*
X364112380Y-154879047D01*
X364432380Y-159831904D02*
X363432380Y-159831904D01*
X364432380Y-159260476D02*
X363860952Y-159689047D01*
X363432380Y-159260476D02*
X364003809Y-159831904D01*
X412032380Y-141277505D02*
X411032380Y-141277505D01*
X411032380Y-141039410D01*
X411080000Y-140896553D01*
X411175238Y-140801315D01*
X411270476Y-140753696D01*
X411460952Y-140706077D01*
X411603809Y-140706077D01*
X411794285Y-140753696D01*
X411889523Y-140801315D01*
X411984761Y-140896553D01*
X412032380Y-141039410D01*
X412032380Y-141277505D01*
X411365714Y-139848934D02*
X412032380Y-139848934D01*
X410984761Y-140087029D02*
X411699047Y-140325124D01*
X411699047Y-139706077D01*
X411460952Y-139182267D02*
X411413333Y-139277505D01*
X411365714Y-139325124D01*
X411270476Y-139372743D01*
X411222857Y-139372743D01*
X411127619Y-139325124D01*
X411080000Y-139277505D01*
X411032380Y-139182267D01*
X411032380Y-138991791D01*
X411080000Y-138896553D01*
X411127619Y-138848934D01*
X411222857Y-138801315D01*
X411270476Y-138801315D01*
X411365714Y-138848934D01*
X411413333Y-138896553D01*
X411460952Y-138991791D01*
X411460952Y-139182267D01*
X411508571Y-139277505D01*
X411556190Y-139325124D01*
X411651428Y-139372743D01*
X411841904Y-139372743D01*
X411937142Y-139325124D01*
X411984761Y-139277505D01*
X412032380Y-139182267D01*
X412032380Y-138991791D01*
X411984761Y-138896553D01*
X411937142Y-138848934D01*
X411841904Y-138801315D01*
X411651428Y-138801315D01*
X411556190Y-138848934D01*
X411508571Y-138896553D01*
X411460952Y-138991791D01*
X412352380Y-144135124D02*
X411352380Y-144135124D01*
X412352380Y-143563696D02*
X411780952Y-143992267D01*
X411352380Y-143563696D02*
X411923809Y-144135124D01*
X172925713Y-63874285D02*
X171925713Y-63874285D01*
X171925713Y-63636190D01*
X171973333Y-63493333D01*
X172068571Y-63398095D01*
X172163809Y-63350476D01*
X172354285Y-63302857D01*
X172497142Y-63302857D01*
X172687618Y-63350476D01*
X172782856Y-63398095D01*
X172878094Y-63493333D01*
X172925713Y-63636190D01*
X172925713Y-63874285D01*
X172259047Y-62445714D02*
X172925713Y-62445714D01*
X171878094Y-62683809D02*
X172592380Y-62921904D01*
X172592380Y-62302857D01*
X172925713Y-61874285D02*
X172925713Y-61683809D01*
X172878094Y-61588571D01*
X172830475Y-61540952D01*
X172687618Y-61445714D01*
X172497142Y-61398095D01*
X172116190Y-61398095D01*
X172020952Y-61445714D01*
X171973333Y-61493333D01*
X171925713Y-61588571D01*
X171925713Y-61779047D01*
X171973333Y-61874285D01*
X172020952Y-61921904D01*
X172116190Y-61969523D01*
X172354285Y-61969523D01*
X172449523Y-61921904D01*
X172497142Y-61874285D01*
X172544761Y-61779047D01*
X172544761Y-61588571D01*
X172497142Y-61493333D01*
X172449523Y-61445714D01*
X172354285Y-61398095D01*
X173245713Y-66731904D02*
X172245713Y-66731904D01*
X173245713Y-66160476D02*
X172674285Y-66589047D01*
X172245713Y-66160476D02*
X172817142Y-66731904D01*
X163789522Y-84154285D02*
X162789522Y-84154285D01*
X162789522Y-83916190D01*
X162837142Y-83773333D01*
X162932380Y-83678095D01*
X163027618Y-83630476D01*
X163218094Y-83582857D01*
X163360951Y-83582857D01*
X163551427Y-83630476D01*
X163646665Y-83678095D01*
X163741903Y-83773333D01*
X163789522Y-83916190D01*
X163789522Y-84154285D01*
X162789522Y-82678095D02*
X162789522Y-83154285D01*
X163265713Y-83201904D01*
X163218094Y-83154285D01*
X163170475Y-83059047D01*
X163170475Y-82820952D01*
X163218094Y-82725714D01*
X163265713Y-82678095D01*
X163360951Y-82630476D01*
X163599046Y-82630476D01*
X163694284Y-82678095D01*
X163741903Y-82725714D01*
X163789522Y-82820952D01*
X163789522Y-83059047D01*
X163741903Y-83154285D01*
X163694284Y-83201904D01*
X162789522Y-82011428D02*
X162789522Y-81916190D01*
X162837142Y-81820952D01*
X162884761Y-81773333D01*
X162979999Y-81725714D01*
X163170475Y-81678095D01*
X163408570Y-81678095D01*
X163599046Y-81725714D01*
X163694284Y-81773333D01*
X163741903Y-81820952D01*
X163789522Y-81916190D01*
X163789522Y-82011428D01*
X163741903Y-82106666D01*
X163694284Y-82154285D01*
X163599046Y-82201904D01*
X163408570Y-82249523D01*
X163170475Y-82249523D01*
X162979999Y-82201904D01*
X162884761Y-82154285D01*
X162837142Y-82106666D01*
X162789522Y-82011428D01*
X164109522Y-87011904D02*
X163109522Y-87011904D01*
X164109522Y-86440476D02*
X163538094Y-86869047D01*
X163109522Y-86440476D02*
X163680951Y-87011904D01*
X135073288Y-103184285D02*
X134073288Y-103184285D01*
X134073288Y-102946190D01*
X134120908Y-102803333D01*
X134216146Y-102708095D01*
X134311384Y-102660476D01*
X134501860Y-102612857D01*
X134644717Y-102612857D01*
X134835193Y-102660476D01*
X134930431Y-102708095D01*
X135025669Y-102803333D01*
X135073288Y-102946190D01*
X135073288Y-103184285D01*
X134073288Y-101708095D02*
X134073288Y-102184285D01*
X134549479Y-102231904D01*
X134501860Y-102184285D01*
X134454241Y-102089047D01*
X134454241Y-101850952D01*
X134501860Y-101755714D01*
X134549479Y-101708095D01*
X134644717Y-101660476D01*
X134882812Y-101660476D01*
X134978050Y-101708095D01*
X135025669Y-101755714D01*
X135073288Y-101850952D01*
X135073288Y-102089047D01*
X135025669Y-102184285D01*
X134978050Y-102231904D01*
X135073288Y-100708095D02*
X135073288Y-101279523D01*
X135073288Y-100993809D02*
X134073288Y-100993809D01*
X134216146Y-101089047D01*
X134311384Y-101184285D01*
X134359003Y-101279523D01*
X135393288Y-106041904D02*
X134393288Y-106041904D01*
X135393288Y-105470476D02*
X134821860Y-105899047D01*
X134393288Y-105470476D02*
X134964717Y-106041904D01*
X120889046Y-122224285D02*
X119889046Y-122224285D01*
X119889046Y-121986190D01*
X119936666Y-121843333D01*
X120031904Y-121748095D01*
X120127142Y-121700476D01*
X120317618Y-121652857D01*
X120460475Y-121652857D01*
X120650951Y-121700476D01*
X120746189Y-121748095D01*
X120841427Y-121843333D01*
X120889046Y-121986190D01*
X120889046Y-122224285D01*
X119889046Y-120748095D02*
X119889046Y-121224285D01*
X120365237Y-121271904D01*
X120317618Y-121224285D01*
X120269999Y-121129047D01*
X120269999Y-120890952D01*
X120317618Y-120795714D01*
X120365237Y-120748095D01*
X120460475Y-120700476D01*
X120698570Y-120700476D01*
X120793808Y-120748095D01*
X120841427Y-120795714D01*
X120889046Y-120890952D01*
X120889046Y-121129047D01*
X120841427Y-121224285D01*
X120793808Y-121271904D01*
X119984285Y-120319523D02*
X119936666Y-120271904D01*
X119889046Y-120176666D01*
X119889046Y-119938571D01*
X119936666Y-119843333D01*
X119984285Y-119795714D01*
X120079523Y-119748095D01*
X120174761Y-119748095D01*
X120317618Y-119795714D01*
X120889046Y-120367142D01*
X120889046Y-119748095D01*
X121209046Y-125081904D02*
X120209046Y-125081904D01*
X121209046Y-124510476D02*
X120637618Y-124939047D01*
X120209046Y-124510476D02*
X120780475Y-125081904D01*
X130823380Y-141274285D02*
X129823380Y-141274285D01*
X129823380Y-141036190D01*
X129871000Y-140893333D01*
X129966238Y-140798095D01*
X130061476Y-140750476D01*
X130251952Y-140702857D01*
X130394809Y-140702857D01*
X130585285Y-140750476D01*
X130680523Y-140798095D01*
X130775761Y-140893333D01*
X130823380Y-141036190D01*
X130823380Y-141274285D01*
X129823380Y-139798095D02*
X129823380Y-140274285D01*
X130299571Y-140321904D01*
X130251952Y-140274285D01*
X130204333Y-140179047D01*
X130204333Y-139940952D01*
X130251952Y-139845714D01*
X130299571Y-139798095D01*
X130394809Y-139750476D01*
X130632904Y-139750476D01*
X130728142Y-139798095D01*
X130775761Y-139845714D01*
X130823380Y-139940952D01*
X130823380Y-140179047D01*
X130775761Y-140274285D01*
X130728142Y-140321904D01*
X129823380Y-139417142D02*
X129823380Y-138798095D01*
X130204333Y-139131428D01*
X130204333Y-138988571D01*
X130251952Y-138893333D01*
X130299571Y-138845714D01*
X130394809Y-138798095D01*
X130632904Y-138798095D01*
X130728142Y-138845714D01*
X130775761Y-138893333D01*
X130823380Y-138988571D01*
X130823380Y-139274285D01*
X130775761Y-139369523D01*
X130728142Y-139417142D01*
X131143380Y-144131904D02*
X130143380Y-144131904D01*
X131143380Y-143560476D02*
X130571952Y-143989047D01*
X130143380Y-143560476D02*
X130714809Y-144131904D01*
X311212380Y-156964285D02*
X310212380Y-156964285D01*
X310212380Y-156726190D01*
X310260000Y-156583333D01*
X310355238Y-156488095D01*
X310450476Y-156440476D01*
X310640952Y-156392857D01*
X310783809Y-156392857D01*
X310974285Y-156440476D01*
X311069523Y-156488095D01*
X311164761Y-156583333D01*
X311212380Y-156726190D01*
X311212380Y-156964285D01*
X310212380Y-155488095D02*
X310212380Y-155964285D01*
X310688571Y-156011904D01*
X310640952Y-155964285D01*
X310593333Y-155869047D01*
X310593333Y-155630952D01*
X310640952Y-155535714D01*
X310688571Y-155488095D01*
X310783809Y-155440476D01*
X311021904Y-155440476D01*
X311117142Y-155488095D01*
X311164761Y-155535714D01*
X311212380Y-155630952D01*
X311212380Y-155869047D01*
X311164761Y-155964285D01*
X311117142Y-156011904D01*
X310545714Y-154583333D02*
X311212380Y-154583333D01*
X310164761Y-154821428D02*
X310879047Y-155059523D01*
X310879047Y-154440476D01*
X311532380Y-159821904D02*
X310532380Y-159821904D01*
X311532380Y-159250476D02*
X310960952Y-159679047D01*
X310532380Y-159250476D02*
X311103809Y-159821904D01*
X383162380Y-156964285D02*
X382162380Y-156964285D01*
X382162380Y-156726190D01*
X382210000Y-156583333D01*
X382305238Y-156488095D01*
X382400476Y-156440476D01*
X382590952Y-156392857D01*
X382733809Y-156392857D01*
X382924285Y-156440476D01*
X383019523Y-156488095D01*
X383114761Y-156583333D01*
X383162380Y-156726190D01*
X383162380Y-156964285D01*
X382162380Y-155488095D02*
X382162380Y-155964285D01*
X382638571Y-156011904D01*
X382590952Y-155964285D01*
X382543333Y-155869047D01*
X382543333Y-155630952D01*
X382590952Y-155535714D01*
X382638571Y-155488095D01*
X382733809Y-155440476D01*
X382971904Y-155440476D01*
X383067142Y-155488095D01*
X383114761Y-155535714D01*
X383162380Y-155630952D01*
X383162380Y-155869047D01*
X383114761Y-155964285D01*
X383067142Y-156011904D01*
X382162380Y-154535714D02*
X382162380Y-155011904D01*
X382638571Y-155059523D01*
X382590952Y-155011904D01*
X382543333Y-154916666D01*
X382543333Y-154678571D01*
X382590952Y-154583333D01*
X382638571Y-154535714D01*
X382733809Y-154488095D01*
X382971904Y-154488095D01*
X383067142Y-154535714D01*
X383114761Y-154583333D01*
X383162380Y-154678571D01*
X383162380Y-154916666D01*
X383114761Y-155011904D01*
X383067142Y-155059523D01*
X383482380Y-159821904D02*
X382482380Y-159821904D01*
X383482380Y-159250476D02*
X382910952Y-159679047D01*
X382482380Y-159250476D02*
X383053809Y-159821904D01*
X431072380Y-141274285D02*
X430072380Y-141274285D01*
X430072380Y-141036190D01*
X430120000Y-140893333D01*
X430215238Y-140798095D01*
X430310476Y-140750476D01*
X430500952Y-140702857D01*
X430643809Y-140702857D01*
X430834285Y-140750476D01*
X430929523Y-140798095D01*
X431024761Y-140893333D01*
X431072380Y-141036190D01*
X431072380Y-141274285D01*
X430072380Y-139798095D02*
X430072380Y-140274285D01*
X430548571Y-140321904D01*
X430500952Y-140274285D01*
X430453333Y-140179047D01*
X430453333Y-139940952D01*
X430500952Y-139845714D01*
X430548571Y-139798095D01*
X430643809Y-139750476D01*
X430881904Y-139750476D01*
X430977142Y-139798095D01*
X431024761Y-139845714D01*
X431072380Y-139940952D01*
X431072380Y-140179047D01*
X431024761Y-140274285D01*
X430977142Y-140321904D01*
X430072380Y-138893333D02*
X430072380Y-139083809D01*
X430120000Y-139179047D01*
X430167619Y-139226666D01*
X430310476Y-139321904D01*
X430500952Y-139369523D01*
X430881904Y-139369523D01*
X430977142Y-139321904D01*
X431024761Y-139274285D01*
X431072380Y-139179047D01*
X431072380Y-138988571D01*
X431024761Y-138893333D01*
X430977142Y-138845714D01*
X430881904Y-138798095D01*
X430643809Y-138798095D01*
X430548571Y-138845714D01*
X430500952Y-138893333D01*
X430453333Y-138988571D01*
X430453333Y-139179047D01*
X430500952Y-139274285D01*
X430548571Y-139321904D01*
X430643809Y-139369523D01*
X431392380Y-144131904D02*
X430392380Y-144131904D01*
X431392380Y-143560476D02*
X430820952Y-143989047D01*
X430392380Y-143560476D02*
X430963809Y-144131904D01*
X191949046Y-63874285D02*
X190949046Y-63874285D01*
X190949046Y-63636190D01*
X190996666Y-63493333D01*
X191091904Y-63398095D01*
X191187142Y-63350476D01*
X191377618Y-63302857D01*
X191520475Y-63302857D01*
X191710951Y-63350476D01*
X191806189Y-63398095D01*
X191901427Y-63493333D01*
X191949046Y-63636190D01*
X191949046Y-63874285D01*
X190949046Y-62398095D02*
X190949046Y-62874285D01*
X191425237Y-62921904D01*
X191377618Y-62874285D01*
X191329999Y-62779047D01*
X191329999Y-62540952D01*
X191377618Y-62445714D01*
X191425237Y-62398095D01*
X191520475Y-62350476D01*
X191758570Y-62350476D01*
X191853808Y-62398095D01*
X191901427Y-62445714D01*
X191949046Y-62540952D01*
X191949046Y-62779047D01*
X191901427Y-62874285D01*
X191853808Y-62921904D01*
X190949046Y-62017142D02*
X190949046Y-61350476D01*
X191949046Y-61779047D01*
X192269046Y-66731904D02*
X191269046Y-66731904D01*
X192269046Y-66160476D02*
X191697618Y-66589047D01*
X191269046Y-66160476D02*
X191840475Y-66731904D01*
X182807379Y-84154285D02*
X181807379Y-84154285D01*
X181807379Y-83916190D01*
X181854999Y-83773333D01*
X181950237Y-83678095D01*
X182045475Y-83630476D01*
X182235951Y-83582857D01*
X182378808Y-83582857D01*
X182569284Y-83630476D01*
X182664522Y-83678095D01*
X182759760Y-83773333D01*
X182807379Y-83916190D01*
X182807379Y-84154285D01*
X181807379Y-82678095D02*
X181807379Y-83154285D01*
X182283570Y-83201904D01*
X182235951Y-83154285D01*
X182188332Y-83059047D01*
X182188332Y-82820952D01*
X182235951Y-82725714D01*
X182283570Y-82678095D01*
X182378808Y-82630476D01*
X182616903Y-82630476D01*
X182712141Y-82678095D01*
X182759760Y-82725714D01*
X182807379Y-82820952D01*
X182807379Y-83059047D01*
X182759760Y-83154285D01*
X182712141Y-83201904D01*
X182235951Y-82059047D02*
X182188332Y-82154285D01*
X182140713Y-82201904D01*
X182045475Y-82249523D01*
X181997856Y-82249523D01*
X181902618Y-82201904D01*
X181854999Y-82154285D01*
X181807379Y-82059047D01*
X181807379Y-81868571D01*
X181854999Y-81773333D01*
X181902618Y-81725714D01*
X181997856Y-81678095D01*
X182045475Y-81678095D01*
X182140713Y-81725714D01*
X182188332Y-81773333D01*
X182235951Y-81868571D01*
X182235951Y-82059047D01*
X182283570Y-82154285D01*
X182331189Y-82201904D01*
X182426427Y-82249523D01*
X182616903Y-82249523D01*
X182712141Y-82201904D01*
X182759760Y-82154285D01*
X182807379Y-82059047D01*
X182807379Y-81868571D01*
X182759760Y-81773333D01*
X182712141Y-81725714D01*
X182616903Y-81678095D01*
X182426427Y-81678095D01*
X182331189Y-81725714D01*
X182283570Y-81773333D01*
X182235951Y-81868571D01*
X183127379Y-87011904D02*
X182127379Y-87011904D01*
X183127379Y-86440476D02*
X182555951Y-86869047D01*
X182127379Y-86440476D02*
X182698808Y-87011904D01*
X154096924Y-103184285D02*
X153096924Y-103184285D01*
X153096924Y-102946190D01*
X153144544Y-102803333D01*
X153239782Y-102708095D01*
X153335020Y-102660476D01*
X153525496Y-102612857D01*
X153668353Y-102612857D01*
X153858829Y-102660476D01*
X153954067Y-102708095D01*
X154049305Y-102803333D01*
X154096924Y-102946190D01*
X154096924Y-103184285D01*
X153096924Y-101708095D02*
X153096924Y-102184285D01*
X153573115Y-102231904D01*
X153525496Y-102184285D01*
X153477877Y-102089047D01*
X153477877Y-101850952D01*
X153525496Y-101755714D01*
X153573115Y-101708095D01*
X153668353Y-101660476D01*
X153906448Y-101660476D01*
X154001686Y-101708095D01*
X154049305Y-101755714D01*
X154096924Y-101850952D01*
X154096924Y-102089047D01*
X154049305Y-102184285D01*
X154001686Y-102231904D01*
X154096924Y-101184285D02*
X154096924Y-100993809D01*
X154049305Y-100898571D01*
X154001686Y-100850952D01*
X153858829Y-100755714D01*
X153668353Y-100708095D01*
X153287401Y-100708095D01*
X153192163Y-100755714D01*
X153144544Y-100803333D01*
X153096924Y-100898571D01*
X153096924Y-101089047D01*
X153144544Y-101184285D01*
X153192163Y-101231904D01*
X153287401Y-101279523D01*
X153525496Y-101279523D01*
X153620734Y-101231904D01*
X153668353Y-101184285D01*
X153715972Y-101089047D01*
X153715972Y-100898571D01*
X153668353Y-100803333D01*
X153620734Y-100755714D01*
X153525496Y-100708095D01*
X154416924Y-106041904D02*
X153416924Y-106041904D01*
X154416924Y-105470476D02*
X153845496Y-105899047D01*
X153416924Y-105470476D02*
X153988353Y-106041904D01*
X139912379Y-122224285D02*
X138912379Y-122224285D01*
X138912379Y-121986190D01*
X138959999Y-121843333D01*
X139055237Y-121748095D01*
X139150475Y-121700476D01*
X139340951Y-121652857D01*
X139483808Y-121652857D01*
X139674284Y-121700476D01*
X139769522Y-121748095D01*
X139864760Y-121843333D01*
X139912379Y-121986190D01*
X139912379Y-122224285D01*
X138912379Y-120795714D02*
X138912379Y-120986190D01*
X138959999Y-121081428D01*
X139007618Y-121129047D01*
X139150475Y-121224285D01*
X139340951Y-121271904D01*
X139721903Y-121271904D01*
X139817141Y-121224285D01*
X139864760Y-121176666D01*
X139912379Y-121081428D01*
X139912379Y-120890952D01*
X139864760Y-120795714D01*
X139817141Y-120748095D01*
X139721903Y-120700476D01*
X139483808Y-120700476D01*
X139388570Y-120748095D01*
X139340951Y-120795714D01*
X139293332Y-120890952D01*
X139293332Y-121081428D01*
X139340951Y-121176666D01*
X139388570Y-121224285D01*
X139483808Y-121271904D01*
X138912379Y-120081428D02*
X138912379Y-119986190D01*
X138959999Y-119890952D01*
X139007618Y-119843333D01*
X139102856Y-119795714D01*
X139293332Y-119748095D01*
X139531427Y-119748095D01*
X139721903Y-119795714D01*
X139817141Y-119843333D01*
X139864760Y-119890952D01*
X139912379Y-119986190D01*
X139912379Y-120081428D01*
X139864760Y-120176666D01*
X139817141Y-120224285D01*
X139721903Y-120271904D01*
X139531427Y-120319523D01*
X139293332Y-120319523D01*
X139102856Y-120271904D01*
X139007618Y-120224285D01*
X138959999Y-120176666D01*
X138912379Y-120081428D01*
X140232379Y-125081904D02*
X139232379Y-125081904D01*
X140232379Y-124510476D02*
X139660951Y-124939047D01*
X139232379Y-124510476D02*
X139803808Y-125081904D01*
X149870380Y-141274285D02*
X148870380Y-141274285D01*
X148870380Y-141036190D01*
X148918000Y-140893333D01*
X149013238Y-140798095D01*
X149108476Y-140750476D01*
X149298952Y-140702857D01*
X149441809Y-140702857D01*
X149632285Y-140750476D01*
X149727523Y-140798095D01*
X149822761Y-140893333D01*
X149870380Y-141036190D01*
X149870380Y-141274285D01*
X148870380Y-139845714D02*
X148870380Y-140036190D01*
X148918000Y-140131428D01*
X148965619Y-140179047D01*
X149108476Y-140274285D01*
X149298952Y-140321904D01*
X149679904Y-140321904D01*
X149775142Y-140274285D01*
X149822761Y-140226666D01*
X149870380Y-140131428D01*
X149870380Y-139940952D01*
X149822761Y-139845714D01*
X149775142Y-139798095D01*
X149679904Y-139750476D01*
X149441809Y-139750476D01*
X149346571Y-139798095D01*
X149298952Y-139845714D01*
X149251333Y-139940952D01*
X149251333Y-140131428D01*
X149298952Y-140226666D01*
X149346571Y-140274285D01*
X149441809Y-140321904D01*
X149870380Y-138798095D02*
X149870380Y-139369523D01*
X149870380Y-139083809D02*
X148870380Y-139083809D01*
X149013238Y-139179047D01*
X149108476Y-139274285D01*
X149156095Y-139369523D01*
X150190380Y-144131904D02*
X149190380Y-144131904D01*
X150190380Y-143560476D02*
X149618952Y-143989047D01*
X149190380Y-143560476D02*
X149761809Y-144131904D01*
X326002380Y-63874285D02*
X325002380Y-63874285D01*
X325002380Y-63636190D01*
X325050000Y-63493333D01*
X325145238Y-63398095D01*
X325240476Y-63350476D01*
X325430952Y-63302857D01*
X325573809Y-63302857D01*
X325764285Y-63350476D01*
X325859523Y-63398095D01*
X325954761Y-63493333D01*
X326002380Y-63636190D01*
X326002380Y-63874285D01*
X325002380Y-62445714D02*
X325002380Y-62636190D01*
X325050000Y-62731428D01*
X325097619Y-62779047D01*
X325240476Y-62874285D01*
X325430952Y-62921904D01*
X325811904Y-62921904D01*
X325907142Y-62874285D01*
X325954761Y-62826666D01*
X326002380Y-62731428D01*
X326002380Y-62540952D01*
X325954761Y-62445714D01*
X325907142Y-62398095D01*
X325811904Y-62350476D01*
X325573809Y-62350476D01*
X325478571Y-62398095D01*
X325430952Y-62445714D01*
X325383333Y-62540952D01*
X325383333Y-62731428D01*
X325430952Y-62826666D01*
X325478571Y-62874285D01*
X325573809Y-62921904D01*
X325097619Y-61969523D02*
X325050000Y-61921904D01*
X325002380Y-61826666D01*
X325002380Y-61588571D01*
X325050000Y-61493333D01*
X325097619Y-61445714D01*
X325192857Y-61398095D01*
X325288095Y-61398095D01*
X325430952Y-61445714D01*
X326002380Y-62017142D01*
X326002380Y-61398095D01*
X326322380Y-66731904D02*
X325322380Y-66731904D01*
X326322380Y-66160476D02*
X325750952Y-66589047D01*
X325322380Y-66160476D02*
X325893809Y-66731904D01*
X412032380Y-84154285D02*
X411032380Y-84154285D01*
X411032380Y-83916190D01*
X411080000Y-83773333D01*
X411175238Y-83678095D01*
X411270476Y-83630476D01*
X411460952Y-83582857D01*
X411603809Y-83582857D01*
X411794285Y-83630476D01*
X411889523Y-83678095D01*
X411984761Y-83773333D01*
X412032380Y-83916190D01*
X412032380Y-84154285D01*
X411032380Y-82725714D02*
X411032380Y-82916190D01*
X411080000Y-83011428D01*
X411127619Y-83059047D01*
X411270476Y-83154285D01*
X411460952Y-83201904D01*
X411841904Y-83201904D01*
X411937142Y-83154285D01*
X411984761Y-83106666D01*
X412032380Y-83011428D01*
X412032380Y-82820952D01*
X411984761Y-82725714D01*
X411937142Y-82678095D01*
X411841904Y-82630476D01*
X411603809Y-82630476D01*
X411508571Y-82678095D01*
X411460952Y-82725714D01*
X411413333Y-82820952D01*
X411413333Y-83011428D01*
X411460952Y-83106666D01*
X411508571Y-83154285D01*
X411603809Y-83201904D01*
X411032380Y-82297142D02*
X411032380Y-81678095D01*
X411413333Y-82011428D01*
X411413333Y-81868571D01*
X411460952Y-81773333D01*
X411508571Y-81725714D01*
X411603809Y-81678095D01*
X411841904Y-81678095D01*
X411937142Y-81725714D01*
X411984761Y-81773333D01*
X412032380Y-81868571D01*
X412032380Y-82154285D01*
X411984761Y-82249523D01*
X411937142Y-82297142D01*
X412352380Y-87011904D02*
X411352380Y-87011904D01*
X412352380Y-86440476D02*
X411780952Y-86869047D01*
X411352380Y-86440476D02*
X411923809Y-87011904D01*
X450102380Y-141277505D02*
X449102380Y-141277505D01*
X449102380Y-141039410D01*
X449150000Y-140896553D01*
X449245238Y-140801315D01*
X449340476Y-140753696D01*
X449530952Y-140706077D01*
X449673809Y-140706077D01*
X449864285Y-140753696D01*
X449959523Y-140801315D01*
X450054761Y-140896553D01*
X450102380Y-141039410D01*
X450102380Y-141277505D01*
X449102380Y-139848934D02*
X449102380Y-140039410D01*
X449150000Y-140134648D01*
X449197619Y-140182267D01*
X449340476Y-140277505D01*
X449530952Y-140325124D01*
X449911904Y-140325124D01*
X450007142Y-140277505D01*
X450054761Y-140229886D01*
X450102380Y-140134648D01*
X450102380Y-139944172D01*
X450054761Y-139848934D01*
X450007142Y-139801315D01*
X449911904Y-139753696D01*
X449673809Y-139753696D01*
X449578571Y-139801315D01*
X449530952Y-139848934D01*
X449483333Y-139944172D01*
X449483333Y-140134648D01*
X449530952Y-140229886D01*
X449578571Y-140277505D01*
X449673809Y-140325124D01*
X449435714Y-138896553D02*
X450102380Y-138896553D01*
X449054761Y-139134648D02*
X449769047Y-139372743D01*
X449769047Y-138753696D01*
X450422380Y-144135124D02*
X449422380Y-144135124D01*
X450422380Y-143563696D02*
X449850952Y-143992267D01*
X449422380Y-143563696D02*
X449993809Y-144135124D01*
X210972380Y-63874285D02*
X209972380Y-63874285D01*
X209972380Y-63636190D01*
X210020000Y-63493333D01*
X210115238Y-63398095D01*
X210210476Y-63350476D01*
X210400952Y-63302857D01*
X210543809Y-63302857D01*
X210734285Y-63350476D01*
X210829523Y-63398095D01*
X210924761Y-63493333D01*
X210972380Y-63636190D01*
X210972380Y-63874285D01*
X209972380Y-62445714D02*
X209972380Y-62636190D01*
X210020000Y-62731428D01*
X210067619Y-62779047D01*
X210210476Y-62874285D01*
X210400952Y-62921904D01*
X210781904Y-62921904D01*
X210877142Y-62874285D01*
X210924761Y-62826666D01*
X210972380Y-62731428D01*
X210972380Y-62540952D01*
X210924761Y-62445714D01*
X210877142Y-62398095D01*
X210781904Y-62350476D01*
X210543809Y-62350476D01*
X210448571Y-62398095D01*
X210400952Y-62445714D01*
X210353333Y-62540952D01*
X210353333Y-62731428D01*
X210400952Y-62826666D01*
X210448571Y-62874285D01*
X210543809Y-62921904D01*
X209972380Y-61445714D02*
X209972380Y-61921904D01*
X210448571Y-61969523D01*
X210400952Y-61921904D01*
X210353333Y-61826666D01*
X210353333Y-61588571D01*
X210400952Y-61493333D01*
X210448571Y-61445714D01*
X210543809Y-61398095D01*
X210781904Y-61398095D01*
X210877142Y-61445714D01*
X210924761Y-61493333D01*
X210972380Y-61588571D01*
X210972380Y-61826666D01*
X210924761Y-61921904D01*
X210877142Y-61969523D01*
X211292380Y-66731904D02*
X210292380Y-66731904D01*
X211292380Y-66160476D02*
X210720952Y-66589047D01*
X210292380Y-66160476D02*
X210863809Y-66731904D01*
X201825236Y-84154285D02*
X200825236Y-84154285D01*
X200825236Y-83916190D01*
X200872856Y-83773333D01*
X200968094Y-83678095D01*
X201063332Y-83630476D01*
X201253808Y-83582857D01*
X201396665Y-83582857D01*
X201587141Y-83630476D01*
X201682379Y-83678095D01*
X201777617Y-83773333D01*
X201825236Y-83916190D01*
X201825236Y-84154285D01*
X200825236Y-82725714D02*
X200825236Y-82916190D01*
X200872856Y-83011428D01*
X200920475Y-83059047D01*
X201063332Y-83154285D01*
X201253808Y-83201904D01*
X201634760Y-83201904D01*
X201729998Y-83154285D01*
X201777617Y-83106666D01*
X201825236Y-83011428D01*
X201825236Y-82820952D01*
X201777617Y-82725714D01*
X201729998Y-82678095D01*
X201634760Y-82630476D01*
X201396665Y-82630476D01*
X201301427Y-82678095D01*
X201253808Y-82725714D01*
X201206189Y-82820952D01*
X201206189Y-83011428D01*
X201253808Y-83106666D01*
X201301427Y-83154285D01*
X201396665Y-83201904D01*
X200825236Y-81773333D02*
X200825236Y-81963809D01*
X200872856Y-82059047D01*
X200920475Y-82106666D01*
X201063332Y-82201904D01*
X201253808Y-82249523D01*
X201634760Y-82249523D01*
X201729998Y-82201904D01*
X201777617Y-82154285D01*
X201825236Y-82059047D01*
X201825236Y-81868571D01*
X201777617Y-81773333D01*
X201729998Y-81725714D01*
X201634760Y-81678095D01*
X201396665Y-81678095D01*
X201301427Y-81725714D01*
X201253808Y-81773333D01*
X201206189Y-81868571D01*
X201206189Y-82059047D01*
X201253808Y-82154285D01*
X201301427Y-82201904D01*
X201396665Y-82249523D01*
X202145236Y-87011904D02*
X201145236Y-87011904D01*
X202145236Y-86440476D02*
X201573808Y-86869047D01*
X201145236Y-86440476D02*
X201716665Y-87011904D01*
X173120560Y-103184285D02*
X172120560Y-103184285D01*
X172120560Y-102946190D01*
X172168180Y-102803333D01*
X172263418Y-102708095D01*
X172358656Y-102660476D01*
X172549132Y-102612857D01*
X172691989Y-102612857D01*
X172882465Y-102660476D01*
X172977703Y-102708095D01*
X173072941Y-102803333D01*
X173120560Y-102946190D01*
X173120560Y-103184285D01*
X172120560Y-101755714D02*
X172120560Y-101946190D01*
X172168180Y-102041428D01*
X172215799Y-102089047D01*
X172358656Y-102184285D01*
X172549132Y-102231904D01*
X172930084Y-102231904D01*
X173025322Y-102184285D01*
X173072941Y-102136666D01*
X173120560Y-102041428D01*
X173120560Y-101850952D01*
X173072941Y-101755714D01*
X173025322Y-101708095D01*
X172930084Y-101660476D01*
X172691989Y-101660476D01*
X172596751Y-101708095D01*
X172549132Y-101755714D01*
X172501513Y-101850952D01*
X172501513Y-102041428D01*
X172549132Y-102136666D01*
X172596751Y-102184285D01*
X172691989Y-102231904D01*
X172120560Y-101327142D02*
X172120560Y-100660476D01*
X173120560Y-101089047D01*
X173440560Y-106041904D02*
X172440560Y-106041904D01*
X173440560Y-105470476D02*
X172869132Y-105899047D01*
X172440560Y-105470476D02*
X173011989Y-106041904D01*
X158935712Y-122224285D02*
X157935712Y-122224285D01*
X157935712Y-121986190D01*
X157983332Y-121843333D01*
X158078570Y-121748095D01*
X158173808Y-121700476D01*
X158364284Y-121652857D01*
X158507141Y-121652857D01*
X158697617Y-121700476D01*
X158792855Y-121748095D01*
X158888093Y-121843333D01*
X158935712Y-121986190D01*
X158935712Y-122224285D01*
X157935712Y-120795714D02*
X157935712Y-120986190D01*
X157983332Y-121081428D01*
X158030951Y-121129047D01*
X158173808Y-121224285D01*
X158364284Y-121271904D01*
X158745236Y-121271904D01*
X158840474Y-121224285D01*
X158888093Y-121176666D01*
X158935712Y-121081428D01*
X158935712Y-120890952D01*
X158888093Y-120795714D01*
X158840474Y-120748095D01*
X158745236Y-120700476D01*
X158507141Y-120700476D01*
X158411903Y-120748095D01*
X158364284Y-120795714D01*
X158316665Y-120890952D01*
X158316665Y-121081428D01*
X158364284Y-121176666D01*
X158411903Y-121224285D01*
X158507141Y-121271904D01*
X158364284Y-120129047D02*
X158316665Y-120224285D01*
X158269046Y-120271904D01*
X158173808Y-120319523D01*
X158126189Y-120319523D01*
X158030951Y-120271904D01*
X157983332Y-120224285D01*
X157935712Y-120129047D01*
X157935712Y-119938571D01*
X157983332Y-119843333D01*
X158030951Y-119795714D01*
X158126189Y-119748095D01*
X158173808Y-119748095D01*
X158269046Y-119795714D01*
X158316665Y-119843333D01*
X158364284Y-119938571D01*
X158364284Y-120129047D01*
X158411903Y-120224285D01*
X158459522Y-120271904D01*
X158554760Y-120319523D01*
X158745236Y-120319523D01*
X158840474Y-120271904D01*
X158888093Y-120224285D01*
X158935712Y-120129047D01*
X158935712Y-119938571D01*
X158888093Y-119843333D01*
X158840474Y-119795714D01*
X158745236Y-119748095D01*
X158554760Y-119748095D01*
X158459522Y-119795714D01*
X158411903Y-119843333D01*
X158364284Y-119938571D01*
X159255712Y-125081904D02*
X158255712Y-125081904D01*
X159255712Y-124510476D02*
X158684284Y-124939047D01*
X158255712Y-124510476D02*
X158827141Y-125081904D01*
X168917380Y-141274285D02*
X167917380Y-141274285D01*
X167917380Y-141036190D01*
X167965000Y-140893333D01*
X168060238Y-140798095D01*
X168155476Y-140750476D01*
X168345952Y-140702857D01*
X168488809Y-140702857D01*
X168679285Y-140750476D01*
X168774523Y-140798095D01*
X168869761Y-140893333D01*
X168917380Y-141036190D01*
X168917380Y-141274285D01*
X167917380Y-139845714D02*
X167917380Y-140036190D01*
X167965000Y-140131428D01*
X168012619Y-140179047D01*
X168155476Y-140274285D01*
X168345952Y-140321904D01*
X168726904Y-140321904D01*
X168822142Y-140274285D01*
X168869761Y-140226666D01*
X168917380Y-140131428D01*
X168917380Y-139940952D01*
X168869761Y-139845714D01*
X168822142Y-139798095D01*
X168726904Y-139750476D01*
X168488809Y-139750476D01*
X168393571Y-139798095D01*
X168345952Y-139845714D01*
X168298333Y-139940952D01*
X168298333Y-140131428D01*
X168345952Y-140226666D01*
X168393571Y-140274285D01*
X168488809Y-140321904D01*
X168917380Y-139274285D02*
X168917380Y-139083809D01*
X168869761Y-138988571D01*
X168822142Y-138940952D01*
X168679285Y-138845714D01*
X168488809Y-138798095D01*
X168107857Y-138798095D01*
X168012619Y-138845714D01*
X167965000Y-138893333D01*
X167917380Y-138988571D01*
X167917380Y-139179047D01*
X167965000Y-139274285D01*
X168012619Y-139321904D01*
X168107857Y-139369523D01*
X168345952Y-139369523D01*
X168441190Y-139321904D01*
X168488809Y-139274285D01*
X168536428Y-139179047D01*
X168536428Y-138988571D01*
X168488809Y-138893333D01*
X168441190Y-138845714D01*
X168345952Y-138798095D01*
X169237380Y-144131904D02*
X168237380Y-144131904D01*
X169237380Y-143560476D02*
X168665952Y-143989047D01*
X168237380Y-143560476D02*
X168808809Y-144131904D01*
X345062380Y-63874285D02*
X344062380Y-63874285D01*
X344062380Y-63636190D01*
X344110000Y-63493333D01*
X344205238Y-63398095D01*
X344300476Y-63350476D01*
X344490952Y-63302857D01*
X344633809Y-63302857D01*
X344824285Y-63350476D01*
X344919523Y-63398095D01*
X345014761Y-63493333D01*
X345062380Y-63636190D01*
X345062380Y-63874285D01*
X344062380Y-62969523D02*
X344062380Y-62302857D01*
X345062380Y-62731428D01*
X344062380Y-61731428D02*
X344062380Y-61636190D01*
X344110000Y-61540952D01*
X344157619Y-61493333D01*
X344252857Y-61445714D01*
X344443333Y-61398095D01*
X344681428Y-61398095D01*
X344871904Y-61445714D01*
X344967142Y-61493333D01*
X345014761Y-61540952D01*
X345062380Y-61636190D01*
X345062380Y-61731428D01*
X345014761Y-61826666D01*
X344967142Y-61874285D01*
X344871904Y-61921904D01*
X344681428Y-61969523D01*
X344443333Y-61969523D01*
X344252857Y-61921904D01*
X344157619Y-61874285D01*
X344110000Y-61826666D01*
X344062380Y-61731428D01*
X345382380Y-66731904D02*
X344382380Y-66731904D01*
X345382380Y-66160476D02*
X344810952Y-66589047D01*
X344382380Y-66160476D02*
X344953809Y-66731904D01*
X431062380Y-84154285D02*
X430062380Y-84154285D01*
X430062380Y-83916190D01*
X430110000Y-83773333D01*
X430205238Y-83678095D01*
X430300476Y-83630476D01*
X430490952Y-83582857D01*
X430633809Y-83582857D01*
X430824285Y-83630476D01*
X430919523Y-83678095D01*
X431014761Y-83773333D01*
X431062380Y-83916190D01*
X431062380Y-84154285D01*
X430062380Y-83249523D02*
X430062380Y-82582857D01*
X431062380Y-83011428D01*
X431062380Y-81678095D02*
X431062380Y-82249523D01*
X431062380Y-81963809D02*
X430062380Y-81963809D01*
X430205238Y-82059047D01*
X430300476Y-82154285D01*
X430348095Y-82249523D01*
X431382380Y-87011904D02*
X430382380Y-87011904D01*
X431382380Y-86440476D02*
X430810952Y-86869047D01*
X430382380Y-86440476D02*
X430953809Y-87011904D01*
X459363914Y-143422380D02*
X459363914Y-142422380D01*
X459602009Y-142422380D01*
X459744866Y-142470000D01*
X459840104Y-142565238D01*
X459887723Y-142660476D01*
X459935342Y-142850952D01*
X459935342Y-142993809D01*
X459887723Y-143184285D01*
X459840104Y-143279523D01*
X459744866Y-143374761D01*
X459602009Y-143422380D01*
X459363914Y-143422380D01*
X460268676Y-142422380D02*
X460935342Y-142422380D01*
X460506771Y-143422380D01*
X461268676Y-142517619D02*
X461316295Y-142470000D01*
X461411533Y-142422380D01*
X461649628Y-142422380D01*
X461744866Y-142470000D01*
X461792485Y-142517619D01*
X461840104Y-142612857D01*
X461840104Y-142708095D01*
X461792485Y-142850952D01*
X461221057Y-143422380D01*
X461840104Y-143422380D01*
X464126295Y-143102380D02*
X464126295Y-142102380D01*
X464697723Y-143102380D02*
X464269152Y-142530952D01*
X464697723Y-142102380D02*
X464126295Y-142673809D01*
X239842380Y-63874285D02*
X238842380Y-63874285D01*
X238842380Y-63636190D01*
X238890000Y-63493333D01*
X238985238Y-63398095D01*
X239080476Y-63350476D01*
X239270952Y-63302857D01*
X239413809Y-63302857D01*
X239604285Y-63350476D01*
X239699523Y-63398095D01*
X239794761Y-63493333D01*
X239842380Y-63636190D01*
X239842380Y-63874285D01*
X238842380Y-62969523D02*
X238842380Y-62302857D01*
X239842380Y-62731428D01*
X238842380Y-62017142D02*
X238842380Y-61398095D01*
X239223333Y-61731428D01*
X239223333Y-61588571D01*
X239270952Y-61493333D01*
X239318571Y-61445714D01*
X239413809Y-61398095D01*
X239651904Y-61398095D01*
X239747142Y-61445714D01*
X239794761Y-61493333D01*
X239842380Y-61588571D01*
X239842380Y-61874285D01*
X239794761Y-61969523D01*
X239747142Y-62017142D01*
X240162380Y-66731904D02*
X239162380Y-66731904D01*
X240162380Y-66160476D02*
X239590952Y-66589047D01*
X239162380Y-66160476D02*
X239733809Y-66731904D01*
X220843093Y-84154285D02*
X219843093Y-84154285D01*
X219843093Y-83916190D01*
X219890713Y-83773333D01*
X219985951Y-83678095D01*
X220081189Y-83630476D01*
X220271665Y-83582857D01*
X220414522Y-83582857D01*
X220604998Y-83630476D01*
X220700236Y-83678095D01*
X220795474Y-83773333D01*
X220843093Y-83916190D01*
X220843093Y-84154285D01*
X219843093Y-83249523D02*
X219843093Y-82582857D01*
X220843093Y-83011428D01*
X220176427Y-81773333D02*
X220843093Y-81773333D01*
X219795474Y-82011428D02*
X220509760Y-82249523D01*
X220509760Y-81630476D01*
X221163093Y-87011904D02*
X220163093Y-87011904D01*
X221163093Y-86440476D02*
X220591665Y-86869047D01*
X220163093Y-86440476D02*
X220734522Y-87011904D01*
X192144196Y-103184285D02*
X191144196Y-103184285D01*
X191144196Y-102946190D01*
X191191816Y-102803333D01*
X191287054Y-102708095D01*
X191382292Y-102660476D01*
X191572768Y-102612857D01*
X191715625Y-102612857D01*
X191906101Y-102660476D01*
X192001339Y-102708095D01*
X192096577Y-102803333D01*
X192144196Y-102946190D01*
X192144196Y-103184285D01*
X191144196Y-102279523D02*
X191144196Y-101612857D01*
X192144196Y-102041428D01*
X191144196Y-100755714D02*
X191144196Y-101231904D01*
X191620387Y-101279523D01*
X191572768Y-101231904D01*
X191525149Y-101136666D01*
X191525149Y-100898571D01*
X191572768Y-100803333D01*
X191620387Y-100755714D01*
X191715625Y-100708095D01*
X191953720Y-100708095D01*
X192048958Y-100755714D01*
X192096577Y-100803333D01*
X192144196Y-100898571D01*
X192144196Y-101136666D01*
X192096577Y-101231904D01*
X192048958Y-101279523D01*
X192464196Y-106041904D02*
X191464196Y-106041904D01*
X192464196Y-105470476D02*
X191892768Y-105899047D01*
X191464196Y-105470476D02*
X192035625Y-106041904D01*
X177959045Y-122224285D02*
X176959045Y-122224285D01*
X176959045Y-121986190D01*
X177006665Y-121843333D01*
X177101903Y-121748095D01*
X177197141Y-121700476D01*
X177387617Y-121652857D01*
X177530474Y-121652857D01*
X177720950Y-121700476D01*
X177816188Y-121748095D01*
X177911426Y-121843333D01*
X177959045Y-121986190D01*
X177959045Y-122224285D01*
X176959045Y-121319523D02*
X176959045Y-120652857D01*
X177959045Y-121081428D01*
X176959045Y-119843333D02*
X176959045Y-120033809D01*
X177006665Y-120129047D01*
X177054284Y-120176666D01*
X177197141Y-120271904D01*
X177387617Y-120319523D01*
X177768569Y-120319523D01*
X177863807Y-120271904D01*
X177911426Y-120224285D01*
X177959045Y-120129047D01*
X177959045Y-119938571D01*
X177911426Y-119843333D01*
X177863807Y-119795714D01*
X177768569Y-119748095D01*
X177530474Y-119748095D01*
X177435236Y-119795714D01*
X177387617Y-119843333D01*
X177339998Y-119938571D01*
X177339998Y-120129047D01*
X177387617Y-120224285D01*
X177435236Y-120271904D01*
X177530474Y-120319523D01*
X178279045Y-125081904D02*
X177279045Y-125081904D01*
X178279045Y-124510476D02*
X177707617Y-124939047D01*
X177279045Y-124510476D02*
X177850474Y-125081904D01*
X187964380Y-141274285D02*
X186964380Y-141274285D01*
X186964380Y-141036190D01*
X187012000Y-140893333D01*
X187107238Y-140798095D01*
X187202476Y-140750476D01*
X187392952Y-140702857D01*
X187535809Y-140702857D01*
X187726285Y-140750476D01*
X187821523Y-140798095D01*
X187916761Y-140893333D01*
X187964380Y-141036190D01*
X187964380Y-141274285D01*
X186964380Y-140369523D02*
X186964380Y-139702857D01*
X187964380Y-140131428D01*
X186964380Y-139417142D02*
X186964380Y-138750476D01*
X187964380Y-139179047D01*
X188284380Y-144131904D02*
X187284380Y-144131904D01*
X188284380Y-143560476D02*
X187712952Y-143989047D01*
X187284380Y-143560476D02*
X187855809Y-144131904D01*
X364112380Y-63874285D02*
X363112380Y-63874285D01*
X363112380Y-63636190D01*
X363160000Y-63493333D01*
X363255238Y-63398095D01*
X363350476Y-63350476D01*
X363540952Y-63302857D01*
X363683809Y-63302857D01*
X363874285Y-63350476D01*
X363969523Y-63398095D01*
X364064761Y-63493333D01*
X364112380Y-63636190D01*
X364112380Y-63874285D01*
X363112380Y-62969523D02*
X363112380Y-62302857D01*
X364112380Y-62731428D01*
X363540952Y-61779047D02*
X363493333Y-61874285D01*
X363445714Y-61921904D01*
X363350476Y-61969523D01*
X363302857Y-61969523D01*
X363207619Y-61921904D01*
X363160000Y-61874285D01*
X363112380Y-61779047D01*
X363112380Y-61588571D01*
X363160000Y-61493333D01*
X363207619Y-61445714D01*
X363302857Y-61398095D01*
X363350476Y-61398095D01*
X363445714Y-61445714D01*
X363493333Y-61493333D01*
X363540952Y-61588571D01*
X363540952Y-61779047D01*
X363588571Y-61874285D01*
X363636190Y-61921904D01*
X363731428Y-61969523D01*
X363921904Y-61969523D01*
X364017142Y-61921904D01*
X364064761Y-61874285D01*
X364112380Y-61779047D01*
X364112380Y-61588571D01*
X364064761Y-61493333D01*
X364017142Y-61445714D01*
X363921904Y-61398095D01*
X363731428Y-61398095D01*
X363636190Y-61445714D01*
X363588571Y-61493333D01*
X363540952Y-61588571D01*
X364432380Y-66731904D02*
X363432380Y-66731904D01*
X364432380Y-66160476D02*
X363860952Y-66589047D01*
X363432380Y-66160476D02*
X364003809Y-66731904D01*
X450082380Y-84154285D02*
X449082380Y-84154285D01*
X449082380Y-83916190D01*
X449130000Y-83773333D01*
X449225238Y-83678095D01*
X449320476Y-83630476D01*
X449510952Y-83582857D01*
X449653809Y-83582857D01*
X449844285Y-83630476D01*
X449939523Y-83678095D01*
X450034761Y-83773333D01*
X450082380Y-83916190D01*
X450082380Y-84154285D01*
X449082380Y-83249523D02*
X449082380Y-82582857D01*
X450082380Y-83011428D01*
X450082380Y-82154285D02*
X450082380Y-81963809D01*
X450034761Y-81868571D01*
X449987142Y-81820952D01*
X449844285Y-81725714D01*
X449653809Y-81678095D01*
X449272857Y-81678095D01*
X449177619Y-81725714D01*
X449130000Y-81773333D01*
X449082380Y-81868571D01*
X449082380Y-82059047D01*
X449130000Y-82154285D01*
X449177619Y-82201904D01*
X449272857Y-82249523D01*
X449510952Y-82249523D01*
X449606190Y-82201904D01*
X449653809Y-82154285D01*
X449701428Y-82059047D01*
X449701428Y-81868571D01*
X449653809Y-81773333D01*
X449606190Y-81725714D01*
X449510952Y-81678095D01*
X450402380Y-87011904D02*
X449402380Y-87011904D01*
X450402380Y-86440476D02*
X449830952Y-86869047D01*
X449402380Y-86440476D02*
X449973809Y-87011904D01*
X421372380Y-156964285D02*
X420372380Y-156964285D01*
X420372380Y-156726190D01*
X420420000Y-156583333D01*
X420515238Y-156488095D01*
X420610476Y-156440476D01*
X420800952Y-156392857D01*
X420943809Y-156392857D01*
X421134285Y-156440476D01*
X421229523Y-156488095D01*
X421324761Y-156583333D01*
X421372380Y-156726190D01*
X421372380Y-156964285D01*
X420800952Y-155821428D02*
X420753333Y-155916666D01*
X420705714Y-155964285D01*
X420610476Y-156011904D01*
X420562857Y-156011904D01*
X420467619Y-155964285D01*
X420420000Y-155916666D01*
X420372380Y-155821428D01*
X420372380Y-155630952D01*
X420420000Y-155535714D01*
X420467619Y-155488095D01*
X420562857Y-155440476D01*
X420610476Y-155440476D01*
X420705714Y-155488095D01*
X420753333Y-155535714D01*
X420800952Y-155630952D01*
X420800952Y-155821428D01*
X420848571Y-155916666D01*
X420896190Y-155964285D01*
X420991428Y-156011904D01*
X421181904Y-156011904D01*
X421277142Y-155964285D01*
X421324761Y-155916666D01*
X421372380Y-155821428D01*
X421372380Y-155630952D01*
X421324761Y-155535714D01*
X421277142Y-155488095D01*
X421181904Y-155440476D01*
X420991428Y-155440476D01*
X420896190Y-155488095D01*
X420848571Y-155535714D01*
X420800952Y-155630952D01*
X420372380Y-154821428D02*
X420372380Y-154726190D01*
X420420000Y-154630952D01*
X420467619Y-154583333D01*
X420562857Y-154535714D01*
X420753333Y-154488095D01*
X420991428Y-154488095D01*
X421181904Y-154535714D01*
X421277142Y-154583333D01*
X421324761Y-154630952D01*
X421372380Y-154726190D01*
X421372380Y-154821428D01*
X421324761Y-154916666D01*
X421277142Y-154964285D01*
X421181904Y-155011904D01*
X420991428Y-155059523D01*
X420753333Y-155059523D01*
X420562857Y-155011904D01*
X420467619Y-154964285D01*
X420420000Y-154916666D01*
X420372380Y-154821428D01*
X421692380Y-159821904D02*
X420692380Y-159821904D01*
X421692380Y-159250476D02*
X421120952Y-159679047D01*
X420692380Y-159250476D02*
X421263809Y-159821904D01*
X258865713Y-63874285D02*
X257865713Y-63874285D01*
X257865713Y-63636190D01*
X257913333Y-63493333D01*
X258008571Y-63398095D01*
X258103809Y-63350476D01*
X258294285Y-63302857D01*
X258437142Y-63302857D01*
X258627618Y-63350476D01*
X258722856Y-63398095D01*
X258818094Y-63493333D01*
X258865713Y-63636190D01*
X258865713Y-63874285D01*
X258294285Y-62731428D02*
X258246666Y-62826666D01*
X258199047Y-62874285D01*
X258103809Y-62921904D01*
X258056190Y-62921904D01*
X257960952Y-62874285D01*
X257913333Y-62826666D01*
X257865713Y-62731428D01*
X257865713Y-62540952D01*
X257913333Y-62445714D01*
X257960952Y-62398095D01*
X258056190Y-62350476D01*
X258103809Y-62350476D01*
X258199047Y-62398095D01*
X258246666Y-62445714D01*
X258294285Y-62540952D01*
X258294285Y-62731428D01*
X258341904Y-62826666D01*
X258389523Y-62874285D01*
X258484761Y-62921904D01*
X258675237Y-62921904D01*
X258770475Y-62874285D01*
X258818094Y-62826666D01*
X258865713Y-62731428D01*
X258865713Y-62540952D01*
X258818094Y-62445714D01*
X258770475Y-62398095D01*
X258675237Y-62350476D01*
X258484761Y-62350476D01*
X258389523Y-62398095D01*
X258341904Y-62445714D01*
X258294285Y-62540952D01*
X258865713Y-61398095D02*
X258865713Y-61969523D01*
X258865713Y-61683809D02*
X257865713Y-61683809D01*
X258008571Y-61779047D01*
X258103809Y-61874285D01*
X258151428Y-61969523D01*
X259185713Y-66731904D02*
X258185713Y-66731904D01*
X259185713Y-66160476D02*
X258614285Y-66589047D01*
X258185713Y-66160476D02*
X258757142Y-66731904D01*
X239860950Y-84154285D02*
X238860950Y-84154285D01*
X238860950Y-83916190D01*
X238908570Y-83773333D01*
X239003808Y-83678095D01*
X239099046Y-83630476D01*
X239289522Y-83582857D01*
X239432379Y-83582857D01*
X239622855Y-83630476D01*
X239718093Y-83678095D01*
X239813331Y-83773333D01*
X239860950Y-83916190D01*
X239860950Y-84154285D01*
X239289522Y-83011428D02*
X239241903Y-83106666D01*
X239194284Y-83154285D01*
X239099046Y-83201904D01*
X239051427Y-83201904D01*
X238956189Y-83154285D01*
X238908570Y-83106666D01*
X238860950Y-83011428D01*
X238860950Y-82820952D01*
X238908570Y-82725714D01*
X238956189Y-82678095D01*
X239051427Y-82630476D01*
X239099046Y-82630476D01*
X239194284Y-82678095D01*
X239241903Y-82725714D01*
X239289522Y-82820952D01*
X239289522Y-83011428D01*
X239337141Y-83106666D01*
X239384760Y-83154285D01*
X239479998Y-83201904D01*
X239670474Y-83201904D01*
X239765712Y-83154285D01*
X239813331Y-83106666D01*
X239860950Y-83011428D01*
X239860950Y-82820952D01*
X239813331Y-82725714D01*
X239765712Y-82678095D01*
X239670474Y-82630476D01*
X239479998Y-82630476D01*
X239384760Y-82678095D01*
X239337141Y-82725714D01*
X239289522Y-82820952D01*
X238956189Y-82249523D02*
X238908570Y-82201904D01*
X238860950Y-82106666D01*
X238860950Y-81868571D01*
X238908570Y-81773333D01*
X238956189Y-81725714D01*
X239051427Y-81678095D01*
X239146665Y-81678095D01*
X239289522Y-81725714D01*
X239860950Y-82297142D01*
X239860950Y-81678095D01*
X240180950Y-87011904D02*
X239180950Y-87011904D01*
X240180950Y-86440476D02*
X239609522Y-86869047D01*
X239180950Y-86440476D02*
X239752379Y-87011904D01*
X211167832Y-103184285D02*
X210167832Y-103184285D01*
X210167832Y-102946190D01*
X210215452Y-102803333D01*
X210310690Y-102708095D01*
X210405928Y-102660476D01*
X210596404Y-102612857D01*
X210739261Y-102612857D01*
X210929737Y-102660476D01*
X211024975Y-102708095D01*
X211120213Y-102803333D01*
X211167832Y-102946190D01*
X211167832Y-103184285D01*
X210596404Y-102041428D02*
X210548785Y-102136666D01*
X210501166Y-102184285D01*
X210405928Y-102231904D01*
X210358309Y-102231904D01*
X210263071Y-102184285D01*
X210215452Y-102136666D01*
X210167832Y-102041428D01*
X210167832Y-101850952D01*
X210215452Y-101755714D01*
X210263071Y-101708095D01*
X210358309Y-101660476D01*
X210405928Y-101660476D01*
X210501166Y-101708095D01*
X210548785Y-101755714D01*
X210596404Y-101850952D01*
X210596404Y-102041428D01*
X210644023Y-102136666D01*
X210691642Y-102184285D01*
X210786880Y-102231904D01*
X210977356Y-102231904D01*
X211072594Y-102184285D01*
X211120213Y-102136666D01*
X211167832Y-102041428D01*
X211167832Y-101850952D01*
X211120213Y-101755714D01*
X211072594Y-101708095D01*
X210977356Y-101660476D01*
X210786880Y-101660476D01*
X210691642Y-101708095D01*
X210644023Y-101755714D01*
X210596404Y-101850952D01*
X210167832Y-101327142D02*
X210167832Y-100708095D01*
X210548785Y-101041428D01*
X210548785Y-100898571D01*
X210596404Y-100803333D01*
X210644023Y-100755714D01*
X210739261Y-100708095D01*
X210977356Y-100708095D01*
X211072594Y-100755714D01*
X211120213Y-100803333D01*
X211167832Y-100898571D01*
X211167832Y-101184285D01*
X211120213Y-101279523D01*
X211072594Y-101327142D01*
X211487832Y-106041904D02*
X210487832Y-106041904D01*
X211487832Y-105470476D02*
X210916404Y-105899047D01*
X210487832Y-105470476D02*
X211059261Y-106041904D01*
X196982378Y-122224285D02*
X195982378Y-122224285D01*
X195982378Y-121986190D01*
X196029998Y-121843333D01*
X196125236Y-121748095D01*
X196220474Y-121700476D01*
X196410950Y-121652857D01*
X196553807Y-121652857D01*
X196744283Y-121700476D01*
X196839521Y-121748095D01*
X196934759Y-121843333D01*
X196982378Y-121986190D01*
X196982378Y-122224285D01*
X196410950Y-121081428D02*
X196363331Y-121176666D01*
X196315712Y-121224285D01*
X196220474Y-121271904D01*
X196172855Y-121271904D01*
X196077617Y-121224285D01*
X196029998Y-121176666D01*
X195982378Y-121081428D01*
X195982378Y-120890952D01*
X196029998Y-120795714D01*
X196077617Y-120748095D01*
X196172855Y-120700476D01*
X196220474Y-120700476D01*
X196315712Y-120748095D01*
X196363331Y-120795714D01*
X196410950Y-120890952D01*
X196410950Y-121081428D01*
X196458569Y-121176666D01*
X196506188Y-121224285D01*
X196601426Y-121271904D01*
X196791902Y-121271904D01*
X196887140Y-121224285D01*
X196934759Y-121176666D01*
X196982378Y-121081428D01*
X196982378Y-120890952D01*
X196934759Y-120795714D01*
X196887140Y-120748095D01*
X196791902Y-120700476D01*
X196601426Y-120700476D01*
X196506188Y-120748095D01*
X196458569Y-120795714D01*
X196410950Y-120890952D01*
X196315712Y-119843333D02*
X196982378Y-119843333D01*
X195934759Y-120081428D02*
X196649045Y-120319523D01*
X196649045Y-119700476D01*
X197302378Y-125081904D02*
X196302378Y-125081904D01*
X197302378Y-124510476D02*
X196730950Y-124939047D01*
X196302378Y-124510476D02*
X196873807Y-125081904D01*
X207011380Y-141274285D02*
X206011380Y-141274285D01*
X206011380Y-141036190D01*
X206059000Y-140893333D01*
X206154238Y-140798095D01*
X206249476Y-140750476D01*
X206439952Y-140702857D01*
X206582809Y-140702857D01*
X206773285Y-140750476D01*
X206868523Y-140798095D01*
X206963761Y-140893333D01*
X207011380Y-141036190D01*
X207011380Y-141274285D01*
X206439952Y-140131428D02*
X206392333Y-140226666D01*
X206344714Y-140274285D01*
X206249476Y-140321904D01*
X206201857Y-140321904D01*
X206106619Y-140274285D01*
X206059000Y-140226666D01*
X206011380Y-140131428D01*
X206011380Y-139940952D01*
X206059000Y-139845714D01*
X206106619Y-139798095D01*
X206201857Y-139750476D01*
X206249476Y-139750476D01*
X206344714Y-139798095D01*
X206392333Y-139845714D01*
X206439952Y-139940952D01*
X206439952Y-140131428D01*
X206487571Y-140226666D01*
X206535190Y-140274285D01*
X206630428Y-140321904D01*
X206820904Y-140321904D01*
X206916142Y-140274285D01*
X206963761Y-140226666D01*
X207011380Y-140131428D01*
X207011380Y-139940952D01*
X206963761Y-139845714D01*
X206916142Y-139798095D01*
X206820904Y-139750476D01*
X206630428Y-139750476D01*
X206535190Y-139798095D01*
X206487571Y-139845714D01*
X206439952Y-139940952D01*
X206011380Y-138845714D02*
X206011380Y-139321904D01*
X206487571Y-139369523D01*
X206439952Y-139321904D01*
X206392333Y-139226666D01*
X206392333Y-138988571D01*
X206439952Y-138893333D01*
X206487571Y-138845714D01*
X206582809Y-138798095D01*
X206820904Y-138798095D01*
X206916142Y-138845714D01*
X206963761Y-138893333D01*
X207011380Y-138988571D01*
X207011380Y-139226666D01*
X206963761Y-139321904D01*
X206916142Y-139369523D01*
X207331380Y-144131904D02*
X206331380Y-144131904D01*
X207331380Y-143560476D02*
X206759952Y-143989047D01*
X206331380Y-143560476D02*
X206902809Y-144131904D01*
X345062380Y-84154285D02*
X344062380Y-84154285D01*
X344062380Y-83916190D01*
X344110000Y-83773333D01*
X344205238Y-83678095D01*
X344300476Y-83630476D01*
X344490952Y-83582857D01*
X344633809Y-83582857D01*
X344824285Y-83630476D01*
X344919523Y-83678095D01*
X345014761Y-83773333D01*
X345062380Y-83916190D01*
X345062380Y-84154285D01*
X344490952Y-83011428D02*
X344443333Y-83106666D01*
X344395714Y-83154285D01*
X344300476Y-83201904D01*
X344252857Y-83201904D01*
X344157619Y-83154285D01*
X344110000Y-83106666D01*
X344062380Y-83011428D01*
X344062380Y-82820952D01*
X344110000Y-82725714D01*
X344157619Y-82678095D01*
X344252857Y-82630476D01*
X344300476Y-82630476D01*
X344395714Y-82678095D01*
X344443333Y-82725714D01*
X344490952Y-82820952D01*
X344490952Y-83011428D01*
X344538571Y-83106666D01*
X344586190Y-83154285D01*
X344681428Y-83201904D01*
X344871904Y-83201904D01*
X344967142Y-83154285D01*
X345014761Y-83106666D01*
X345062380Y-83011428D01*
X345062380Y-82820952D01*
X345014761Y-82725714D01*
X344967142Y-82678095D01*
X344871904Y-82630476D01*
X344681428Y-82630476D01*
X344586190Y-82678095D01*
X344538571Y-82725714D01*
X344490952Y-82820952D01*
X344062380Y-81773333D02*
X344062380Y-81963809D01*
X344110000Y-82059047D01*
X344157619Y-82106666D01*
X344300476Y-82201904D01*
X344490952Y-82249523D01*
X344871904Y-82249523D01*
X344967142Y-82201904D01*
X345014761Y-82154285D01*
X345062380Y-82059047D01*
X345062380Y-81868571D01*
X345014761Y-81773333D01*
X344967142Y-81725714D01*
X344871904Y-81678095D01*
X344633809Y-81678095D01*
X344538571Y-81725714D01*
X344490952Y-81773333D01*
X344443333Y-81868571D01*
X344443333Y-82059047D01*
X344490952Y-82154285D01*
X344538571Y-82201904D01*
X344633809Y-82249523D01*
X345382380Y-87011904D02*
X344382380Y-87011904D01*
X345382380Y-86440476D02*
X344810952Y-86869047D01*
X344382380Y-86440476D02*
X344953809Y-87011904D01*
X458745714Y-91492380D02*
X458745714Y-90492380D01*
X458983809Y-90492380D01*
X459126666Y-90540000D01*
X459221904Y-90635238D01*
X459269523Y-90730476D01*
X459317142Y-90920952D01*
X459317142Y-91063809D01*
X459269523Y-91254285D01*
X459221904Y-91349523D01*
X459126666Y-91444761D01*
X458983809Y-91492380D01*
X458745714Y-91492380D01*
X459888571Y-90920952D02*
X459793333Y-90873333D01*
X459745714Y-90825714D01*
X459698095Y-90730476D01*
X459698095Y-90682857D01*
X459745714Y-90587619D01*
X459793333Y-90540000D01*
X459888571Y-90492380D01*
X460079047Y-90492380D01*
X460174285Y-90540000D01*
X460221904Y-90587619D01*
X460269523Y-90682857D01*
X460269523Y-90730476D01*
X460221904Y-90825714D01*
X460174285Y-90873333D01*
X460079047Y-90920952D01*
X459888571Y-90920952D01*
X459793333Y-90968571D01*
X459745714Y-91016190D01*
X459698095Y-91111428D01*
X459698095Y-91301904D01*
X459745714Y-91397142D01*
X459793333Y-91444761D01*
X459888571Y-91492380D01*
X460079047Y-91492380D01*
X460174285Y-91444761D01*
X460221904Y-91397142D01*
X460269523Y-91301904D01*
X460269523Y-91111428D01*
X460221904Y-91016190D01*
X460174285Y-90968571D01*
X460079047Y-90920952D01*
X460602857Y-90492380D02*
X461269523Y-90492380D01*
X460840952Y-91492380D01*
X455888095Y-91812380D02*
X455888095Y-90812380D01*
X456459523Y-91812380D02*
X456030952Y-91240952D01*
X456459523Y-90812380D02*
X455888095Y-91383809D01*
X450092380Y-156954285D02*
X449092380Y-156954285D01*
X449092380Y-156716190D01*
X449140000Y-156573333D01*
X449235238Y-156478095D01*
X449330476Y-156430476D01*
X449520952Y-156382857D01*
X449663809Y-156382857D01*
X449854285Y-156430476D01*
X449949523Y-156478095D01*
X450044761Y-156573333D01*
X450092380Y-156716190D01*
X450092380Y-156954285D01*
X449520952Y-155811428D02*
X449473333Y-155906666D01*
X449425714Y-155954285D01*
X449330476Y-156001904D01*
X449282857Y-156001904D01*
X449187619Y-155954285D01*
X449140000Y-155906666D01*
X449092380Y-155811428D01*
X449092380Y-155620952D01*
X449140000Y-155525714D01*
X449187619Y-155478095D01*
X449282857Y-155430476D01*
X449330476Y-155430476D01*
X449425714Y-155478095D01*
X449473333Y-155525714D01*
X449520952Y-155620952D01*
X449520952Y-155811428D01*
X449568571Y-155906666D01*
X449616190Y-155954285D01*
X449711428Y-156001904D01*
X449901904Y-156001904D01*
X449997142Y-155954285D01*
X450044761Y-155906666D01*
X450092380Y-155811428D01*
X450092380Y-155620952D01*
X450044761Y-155525714D01*
X449997142Y-155478095D01*
X449901904Y-155430476D01*
X449711428Y-155430476D01*
X449616190Y-155478095D01*
X449568571Y-155525714D01*
X449520952Y-155620952D01*
X449520952Y-154859047D02*
X449473333Y-154954285D01*
X449425714Y-155001904D01*
X449330476Y-155049523D01*
X449282857Y-155049523D01*
X449187619Y-155001904D01*
X449140000Y-154954285D01*
X449092380Y-154859047D01*
X449092380Y-154668571D01*
X449140000Y-154573333D01*
X449187619Y-154525714D01*
X449282857Y-154478095D01*
X449330476Y-154478095D01*
X449425714Y-154525714D01*
X449473333Y-154573333D01*
X449520952Y-154668571D01*
X449520952Y-154859047D01*
X449568571Y-154954285D01*
X449616190Y-155001904D01*
X449711428Y-155049523D01*
X449901904Y-155049523D01*
X449997142Y-155001904D01*
X450044761Y-154954285D01*
X450092380Y-154859047D01*
X450092380Y-154668571D01*
X450044761Y-154573333D01*
X449997142Y-154525714D01*
X449901904Y-154478095D01*
X449711428Y-154478095D01*
X449616190Y-154525714D01*
X449568571Y-154573333D01*
X449520952Y-154668571D01*
X450412380Y-159811904D02*
X449412380Y-159811904D01*
X450412380Y-159240476D02*
X449840952Y-159669047D01*
X449412380Y-159240476D02*
X449983809Y-159811904D01*
X277889046Y-63874285D02*
X276889046Y-63874285D01*
X276889046Y-63636190D01*
X276936666Y-63493333D01*
X277031904Y-63398095D01*
X277127142Y-63350476D01*
X277317618Y-63302857D01*
X277460475Y-63302857D01*
X277650951Y-63350476D01*
X277746189Y-63398095D01*
X277841427Y-63493333D01*
X277889046Y-63636190D01*
X277889046Y-63874285D01*
X277317618Y-62731428D02*
X277269999Y-62826666D01*
X277222380Y-62874285D01*
X277127142Y-62921904D01*
X277079523Y-62921904D01*
X276984285Y-62874285D01*
X276936666Y-62826666D01*
X276889046Y-62731428D01*
X276889046Y-62540952D01*
X276936666Y-62445714D01*
X276984285Y-62398095D01*
X277079523Y-62350476D01*
X277127142Y-62350476D01*
X277222380Y-62398095D01*
X277269999Y-62445714D01*
X277317618Y-62540952D01*
X277317618Y-62731428D01*
X277365237Y-62826666D01*
X277412856Y-62874285D01*
X277508094Y-62921904D01*
X277698570Y-62921904D01*
X277793808Y-62874285D01*
X277841427Y-62826666D01*
X277889046Y-62731428D01*
X277889046Y-62540952D01*
X277841427Y-62445714D01*
X277793808Y-62398095D01*
X277698570Y-62350476D01*
X277508094Y-62350476D01*
X277412856Y-62398095D01*
X277365237Y-62445714D01*
X277317618Y-62540952D01*
X277889046Y-61874285D02*
X277889046Y-61683809D01*
X277841427Y-61588571D01*
X277793808Y-61540952D01*
X277650951Y-61445714D01*
X277460475Y-61398095D01*
X277079523Y-61398095D01*
X276984285Y-61445714D01*
X276936666Y-61493333D01*
X276889046Y-61588571D01*
X276889046Y-61779047D01*
X276936666Y-61874285D01*
X276984285Y-61921904D01*
X277079523Y-61969523D01*
X277317618Y-61969523D01*
X277412856Y-61921904D01*
X277460475Y-61874285D01*
X277508094Y-61779047D01*
X277508094Y-61588571D01*
X277460475Y-61493333D01*
X277412856Y-61445714D01*
X277317618Y-61398095D01*
X278209046Y-66731904D02*
X277209046Y-66731904D01*
X278209046Y-66160476D02*
X277637618Y-66589047D01*
X277209046Y-66160476D02*
X277780475Y-66731904D01*
X258878807Y-84154285D02*
X257878807Y-84154285D01*
X257878807Y-83916190D01*
X257926427Y-83773333D01*
X258021665Y-83678095D01*
X258116903Y-83630476D01*
X258307379Y-83582857D01*
X258450236Y-83582857D01*
X258640712Y-83630476D01*
X258735950Y-83678095D01*
X258831188Y-83773333D01*
X258878807Y-83916190D01*
X258878807Y-84154285D01*
X258878807Y-83106666D02*
X258878807Y-82916190D01*
X258831188Y-82820952D01*
X258783569Y-82773333D01*
X258640712Y-82678095D01*
X258450236Y-82630476D01*
X258069284Y-82630476D01*
X257974046Y-82678095D01*
X257926427Y-82725714D01*
X257878807Y-82820952D01*
X257878807Y-83011428D01*
X257926427Y-83106666D01*
X257974046Y-83154285D01*
X258069284Y-83201904D01*
X258307379Y-83201904D01*
X258402617Y-83154285D01*
X258450236Y-83106666D01*
X258497855Y-83011428D01*
X258497855Y-82820952D01*
X258450236Y-82725714D01*
X258402617Y-82678095D01*
X258307379Y-82630476D01*
X257878807Y-82011428D02*
X257878807Y-81916190D01*
X257926427Y-81820952D01*
X257974046Y-81773333D01*
X258069284Y-81725714D01*
X258259760Y-81678095D01*
X258497855Y-81678095D01*
X258688331Y-81725714D01*
X258783569Y-81773333D01*
X258831188Y-81820952D01*
X258878807Y-81916190D01*
X258878807Y-82011428D01*
X258831188Y-82106666D01*
X258783569Y-82154285D01*
X258688331Y-82201904D01*
X258497855Y-82249523D01*
X258259760Y-82249523D01*
X258069284Y-82201904D01*
X257974046Y-82154285D01*
X257926427Y-82106666D01*
X257878807Y-82011428D01*
X259198807Y-87011904D02*
X258198807Y-87011904D01*
X259198807Y-86440476D02*
X258627379Y-86869047D01*
X258198807Y-86440476D02*
X258770236Y-87011904D01*
X230191468Y-103184285D02*
X229191468Y-103184285D01*
X229191468Y-102946190D01*
X229239088Y-102803333D01*
X229334326Y-102708095D01*
X229429564Y-102660476D01*
X229620040Y-102612857D01*
X229762897Y-102612857D01*
X229953373Y-102660476D01*
X230048611Y-102708095D01*
X230143849Y-102803333D01*
X230191468Y-102946190D01*
X230191468Y-103184285D01*
X230191468Y-102136666D02*
X230191468Y-101946190D01*
X230143849Y-101850952D01*
X230096230Y-101803333D01*
X229953373Y-101708095D01*
X229762897Y-101660476D01*
X229381945Y-101660476D01*
X229286707Y-101708095D01*
X229239088Y-101755714D01*
X229191468Y-101850952D01*
X229191468Y-102041428D01*
X229239088Y-102136666D01*
X229286707Y-102184285D01*
X229381945Y-102231904D01*
X229620040Y-102231904D01*
X229715278Y-102184285D01*
X229762897Y-102136666D01*
X229810516Y-102041428D01*
X229810516Y-101850952D01*
X229762897Y-101755714D01*
X229715278Y-101708095D01*
X229620040Y-101660476D01*
X230191468Y-100708095D02*
X230191468Y-101279523D01*
X230191468Y-100993809D02*
X229191468Y-100993809D01*
X229334326Y-101089047D01*
X229429564Y-101184285D01*
X229477183Y-101279523D01*
X230511468Y-106041904D02*
X229511468Y-106041904D01*
X230511468Y-105470476D02*
X229940040Y-105899047D01*
X229511468Y-105470476D02*
X230082897Y-106041904D01*
X216005711Y-122224285D02*
X215005711Y-122224285D01*
X215005711Y-121986190D01*
X215053331Y-121843333D01*
X215148569Y-121748095D01*
X215243807Y-121700476D01*
X215434283Y-121652857D01*
X215577140Y-121652857D01*
X215767616Y-121700476D01*
X215862854Y-121748095D01*
X215958092Y-121843333D01*
X216005711Y-121986190D01*
X216005711Y-122224285D01*
X216005711Y-121176666D02*
X216005711Y-120986190D01*
X215958092Y-120890952D01*
X215910473Y-120843333D01*
X215767616Y-120748095D01*
X215577140Y-120700476D01*
X215196188Y-120700476D01*
X215100950Y-120748095D01*
X215053331Y-120795714D01*
X215005711Y-120890952D01*
X215005711Y-121081428D01*
X215053331Y-121176666D01*
X215100950Y-121224285D01*
X215196188Y-121271904D01*
X215434283Y-121271904D01*
X215529521Y-121224285D01*
X215577140Y-121176666D01*
X215624759Y-121081428D01*
X215624759Y-120890952D01*
X215577140Y-120795714D01*
X215529521Y-120748095D01*
X215434283Y-120700476D01*
X215100950Y-120319523D02*
X215053331Y-120271904D01*
X215005711Y-120176666D01*
X215005711Y-119938571D01*
X215053331Y-119843333D01*
X215100950Y-119795714D01*
X215196188Y-119748095D01*
X215291426Y-119748095D01*
X215434283Y-119795714D01*
X216005711Y-120367142D01*
X216005711Y-119748095D01*
X216325711Y-125081904D02*
X215325711Y-125081904D01*
X216325711Y-124510476D02*
X215754283Y-124939047D01*
X215325711Y-124510476D02*
X215897140Y-125081904D01*
X226058380Y-141274285D02*
X225058380Y-141274285D01*
X225058380Y-141036190D01*
X225106000Y-140893333D01*
X225201238Y-140798095D01*
X225296476Y-140750476D01*
X225486952Y-140702857D01*
X225629809Y-140702857D01*
X225820285Y-140750476D01*
X225915523Y-140798095D01*
X226010761Y-140893333D01*
X226058380Y-141036190D01*
X226058380Y-141274285D01*
X226058380Y-140226666D02*
X226058380Y-140036190D01*
X226010761Y-139940952D01*
X225963142Y-139893333D01*
X225820285Y-139798095D01*
X225629809Y-139750476D01*
X225248857Y-139750476D01*
X225153619Y-139798095D01*
X225106000Y-139845714D01*
X225058380Y-139940952D01*
X225058380Y-140131428D01*
X225106000Y-140226666D01*
X225153619Y-140274285D01*
X225248857Y-140321904D01*
X225486952Y-140321904D01*
X225582190Y-140274285D01*
X225629809Y-140226666D01*
X225677428Y-140131428D01*
X225677428Y-139940952D01*
X225629809Y-139845714D01*
X225582190Y-139798095D01*
X225486952Y-139750476D01*
X225058380Y-139417142D02*
X225058380Y-138798095D01*
X225439333Y-139131428D01*
X225439333Y-138988571D01*
X225486952Y-138893333D01*
X225534571Y-138845714D01*
X225629809Y-138798095D01*
X225867904Y-138798095D01*
X225963142Y-138845714D01*
X226010761Y-138893333D01*
X226058380Y-138988571D01*
X226058380Y-139274285D01*
X226010761Y-139369523D01*
X225963142Y-139417142D01*
X226378380Y-144131904D02*
X225378380Y-144131904D01*
X226378380Y-143560476D02*
X225806952Y-143989047D01*
X225378380Y-143560476D02*
X225949809Y-144131904D01*
X364102380Y-84154285D02*
X363102380Y-84154285D01*
X363102380Y-83916190D01*
X363150000Y-83773333D01*
X363245238Y-83678095D01*
X363340476Y-83630476D01*
X363530952Y-83582857D01*
X363673809Y-83582857D01*
X363864285Y-83630476D01*
X363959523Y-83678095D01*
X364054761Y-83773333D01*
X364102380Y-83916190D01*
X364102380Y-84154285D01*
X364102380Y-83106666D02*
X364102380Y-82916190D01*
X364054761Y-82820952D01*
X364007142Y-82773333D01*
X363864285Y-82678095D01*
X363673809Y-82630476D01*
X363292857Y-82630476D01*
X363197619Y-82678095D01*
X363150000Y-82725714D01*
X363102380Y-82820952D01*
X363102380Y-83011428D01*
X363150000Y-83106666D01*
X363197619Y-83154285D01*
X363292857Y-83201904D01*
X363530952Y-83201904D01*
X363626190Y-83154285D01*
X363673809Y-83106666D01*
X363721428Y-83011428D01*
X363721428Y-82820952D01*
X363673809Y-82725714D01*
X363626190Y-82678095D01*
X363530952Y-82630476D01*
X363435714Y-81773333D02*
X364102380Y-81773333D01*
X363054761Y-82011428D02*
X363769047Y-82249523D01*
X363769047Y-81630476D01*
X364422380Y-87011904D02*
X363422380Y-87011904D01*
X364422380Y-86440476D02*
X363850952Y-86869047D01*
X363422380Y-86440476D02*
X363993809Y-87011904D01*
X412032380Y-103184285D02*
X411032380Y-103184285D01*
X411032380Y-102946190D01*
X411080000Y-102803333D01*
X411175238Y-102708095D01*
X411270476Y-102660476D01*
X411460952Y-102612857D01*
X411603809Y-102612857D01*
X411794285Y-102660476D01*
X411889523Y-102708095D01*
X411984761Y-102803333D01*
X412032380Y-102946190D01*
X412032380Y-103184285D01*
X412032380Y-102136666D02*
X412032380Y-101946190D01*
X411984761Y-101850952D01*
X411937142Y-101803333D01*
X411794285Y-101708095D01*
X411603809Y-101660476D01*
X411222857Y-101660476D01*
X411127619Y-101708095D01*
X411080000Y-101755714D01*
X411032380Y-101850952D01*
X411032380Y-102041428D01*
X411080000Y-102136666D01*
X411127619Y-102184285D01*
X411222857Y-102231904D01*
X411460952Y-102231904D01*
X411556190Y-102184285D01*
X411603809Y-102136666D01*
X411651428Y-102041428D01*
X411651428Y-101850952D01*
X411603809Y-101755714D01*
X411556190Y-101708095D01*
X411460952Y-101660476D01*
X411032380Y-100755714D02*
X411032380Y-101231904D01*
X411508571Y-101279523D01*
X411460952Y-101231904D01*
X411413333Y-101136666D01*
X411413333Y-100898571D01*
X411460952Y-100803333D01*
X411508571Y-100755714D01*
X411603809Y-100708095D01*
X411841904Y-100708095D01*
X411937142Y-100755714D01*
X411984761Y-100803333D01*
X412032380Y-100898571D01*
X412032380Y-101136666D01*
X411984761Y-101231904D01*
X411937142Y-101279523D01*
X412352380Y-106041904D02*
X411352380Y-106041904D01*
X412352380Y-105470476D02*
X411780952Y-105899047D01*
X411352380Y-105470476D02*
X411923809Y-106041904D01*
X296912380Y-63874285D02*
X295912380Y-63874285D01*
X295912380Y-63636190D01*
X295960000Y-63493333D01*
X296055238Y-63398095D01*
X296150476Y-63350476D01*
X296340952Y-63302857D01*
X296483809Y-63302857D01*
X296674285Y-63350476D01*
X296769523Y-63398095D01*
X296864761Y-63493333D01*
X296912380Y-63636190D01*
X296912380Y-63874285D01*
X296912380Y-62826666D02*
X296912380Y-62636190D01*
X296864761Y-62540952D01*
X296817142Y-62493333D01*
X296674285Y-62398095D01*
X296483809Y-62350476D01*
X296102857Y-62350476D01*
X296007619Y-62398095D01*
X295960000Y-62445714D01*
X295912380Y-62540952D01*
X295912380Y-62731428D01*
X295960000Y-62826666D01*
X296007619Y-62874285D01*
X296102857Y-62921904D01*
X296340952Y-62921904D01*
X296436190Y-62874285D01*
X296483809Y-62826666D01*
X296531428Y-62731428D01*
X296531428Y-62540952D01*
X296483809Y-62445714D01*
X296436190Y-62398095D01*
X296340952Y-62350476D01*
X295912380Y-62017142D02*
X295912380Y-61350476D01*
X296912380Y-61779047D01*
X297232380Y-66731904D02*
X296232380Y-66731904D01*
X297232380Y-66160476D02*
X296660952Y-66589047D01*
X296232380Y-66160476D02*
X296803809Y-66731904D01*
X277896664Y-84154285D02*
X276896664Y-84154285D01*
X276896664Y-83916190D01*
X276944284Y-83773333D01*
X277039522Y-83678095D01*
X277134760Y-83630476D01*
X277325236Y-83582857D01*
X277468093Y-83582857D01*
X277658569Y-83630476D01*
X277753807Y-83678095D01*
X277849045Y-83773333D01*
X277896664Y-83916190D01*
X277896664Y-84154285D01*
X277896664Y-83106666D02*
X277896664Y-82916190D01*
X277849045Y-82820952D01*
X277801426Y-82773333D01*
X277658569Y-82678095D01*
X277468093Y-82630476D01*
X277087141Y-82630476D01*
X276991903Y-82678095D01*
X276944284Y-82725714D01*
X276896664Y-82820952D01*
X276896664Y-83011428D01*
X276944284Y-83106666D01*
X276991903Y-83154285D01*
X277087141Y-83201904D01*
X277325236Y-83201904D01*
X277420474Y-83154285D01*
X277468093Y-83106666D01*
X277515712Y-83011428D01*
X277515712Y-82820952D01*
X277468093Y-82725714D01*
X277420474Y-82678095D01*
X277325236Y-82630476D01*
X277325236Y-82059047D02*
X277277617Y-82154285D01*
X277229998Y-82201904D01*
X277134760Y-82249523D01*
X277087141Y-82249523D01*
X276991903Y-82201904D01*
X276944284Y-82154285D01*
X276896664Y-82059047D01*
X276896664Y-81868571D01*
X276944284Y-81773333D01*
X276991903Y-81725714D01*
X277087141Y-81678095D01*
X277134760Y-81678095D01*
X277229998Y-81725714D01*
X277277617Y-81773333D01*
X277325236Y-81868571D01*
X277325236Y-82059047D01*
X277372855Y-82154285D01*
X277420474Y-82201904D01*
X277515712Y-82249523D01*
X277706188Y-82249523D01*
X277801426Y-82201904D01*
X277849045Y-82154285D01*
X277896664Y-82059047D01*
X277896664Y-81868571D01*
X277849045Y-81773333D01*
X277801426Y-81725714D01*
X277706188Y-81678095D01*
X277515712Y-81678095D01*
X277420474Y-81725714D01*
X277372855Y-81773333D01*
X277325236Y-81868571D01*
X278216664Y-87011904D02*
X277216664Y-87011904D01*
X278216664Y-86440476D02*
X277645236Y-86869047D01*
X277216664Y-86440476D02*
X277788093Y-87011904D01*
X249215104Y-103184285D02*
X248215104Y-103184285D01*
X248215104Y-102946190D01*
X248262724Y-102803333D01*
X248357962Y-102708095D01*
X248453200Y-102660476D01*
X248643676Y-102612857D01*
X248786533Y-102612857D01*
X248977009Y-102660476D01*
X249072247Y-102708095D01*
X249167485Y-102803333D01*
X249215104Y-102946190D01*
X249215104Y-103184285D01*
X249215104Y-102136666D02*
X249215104Y-101946190D01*
X249167485Y-101850952D01*
X249119866Y-101803333D01*
X248977009Y-101708095D01*
X248786533Y-101660476D01*
X248405581Y-101660476D01*
X248310343Y-101708095D01*
X248262724Y-101755714D01*
X248215104Y-101850952D01*
X248215104Y-102041428D01*
X248262724Y-102136666D01*
X248310343Y-102184285D01*
X248405581Y-102231904D01*
X248643676Y-102231904D01*
X248738914Y-102184285D01*
X248786533Y-102136666D01*
X248834152Y-102041428D01*
X248834152Y-101850952D01*
X248786533Y-101755714D01*
X248738914Y-101708095D01*
X248643676Y-101660476D01*
X249215104Y-101184285D02*
X249215104Y-100993809D01*
X249167485Y-100898571D01*
X249119866Y-100850952D01*
X248977009Y-100755714D01*
X248786533Y-100708095D01*
X248405581Y-100708095D01*
X248310343Y-100755714D01*
X248262724Y-100803333D01*
X248215104Y-100898571D01*
X248215104Y-101089047D01*
X248262724Y-101184285D01*
X248310343Y-101231904D01*
X248405581Y-101279523D01*
X248643676Y-101279523D01*
X248738914Y-101231904D01*
X248786533Y-101184285D01*
X248834152Y-101089047D01*
X248834152Y-100898571D01*
X248786533Y-100803333D01*
X248738914Y-100755714D01*
X248643676Y-100708095D01*
X249535104Y-106041904D02*
X248535104Y-106041904D01*
X249535104Y-105470476D02*
X248963676Y-105899047D01*
X248535104Y-105470476D02*
X249106533Y-106041904D01*
X235029044Y-122700476D02*
X234029044Y-122700476D01*
X234029044Y-122462380D01*
X234076664Y-122319523D01*
X234171902Y-122224285D01*
X234267140Y-122176666D01*
X234457616Y-122129047D01*
X234600473Y-122129047D01*
X234790949Y-122176666D01*
X234886187Y-122224285D01*
X234981425Y-122319523D01*
X235029044Y-122462380D01*
X235029044Y-122700476D01*
X235029044Y-121176666D02*
X235029044Y-121748095D01*
X235029044Y-121462380D02*
X234029044Y-121462380D01*
X234171902Y-121557619D01*
X234267140Y-121652857D01*
X234314759Y-121748095D01*
X234029044Y-120557619D02*
X234029044Y-120462380D01*
X234076664Y-120367142D01*
X234124283Y-120319523D01*
X234219521Y-120271904D01*
X234409997Y-120224285D01*
X234648092Y-120224285D01*
X234838568Y-120271904D01*
X234933806Y-120319523D01*
X234981425Y-120367142D01*
X235029044Y-120462380D01*
X235029044Y-120557619D01*
X234981425Y-120652857D01*
X234933806Y-120700476D01*
X234838568Y-120748095D01*
X234648092Y-120795714D01*
X234409997Y-120795714D01*
X234219521Y-120748095D01*
X234124283Y-120700476D01*
X234076664Y-120652857D01*
X234029044Y-120557619D01*
X234029044Y-119605238D02*
X234029044Y-119510000D01*
X234076664Y-119414761D01*
X234124283Y-119367142D01*
X234219521Y-119319523D01*
X234409997Y-119271904D01*
X234648092Y-119271904D01*
X234838568Y-119319523D01*
X234933806Y-119367142D01*
X234981425Y-119414761D01*
X235029044Y-119510000D01*
X235029044Y-119605238D01*
X234981425Y-119700476D01*
X234933806Y-119748095D01*
X234838568Y-119795714D01*
X234648092Y-119843333D01*
X234409997Y-119843333D01*
X234219521Y-119795714D01*
X234124283Y-119748095D01*
X234076664Y-119700476D01*
X234029044Y-119605238D01*
X235349044Y-125081904D02*
X234349044Y-125081904D01*
X235349044Y-124510476D02*
X234777616Y-124939047D01*
X234349044Y-124510476D02*
X234920473Y-125081904D01*
X245105380Y-141750476D02*
X244105380Y-141750476D01*
X244105380Y-141512380D01*
X244153000Y-141369523D01*
X244248238Y-141274285D01*
X244343476Y-141226666D01*
X244533952Y-141179047D01*
X244676809Y-141179047D01*
X244867285Y-141226666D01*
X244962523Y-141274285D01*
X245057761Y-141369523D01*
X245105380Y-141512380D01*
X245105380Y-141750476D01*
X245105380Y-140226666D02*
X245105380Y-140798095D01*
X245105380Y-140512380D02*
X244105380Y-140512380D01*
X244248238Y-140607619D01*
X244343476Y-140702857D01*
X244391095Y-140798095D01*
X244105380Y-139607619D02*
X244105380Y-139512380D01*
X244153000Y-139417142D01*
X244200619Y-139369523D01*
X244295857Y-139321904D01*
X244486333Y-139274285D01*
X244724428Y-139274285D01*
X244914904Y-139321904D01*
X245010142Y-139369523D01*
X245057761Y-139417142D01*
X245105380Y-139512380D01*
X245105380Y-139607619D01*
X245057761Y-139702857D01*
X245010142Y-139750476D01*
X244914904Y-139798095D01*
X244724428Y-139845714D01*
X244486333Y-139845714D01*
X244295857Y-139798095D01*
X244200619Y-139750476D01*
X244153000Y-139702857D01*
X244105380Y-139607619D01*
X245105380Y-138321904D02*
X245105380Y-138893333D01*
X245105380Y-138607619D02*
X244105380Y-138607619D01*
X244248238Y-138702857D01*
X244343476Y-138798095D01*
X244391095Y-138893333D01*
X245425380Y-144131904D02*
X244425380Y-144131904D01*
X245425380Y-143560476D02*
X244853952Y-143989047D01*
X244425380Y-143560476D02*
X244996809Y-144131904D01*
X383152380Y-84630476D02*
X382152380Y-84630476D01*
X382152380Y-84392380D01*
X382200000Y-84249523D01*
X382295238Y-84154285D01*
X382390476Y-84106666D01*
X382580952Y-84059047D01*
X382723809Y-84059047D01*
X382914285Y-84106666D01*
X383009523Y-84154285D01*
X383104761Y-84249523D01*
X383152380Y-84392380D01*
X383152380Y-84630476D01*
X383152380Y-83106666D02*
X383152380Y-83678095D01*
X383152380Y-83392380D02*
X382152380Y-83392380D01*
X382295238Y-83487619D01*
X382390476Y-83582857D01*
X382438095Y-83678095D01*
X382152380Y-82487619D02*
X382152380Y-82392380D01*
X382200000Y-82297142D01*
X382247619Y-82249523D01*
X382342857Y-82201904D01*
X382533333Y-82154285D01*
X382771428Y-82154285D01*
X382961904Y-82201904D01*
X383057142Y-82249523D01*
X383104761Y-82297142D01*
X383152380Y-82392380D01*
X383152380Y-82487619D01*
X383104761Y-82582857D01*
X383057142Y-82630476D01*
X382961904Y-82678095D01*
X382771428Y-82725714D01*
X382533333Y-82725714D01*
X382342857Y-82678095D01*
X382247619Y-82630476D01*
X382200000Y-82582857D01*
X382152380Y-82487619D01*
X382247619Y-81773333D02*
X382200000Y-81725714D01*
X382152380Y-81630476D01*
X382152380Y-81392380D01*
X382200000Y-81297142D01*
X382247619Y-81249523D01*
X382342857Y-81201904D01*
X382438095Y-81201904D01*
X382580952Y-81249523D01*
X383152380Y-81820952D01*
X383152380Y-81201904D01*
X383472380Y-87011904D02*
X382472380Y-87011904D01*
X383472380Y-86440476D02*
X382900952Y-86869047D01*
X382472380Y-86440476D02*
X383043809Y-87011904D01*
X431062380Y-103660476D02*
X430062380Y-103660476D01*
X430062380Y-103422380D01*
X430110000Y-103279523D01*
X430205238Y-103184285D01*
X430300476Y-103136666D01*
X430490952Y-103089047D01*
X430633809Y-103089047D01*
X430824285Y-103136666D01*
X430919523Y-103184285D01*
X431014761Y-103279523D01*
X431062380Y-103422380D01*
X431062380Y-103660476D01*
X431062380Y-102136666D02*
X431062380Y-102708095D01*
X431062380Y-102422380D02*
X430062380Y-102422380D01*
X430205238Y-102517619D01*
X430300476Y-102612857D01*
X430348095Y-102708095D01*
X430062380Y-101517619D02*
X430062380Y-101422380D01*
X430110000Y-101327142D01*
X430157619Y-101279523D01*
X430252857Y-101231904D01*
X430443333Y-101184285D01*
X430681428Y-101184285D01*
X430871904Y-101231904D01*
X430967142Y-101279523D01*
X431014761Y-101327142D01*
X431062380Y-101422380D01*
X431062380Y-101517619D01*
X431014761Y-101612857D01*
X430967142Y-101660476D01*
X430871904Y-101708095D01*
X430681428Y-101755714D01*
X430443333Y-101755714D01*
X430252857Y-101708095D01*
X430157619Y-101660476D01*
X430110000Y-101612857D01*
X430062380Y-101517619D01*
X430062380Y-100850952D02*
X430062380Y-100231904D01*
X430443333Y-100565238D01*
X430443333Y-100422380D01*
X430490952Y-100327142D01*
X430538571Y-100279523D01*
X430633809Y-100231904D01*
X430871904Y-100231904D01*
X430967142Y-100279523D01*
X431014761Y-100327142D01*
X431062380Y-100422380D01*
X431062380Y-100708095D01*
X431014761Y-100803333D01*
X430967142Y-100850952D01*
X431382380Y-106041904D02*
X430382380Y-106041904D01*
X431382380Y-105470476D02*
X430810952Y-105899047D01*
X430382380Y-105470476D02*
X430953809Y-106041904D01*
X401915714Y-57902380D02*
X401915714Y-56902380D01*
X402153809Y-56902380D01*
X402296666Y-56950000D01*
X402391904Y-57045238D01*
X402439523Y-57140476D01*
X402487142Y-57330952D01*
X402487142Y-57473809D01*
X402439523Y-57664285D01*
X402391904Y-57759523D01*
X402296666Y-57854761D01*
X402153809Y-57902380D01*
X401915714Y-57902380D01*
X402963333Y-57902380D02*
X403153809Y-57902380D01*
X403249047Y-57854761D01*
X403296666Y-57807142D01*
X403391904Y-57664285D01*
X403439523Y-57473809D01*
X403439523Y-57092857D01*
X403391904Y-56997619D01*
X403344285Y-56950000D01*
X403249047Y-56902380D01*
X403058571Y-56902380D01*
X402963333Y-56950000D01*
X402915714Y-56997619D01*
X402868095Y-57092857D01*
X402868095Y-57330952D01*
X402915714Y-57426190D01*
X402963333Y-57473809D01*
X403058571Y-57521428D01*
X403249047Y-57521428D01*
X403344285Y-57473809D01*
X403391904Y-57426190D01*
X403439523Y-57330952D01*
X404296666Y-56902380D02*
X404106190Y-56902380D01*
X404010952Y-56950000D01*
X403963333Y-56997619D01*
X403868095Y-57140476D01*
X403820476Y-57330952D01*
X403820476Y-57711904D01*
X403868095Y-57807142D01*
X403915714Y-57854761D01*
X404010952Y-57902380D01*
X404201428Y-57902380D01*
X404296666Y-57854761D01*
X404344285Y-57807142D01*
X404391904Y-57711904D01*
X404391904Y-57473809D01*
X404344285Y-57378571D01*
X404296666Y-57330952D01*
X404201428Y-57283333D01*
X404010952Y-57283333D01*
X403915714Y-57330952D01*
X403868095Y-57378571D01*
X403820476Y-57473809D01*
X424639523Y-57902380D02*
X424639523Y-56902380D01*
X424877619Y-56902380D01*
X425020476Y-56950000D01*
X425115714Y-57045238D01*
X425163333Y-57140476D01*
X425210952Y-57330952D01*
X425210952Y-57473809D01*
X425163333Y-57664285D01*
X425115714Y-57759523D01*
X425020476Y-57854761D01*
X424877619Y-57902380D01*
X424639523Y-57902380D01*
X426163333Y-57902380D02*
X425591904Y-57902380D01*
X425877619Y-57902380D02*
X425877619Y-56902380D01*
X425782380Y-57045238D01*
X425687142Y-57140476D01*
X425591904Y-57188095D01*
X426782380Y-56902380D02*
X426877619Y-56902380D01*
X426972857Y-56950000D01*
X427020476Y-56997619D01*
X427068095Y-57092857D01*
X427115714Y-57283333D01*
X427115714Y-57521428D01*
X427068095Y-57711904D01*
X427020476Y-57807142D01*
X426972857Y-57854761D01*
X426877619Y-57902380D01*
X426782380Y-57902380D01*
X426687142Y-57854761D01*
X426639523Y-57807142D01*
X426591904Y-57711904D01*
X426544285Y-57521428D01*
X426544285Y-57283333D01*
X426591904Y-57092857D01*
X426639523Y-56997619D01*
X426687142Y-56950000D01*
X426782380Y-56902380D01*
X427972857Y-57235714D02*
X427972857Y-57902380D01*
X427734761Y-56854761D02*
X427496666Y-57569047D01*
X428115714Y-57569047D01*
X447839523Y-57902380D02*
X447839523Y-56902380D01*
X448077619Y-56902380D01*
X448220476Y-56950000D01*
X448315714Y-57045238D01*
X448363333Y-57140476D01*
X448410952Y-57330952D01*
X448410952Y-57473809D01*
X448363333Y-57664285D01*
X448315714Y-57759523D01*
X448220476Y-57854761D01*
X448077619Y-57902380D01*
X447839523Y-57902380D01*
X449363333Y-57902380D02*
X448791904Y-57902380D01*
X449077619Y-57902380D02*
X449077619Y-56902380D01*
X448982380Y-57045238D01*
X448887142Y-57140476D01*
X448791904Y-57188095D01*
X449982380Y-56902380D02*
X450077619Y-56902380D01*
X450172857Y-56950000D01*
X450220476Y-56997619D01*
X450268095Y-57092857D01*
X450315714Y-57283333D01*
X450315714Y-57521428D01*
X450268095Y-57711904D01*
X450220476Y-57807142D01*
X450172857Y-57854761D01*
X450077619Y-57902380D01*
X449982380Y-57902380D01*
X449887142Y-57854761D01*
X449839523Y-57807142D01*
X449791904Y-57711904D01*
X449744285Y-57521428D01*
X449744285Y-57283333D01*
X449791904Y-57092857D01*
X449839523Y-56997619D01*
X449887142Y-56950000D01*
X449982380Y-56902380D01*
X451220476Y-56902380D02*
X450744285Y-56902380D01*
X450696666Y-57378571D01*
X450744285Y-57330952D01*
X450839523Y-57283333D01*
X451077619Y-57283333D01*
X451172857Y-57330952D01*
X451220476Y-57378571D01*
X451268095Y-57473809D01*
X451268095Y-57711904D01*
X451220476Y-57807142D01*
X451172857Y-57854761D01*
X451077619Y-57902380D01*
X450839523Y-57902380D01*
X450744285Y-57854761D01*
X450696666Y-57807142D01*
X370212380Y-122451904D02*
X371021904Y-122451904D01*
X371117142Y-122404285D01*
X371164761Y-122356666D01*
X371212380Y-122261428D01*
X371212380Y-122070952D01*
X371164761Y-121975714D01*
X371117142Y-121928095D01*
X371021904Y-121880476D01*
X370212380Y-121880476D01*
X371212380Y-120880476D02*
X371212380Y-121451904D01*
X371212380Y-121166190D02*
X370212380Y-121166190D01*
X370355238Y-121261428D01*
X370450476Y-121356666D01*
X370498095Y-121451904D01*
X405503333Y-65832380D02*
X405170000Y-65356190D01*
X404931904Y-65832380D02*
X404931904Y-64832380D01*
X405312857Y-64832380D01*
X405408095Y-64880000D01*
X405455714Y-64927619D01*
X405503333Y-65022857D01*
X405503333Y-65165714D01*
X405455714Y-65260952D01*
X405408095Y-65308571D01*
X405312857Y-65356190D01*
X404931904Y-65356190D01*
X406455714Y-65832380D02*
X405884285Y-65832380D01*
X406170000Y-65832380D02*
X406170000Y-64832380D01*
X406074761Y-64975238D01*
X405979523Y-65070476D01*
X405884285Y-65118095D01*
X428703333Y-65832380D02*
X428370000Y-65356190D01*
X428131904Y-65832380D02*
X428131904Y-64832380D01*
X428512857Y-64832380D01*
X428608095Y-64880000D01*
X428655714Y-64927619D01*
X428703333Y-65022857D01*
X428703333Y-65165714D01*
X428655714Y-65260952D01*
X428608095Y-65308571D01*
X428512857Y-65356190D01*
X428131904Y-65356190D01*
X429084285Y-64927619D02*
X429131904Y-64880000D01*
X429227142Y-64832380D01*
X429465238Y-64832380D01*
X429560476Y-64880000D01*
X429608095Y-64927619D01*
X429655714Y-65022857D01*
X429655714Y-65118095D01*
X429608095Y-65260952D01*
X429036666Y-65832380D01*
X429655714Y-65832380D01*
X451903333Y-65832380D02*
X451570000Y-65356190D01*
X451331904Y-65832380D02*
X451331904Y-64832380D01*
X451712857Y-64832380D01*
X451808095Y-64880000D01*
X451855714Y-64927619D01*
X451903333Y-65022857D01*
X451903333Y-65165714D01*
X451855714Y-65260952D01*
X451808095Y-65308571D01*
X451712857Y-65356190D01*
X451331904Y-65356190D01*
X452236666Y-64832380D02*
X452855714Y-64832380D01*
X452522380Y-65213333D01*
X452665238Y-65213333D01*
X452760476Y-65260952D01*
X452808095Y-65308571D01*
X452855714Y-65403809D01*
X452855714Y-65641904D01*
X452808095Y-65737142D01*
X452760476Y-65784761D01*
X452665238Y-65832380D01*
X452379523Y-65832380D01*
X452284285Y-65784761D01*
X452236666Y-65737142D01*
M02*
