G04 #@! TF.GenerationSoftware,KiCad,Pcbnew,5.1.5+dfsg1-2build2*
G04 #@! TF.CreationDate,2021-12-25T17:24:44+01:00*
G04 #@! TF.ProjectId,ntc-6251-qmk-pcb-rounded,6e74632d-3632-4353-912d-716d6b2d7063,rev?*
G04 #@! TF.SameCoordinates,Original*
G04 #@! TF.FileFunction,Soldermask,Top*
G04 #@! TF.FilePolarity,Negative*
%FSLAX46Y46*%
G04 Gerber Fmt 4.6, Leading zero omitted, Abs format (unit mm)*
G04 Created by KiCad (PCBNEW 5.1.5+dfsg1-2build2) date 2021-12-25 17:24:44*
%MOMM*%
%LPD*%
G04 APERTURE LIST*
%ADD10C,0.010000*%
%ADD11C,0.100000*%
G04 APERTURE END LIST*
D10*
G36*
X339380188Y-140858315D02*
G01*
X339375303Y-140863200D01*
X339370419Y-140858315D01*
X339375303Y-140853431D01*
X339380188Y-140858315D01*
G37*
X339380188Y-140858315D02*
X339375303Y-140863200D01*
X339370419Y-140858315D01*
X339375303Y-140853431D01*
X339380188Y-140858315D01*
G36*
X339712342Y-139129162D02*
G01*
X339707457Y-139134046D01*
X339702573Y-139129162D01*
X339707457Y-139124277D01*
X339712342Y-139129162D01*
G37*
X339712342Y-139129162D02*
X339707457Y-139134046D01*
X339702573Y-139129162D01*
X339707457Y-139124277D01*
X339712342Y-139129162D01*
G36*
X326856034Y-135084700D02*
G01*
X326851150Y-135089585D01*
X326846265Y-135084700D01*
X326851150Y-135079815D01*
X326856034Y-135084700D01*
G37*
X326856034Y-135084700D02*
X326851150Y-135089585D01*
X326846265Y-135084700D01*
X326851150Y-135079815D01*
X326856034Y-135084700D01*
G36*
X336584782Y-144162530D02*
G01*
X336586188Y-144169508D01*
X336581087Y-144182875D01*
X336576419Y-144184739D01*
X336566929Y-144177727D01*
X336566650Y-144175546D01*
X336573751Y-144162315D01*
X336576419Y-144160315D01*
X336584782Y-144162530D01*
G37*
X336584782Y-144162530D02*
X336586188Y-144169508D01*
X336581087Y-144182875D01*
X336576419Y-144184739D01*
X336566929Y-144177727D01*
X336566650Y-144175546D01*
X336573751Y-144162315D01*
X336576419Y-144160315D01*
X336584782Y-144162530D01*
G36*
X337377496Y-142059931D02*
G01*
X337372611Y-142064815D01*
X337367726Y-142059931D01*
X337372611Y-142055046D01*
X337377496Y-142059931D01*
G37*
X337377496Y-142059931D02*
X337372611Y-142064815D01*
X337367726Y-142059931D01*
X337372611Y-142055046D01*
X337377496Y-142059931D01*
G36*
X337797573Y-141307700D02*
G01*
X337792688Y-141312585D01*
X337787803Y-141307700D01*
X337792688Y-141302815D01*
X337797573Y-141307700D01*
G37*
X337797573Y-141307700D02*
X337792688Y-141312585D01*
X337787803Y-141307700D01*
X337792688Y-141302815D01*
X337797573Y-141307700D01*
G36*
X327285880Y-140086546D02*
G01*
X327280996Y-140091431D01*
X327276111Y-140086546D01*
X327280996Y-140081662D01*
X327285880Y-140086546D01*
G37*
X327285880Y-140086546D02*
X327280996Y-140091431D01*
X327276111Y-140086546D01*
X327280996Y-140081662D01*
X327285880Y-140086546D01*
G36*
X331408496Y-141278392D02*
G01*
X331403611Y-141283277D01*
X331398726Y-141278392D01*
X331403611Y-141273508D01*
X331408496Y-141278392D01*
G37*
X331408496Y-141278392D02*
X331403611Y-141283277D01*
X331398726Y-141278392D01*
X331403611Y-141273508D01*
X331408496Y-141278392D01*
D11*
G36*
X366631000Y-160421000D02*
G01*
X364929000Y-160421000D01*
X364929000Y-158719000D01*
X366631000Y-158719000D01*
X366631000Y-160421000D01*
G37*
G36*
X423891000Y-160411000D02*
G01*
X422189000Y-160411000D01*
X422189000Y-158709000D01*
X423891000Y-158709000D01*
X423891000Y-160411000D01*
G37*
G36*
X57101000Y-160411000D02*
G01*
X55399000Y-160411000D01*
X55399000Y-158709000D01*
X57101000Y-158709000D01*
X57101000Y-160411000D01*
G37*
G36*
X104521000Y-160411000D02*
G01*
X102819000Y-160411000D01*
X102819000Y-158709000D01*
X104521000Y-158709000D01*
X104521000Y-160411000D01*
G37*
G36*
X347581000Y-160411000D02*
G01*
X345879000Y-160411000D01*
X345879000Y-158709000D01*
X347581000Y-158709000D01*
X347581000Y-160411000D01*
G37*
G36*
X185251000Y-160411000D02*
G01*
X183549000Y-160411000D01*
X183549000Y-158709000D01*
X185251000Y-158709000D01*
X185251000Y-160411000D01*
G37*
G36*
X265971000Y-160411000D02*
G01*
X264269000Y-160411000D01*
X264269000Y-158709000D01*
X265971000Y-158709000D01*
X265971000Y-160411000D01*
G37*
G36*
X313731000Y-160411000D02*
G01*
X312029000Y-160411000D01*
X312029000Y-158709000D01*
X313731000Y-158709000D01*
X313731000Y-160411000D01*
G37*
G36*
X385681000Y-160411000D02*
G01*
X383979000Y-160411000D01*
X383979000Y-158709000D01*
X385681000Y-158709000D01*
X385681000Y-160411000D01*
G37*
G36*
X452611000Y-160401000D02*
G01*
X450909000Y-160401000D01*
X450909000Y-158699000D01*
X452611000Y-158699000D01*
X452611000Y-160401000D01*
G37*
G36*
X366028228Y-151131703D02*
G01*
X366183100Y-151195853D01*
X366322481Y-151288985D01*
X366441015Y-151407519D01*
X366534147Y-151546900D01*
X366598297Y-151701772D01*
X366631000Y-151866184D01*
X366631000Y-152033816D01*
X366598297Y-152198228D01*
X366534147Y-152353100D01*
X366441015Y-152492481D01*
X366322481Y-152611015D01*
X366183100Y-152704147D01*
X366028228Y-152768297D01*
X365863816Y-152801000D01*
X365696184Y-152801000D01*
X365531772Y-152768297D01*
X365376900Y-152704147D01*
X365237519Y-152611015D01*
X365118985Y-152492481D01*
X365025853Y-152353100D01*
X364961703Y-152198228D01*
X364929000Y-152033816D01*
X364929000Y-151866184D01*
X364961703Y-151701772D01*
X365025853Y-151546900D01*
X365118985Y-151407519D01*
X365237519Y-151288985D01*
X365376900Y-151195853D01*
X365531772Y-151131703D01*
X365696184Y-151099000D01*
X365863816Y-151099000D01*
X366028228Y-151131703D01*
G37*
G36*
X313128228Y-151121703D02*
G01*
X313283100Y-151185853D01*
X313422481Y-151278985D01*
X313541015Y-151397519D01*
X313634147Y-151536900D01*
X313698297Y-151691772D01*
X313731000Y-151856184D01*
X313731000Y-152023816D01*
X313698297Y-152188228D01*
X313634147Y-152343100D01*
X313541015Y-152482481D01*
X313422481Y-152601015D01*
X313283100Y-152694147D01*
X313128228Y-152758297D01*
X312963816Y-152791000D01*
X312796184Y-152791000D01*
X312631772Y-152758297D01*
X312476900Y-152694147D01*
X312337519Y-152601015D01*
X312218985Y-152482481D01*
X312125853Y-152343100D01*
X312061703Y-152188228D01*
X312029000Y-152023816D01*
X312029000Y-151856184D01*
X312061703Y-151691772D01*
X312125853Y-151536900D01*
X312218985Y-151397519D01*
X312337519Y-151278985D01*
X312476900Y-151185853D01*
X312631772Y-151121703D01*
X312796184Y-151089000D01*
X312963816Y-151089000D01*
X313128228Y-151121703D01*
G37*
G36*
X56498228Y-151121703D02*
G01*
X56653100Y-151185853D01*
X56792481Y-151278985D01*
X56911015Y-151397519D01*
X57004147Y-151536900D01*
X57068297Y-151691772D01*
X57101000Y-151856184D01*
X57101000Y-152023816D01*
X57068297Y-152188228D01*
X57004147Y-152343100D01*
X56911015Y-152482481D01*
X56792481Y-152601015D01*
X56653100Y-152694147D01*
X56498228Y-152758297D01*
X56333816Y-152791000D01*
X56166184Y-152791000D01*
X56001772Y-152758297D01*
X55846900Y-152694147D01*
X55707519Y-152601015D01*
X55588985Y-152482481D01*
X55495853Y-152343100D01*
X55431703Y-152188228D01*
X55399000Y-152023816D01*
X55399000Y-151856184D01*
X55431703Y-151691772D01*
X55495853Y-151536900D01*
X55588985Y-151397519D01*
X55707519Y-151278985D01*
X55846900Y-151185853D01*
X56001772Y-151121703D01*
X56166184Y-151089000D01*
X56333816Y-151089000D01*
X56498228Y-151121703D01*
G37*
G36*
X103918228Y-151121703D02*
G01*
X104073100Y-151185853D01*
X104212481Y-151278985D01*
X104331015Y-151397519D01*
X104424147Y-151536900D01*
X104488297Y-151691772D01*
X104521000Y-151856184D01*
X104521000Y-152023816D01*
X104488297Y-152188228D01*
X104424147Y-152343100D01*
X104331015Y-152482481D01*
X104212481Y-152601015D01*
X104073100Y-152694147D01*
X103918228Y-152758297D01*
X103753816Y-152791000D01*
X103586184Y-152791000D01*
X103421772Y-152758297D01*
X103266900Y-152694147D01*
X103127519Y-152601015D01*
X103008985Y-152482481D01*
X102915853Y-152343100D01*
X102851703Y-152188228D01*
X102819000Y-152023816D01*
X102819000Y-151856184D01*
X102851703Y-151691772D01*
X102915853Y-151536900D01*
X103008985Y-151397519D01*
X103127519Y-151278985D01*
X103266900Y-151185853D01*
X103421772Y-151121703D01*
X103586184Y-151089000D01*
X103753816Y-151089000D01*
X103918228Y-151121703D01*
G37*
G36*
X346978228Y-151121703D02*
G01*
X347133100Y-151185853D01*
X347272481Y-151278985D01*
X347391015Y-151397519D01*
X347484147Y-151536900D01*
X347548297Y-151691772D01*
X347581000Y-151856184D01*
X347581000Y-152023816D01*
X347548297Y-152188228D01*
X347484147Y-152343100D01*
X347391015Y-152482481D01*
X347272481Y-152601015D01*
X347133100Y-152694147D01*
X346978228Y-152758297D01*
X346813816Y-152791000D01*
X346646184Y-152791000D01*
X346481772Y-152758297D01*
X346326900Y-152694147D01*
X346187519Y-152601015D01*
X346068985Y-152482481D01*
X345975853Y-152343100D01*
X345911703Y-152188228D01*
X345879000Y-152023816D01*
X345879000Y-151856184D01*
X345911703Y-151691772D01*
X345975853Y-151536900D01*
X346068985Y-151397519D01*
X346187519Y-151278985D01*
X346326900Y-151185853D01*
X346481772Y-151121703D01*
X346646184Y-151089000D01*
X346813816Y-151089000D01*
X346978228Y-151121703D01*
G37*
G36*
X184648228Y-151121703D02*
G01*
X184803100Y-151185853D01*
X184942481Y-151278985D01*
X185061015Y-151397519D01*
X185154147Y-151536900D01*
X185218297Y-151691772D01*
X185251000Y-151856184D01*
X185251000Y-152023816D01*
X185218297Y-152188228D01*
X185154147Y-152343100D01*
X185061015Y-152482481D01*
X184942481Y-152601015D01*
X184803100Y-152694147D01*
X184648228Y-152758297D01*
X184483816Y-152791000D01*
X184316184Y-152791000D01*
X184151772Y-152758297D01*
X183996900Y-152694147D01*
X183857519Y-152601015D01*
X183738985Y-152482481D01*
X183645853Y-152343100D01*
X183581703Y-152188228D01*
X183549000Y-152023816D01*
X183549000Y-151856184D01*
X183581703Y-151691772D01*
X183645853Y-151536900D01*
X183738985Y-151397519D01*
X183857519Y-151278985D01*
X183996900Y-151185853D01*
X184151772Y-151121703D01*
X184316184Y-151089000D01*
X184483816Y-151089000D01*
X184648228Y-151121703D01*
G37*
G36*
X385078228Y-151121703D02*
G01*
X385233100Y-151185853D01*
X385372481Y-151278985D01*
X385491015Y-151397519D01*
X385584147Y-151536900D01*
X385648297Y-151691772D01*
X385681000Y-151856184D01*
X385681000Y-152023816D01*
X385648297Y-152188228D01*
X385584147Y-152343100D01*
X385491015Y-152482481D01*
X385372481Y-152601015D01*
X385233100Y-152694147D01*
X385078228Y-152758297D01*
X384913816Y-152791000D01*
X384746184Y-152791000D01*
X384581772Y-152758297D01*
X384426900Y-152694147D01*
X384287519Y-152601015D01*
X384168985Y-152482481D01*
X384075853Y-152343100D01*
X384011703Y-152188228D01*
X383979000Y-152023816D01*
X383979000Y-151856184D01*
X384011703Y-151691772D01*
X384075853Y-151536900D01*
X384168985Y-151397519D01*
X384287519Y-151278985D01*
X384426900Y-151185853D01*
X384581772Y-151121703D01*
X384746184Y-151089000D01*
X384913816Y-151089000D01*
X385078228Y-151121703D01*
G37*
G36*
X423288228Y-151121703D02*
G01*
X423443100Y-151185853D01*
X423582481Y-151278985D01*
X423701015Y-151397519D01*
X423794147Y-151536900D01*
X423858297Y-151691772D01*
X423891000Y-151856184D01*
X423891000Y-152023816D01*
X423858297Y-152188228D01*
X423794147Y-152343100D01*
X423701015Y-152482481D01*
X423582481Y-152601015D01*
X423443100Y-152694147D01*
X423288228Y-152758297D01*
X423123816Y-152791000D01*
X422956184Y-152791000D01*
X422791772Y-152758297D01*
X422636900Y-152694147D01*
X422497519Y-152601015D01*
X422378985Y-152482481D01*
X422285853Y-152343100D01*
X422221703Y-152188228D01*
X422189000Y-152023816D01*
X422189000Y-151856184D01*
X422221703Y-151691772D01*
X422285853Y-151536900D01*
X422378985Y-151397519D01*
X422497519Y-151278985D01*
X422636900Y-151185853D01*
X422791772Y-151121703D01*
X422956184Y-151089000D01*
X423123816Y-151089000D01*
X423288228Y-151121703D01*
G37*
G36*
X265368228Y-151121703D02*
G01*
X265523100Y-151185853D01*
X265662481Y-151278985D01*
X265781015Y-151397519D01*
X265874147Y-151536900D01*
X265938297Y-151691772D01*
X265971000Y-151856184D01*
X265971000Y-152023816D01*
X265938297Y-152188228D01*
X265874147Y-152343100D01*
X265781015Y-152482481D01*
X265662481Y-152601015D01*
X265523100Y-152694147D01*
X265368228Y-152758297D01*
X265203816Y-152791000D01*
X265036184Y-152791000D01*
X264871772Y-152758297D01*
X264716900Y-152694147D01*
X264577519Y-152601015D01*
X264458985Y-152482481D01*
X264365853Y-152343100D01*
X264301703Y-152188228D01*
X264269000Y-152023816D01*
X264269000Y-151856184D01*
X264301703Y-151691772D01*
X264365853Y-151536900D01*
X264458985Y-151397519D01*
X264577519Y-151278985D01*
X264716900Y-151185853D01*
X264871772Y-151121703D01*
X265036184Y-151089000D01*
X265203816Y-151089000D01*
X265368228Y-151121703D01*
G37*
G36*
X452008228Y-151111703D02*
G01*
X452163100Y-151175853D01*
X452302481Y-151268985D01*
X452421015Y-151387519D01*
X452514147Y-151526900D01*
X452578297Y-151681772D01*
X452611000Y-151846184D01*
X452611000Y-152013816D01*
X452578297Y-152178228D01*
X452514147Y-152333100D01*
X452421015Y-152472481D01*
X452302481Y-152591015D01*
X452163100Y-152684147D01*
X452008228Y-152748297D01*
X451843816Y-152781000D01*
X451676184Y-152781000D01*
X451511772Y-152748297D01*
X451356900Y-152684147D01*
X451217519Y-152591015D01*
X451098985Y-152472481D01*
X451005853Y-152333100D01*
X450941703Y-152178228D01*
X450909000Y-152013816D01*
X450909000Y-151846184D01*
X450941703Y-151681772D01*
X451005853Y-151526900D01*
X451098985Y-151387519D01*
X451217519Y-151268985D01*
X451356900Y-151175853D01*
X451511772Y-151111703D01*
X451676184Y-151079000D01*
X451843816Y-151079000D01*
X452008228Y-151111703D01*
G37*
G36*
X452621000Y-144724220D02*
G01*
X450919000Y-144724220D01*
X450919000Y-143022220D01*
X452621000Y-143022220D01*
X452621000Y-144724220D01*
G37*
G36*
X414551000Y-144724220D02*
G01*
X412849000Y-144724220D01*
X412849000Y-143022220D01*
X414551000Y-143022220D01*
X414551000Y-144724220D01*
G37*
G36*
X190483000Y-144721000D02*
G01*
X188781000Y-144721000D01*
X188781000Y-143019000D01*
X190483000Y-143019000D01*
X190483000Y-144721000D01*
G37*
G36*
X54601000Y-144721000D02*
G01*
X52899000Y-144721000D01*
X52899000Y-143019000D01*
X54601000Y-143019000D01*
X54601000Y-144721000D01*
G37*
G36*
X76201000Y-144721000D02*
G01*
X74499000Y-144721000D01*
X74499000Y-143019000D01*
X76201000Y-143019000D01*
X76201000Y-144721000D01*
G37*
G36*
X95248000Y-144721000D02*
G01*
X93546000Y-144721000D01*
X93546000Y-143019000D01*
X95248000Y-143019000D01*
X95248000Y-144721000D01*
G37*
G36*
X171436000Y-144721000D02*
G01*
X169734000Y-144721000D01*
X169734000Y-143019000D01*
X171436000Y-143019000D01*
X171436000Y-144721000D01*
G37*
G36*
X152389000Y-144721000D02*
G01*
X150687000Y-144721000D01*
X150687000Y-143019000D01*
X152389000Y-143019000D01*
X152389000Y-144721000D01*
G37*
G36*
X209530000Y-144721000D02*
G01*
X207828000Y-144721000D01*
X207828000Y-143019000D01*
X209530000Y-143019000D01*
X209530000Y-144721000D01*
G37*
G36*
X114295000Y-144721000D02*
G01*
X112593000Y-144721000D01*
X112593000Y-143019000D01*
X114295000Y-143019000D01*
X114295000Y-144721000D01*
G37*
G36*
X302201000Y-144721000D02*
G01*
X300499000Y-144721000D01*
X300499000Y-143019000D01*
X302201000Y-143019000D01*
X302201000Y-144721000D01*
G37*
G36*
X266671000Y-144721000D02*
G01*
X264969000Y-144721000D01*
X264969000Y-143019000D01*
X266671000Y-143019000D01*
X266671000Y-144721000D01*
G37*
G36*
X366631000Y-144721000D02*
G01*
X364929000Y-144721000D01*
X364929000Y-143019000D01*
X366631000Y-143019000D01*
X366631000Y-144721000D01*
G37*
G36*
X133342000Y-144721000D02*
G01*
X131640000Y-144721000D01*
X131640000Y-143019000D01*
X133342000Y-143019000D01*
X133342000Y-144721000D01*
G37*
G36*
X228577000Y-144721000D02*
G01*
X226875000Y-144721000D01*
X226875000Y-143019000D01*
X228577000Y-143019000D01*
X228577000Y-144721000D01*
G37*
G36*
X433591000Y-144721000D02*
G01*
X431889000Y-144721000D01*
X431889000Y-143019000D01*
X433591000Y-143019000D01*
X433591000Y-144721000D01*
G37*
G36*
X247624000Y-144721000D02*
G01*
X245922000Y-144721000D01*
X245922000Y-143019000D01*
X247624000Y-143019000D01*
X247624000Y-144721000D01*
G37*
G36*
X465239200Y-141701000D02*
G01*
X463537200Y-141701000D01*
X463537200Y-139999000D01*
X465239200Y-139999000D01*
X465239200Y-141701000D01*
G37*
G36*
X457016428Y-140031703D02*
G01*
X457171300Y-140095853D01*
X457310681Y-140188985D01*
X457429215Y-140307519D01*
X457522347Y-140446900D01*
X457586497Y-140601772D01*
X457619200Y-140766184D01*
X457619200Y-140933816D01*
X457586497Y-141098228D01*
X457522347Y-141253100D01*
X457429215Y-141392481D01*
X457310681Y-141511015D01*
X457171300Y-141604147D01*
X457016428Y-141668297D01*
X456852016Y-141701000D01*
X456684384Y-141701000D01*
X456519972Y-141668297D01*
X456365100Y-141604147D01*
X456225719Y-141511015D01*
X456107185Y-141392481D01*
X456014053Y-141253100D01*
X455949903Y-141098228D01*
X455917200Y-140933816D01*
X455917200Y-140766184D01*
X455949903Y-140601772D01*
X456014053Y-140446900D01*
X456107185Y-140307519D01*
X456225719Y-140188985D01*
X456365100Y-140095853D01*
X456519972Y-140031703D01*
X456684384Y-139999000D01*
X456852016Y-139999000D01*
X457016428Y-140031703D01*
G37*
G36*
X452018228Y-135434923D02*
G01*
X452173100Y-135499073D01*
X452312481Y-135592205D01*
X452431015Y-135710739D01*
X452524147Y-135850120D01*
X452588297Y-136004992D01*
X452621000Y-136169404D01*
X452621000Y-136337036D01*
X452588297Y-136501448D01*
X452524147Y-136656320D01*
X452431015Y-136795701D01*
X452312481Y-136914235D01*
X452173100Y-137007367D01*
X452018228Y-137071517D01*
X451853816Y-137104220D01*
X451686184Y-137104220D01*
X451521772Y-137071517D01*
X451366900Y-137007367D01*
X451227519Y-136914235D01*
X451108985Y-136795701D01*
X451015853Y-136656320D01*
X450951703Y-136501448D01*
X450919000Y-136337036D01*
X450919000Y-136169404D01*
X450951703Y-136004992D01*
X451015853Y-135850120D01*
X451108985Y-135710739D01*
X451227519Y-135592205D01*
X451366900Y-135499073D01*
X451521772Y-135434923D01*
X451686184Y-135402220D01*
X451853816Y-135402220D01*
X452018228Y-135434923D01*
G37*
G36*
X413948228Y-135434923D02*
G01*
X414103100Y-135499073D01*
X414242481Y-135592205D01*
X414361015Y-135710739D01*
X414454147Y-135850120D01*
X414518297Y-136004992D01*
X414551000Y-136169404D01*
X414551000Y-136337036D01*
X414518297Y-136501448D01*
X414454147Y-136656320D01*
X414361015Y-136795701D01*
X414242481Y-136914235D01*
X414103100Y-137007367D01*
X413948228Y-137071517D01*
X413783816Y-137104220D01*
X413616184Y-137104220D01*
X413451772Y-137071517D01*
X413296900Y-137007367D01*
X413157519Y-136914235D01*
X413038985Y-136795701D01*
X412945853Y-136656320D01*
X412881703Y-136501448D01*
X412849000Y-136337036D01*
X412849000Y-136169404D01*
X412881703Y-136004992D01*
X412945853Y-135850120D01*
X413038985Y-135710739D01*
X413157519Y-135592205D01*
X413296900Y-135499073D01*
X413451772Y-135434923D01*
X413616184Y-135402220D01*
X413783816Y-135402220D01*
X413948228Y-135434923D01*
G37*
G36*
X208927228Y-135431703D02*
G01*
X209082100Y-135495853D01*
X209221481Y-135588985D01*
X209340015Y-135707519D01*
X209433147Y-135846900D01*
X209497297Y-136001772D01*
X209530000Y-136166184D01*
X209530000Y-136333816D01*
X209497297Y-136498228D01*
X209433147Y-136653100D01*
X209340015Y-136792481D01*
X209221481Y-136911015D01*
X209082100Y-137004147D01*
X208927228Y-137068297D01*
X208762816Y-137101000D01*
X208595184Y-137101000D01*
X208430772Y-137068297D01*
X208275900Y-137004147D01*
X208136519Y-136911015D01*
X208017985Y-136792481D01*
X207924853Y-136653100D01*
X207860703Y-136498228D01*
X207828000Y-136333816D01*
X207828000Y-136166184D01*
X207860703Y-136001772D01*
X207924853Y-135846900D01*
X208017985Y-135707519D01*
X208136519Y-135588985D01*
X208275900Y-135495853D01*
X208430772Y-135431703D01*
X208595184Y-135399000D01*
X208762816Y-135399000D01*
X208927228Y-135431703D01*
G37*
G36*
X189880228Y-135431703D02*
G01*
X190035100Y-135495853D01*
X190174481Y-135588985D01*
X190293015Y-135707519D01*
X190386147Y-135846900D01*
X190450297Y-136001772D01*
X190483000Y-136166184D01*
X190483000Y-136333816D01*
X190450297Y-136498228D01*
X190386147Y-136653100D01*
X190293015Y-136792481D01*
X190174481Y-136911015D01*
X190035100Y-137004147D01*
X189880228Y-137068297D01*
X189715816Y-137101000D01*
X189548184Y-137101000D01*
X189383772Y-137068297D01*
X189228900Y-137004147D01*
X189089519Y-136911015D01*
X188970985Y-136792481D01*
X188877853Y-136653100D01*
X188813703Y-136498228D01*
X188781000Y-136333816D01*
X188781000Y-136166184D01*
X188813703Y-136001772D01*
X188877853Y-135846900D01*
X188970985Y-135707519D01*
X189089519Y-135588985D01*
X189228900Y-135495853D01*
X189383772Y-135431703D01*
X189548184Y-135399000D01*
X189715816Y-135399000D01*
X189880228Y-135431703D01*
G37*
G36*
X170833228Y-135431703D02*
G01*
X170988100Y-135495853D01*
X171127481Y-135588985D01*
X171246015Y-135707519D01*
X171339147Y-135846900D01*
X171403297Y-136001772D01*
X171436000Y-136166184D01*
X171436000Y-136333816D01*
X171403297Y-136498228D01*
X171339147Y-136653100D01*
X171246015Y-136792481D01*
X171127481Y-136911015D01*
X170988100Y-137004147D01*
X170833228Y-137068297D01*
X170668816Y-137101000D01*
X170501184Y-137101000D01*
X170336772Y-137068297D01*
X170181900Y-137004147D01*
X170042519Y-136911015D01*
X169923985Y-136792481D01*
X169830853Y-136653100D01*
X169766703Y-136498228D01*
X169734000Y-136333816D01*
X169734000Y-136166184D01*
X169766703Y-136001772D01*
X169830853Y-135846900D01*
X169923985Y-135707519D01*
X170042519Y-135588985D01*
X170181900Y-135495853D01*
X170336772Y-135431703D01*
X170501184Y-135399000D01*
X170668816Y-135399000D01*
X170833228Y-135431703D01*
G37*
G36*
X75598228Y-135431703D02*
G01*
X75753100Y-135495853D01*
X75892481Y-135588985D01*
X76011015Y-135707519D01*
X76104147Y-135846900D01*
X76168297Y-136001772D01*
X76201000Y-136166184D01*
X76201000Y-136333816D01*
X76168297Y-136498228D01*
X76104147Y-136653100D01*
X76011015Y-136792481D01*
X75892481Y-136911015D01*
X75753100Y-137004147D01*
X75598228Y-137068297D01*
X75433816Y-137101000D01*
X75266184Y-137101000D01*
X75101772Y-137068297D01*
X74946900Y-137004147D01*
X74807519Y-136911015D01*
X74688985Y-136792481D01*
X74595853Y-136653100D01*
X74531703Y-136498228D01*
X74499000Y-136333816D01*
X74499000Y-136166184D01*
X74531703Y-136001772D01*
X74595853Y-135846900D01*
X74688985Y-135707519D01*
X74807519Y-135588985D01*
X74946900Y-135495853D01*
X75101772Y-135431703D01*
X75266184Y-135399000D01*
X75433816Y-135399000D01*
X75598228Y-135431703D01*
G37*
G36*
X227974228Y-135431703D02*
G01*
X228129100Y-135495853D01*
X228268481Y-135588985D01*
X228387015Y-135707519D01*
X228480147Y-135846900D01*
X228544297Y-136001772D01*
X228577000Y-136166184D01*
X228577000Y-136333816D01*
X228544297Y-136498228D01*
X228480147Y-136653100D01*
X228387015Y-136792481D01*
X228268481Y-136911015D01*
X228129100Y-137004147D01*
X227974228Y-137068297D01*
X227809816Y-137101000D01*
X227642184Y-137101000D01*
X227477772Y-137068297D01*
X227322900Y-137004147D01*
X227183519Y-136911015D01*
X227064985Y-136792481D01*
X226971853Y-136653100D01*
X226907703Y-136498228D01*
X226875000Y-136333816D01*
X226875000Y-136166184D01*
X226907703Y-136001772D01*
X226971853Y-135846900D01*
X227064985Y-135707519D01*
X227183519Y-135588985D01*
X227322900Y-135495853D01*
X227477772Y-135431703D01*
X227642184Y-135399000D01*
X227809816Y-135399000D01*
X227974228Y-135431703D01*
G37*
G36*
X53998228Y-135431703D02*
G01*
X54153100Y-135495853D01*
X54292481Y-135588985D01*
X54411015Y-135707519D01*
X54504147Y-135846900D01*
X54568297Y-136001772D01*
X54601000Y-136166184D01*
X54601000Y-136333816D01*
X54568297Y-136498228D01*
X54504147Y-136653100D01*
X54411015Y-136792481D01*
X54292481Y-136911015D01*
X54153100Y-137004147D01*
X53998228Y-137068297D01*
X53833816Y-137101000D01*
X53666184Y-137101000D01*
X53501772Y-137068297D01*
X53346900Y-137004147D01*
X53207519Y-136911015D01*
X53088985Y-136792481D01*
X52995853Y-136653100D01*
X52931703Y-136498228D01*
X52899000Y-136333816D01*
X52899000Y-136166184D01*
X52931703Y-136001772D01*
X52995853Y-135846900D01*
X53088985Y-135707519D01*
X53207519Y-135588985D01*
X53346900Y-135495853D01*
X53501772Y-135431703D01*
X53666184Y-135399000D01*
X53833816Y-135399000D01*
X53998228Y-135431703D01*
G37*
G36*
X94645228Y-135431703D02*
G01*
X94800100Y-135495853D01*
X94939481Y-135588985D01*
X95058015Y-135707519D01*
X95151147Y-135846900D01*
X95215297Y-136001772D01*
X95248000Y-136166184D01*
X95248000Y-136333816D01*
X95215297Y-136498228D01*
X95151147Y-136653100D01*
X95058015Y-136792481D01*
X94939481Y-136911015D01*
X94800100Y-137004147D01*
X94645228Y-137068297D01*
X94480816Y-137101000D01*
X94313184Y-137101000D01*
X94148772Y-137068297D01*
X93993900Y-137004147D01*
X93854519Y-136911015D01*
X93735985Y-136792481D01*
X93642853Y-136653100D01*
X93578703Y-136498228D01*
X93546000Y-136333816D01*
X93546000Y-136166184D01*
X93578703Y-136001772D01*
X93642853Y-135846900D01*
X93735985Y-135707519D01*
X93854519Y-135588985D01*
X93993900Y-135495853D01*
X94148772Y-135431703D01*
X94313184Y-135399000D01*
X94480816Y-135399000D01*
X94645228Y-135431703D01*
G37*
G36*
X301598228Y-135431703D02*
G01*
X301753100Y-135495853D01*
X301892481Y-135588985D01*
X302011015Y-135707519D01*
X302104147Y-135846900D01*
X302168297Y-136001772D01*
X302201000Y-136166184D01*
X302201000Y-136333816D01*
X302168297Y-136498228D01*
X302104147Y-136653100D01*
X302011015Y-136792481D01*
X301892481Y-136911015D01*
X301753100Y-137004147D01*
X301598228Y-137068297D01*
X301433816Y-137101000D01*
X301266184Y-137101000D01*
X301101772Y-137068297D01*
X300946900Y-137004147D01*
X300807519Y-136911015D01*
X300688985Y-136792481D01*
X300595853Y-136653100D01*
X300531703Y-136498228D01*
X300499000Y-136333816D01*
X300499000Y-136166184D01*
X300531703Y-136001772D01*
X300595853Y-135846900D01*
X300688985Y-135707519D01*
X300807519Y-135588985D01*
X300946900Y-135495853D01*
X301101772Y-135431703D01*
X301266184Y-135399000D01*
X301433816Y-135399000D01*
X301598228Y-135431703D01*
G37*
G36*
X432988228Y-135431703D02*
G01*
X433143100Y-135495853D01*
X433282481Y-135588985D01*
X433401015Y-135707519D01*
X433494147Y-135846900D01*
X433558297Y-136001772D01*
X433591000Y-136166184D01*
X433591000Y-136333816D01*
X433558297Y-136498228D01*
X433494147Y-136653100D01*
X433401015Y-136792481D01*
X433282481Y-136911015D01*
X433143100Y-137004147D01*
X432988228Y-137068297D01*
X432823816Y-137101000D01*
X432656184Y-137101000D01*
X432491772Y-137068297D01*
X432336900Y-137004147D01*
X432197519Y-136911015D01*
X432078985Y-136792481D01*
X431985853Y-136653100D01*
X431921703Y-136498228D01*
X431889000Y-136333816D01*
X431889000Y-136166184D01*
X431921703Y-136001772D01*
X431985853Y-135846900D01*
X432078985Y-135707519D01*
X432197519Y-135588985D01*
X432336900Y-135495853D01*
X432491772Y-135431703D01*
X432656184Y-135399000D01*
X432823816Y-135399000D01*
X432988228Y-135431703D01*
G37*
G36*
X247021228Y-135431703D02*
G01*
X247176100Y-135495853D01*
X247315481Y-135588985D01*
X247434015Y-135707519D01*
X247527147Y-135846900D01*
X247591297Y-136001772D01*
X247624000Y-136166184D01*
X247624000Y-136333816D01*
X247591297Y-136498228D01*
X247527147Y-136653100D01*
X247434015Y-136792481D01*
X247315481Y-136911015D01*
X247176100Y-137004147D01*
X247021228Y-137068297D01*
X246856816Y-137101000D01*
X246689184Y-137101000D01*
X246524772Y-137068297D01*
X246369900Y-137004147D01*
X246230519Y-136911015D01*
X246111985Y-136792481D01*
X246018853Y-136653100D01*
X245954703Y-136498228D01*
X245922000Y-136333816D01*
X245922000Y-136166184D01*
X245954703Y-136001772D01*
X246018853Y-135846900D01*
X246111985Y-135707519D01*
X246230519Y-135588985D01*
X246369900Y-135495853D01*
X246524772Y-135431703D01*
X246689184Y-135399000D01*
X246856816Y-135399000D01*
X247021228Y-135431703D01*
G37*
G36*
X366028228Y-135431703D02*
G01*
X366183100Y-135495853D01*
X366322481Y-135588985D01*
X366441015Y-135707519D01*
X366534147Y-135846900D01*
X366598297Y-136001772D01*
X366631000Y-136166184D01*
X366631000Y-136333816D01*
X366598297Y-136498228D01*
X366534147Y-136653100D01*
X366441015Y-136792481D01*
X366322481Y-136911015D01*
X366183100Y-137004147D01*
X366028228Y-137068297D01*
X365863816Y-137101000D01*
X365696184Y-137101000D01*
X365531772Y-137068297D01*
X365376900Y-137004147D01*
X365237519Y-136911015D01*
X365118985Y-136792481D01*
X365025853Y-136653100D01*
X364961703Y-136498228D01*
X364929000Y-136333816D01*
X364929000Y-136166184D01*
X364961703Y-136001772D01*
X365025853Y-135846900D01*
X365118985Y-135707519D01*
X365237519Y-135588985D01*
X365376900Y-135495853D01*
X365531772Y-135431703D01*
X365696184Y-135399000D01*
X365863816Y-135399000D01*
X366028228Y-135431703D01*
G37*
G36*
X113692228Y-135431703D02*
G01*
X113847100Y-135495853D01*
X113986481Y-135588985D01*
X114105015Y-135707519D01*
X114198147Y-135846900D01*
X114262297Y-136001772D01*
X114295000Y-136166184D01*
X114295000Y-136333816D01*
X114262297Y-136498228D01*
X114198147Y-136653100D01*
X114105015Y-136792481D01*
X113986481Y-136911015D01*
X113847100Y-137004147D01*
X113692228Y-137068297D01*
X113527816Y-137101000D01*
X113360184Y-137101000D01*
X113195772Y-137068297D01*
X113040900Y-137004147D01*
X112901519Y-136911015D01*
X112782985Y-136792481D01*
X112689853Y-136653100D01*
X112625703Y-136498228D01*
X112593000Y-136333816D01*
X112593000Y-136166184D01*
X112625703Y-136001772D01*
X112689853Y-135846900D01*
X112782985Y-135707519D01*
X112901519Y-135588985D01*
X113040900Y-135495853D01*
X113195772Y-135431703D01*
X113360184Y-135399000D01*
X113527816Y-135399000D01*
X113692228Y-135431703D01*
G37*
G36*
X132739228Y-135431703D02*
G01*
X132894100Y-135495853D01*
X133033481Y-135588985D01*
X133152015Y-135707519D01*
X133245147Y-135846900D01*
X133309297Y-136001772D01*
X133342000Y-136166184D01*
X133342000Y-136333816D01*
X133309297Y-136498228D01*
X133245147Y-136653100D01*
X133152015Y-136792481D01*
X133033481Y-136911015D01*
X132894100Y-137004147D01*
X132739228Y-137068297D01*
X132574816Y-137101000D01*
X132407184Y-137101000D01*
X132242772Y-137068297D01*
X132087900Y-137004147D01*
X131948519Y-136911015D01*
X131829985Y-136792481D01*
X131736853Y-136653100D01*
X131672703Y-136498228D01*
X131640000Y-136333816D01*
X131640000Y-136166184D01*
X131672703Y-136001772D01*
X131736853Y-135846900D01*
X131829985Y-135707519D01*
X131948519Y-135588985D01*
X132087900Y-135495853D01*
X132242772Y-135431703D01*
X132407184Y-135399000D01*
X132574816Y-135399000D01*
X132739228Y-135431703D01*
G37*
G36*
X151786228Y-135431703D02*
G01*
X151941100Y-135495853D01*
X152080481Y-135588985D01*
X152199015Y-135707519D01*
X152292147Y-135846900D01*
X152356297Y-136001772D01*
X152389000Y-136166184D01*
X152389000Y-136333816D01*
X152356297Y-136498228D01*
X152292147Y-136653100D01*
X152199015Y-136792481D01*
X152080481Y-136911015D01*
X151941100Y-137004147D01*
X151786228Y-137068297D01*
X151621816Y-137101000D01*
X151454184Y-137101000D01*
X151289772Y-137068297D01*
X151134900Y-137004147D01*
X150995519Y-136911015D01*
X150876985Y-136792481D01*
X150783853Y-136653100D01*
X150719703Y-136498228D01*
X150687000Y-136333816D01*
X150687000Y-136166184D01*
X150719703Y-136001772D01*
X150783853Y-135846900D01*
X150876985Y-135707519D01*
X150995519Y-135588985D01*
X151134900Y-135495853D01*
X151289772Y-135431703D01*
X151454184Y-135399000D01*
X151621816Y-135399000D01*
X151786228Y-135431703D01*
G37*
G36*
X266068228Y-135431703D02*
G01*
X266223100Y-135495853D01*
X266362481Y-135588985D01*
X266481015Y-135707519D01*
X266574147Y-135846900D01*
X266638297Y-136001772D01*
X266671000Y-136166184D01*
X266671000Y-136333816D01*
X266638297Y-136498228D01*
X266574147Y-136653100D01*
X266481015Y-136792481D01*
X266362481Y-136911015D01*
X266223100Y-137004147D01*
X266068228Y-137068297D01*
X265903816Y-137101000D01*
X265736184Y-137101000D01*
X265571772Y-137068297D01*
X265416900Y-137004147D01*
X265277519Y-136911015D01*
X265158985Y-136792481D01*
X265065853Y-136653100D01*
X265001703Y-136498228D01*
X264969000Y-136333816D01*
X264969000Y-136166184D01*
X265001703Y-136001772D01*
X265065853Y-135846900D01*
X265158985Y-135707519D01*
X265277519Y-135588985D01*
X265416900Y-135495853D01*
X265571772Y-135431703D01*
X265736184Y-135399000D01*
X265903816Y-135399000D01*
X266068228Y-135431703D01*
G37*
G36*
X367063512Y-128413927D02*
G01*
X367212812Y-128443624D01*
X367376784Y-128511544D01*
X367524354Y-128610147D01*
X367649853Y-128735646D01*
X367748456Y-128883216D01*
X367816376Y-129047188D01*
X367851000Y-129221259D01*
X367851000Y-129398741D01*
X367816376Y-129572812D01*
X367748456Y-129736784D01*
X367649853Y-129884354D01*
X367524354Y-130009853D01*
X367376784Y-130108456D01*
X367212812Y-130176376D01*
X367063512Y-130206073D01*
X367038742Y-130211000D01*
X366861258Y-130211000D01*
X366836488Y-130206073D01*
X366687188Y-130176376D01*
X366523216Y-130108456D01*
X366375646Y-130009853D01*
X366250147Y-129884354D01*
X366151544Y-129736784D01*
X366083624Y-129572812D01*
X366049000Y-129398741D01*
X366049000Y-129221259D01*
X366083624Y-129047188D01*
X366151544Y-128883216D01*
X366250147Y-128735646D01*
X366375646Y-128610147D01*
X366523216Y-128511544D01*
X366687188Y-128443624D01*
X366836488Y-128413927D01*
X366861258Y-128409000D01*
X367038742Y-128409000D01*
X367063512Y-128413927D01*
G37*
G36*
X344203512Y-128413927D02*
G01*
X344352812Y-128443624D01*
X344516784Y-128511544D01*
X344664354Y-128610147D01*
X344789853Y-128735646D01*
X344888456Y-128883216D01*
X344956376Y-129047188D01*
X344991000Y-129221259D01*
X344991000Y-129398741D01*
X344956376Y-129572812D01*
X344888456Y-129736784D01*
X344789853Y-129884354D01*
X344664354Y-130009853D01*
X344516784Y-130108456D01*
X344352812Y-130176376D01*
X344203512Y-130206073D01*
X344178742Y-130211000D01*
X344001258Y-130211000D01*
X343976488Y-130206073D01*
X343827188Y-130176376D01*
X343663216Y-130108456D01*
X343515646Y-130009853D01*
X343390147Y-129884354D01*
X343291544Y-129736784D01*
X343223624Y-129572812D01*
X343189000Y-129398741D01*
X343189000Y-129221259D01*
X343223624Y-129047188D01*
X343291544Y-128883216D01*
X343390147Y-128735646D01*
X343515646Y-128610147D01*
X343663216Y-128511544D01*
X343827188Y-128443624D01*
X343976488Y-128413927D01*
X344001258Y-128409000D01*
X344178742Y-128409000D01*
X344203512Y-128413927D01*
G37*
G36*
X331503512Y-128413927D02*
G01*
X331652812Y-128443624D01*
X331816784Y-128511544D01*
X331964354Y-128610147D01*
X332089853Y-128735646D01*
X332188456Y-128883216D01*
X332256376Y-129047188D01*
X332291000Y-129221259D01*
X332291000Y-129398741D01*
X332256376Y-129572812D01*
X332188456Y-129736784D01*
X332089853Y-129884354D01*
X331964354Y-130009853D01*
X331816784Y-130108456D01*
X331652812Y-130176376D01*
X331503512Y-130206073D01*
X331478742Y-130211000D01*
X331301258Y-130211000D01*
X331276488Y-130206073D01*
X331127188Y-130176376D01*
X330963216Y-130108456D01*
X330815646Y-130009853D01*
X330690147Y-129884354D01*
X330591544Y-129736784D01*
X330523624Y-129572812D01*
X330489000Y-129398741D01*
X330489000Y-129221259D01*
X330523624Y-129047188D01*
X330591544Y-128883216D01*
X330690147Y-128735646D01*
X330815646Y-128610147D01*
X330963216Y-128511544D01*
X331127188Y-128443624D01*
X331276488Y-128413927D01*
X331301258Y-128409000D01*
X331478742Y-128409000D01*
X331503512Y-128413927D01*
G37*
G36*
X346743512Y-128413927D02*
G01*
X346892812Y-128443624D01*
X347056784Y-128511544D01*
X347204354Y-128610147D01*
X347329853Y-128735646D01*
X347428456Y-128883216D01*
X347496376Y-129047188D01*
X347531000Y-129221259D01*
X347531000Y-129398741D01*
X347496376Y-129572812D01*
X347428456Y-129736784D01*
X347329853Y-129884354D01*
X347204354Y-130009853D01*
X347056784Y-130108456D01*
X346892812Y-130176376D01*
X346743512Y-130206073D01*
X346718742Y-130211000D01*
X346541258Y-130211000D01*
X346516488Y-130206073D01*
X346367188Y-130176376D01*
X346203216Y-130108456D01*
X346055646Y-130009853D01*
X345930147Y-129884354D01*
X345831544Y-129736784D01*
X345763624Y-129572812D01*
X345729000Y-129398741D01*
X345729000Y-129221259D01*
X345763624Y-129047188D01*
X345831544Y-128883216D01*
X345930147Y-128735646D01*
X346055646Y-128610147D01*
X346203216Y-128511544D01*
X346367188Y-128443624D01*
X346516488Y-128413927D01*
X346541258Y-128409000D01*
X346718742Y-128409000D01*
X346743512Y-128413927D01*
G37*
G36*
X318803512Y-128413927D02*
G01*
X318952812Y-128443624D01*
X319116784Y-128511544D01*
X319264354Y-128610147D01*
X319389853Y-128735646D01*
X319488456Y-128883216D01*
X319556376Y-129047188D01*
X319591000Y-129221259D01*
X319591000Y-129398741D01*
X319556376Y-129572812D01*
X319488456Y-129736784D01*
X319389853Y-129884354D01*
X319264354Y-130009853D01*
X319116784Y-130108456D01*
X318952812Y-130176376D01*
X318803512Y-130206073D01*
X318778742Y-130211000D01*
X318601258Y-130211000D01*
X318576488Y-130206073D01*
X318427188Y-130176376D01*
X318263216Y-130108456D01*
X318115646Y-130009853D01*
X317990147Y-129884354D01*
X317891544Y-129736784D01*
X317823624Y-129572812D01*
X317789000Y-129398741D01*
X317789000Y-129221259D01*
X317823624Y-129047188D01*
X317891544Y-128883216D01*
X317990147Y-128735646D01*
X318115646Y-128610147D01*
X318263216Y-128511544D01*
X318427188Y-128443624D01*
X318576488Y-128413927D01*
X318601258Y-128409000D01*
X318778742Y-128409000D01*
X318803512Y-128413927D01*
G37*
G36*
X323883512Y-128413927D02*
G01*
X324032812Y-128443624D01*
X324196784Y-128511544D01*
X324344354Y-128610147D01*
X324469853Y-128735646D01*
X324568456Y-128883216D01*
X324636376Y-129047188D01*
X324671000Y-129221259D01*
X324671000Y-129398741D01*
X324636376Y-129572812D01*
X324568456Y-129736784D01*
X324469853Y-129884354D01*
X324344354Y-130009853D01*
X324196784Y-130108456D01*
X324032812Y-130176376D01*
X323883512Y-130206073D01*
X323858742Y-130211000D01*
X323681258Y-130211000D01*
X323656488Y-130206073D01*
X323507188Y-130176376D01*
X323343216Y-130108456D01*
X323195646Y-130009853D01*
X323070147Y-129884354D01*
X322971544Y-129736784D01*
X322903624Y-129572812D01*
X322869000Y-129398741D01*
X322869000Y-129221259D01*
X322903624Y-129047188D01*
X322971544Y-128883216D01*
X323070147Y-128735646D01*
X323195646Y-128610147D01*
X323343216Y-128511544D01*
X323507188Y-128443624D01*
X323656488Y-128413927D01*
X323681258Y-128409000D01*
X323858742Y-128409000D01*
X323883512Y-128413927D01*
G37*
G36*
X326423512Y-128413927D02*
G01*
X326572812Y-128443624D01*
X326736784Y-128511544D01*
X326884354Y-128610147D01*
X327009853Y-128735646D01*
X327108456Y-128883216D01*
X327176376Y-129047188D01*
X327211000Y-129221259D01*
X327211000Y-129398741D01*
X327176376Y-129572812D01*
X327108456Y-129736784D01*
X327009853Y-129884354D01*
X326884354Y-130009853D01*
X326736784Y-130108456D01*
X326572812Y-130176376D01*
X326423512Y-130206073D01*
X326398742Y-130211000D01*
X326221258Y-130211000D01*
X326196488Y-130206073D01*
X326047188Y-130176376D01*
X325883216Y-130108456D01*
X325735646Y-130009853D01*
X325610147Y-129884354D01*
X325511544Y-129736784D01*
X325443624Y-129572812D01*
X325409000Y-129398741D01*
X325409000Y-129221259D01*
X325443624Y-129047188D01*
X325511544Y-128883216D01*
X325610147Y-128735646D01*
X325735646Y-128610147D01*
X325883216Y-128511544D01*
X326047188Y-128443624D01*
X326196488Y-128413927D01*
X326221258Y-128409000D01*
X326398742Y-128409000D01*
X326423512Y-128413927D01*
G37*
G36*
X328963512Y-128413927D02*
G01*
X329112812Y-128443624D01*
X329276784Y-128511544D01*
X329424354Y-128610147D01*
X329549853Y-128735646D01*
X329648456Y-128883216D01*
X329716376Y-129047188D01*
X329751000Y-129221259D01*
X329751000Y-129398741D01*
X329716376Y-129572812D01*
X329648456Y-129736784D01*
X329549853Y-129884354D01*
X329424354Y-130009853D01*
X329276784Y-130108456D01*
X329112812Y-130176376D01*
X328963512Y-130206073D01*
X328938742Y-130211000D01*
X328761258Y-130211000D01*
X328736488Y-130206073D01*
X328587188Y-130176376D01*
X328423216Y-130108456D01*
X328275646Y-130009853D01*
X328150147Y-129884354D01*
X328051544Y-129736784D01*
X327983624Y-129572812D01*
X327949000Y-129398741D01*
X327949000Y-129221259D01*
X327983624Y-129047188D01*
X328051544Y-128883216D01*
X328150147Y-128735646D01*
X328275646Y-128610147D01*
X328423216Y-128511544D01*
X328587188Y-128443624D01*
X328736488Y-128413927D01*
X328761258Y-128409000D01*
X328938742Y-128409000D01*
X328963512Y-128413927D01*
G37*
G36*
X334043512Y-128413927D02*
G01*
X334192812Y-128443624D01*
X334356784Y-128511544D01*
X334504354Y-128610147D01*
X334629853Y-128735646D01*
X334728456Y-128883216D01*
X334796376Y-129047188D01*
X334831000Y-129221259D01*
X334831000Y-129398741D01*
X334796376Y-129572812D01*
X334728456Y-129736784D01*
X334629853Y-129884354D01*
X334504354Y-130009853D01*
X334356784Y-130108456D01*
X334192812Y-130176376D01*
X334043512Y-130206073D01*
X334018742Y-130211000D01*
X333841258Y-130211000D01*
X333816488Y-130206073D01*
X333667188Y-130176376D01*
X333503216Y-130108456D01*
X333355646Y-130009853D01*
X333230147Y-129884354D01*
X333131544Y-129736784D01*
X333063624Y-129572812D01*
X333029000Y-129398741D01*
X333029000Y-129221259D01*
X333063624Y-129047188D01*
X333131544Y-128883216D01*
X333230147Y-128735646D01*
X333355646Y-128610147D01*
X333503216Y-128511544D01*
X333667188Y-128443624D01*
X333816488Y-128413927D01*
X333841258Y-128409000D01*
X334018742Y-128409000D01*
X334043512Y-128413927D01*
G37*
G36*
X321343512Y-128413927D02*
G01*
X321492812Y-128443624D01*
X321656784Y-128511544D01*
X321804354Y-128610147D01*
X321929853Y-128735646D01*
X322028456Y-128883216D01*
X322096376Y-129047188D01*
X322131000Y-129221259D01*
X322131000Y-129398741D01*
X322096376Y-129572812D01*
X322028456Y-129736784D01*
X321929853Y-129884354D01*
X321804354Y-130009853D01*
X321656784Y-130108456D01*
X321492812Y-130176376D01*
X321343512Y-130206073D01*
X321318742Y-130211000D01*
X321141258Y-130211000D01*
X321116488Y-130206073D01*
X320967188Y-130176376D01*
X320803216Y-130108456D01*
X320655646Y-130009853D01*
X320530147Y-129884354D01*
X320431544Y-129736784D01*
X320363624Y-129572812D01*
X320329000Y-129398741D01*
X320329000Y-129221259D01*
X320363624Y-129047188D01*
X320431544Y-128883216D01*
X320530147Y-128735646D01*
X320655646Y-128610147D01*
X320803216Y-128511544D01*
X320967188Y-128443624D01*
X321116488Y-128413927D01*
X321141258Y-128409000D01*
X321318742Y-128409000D01*
X321343512Y-128413927D01*
G37*
G36*
X364523512Y-128413927D02*
G01*
X364672812Y-128443624D01*
X364836784Y-128511544D01*
X364984354Y-128610147D01*
X365109853Y-128735646D01*
X365208456Y-128883216D01*
X365276376Y-129047188D01*
X365311000Y-129221259D01*
X365311000Y-129398741D01*
X365276376Y-129572812D01*
X365208456Y-129736784D01*
X365109853Y-129884354D01*
X364984354Y-130009853D01*
X364836784Y-130108456D01*
X364672812Y-130176376D01*
X364523512Y-130206073D01*
X364498742Y-130211000D01*
X364321258Y-130211000D01*
X364296488Y-130206073D01*
X364147188Y-130176376D01*
X363983216Y-130108456D01*
X363835646Y-130009853D01*
X363710147Y-129884354D01*
X363611544Y-129736784D01*
X363543624Y-129572812D01*
X363509000Y-129398741D01*
X363509000Y-129221259D01*
X363543624Y-129047188D01*
X363611544Y-128883216D01*
X363710147Y-128735646D01*
X363835646Y-128610147D01*
X363983216Y-128511544D01*
X364147188Y-128443624D01*
X364296488Y-128413927D01*
X364321258Y-128409000D01*
X364498742Y-128409000D01*
X364523512Y-128413927D01*
G37*
G36*
X341663512Y-128413927D02*
G01*
X341812812Y-128443624D01*
X341976784Y-128511544D01*
X342124354Y-128610147D01*
X342249853Y-128735646D01*
X342348456Y-128883216D01*
X342416376Y-129047188D01*
X342451000Y-129221259D01*
X342451000Y-129398741D01*
X342416376Y-129572812D01*
X342348456Y-129736784D01*
X342249853Y-129884354D01*
X342124354Y-130009853D01*
X341976784Y-130108456D01*
X341812812Y-130176376D01*
X341663512Y-130206073D01*
X341638742Y-130211000D01*
X341461258Y-130211000D01*
X341436488Y-130206073D01*
X341287188Y-130176376D01*
X341123216Y-130108456D01*
X340975646Y-130009853D01*
X340850147Y-129884354D01*
X340751544Y-129736784D01*
X340683624Y-129572812D01*
X340649000Y-129398741D01*
X340649000Y-129221259D01*
X340683624Y-129047188D01*
X340751544Y-128883216D01*
X340850147Y-128735646D01*
X340975646Y-128610147D01*
X341123216Y-128511544D01*
X341287188Y-128443624D01*
X341436488Y-128413927D01*
X341461258Y-128409000D01*
X341638742Y-128409000D01*
X341663512Y-128413927D01*
G37*
G36*
X351823512Y-128413927D02*
G01*
X351972812Y-128443624D01*
X352136784Y-128511544D01*
X352284354Y-128610147D01*
X352409853Y-128735646D01*
X352508456Y-128883216D01*
X352576376Y-129047188D01*
X352611000Y-129221259D01*
X352611000Y-129398741D01*
X352576376Y-129572812D01*
X352508456Y-129736784D01*
X352409853Y-129884354D01*
X352284354Y-130009853D01*
X352136784Y-130108456D01*
X351972812Y-130176376D01*
X351823512Y-130206073D01*
X351798742Y-130211000D01*
X351621258Y-130211000D01*
X351596488Y-130206073D01*
X351447188Y-130176376D01*
X351283216Y-130108456D01*
X351135646Y-130009853D01*
X351010147Y-129884354D01*
X350911544Y-129736784D01*
X350843624Y-129572812D01*
X350809000Y-129398741D01*
X350809000Y-129221259D01*
X350843624Y-129047188D01*
X350911544Y-128883216D01*
X351010147Y-128735646D01*
X351135646Y-128610147D01*
X351283216Y-128511544D01*
X351447188Y-128443624D01*
X351596488Y-128413927D01*
X351621258Y-128409000D01*
X351798742Y-128409000D01*
X351823512Y-128413927D01*
G37*
G36*
X354363512Y-128413927D02*
G01*
X354512812Y-128443624D01*
X354676784Y-128511544D01*
X354824354Y-128610147D01*
X354949853Y-128735646D01*
X355048456Y-128883216D01*
X355116376Y-129047188D01*
X355151000Y-129221259D01*
X355151000Y-129398741D01*
X355116376Y-129572812D01*
X355048456Y-129736784D01*
X354949853Y-129884354D01*
X354824354Y-130009853D01*
X354676784Y-130108456D01*
X354512812Y-130176376D01*
X354363512Y-130206073D01*
X354338742Y-130211000D01*
X354161258Y-130211000D01*
X354136488Y-130206073D01*
X353987188Y-130176376D01*
X353823216Y-130108456D01*
X353675646Y-130009853D01*
X353550147Y-129884354D01*
X353451544Y-129736784D01*
X353383624Y-129572812D01*
X353349000Y-129398741D01*
X353349000Y-129221259D01*
X353383624Y-129047188D01*
X353451544Y-128883216D01*
X353550147Y-128735646D01*
X353675646Y-128610147D01*
X353823216Y-128511544D01*
X353987188Y-128443624D01*
X354136488Y-128413927D01*
X354161258Y-128409000D01*
X354338742Y-128409000D01*
X354363512Y-128413927D01*
G37*
G36*
X356903512Y-128413927D02*
G01*
X357052812Y-128443624D01*
X357216784Y-128511544D01*
X357364354Y-128610147D01*
X357489853Y-128735646D01*
X357588456Y-128883216D01*
X357656376Y-129047188D01*
X357691000Y-129221259D01*
X357691000Y-129398741D01*
X357656376Y-129572812D01*
X357588456Y-129736784D01*
X357489853Y-129884354D01*
X357364354Y-130009853D01*
X357216784Y-130108456D01*
X357052812Y-130176376D01*
X356903512Y-130206073D01*
X356878742Y-130211000D01*
X356701258Y-130211000D01*
X356676488Y-130206073D01*
X356527188Y-130176376D01*
X356363216Y-130108456D01*
X356215646Y-130009853D01*
X356090147Y-129884354D01*
X355991544Y-129736784D01*
X355923624Y-129572812D01*
X355889000Y-129398741D01*
X355889000Y-129221259D01*
X355923624Y-129047188D01*
X355991544Y-128883216D01*
X356090147Y-128735646D01*
X356215646Y-128610147D01*
X356363216Y-128511544D01*
X356527188Y-128443624D01*
X356676488Y-128413927D01*
X356701258Y-128409000D01*
X356878742Y-128409000D01*
X356903512Y-128413927D01*
G37*
G36*
X336583512Y-128413927D02*
G01*
X336732812Y-128443624D01*
X336896784Y-128511544D01*
X337044354Y-128610147D01*
X337169853Y-128735646D01*
X337268456Y-128883216D01*
X337336376Y-129047188D01*
X337371000Y-129221259D01*
X337371000Y-129398741D01*
X337336376Y-129572812D01*
X337268456Y-129736784D01*
X337169853Y-129884354D01*
X337044354Y-130009853D01*
X336896784Y-130108456D01*
X336732812Y-130176376D01*
X336583512Y-130206073D01*
X336558742Y-130211000D01*
X336381258Y-130211000D01*
X336356488Y-130206073D01*
X336207188Y-130176376D01*
X336043216Y-130108456D01*
X335895646Y-130009853D01*
X335770147Y-129884354D01*
X335671544Y-129736784D01*
X335603624Y-129572812D01*
X335569000Y-129398741D01*
X335569000Y-129221259D01*
X335603624Y-129047188D01*
X335671544Y-128883216D01*
X335770147Y-128735646D01*
X335895646Y-128610147D01*
X336043216Y-128511544D01*
X336207188Y-128443624D01*
X336356488Y-128413927D01*
X336381258Y-128409000D01*
X336558742Y-128409000D01*
X336583512Y-128413927D01*
G37*
G36*
X339123512Y-128413927D02*
G01*
X339272812Y-128443624D01*
X339436784Y-128511544D01*
X339584354Y-128610147D01*
X339709853Y-128735646D01*
X339808456Y-128883216D01*
X339876376Y-129047188D01*
X339911000Y-129221259D01*
X339911000Y-129398741D01*
X339876376Y-129572812D01*
X339808456Y-129736784D01*
X339709853Y-129884354D01*
X339584354Y-130009853D01*
X339436784Y-130108456D01*
X339272812Y-130176376D01*
X339123512Y-130206073D01*
X339098742Y-130211000D01*
X338921258Y-130211000D01*
X338896488Y-130206073D01*
X338747188Y-130176376D01*
X338583216Y-130108456D01*
X338435646Y-130009853D01*
X338310147Y-129884354D01*
X338211544Y-129736784D01*
X338143624Y-129572812D01*
X338109000Y-129398741D01*
X338109000Y-129221259D01*
X338143624Y-129047188D01*
X338211544Y-128883216D01*
X338310147Y-128735646D01*
X338435646Y-128610147D01*
X338583216Y-128511544D01*
X338747188Y-128443624D01*
X338896488Y-128413927D01*
X338921258Y-128409000D01*
X339098742Y-128409000D01*
X339123512Y-128413927D01*
G37*
G36*
X359443512Y-128413927D02*
G01*
X359592812Y-128443624D01*
X359756784Y-128511544D01*
X359904354Y-128610147D01*
X360029853Y-128735646D01*
X360128456Y-128883216D01*
X360196376Y-129047188D01*
X360231000Y-129221259D01*
X360231000Y-129398741D01*
X360196376Y-129572812D01*
X360128456Y-129736784D01*
X360029853Y-129884354D01*
X359904354Y-130009853D01*
X359756784Y-130108456D01*
X359592812Y-130176376D01*
X359443512Y-130206073D01*
X359418742Y-130211000D01*
X359241258Y-130211000D01*
X359216488Y-130206073D01*
X359067188Y-130176376D01*
X358903216Y-130108456D01*
X358755646Y-130009853D01*
X358630147Y-129884354D01*
X358531544Y-129736784D01*
X358463624Y-129572812D01*
X358429000Y-129398741D01*
X358429000Y-129221259D01*
X358463624Y-129047188D01*
X358531544Y-128883216D01*
X358630147Y-128735646D01*
X358755646Y-128610147D01*
X358903216Y-128511544D01*
X359067188Y-128443624D01*
X359216488Y-128413927D01*
X359241258Y-128409000D01*
X359418742Y-128409000D01*
X359443512Y-128413927D01*
G37*
G36*
X349283512Y-128413927D02*
G01*
X349432812Y-128443624D01*
X349596784Y-128511544D01*
X349744354Y-128610147D01*
X349869853Y-128735646D01*
X349968456Y-128883216D01*
X350036376Y-129047188D01*
X350071000Y-129221259D01*
X350071000Y-129398741D01*
X350036376Y-129572812D01*
X349968456Y-129736784D01*
X349869853Y-129884354D01*
X349744354Y-130009853D01*
X349596784Y-130108456D01*
X349432812Y-130176376D01*
X349283512Y-130206073D01*
X349258742Y-130211000D01*
X349081258Y-130211000D01*
X349056488Y-130206073D01*
X348907188Y-130176376D01*
X348743216Y-130108456D01*
X348595646Y-130009853D01*
X348470147Y-129884354D01*
X348371544Y-129736784D01*
X348303624Y-129572812D01*
X348269000Y-129398741D01*
X348269000Y-129221259D01*
X348303624Y-129047188D01*
X348371544Y-128883216D01*
X348470147Y-128735646D01*
X348595646Y-128610147D01*
X348743216Y-128511544D01*
X348907188Y-128443624D01*
X349056488Y-128413927D01*
X349081258Y-128409000D01*
X349258742Y-128409000D01*
X349283512Y-128413927D01*
G37*
G36*
X361983512Y-128413927D02*
G01*
X362132812Y-128443624D01*
X362296784Y-128511544D01*
X362444354Y-128610147D01*
X362569853Y-128735646D01*
X362668456Y-128883216D01*
X362736376Y-129047188D01*
X362771000Y-129221259D01*
X362771000Y-129398741D01*
X362736376Y-129572812D01*
X362668456Y-129736784D01*
X362569853Y-129884354D01*
X362444354Y-130009853D01*
X362296784Y-130108456D01*
X362132812Y-130176376D01*
X361983512Y-130206073D01*
X361958742Y-130211000D01*
X361781258Y-130211000D01*
X361756488Y-130206073D01*
X361607188Y-130176376D01*
X361443216Y-130108456D01*
X361295646Y-130009853D01*
X361170147Y-129884354D01*
X361071544Y-129736784D01*
X361003624Y-129572812D01*
X360969000Y-129398741D01*
X360969000Y-129221259D01*
X361003624Y-129047188D01*
X361071544Y-128883216D01*
X361170147Y-128735646D01*
X361295646Y-128610147D01*
X361443216Y-128511544D01*
X361607188Y-128443624D01*
X361756488Y-128413927D01*
X361781258Y-128409000D01*
X361958742Y-128409000D01*
X361983512Y-128413927D01*
G37*
G36*
X322614512Y-124605927D02*
G01*
X322763812Y-124635624D01*
X322927784Y-124703544D01*
X323075354Y-124802147D01*
X323200853Y-124927646D01*
X323299456Y-125075216D01*
X323367376Y-125239188D01*
X323402000Y-125413259D01*
X323402000Y-125590741D01*
X323367376Y-125764812D01*
X323299456Y-125928784D01*
X323200853Y-126076354D01*
X323075354Y-126201853D01*
X322927784Y-126300456D01*
X322763812Y-126368376D01*
X322614512Y-126398073D01*
X322589742Y-126403000D01*
X322412258Y-126403000D01*
X322387488Y-126398073D01*
X322238188Y-126368376D01*
X322074216Y-126300456D01*
X321926646Y-126201853D01*
X321801147Y-126076354D01*
X321702544Y-125928784D01*
X321634624Y-125764812D01*
X321600000Y-125590741D01*
X321600000Y-125413259D01*
X321634624Y-125239188D01*
X321702544Y-125075216D01*
X321801147Y-124927646D01*
X321926646Y-124802147D01*
X322074216Y-124703544D01*
X322238188Y-124635624D01*
X322387488Y-124605927D01*
X322412258Y-124601000D01*
X322589742Y-124601000D01*
X322614512Y-124605927D01*
G37*
G36*
X123407666Y-125671000D02*
G01*
X121705666Y-125671000D01*
X121705666Y-123969000D01*
X123407666Y-123969000D01*
X123407666Y-125671000D01*
G37*
G36*
X180477665Y-125671000D02*
G01*
X178775665Y-125671000D01*
X178775665Y-123969000D01*
X180477665Y-123969000D01*
X180477665Y-125671000D01*
G37*
G36*
X161454332Y-125671000D02*
G01*
X159752332Y-125671000D01*
X159752332Y-123969000D01*
X161454332Y-123969000D01*
X161454332Y-125671000D01*
G37*
G36*
X142430999Y-125671000D02*
G01*
X140728999Y-125671000D01*
X140728999Y-123969000D01*
X142430999Y-123969000D01*
X142430999Y-125671000D01*
G37*
G36*
X218524331Y-125671000D02*
G01*
X216822331Y-125671000D01*
X216822331Y-123969000D01*
X218524331Y-123969000D01*
X218524331Y-125671000D01*
G37*
G36*
X104384333Y-125671000D02*
G01*
X102682333Y-125671000D01*
X102682333Y-123969000D01*
X104384333Y-123969000D01*
X104384333Y-125671000D01*
G37*
G36*
X452601000Y-125671000D02*
G01*
X450899000Y-125671000D01*
X450899000Y-123969000D01*
X452601000Y-123969000D01*
X452601000Y-125671000D01*
G37*
G36*
X85361000Y-125671000D02*
G01*
X83659000Y-125671000D01*
X83659000Y-123969000D01*
X85361000Y-123969000D01*
X85361000Y-125671000D01*
G37*
G36*
X59131000Y-125671000D02*
G01*
X57429000Y-125671000D01*
X57429000Y-123969000D01*
X59131000Y-123969000D01*
X59131000Y-125671000D01*
G37*
G36*
X414551000Y-125671000D02*
G01*
X412849000Y-125671000D01*
X412849000Y-123969000D01*
X414551000Y-123969000D01*
X414551000Y-125671000D01*
G37*
G36*
X306521000Y-125671000D02*
G01*
X304819000Y-125671000D01*
X304819000Y-123969000D01*
X306521000Y-123969000D01*
X306521000Y-125671000D01*
G37*
G36*
X275611000Y-125671000D02*
G01*
X273909000Y-125671000D01*
X273909000Y-123969000D01*
X275611000Y-123969000D01*
X275611000Y-125671000D01*
G37*
G36*
X256571000Y-125671000D02*
G01*
X254869000Y-125671000D01*
X254869000Y-123969000D01*
X256571000Y-123969000D01*
X256571000Y-125671000D01*
G37*
G36*
X237547664Y-125671000D02*
G01*
X235845664Y-125671000D01*
X235845664Y-123969000D01*
X237547664Y-123969000D01*
X237547664Y-125671000D01*
G37*
G36*
X199500998Y-125671000D02*
G01*
X197798998Y-125671000D01*
X197798998Y-123969000D01*
X199500998Y-123969000D01*
X199500998Y-125671000D01*
G37*
G36*
X433581000Y-125671000D02*
G01*
X431879000Y-125671000D01*
X431879000Y-123969000D01*
X433581000Y-123969000D01*
X433581000Y-125671000D01*
G37*
G36*
X322614512Y-122065927D02*
G01*
X322763812Y-122095624D01*
X322927784Y-122163544D01*
X323075354Y-122262147D01*
X323200853Y-122387646D01*
X323299456Y-122535216D01*
X323367376Y-122699188D01*
X323402000Y-122873259D01*
X323402000Y-123050741D01*
X323367376Y-123224812D01*
X323299456Y-123388784D01*
X323200853Y-123536354D01*
X323075354Y-123661853D01*
X322927784Y-123760456D01*
X322763812Y-123828376D01*
X322614512Y-123858073D01*
X322589742Y-123863000D01*
X322412258Y-123863000D01*
X322387488Y-123858073D01*
X322238188Y-123828376D01*
X322074216Y-123760456D01*
X321926646Y-123661853D01*
X321801147Y-123536354D01*
X321702544Y-123388784D01*
X321634624Y-123224812D01*
X321600000Y-123050741D01*
X321600000Y-122873259D01*
X321634624Y-122699188D01*
X321702544Y-122535216D01*
X321801147Y-122387646D01*
X321926646Y-122262147D01*
X322074216Y-122163544D01*
X322238188Y-122095624D01*
X322387488Y-122065927D01*
X322412258Y-122061000D01*
X322589742Y-122061000D01*
X322614512Y-122065927D01*
G37*
G36*
X322614512Y-119525927D02*
G01*
X322763812Y-119555624D01*
X322927784Y-119623544D01*
X323075354Y-119722147D01*
X323200853Y-119847646D01*
X323299456Y-119995216D01*
X323367376Y-120159188D01*
X323402000Y-120333259D01*
X323402000Y-120510741D01*
X323367376Y-120684812D01*
X323299456Y-120848784D01*
X323200853Y-120996354D01*
X323075354Y-121121853D01*
X322927784Y-121220456D01*
X322763812Y-121288376D01*
X322614512Y-121318073D01*
X322589742Y-121323000D01*
X322412258Y-121323000D01*
X322387488Y-121318073D01*
X322238188Y-121288376D01*
X322074216Y-121220456D01*
X321926646Y-121121853D01*
X321801147Y-120996354D01*
X321702544Y-120848784D01*
X321634624Y-120684812D01*
X321600000Y-120510741D01*
X321600000Y-120333259D01*
X321634624Y-120159188D01*
X321702544Y-119995216D01*
X321801147Y-119847646D01*
X321926646Y-119722147D01*
X322074216Y-119623544D01*
X322238188Y-119555624D01*
X322387488Y-119525927D01*
X322412258Y-119521000D01*
X322589742Y-119521000D01*
X322614512Y-119525927D01*
G37*
G36*
X322614512Y-116985927D02*
G01*
X322763812Y-117015624D01*
X322927784Y-117083544D01*
X323075354Y-117182147D01*
X323200853Y-117307646D01*
X323299456Y-117455216D01*
X323367376Y-117619188D01*
X323402000Y-117793259D01*
X323402000Y-117970741D01*
X323367376Y-118144812D01*
X323299456Y-118308784D01*
X323200853Y-118456354D01*
X323075354Y-118581853D01*
X322927784Y-118680456D01*
X322763812Y-118748376D01*
X322614512Y-118778073D01*
X322589742Y-118783000D01*
X322412258Y-118783000D01*
X322387488Y-118778073D01*
X322238188Y-118748376D01*
X322074216Y-118680456D01*
X321926646Y-118581853D01*
X321801147Y-118456354D01*
X321702544Y-118308784D01*
X321634624Y-118144812D01*
X321600000Y-117970741D01*
X321600000Y-117793259D01*
X321634624Y-117619188D01*
X321702544Y-117455216D01*
X321801147Y-117307646D01*
X321926646Y-117182147D01*
X322074216Y-117083544D01*
X322238188Y-117015624D01*
X322387488Y-116985927D01*
X322412258Y-116981000D01*
X322589742Y-116981000D01*
X322614512Y-116985927D01*
G37*
G36*
X413948228Y-116381703D02*
G01*
X414103100Y-116445853D01*
X414242481Y-116538985D01*
X414361015Y-116657519D01*
X414454147Y-116796900D01*
X414518297Y-116951772D01*
X414551000Y-117116184D01*
X414551000Y-117283816D01*
X414518297Y-117448228D01*
X414454147Y-117603100D01*
X414361015Y-117742481D01*
X414242481Y-117861015D01*
X414103100Y-117954147D01*
X413948228Y-118018297D01*
X413783816Y-118051000D01*
X413616184Y-118051000D01*
X413451772Y-118018297D01*
X413296900Y-117954147D01*
X413157519Y-117861015D01*
X413038985Y-117742481D01*
X412945853Y-117603100D01*
X412881703Y-117448228D01*
X412849000Y-117283816D01*
X412849000Y-117116184D01*
X412881703Y-116951772D01*
X412945853Y-116796900D01*
X413038985Y-116657519D01*
X413157519Y-116538985D01*
X413296900Y-116445853D01*
X413451772Y-116381703D01*
X413616184Y-116349000D01*
X413783816Y-116349000D01*
X413948228Y-116381703D01*
G37*
G36*
X305918228Y-116381703D02*
G01*
X306073100Y-116445853D01*
X306212481Y-116538985D01*
X306331015Y-116657519D01*
X306424147Y-116796900D01*
X306488297Y-116951772D01*
X306521000Y-117116184D01*
X306521000Y-117283816D01*
X306488297Y-117448228D01*
X306424147Y-117603100D01*
X306331015Y-117742481D01*
X306212481Y-117861015D01*
X306073100Y-117954147D01*
X305918228Y-118018297D01*
X305753816Y-118051000D01*
X305586184Y-118051000D01*
X305421772Y-118018297D01*
X305266900Y-117954147D01*
X305127519Y-117861015D01*
X305008985Y-117742481D01*
X304915853Y-117603100D01*
X304851703Y-117448228D01*
X304819000Y-117283816D01*
X304819000Y-117116184D01*
X304851703Y-116951772D01*
X304915853Y-116796900D01*
X305008985Y-116657519D01*
X305127519Y-116538985D01*
X305266900Y-116445853D01*
X305421772Y-116381703D01*
X305586184Y-116349000D01*
X305753816Y-116349000D01*
X305918228Y-116381703D01*
G37*
G36*
X432978228Y-116381703D02*
G01*
X433133100Y-116445853D01*
X433272481Y-116538985D01*
X433391015Y-116657519D01*
X433484147Y-116796900D01*
X433548297Y-116951772D01*
X433581000Y-117116184D01*
X433581000Y-117283816D01*
X433548297Y-117448228D01*
X433484147Y-117603100D01*
X433391015Y-117742481D01*
X433272481Y-117861015D01*
X433133100Y-117954147D01*
X432978228Y-118018297D01*
X432813816Y-118051000D01*
X432646184Y-118051000D01*
X432481772Y-118018297D01*
X432326900Y-117954147D01*
X432187519Y-117861015D01*
X432068985Y-117742481D01*
X431975853Y-117603100D01*
X431911703Y-117448228D01*
X431879000Y-117283816D01*
X431879000Y-117116184D01*
X431911703Y-116951772D01*
X431975853Y-116796900D01*
X432068985Y-116657519D01*
X432187519Y-116538985D01*
X432326900Y-116445853D01*
X432481772Y-116381703D01*
X432646184Y-116349000D01*
X432813816Y-116349000D01*
X432978228Y-116381703D01*
G37*
G36*
X255968228Y-116381703D02*
G01*
X256123100Y-116445853D01*
X256262481Y-116538985D01*
X256381015Y-116657519D01*
X256474147Y-116796900D01*
X256538297Y-116951772D01*
X256571000Y-117116184D01*
X256571000Y-117283816D01*
X256538297Y-117448228D01*
X256474147Y-117603100D01*
X256381015Y-117742481D01*
X256262481Y-117861015D01*
X256123100Y-117954147D01*
X255968228Y-118018297D01*
X255803816Y-118051000D01*
X255636184Y-118051000D01*
X255471772Y-118018297D01*
X255316900Y-117954147D01*
X255177519Y-117861015D01*
X255058985Y-117742481D01*
X254965853Y-117603100D01*
X254901703Y-117448228D01*
X254869000Y-117283816D01*
X254869000Y-117116184D01*
X254901703Y-116951772D01*
X254965853Y-116796900D01*
X255058985Y-116657519D01*
X255177519Y-116538985D01*
X255316900Y-116445853D01*
X255471772Y-116381703D01*
X255636184Y-116349000D01*
X255803816Y-116349000D01*
X255968228Y-116381703D01*
G37*
G36*
X236944892Y-116381703D02*
G01*
X237099764Y-116445853D01*
X237239145Y-116538985D01*
X237357679Y-116657519D01*
X237450811Y-116796900D01*
X237514961Y-116951772D01*
X237547664Y-117116184D01*
X237547664Y-117283816D01*
X237514961Y-117448228D01*
X237450811Y-117603100D01*
X237357679Y-117742481D01*
X237239145Y-117861015D01*
X237099764Y-117954147D01*
X236944892Y-118018297D01*
X236780480Y-118051000D01*
X236612848Y-118051000D01*
X236448436Y-118018297D01*
X236293564Y-117954147D01*
X236154183Y-117861015D01*
X236035649Y-117742481D01*
X235942517Y-117603100D01*
X235878367Y-117448228D01*
X235845664Y-117283816D01*
X235845664Y-117116184D01*
X235878367Y-116951772D01*
X235942517Y-116796900D01*
X236035649Y-116657519D01*
X236154183Y-116538985D01*
X236293564Y-116445853D01*
X236448436Y-116381703D01*
X236612848Y-116349000D01*
X236780480Y-116349000D01*
X236944892Y-116381703D01*
G37*
G36*
X451998228Y-116381703D02*
G01*
X452153100Y-116445853D01*
X452292481Y-116538985D01*
X452411015Y-116657519D01*
X452504147Y-116796900D01*
X452568297Y-116951772D01*
X452601000Y-117116184D01*
X452601000Y-117283816D01*
X452568297Y-117448228D01*
X452504147Y-117603100D01*
X452411015Y-117742481D01*
X452292481Y-117861015D01*
X452153100Y-117954147D01*
X451998228Y-118018297D01*
X451833816Y-118051000D01*
X451666184Y-118051000D01*
X451501772Y-118018297D01*
X451346900Y-117954147D01*
X451207519Y-117861015D01*
X451088985Y-117742481D01*
X450995853Y-117603100D01*
X450931703Y-117448228D01*
X450899000Y-117283816D01*
X450899000Y-117116184D01*
X450931703Y-116951772D01*
X450995853Y-116796900D01*
X451088985Y-116657519D01*
X451207519Y-116538985D01*
X451346900Y-116445853D01*
X451501772Y-116381703D01*
X451666184Y-116349000D01*
X451833816Y-116349000D01*
X451998228Y-116381703D01*
G37*
G36*
X58528228Y-116381703D02*
G01*
X58683100Y-116445853D01*
X58822481Y-116538985D01*
X58941015Y-116657519D01*
X59034147Y-116796900D01*
X59098297Y-116951772D01*
X59131000Y-117116184D01*
X59131000Y-117283816D01*
X59098297Y-117448228D01*
X59034147Y-117603100D01*
X58941015Y-117742481D01*
X58822481Y-117861015D01*
X58683100Y-117954147D01*
X58528228Y-118018297D01*
X58363816Y-118051000D01*
X58196184Y-118051000D01*
X58031772Y-118018297D01*
X57876900Y-117954147D01*
X57737519Y-117861015D01*
X57618985Y-117742481D01*
X57525853Y-117603100D01*
X57461703Y-117448228D01*
X57429000Y-117283816D01*
X57429000Y-117116184D01*
X57461703Y-116951772D01*
X57525853Y-116796900D01*
X57618985Y-116657519D01*
X57737519Y-116538985D01*
X57876900Y-116445853D01*
X58031772Y-116381703D01*
X58196184Y-116349000D01*
X58363816Y-116349000D01*
X58528228Y-116381703D01*
G37*
G36*
X84758228Y-116381703D02*
G01*
X84913100Y-116445853D01*
X85052481Y-116538985D01*
X85171015Y-116657519D01*
X85264147Y-116796900D01*
X85328297Y-116951772D01*
X85361000Y-117116184D01*
X85361000Y-117283816D01*
X85328297Y-117448228D01*
X85264147Y-117603100D01*
X85171015Y-117742481D01*
X85052481Y-117861015D01*
X84913100Y-117954147D01*
X84758228Y-118018297D01*
X84593816Y-118051000D01*
X84426184Y-118051000D01*
X84261772Y-118018297D01*
X84106900Y-117954147D01*
X83967519Y-117861015D01*
X83848985Y-117742481D01*
X83755853Y-117603100D01*
X83691703Y-117448228D01*
X83659000Y-117283816D01*
X83659000Y-117116184D01*
X83691703Y-116951772D01*
X83755853Y-116796900D01*
X83848985Y-116657519D01*
X83967519Y-116538985D01*
X84106900Y-116445853D01*
X84261772Y-116381703D01*
X84426184Y-116349000D01*
X84593816Y-116349000D01*
X84758228Y-116381703D01*
G37*
G36*
X198898226Y-116381703D02*
G01*
X199053098Y-116445853D01*
X199192479Y-116538985D01*
X199311013Y-116657519D01*
X199404145Y-116796900D01*
X199468295Y-116951772D01*
X199500998Y-117116184D01*
X199500998Y-117283816D01*
X199468295Y-117448228D01*
X199404145Y-117603100D01*
X199311013Y-117742481D01*
X199192479Y-117861015D01*
X199053098Y-117954147D01*
X198898226Y-118018297D01*
X198733814Y-118051000D01*
X198566182Y-118051000D01*
X198401770Y-118018297D01*
X198246898Y-117954147D01*
X198107517Y-117861015D01*
X197988983Y-117742481D01*
X197895851Y-117603100D01*
X197831701Y-117448228D01*
X197798998Y-117283816D01*
X197798998Y-117116184D01*
X197831701Y-116951772D01*
X197895851Y-116796900D01*
X197988983Y-116657519D01*
X198107517Y-116538985D01*
X198246898Y-116445853D01*
X198401770Y-116381703D01*
X198566182Y-116349000D01*
X198733814Y-116349000D01*
X198898226Y-116381703D01*
G37*
G36*
X179874893Y-116381703D02*
G01*
X180029765Y-116445853D01*
X180169146Y-116538985D01*
X180287680Y-116657519D01*
X180380812Y-116796900D01*
X180444962Y-116951772D01*
X180477665Y-117116184D01*
X180477665Y-117283816D01*
X180444962Y-117448228D01*
X180380812Y-117603100D01*
X180287680Y-117742481D01*
X180169146Y-117861015D01*
X180029765Y-117954147D01*
X179874893Y-118018297D01*
X179710481Y-118051000D01*
X179542849Y-118051000D01*
X179378437Y-118018297D01*
X179223565Y-117954147D01*
X179084184Y-117861015D01*
X178965650Y-117742481D01*
X178872518Y-117603100D01*
X178808368Y-117448228D01*
X178775665Y-117283816D01*
X178775665Y-117116184D01*
X178808368Y-116951772D01*
X178872518Y-116796900D01*
X178965650Y-116657519D01*
X179084184Y-116538985D01*
X179223565Y-116445853D01*
X179378437Y-116381703D01*
X179542849Y-116349000D01*
X179710481Y-116349000D01*
X179874893Y-116381703D01*
G37*
G36*
X103781561Y-116381703D02*
G01*
X103936433Y-116445853D01*
X104075814Y-116538985D01*
X104194348Y-116657519D01*
X104287480Y-116796900D01*
X104351630Y-116951772D01*
X104384333Y-117116184D01*
X104384333Y-117283816D01*
X104351630Y-117448228D01*
X104287480Y-117603100D01*
X104194348Y-117742481D01*
X104075814Y-117861015D01*
X103936433Y-117954147D01*
X103781561Y-118018297D01*
X103617149Y-118051000D01*
X103449517Y-118051000D01*
X103285105Y-118018297D01*
X103130233Y-117954147D01*
X102990852Y-117861015D01*
X102872318Y-117742481D01*
X102779186Y-117603100D01*
X102715036Y-117448228D01*
X102682333Y-117283816D01*
X102682333Y-117116184D01*
X102715036Y-116951772D01*
X102779186Y-116796900D01*
X102872318Y-116657519D01*
X102990852Y-116538985D01*
X103130233Y-116445853D01*
X103285105Y-116381703D01*
X103449517Y-116349000D01*
X103617149Y-116349000D01*
X103781561Y-116381703D01*
G37*
G36*
X275008228Y-116381703D02*
G01*
X275163100Y-116445853D01*
X275302481Y-116538985D01*
X275421015Y-116657519D01*
X275514147Y-116796900D01*
X275578297Y-116951772D01*
X275611000Y-117116184D01*
X275611000Y-117283816D01*
X275578297Y-117448228D01*
X275514147Y-117603100D01*
X275421015Y-117742481D01*
X275302481Y-117861015D01*
X275163100Y-117954147D01*
X275008228Y-118018297D01*
X274843816Y-118051000D01*
X274676184Y-118051000D01*
X274511772Y-118018297D01*
X274356900Y-117954147D01*
X274217519Y-117861015D01*
X274098985Y-117742481D01*
X274005853Y-117603100D01*
X273941703Y-117448228D01*
X273909000Y-117283816D01*
X273909000Y-117116184D01*
X273941703Y-116951772D01*
X274005853Y-116796900D01*
X274098985Y-116657519D01*
X274217519Y-116538985D01*
X274356900Y-116445853D01*
X274511772Y-116381703D01*
X274676184Y-116349000D01*
X274843816Y-116349000D01*
X275008228Y-116381703D01*
G37*
G36*
X160851560Y-116381703D02*
G01*
X161006432Y-116445853D01*
X161145813Y-116538985D01*
X161264347Y-116657519D01*
X161357479Y-116796900D01*
X161421629Y-116951772D01*
X161454332Y-117116184D01*
X161454332Y-117283816D01*
X161421629Y-117448228D01*
X161357479Y-117603100D01*
X161264347Y-117742481D01*
X161145813Y-117861015D01*
X161006432Y-117954147D01*
X160851560Y-118018297D01*
X160687148Y-118051000D01*
X160519516Y-118051000D01*
X160355104Y-118018297D01*
X160200232Y-117954147D01*
X160060851Y-117861015D01*
X159942317Y-117742481D01*
X159849185Y-117603100D01*
X159785035Y-117448228D01*
X159752332Y-117283816D01*
X159752332Y-117116184D01*
X159785035Y-116951772D01*
X159849185Y-116796900D01*
X159942317Y-116657519D01*
X160060851Y-116538985D01*
X160200232Y-116445853D01*
X160355104Y-116381703D01*
X160519516Y-116349000D01*
X160687148Y-116349000D01*
X160851560Y-116381703D01*
G37*
G36*
X141828227Y-116381703D02*
G01*
X141983099Y-116445853D01*
X142122480Y-116538985D01*
X142241014Y-116657519D01*
X142334146Y-116796900D01*
X142398296Y-116951772D01*
X142430999Y-117116184D01*
X142430999Y-117283816D01*
X142398296Y-117448228D01*
X142334146Y-117603100D01*
X142241014Y-117742481D01*
X142122480Y-117861015D01*
X141983099Y-117954147D01*
X141828227Y-118018297D01*
X141663815Y-118051000D01*
X141496183Y-118051000D01*
X141331771Y-118018297D01*
X141176899Y-117954147D01*
X141037518Y-117861015D01*
X140918984Y-117742481D01*
X140825852Y-117603100D01*
X140761702Y-117448228D01*
X140728999Y-117283816D01*
X140728999Y-117116184D01*
X140761702Y-116951772D01*
X140825852Y-116796900D01*
X140918984Y-116657519D01*
X141037518Y-116538985D01*
X141176899Y-116445853D01*
X141331771Y-116381703D01*
X141496183Y-116349000D01*
X141663815Y-116349000D01*
X141828227Y-116381703D01*
G37*
G36*
X122804894Y-116381703D02*
G01*
X122959766Y-116445853D01*
X123099147Y-116538985D01*
X123217681Y-116657519D01*
X123310813Y-116796900D01*
X123374963Y-116951772D01*
X123407666Y-117116184D01*
X123407666Y-117283816D01*
X123374963Y-117448228D01*
X123310813Y-117603100D01*
X123217681Y-117742481D01*
X123099147Y-117861015D01*
X122959766Y-117954147D01*
X122804894Y-118018297D01*
X122640482Y-118051000D01*
X122472850Y-118051000D01*
X122308438Y-118018297D01*
X122153566Y-117954147D01*
X122014185Y-117861015D01*
X121895651Y-117742481D01*
X121802519Y-117603100D01*
X121738369Y-117448228D01*
X121705666Y-117283816D01*
X121705666Y-117116184D01*
X121738369Y-116951772D01*
X121802519Y-116796900D01*
X121895651Y-116657519D01*
X122014185Y-116538985D01*
X122153566Y-116445853D01*
X122308438Y-116381703D01*
X122472850Y-116349000D01*
X122640482Y-116349000D01*
X122804894Y-116381703D01*
G37*
G36*
X217921559Y-116381703D02*
G01*
X218076431Y-116445853D01*
X218215812Y-116538985D01*
X218334346Y-116657519D01*
X218427478Y-116796900D01*
X218491628Y-116951772D01*
X218524331Y-117116184D01*
X218524331Y-117283816D01*
X218491628Y-117448228D01*
X218427478Y-117603100D01*
X218334346Y-117742481D01*
X218215812Y-117861015D01*
X218076431Y-117954147D01*
X217921559Y-118018297D01*
X217757147Y-118051000D01*
X217589515Y-118051000D01*
X217425103Y-118018297D01*
X217270231Y-117954147D01*
X217130850Y-117861015D01*
X217012316Y-117742481D01*
X216919184Y-117603100D01*
X216855034Y-117448228D01*
X216822331Y-117283816D01*
X216822331Y-117116184D01*
X216855034Y-116951772D01*
X216919184Y-116796900D01*
X217012316Y-116657519D01*
X217130850Y-116538985D01*
X217270231Y-116445853D01*
X217425103Y-116381703D01*
X217589515Y-116349000D01*
X217757147Y-116349000D01*
X217921559Y-116381703D01*
G37*
G36*
X367851000Y-114971000D02*
G01*
X366049000Y-114971000D01*
X366049000Y-113169000D01*
X367851000Y-113169000D01*
X367851000Y-114971000D01*
G37*
G36*
X341663512Y-113173927D02*
G01*
X341812812Y-113203624D01*
X341976784Y-113271544D01*
X342124354Y-113370147D01*
X342249853Y-113495646D01*
X342348456Y-113643216D01*
X342416376Y-113807188D01*
X342451000Y-113981259D01*
X342451000Y-114158741D01*
X342416376Y-114332812D01*
X342348456Y-114496784D01*
X342249853Y-114644354D01*
X342124354Y-114769853D01*
X341976784Y-114868456D01*
X341812812Y-114936376D01*
X341663512Y-114966073D01*
X341638742Y-114971000D01*
X341461258Y-114971000D01*
X341436488Y-114966073D01*
X341287188Y-114936376D01*
X341123216Y-114868456D01*
X340975646Y-114769853D01*
X340850147Y-114644354D01*
X340751544Y-114496784D01*
X340683624Y-114332812D01*
X340649000Y-114158741D01*
X340649000Y-113981259D01*
X340683624Y-113807188D01*
X340751544Y-113643216D01*
X340850147Y-113495646D01*
X340975646Y-113370147D01*
X341123216Y-113271544D01*
X341287188Y-113203624D01*
X341436488Y-113173927D01*
X341461258Y-113169000D01*
X341638742Y-113169000D01*
X341663512Y-113173927D01*
G37*
G36*
X318803512Y-113173927D02*
G01*
X318952812Y-113203624D01*
X319116784Y-113271544D01*
X319264354Y-113370147D01*
X319389853Y-113495646D01*
X319488456Y-113643216D01*
X319556376Y-113807188D01*
X319591000Y-113981259D01*
X319591000Y-114158741D01*
X319556376Y-114332812D01*
X319488456Y-114496784D01*
X319389853Y-114644354D01*
X319264354Y-114769853D01*
X319116784Y-114868456D01*
X318952812Y-114936376D01*
X318803512Y-114966073D01*
X318778742Y-114971000D01*
X318601258Y-114971000D01*
X318576488Y-114966073D01*
X318427188Y-114936376D01*
X318263216Y-114868456D01*
X318115646Y-114769853D01*
X317990147Y-114644354D01*
X317891544Y-114496784D01*
X317823624Y-114332812D01*
X317789000Y-114158741D01*
X317789000Y-113981259D01*
X317823624Y-113807188D01*
X317891544Y-113643216D01*
X317990147Y-113495646D01*
X318115646Y-113370147D01*
X318263216Y-113271544D01*
X318427188Y-113203624D01*
X318576488Y-113173927D01*
X318601258Y-113169000D01*
X318778742Y-113169000D01*
X318803512Y-113173927D01*
G37*
G36*
X339123512Y-113173927D02*
G01*
X339272812Y-113203624D01*
X339436784Y-113271544D01*
X339584354Y-113370147D01*
X339709853Y-113495646D01*
X339808456Y-113643216D01*
X339876376Y-113807188D01*
X339911000Y-113981259D01*
X339911000Y-114158741D01*
X339876376Y-114332812D01*
X339808456Y-114496784D01*
X339709853Y-114644354D01*
X339584354Y-114769853D01*
X339436784Y-114868456D01*
X339272812Y-114936376D01*
X339123512Y-114966073D01*
X339098742Y-114971000D01*
X338921258Y-114971000D01*
X338896488Y-114966073D01*
X338747188Y-114936376D01*
X338583216Y-114868456D01*
X338435646Y-114769853D01*
X338310147Y-114644354D01*
X338211544Y-114496784D01*
X338143624Y-114332812D01*
X338109000Y-114158741D01*
X338109000Y-113981259D01*
X338143624Y-113807188D01*
X338211544Y-113643216D01*
X338310147Y-113495646D01*
X338435646Y-113370147D01*
X338583216Y-113271544D01*
X338747188Y-113203624D01*
X338896488Y-113173927D01*
X338921258Y-113169000D01*
X339098742Y-113169000D01*
X339123512Y-113173927D01*
G37*
G36*
X336583512Y-113173927D02*
G01*
X336732812Y-113203624D01*
X336896784Y-113271544D01*
X337044354Y-113370147D01*
X337169853Y-113495646D01*
X337268456Y-113643216D01*
X337336376Y-113807188D01*
X337371000Y-113981259D01*
X337371000Y-114158741D01*
X337336376Y-114332812D01*
X337268456Y-114496784D01*
X337169853Y-114644354D01*
X337044354Y-114769853D01*
X336896784Y-114868456D01*
X336732812Y-114936376D01*
X336583512Y-114966073D01*
X336558742Y-114971000D01*
X336381258Y-114971000D01*
X336356488Y-114966073D01*
X336207188Y-114936376D01*
X336043216Y-114868456D01*
X335895646Y-114769853D01*
X335770147Y-114644354D01*
X335671544Y-114496784D01*
X335603624Y-114332812D01*
X335569000Y-114158741D01*
X335569000Y-113981259D01*
X335603624Y-113807188D01*
X335671544Y-113643216D01*
X335770147Y-113495646D01*
X335895646Y-113370147D01*
X336043216Y-113271544D01*
X336207188Y-113203624D01*
X336356488Y-113173927D01*
X336381258Y-113169000D01*
X336558742Y-113169000D01*
X336583512Y-113173927D01*
G37*
G36*
X321343512Y-113173927D02*
G01*
X321492812Y-113203624D01*
X321656784Y-113271544D01*
X321804354Y-113370147D01*
X321929853Y-113495646D01*
X322028456Y-113643216D01*
X322096376Y-113807188D01*
X322131000Y-113981259D01*
X322131000Y-114158741D01*
X322096376Y-114332812D01*
X322028456Y-114496784D01*
X321929853Y-114644354D01*
X321804354Y-114769853D01*
X321656784Y-114868456D01*
X321492812Y-114936376D01*
X321343512Y-114966073D01*
X321318742Y-114971000D01*
X321141258Y-114971000D01*
X321116488Y-114966073D01*
X320967188Y-114936376D01*
X320803216Y-114868456D01*
X320655646Y-114769853D01*
X320530147Y-114644354D01*
X320431544Y-114496784D01*
X320363624Y-114332812D01*
X320329000Y-114158741D01*
X320329000Y-113981259D01*
X320363624Y-113807188D01*
X320431544Y-113643216D01*
X320530147Y-113495646D01*
X320655646Y-113370147D01*
X320803216Y-113271544D01*
X320967188Y-113203624D01*
X321116488Y-113173927D01*
X321141258Y-113169000D01*
X321318742Y-113169000D01*
X321343512Y-113173927D01*
G37*
G36*
X334043512Y-113173927D02*
G01*
X334192812Y-113203624D01*
X334356784Y-113271544D01*
X334504354Y-113370147D01*
X334629853Y-113495646D01*
X334728456Y-113643216D01*
X334796376Y-113807188D01*
X334831000Y-113981259D01*
X334831000Y-114158741D01*
X334796376Y-114332812D01*
X334728456Y-114496784D01*
X334629853Y-114644354D01*
X334504354Y-114769853D01*
X334356784Y-114868456D01*
X334192812Y-114936376D01*
X334043512Y-114966073D01*
X334018742Y-114971000D01*
X333841258Y-114971000D01*
X333816488Y-114966073D01*
X333667188Y-114936376D01*
X333503216Y-114868456D01*
X333355646Y-114769853D01*
X333230147Y-114644354D01*
X333131544Y-114496784D01*
X333063624Y-114332812D01*
X333029000Y-114158741D01*
X333029000Y-113981259D01*
X333063624Y-113807188D01*
X333131544Y-113643216D01*
X333230147Y-113495646D01*
X333355646Y-113370147D01*
X333503216Y-113271544D01*
X333667188Y-113203624D01*
X333816488Y-113173927D01*
X333841258Y-113169000D01*
X334018742Y-113169000D01*
X334043512Y-113173927D01*
G37*
G36*
X331503512Y-113173927D02*
G01*
X331652812Y-113203624D01*
X331816784Y-113271544D01*
X331964354Y-113370147D01*
X332089853Y-113495646D01*
X332188456Y-113643216D01*
X332256376Y-113807188D01*
X332291000Y-113981259D01*
X332291000Y-114158741D01*
X332256376Y-114332812D01*
X332188456Y-114496784D01*
X332089853Y-114644354D01*
X331964354Y-114769853D01*
X331816784Y-114868456D01*
X331652812Y-114936376D01*
X331503512Y-114966073D01*
X331478742Y-114971000D01*
X331301258Y-114971000D01*
X331276488Y-114966073D01*
X331127188Y-114936376D01*
X330963216Y-114868456D01*
X330815646Y-114769853D01*
X330690147Y-114644354D01*
X330591544Y-114496784D01*
X330523624Y-114332812D01*
X330489000Y-114158741D01*
X330489000Y-113981259D01*
X330523624Y-113807188D01*
X330591544Y-113643216D01*
X330690147Y-113495646D01*
X330815646Y-113370147D01*
X330963216Y-113271544D01*
X331127188Y-113203624D01*
X331276488Y-113173927D01*
X331301258Y-113169000D01*
X331478742Y-113169000D01*
X331503512Y-113173927D01*
G37*
G36*
X328963512Y-113173927D02*
G01*
X329112812Y-113203624D01*
X329276784Y-113271544D01*
X329424354Y-113370147D01*
X329549853Y-113495646D01*
X329648456Y-113643216D01*
X329716376Y-113807188D01*
X329751000Y-113981259D01*
X329751000Y-114158741D01*
X329716376Y-114332812D01*
X329648456Y-114496784D01*
X329549853Y-114644354D01*
X329424354Y-114769853D01*
X329276784Y-114868456D01*
X329112812Y-114936376D01*
X328963512Y-114966073D01*
X328938742Y-114971000D01*
X328761258Y-114971000D01*
X328736488Y-114966073D01*
X328587188Y-114936376D01*
X328423216Y-114868456D01*
X328275646Y-114769853D01*
X328150147Y-114644354D01*
X328051544Y-114496784D01*
X327983624Y-114332812D01*
X327949000Y-114158741D01*
X327949000Y-113981259D01*
X327983624Y-113807188D01*
X328051544Y-113643216D01*
X328150147Y-113495646D01*
X328275646Y-113370147D01*
X328423216Y-113271544D01*
X328587188Y-113203624D01*
X328736488Y-113173927D01*
X328761258Y-113169000D01*
X328938742Y-113169000D01*
X328963512Y-113173927D01*
G37*
G36*
X326423512Y-113173927D02*
G01*
X326572812Y-113203624D01*
X326736784Y-113271544D01*
X326884354Y-113370147D01*
X327009853Y-113495646D01*
X327108456Y-113643216D01*
X327176376Y-113807188D01*
X327211000Y-113981259D01*
X327211000Y-114158741D01*
X327176376Y-114332812D01*
X327108456Y-114496784D01*
X327009853Y-114644354D01*
X326884354Y-114769853D01*
X326736784Y-114868456D01*
X326572812Y-114936376D01*
X326423512Y-114966073D01*
X326398742Y-114971000D01*
X326221258Y-114971000D01*
X326196488Y-114966073D01*
X326047188Y-114936376D01*
X325883216Y-114868456D01*
X325735646Y-114769853D01*
X325610147Y-114644354D01*
X325511544Y-114496784D01*
X325443624Y-114332812D01*
X325409000Y-114158741D01*
X325409000Y-113981259D01*
X325443624Y-113807188D01*
X325511544Y-113643216D01*
X325610147Y-113495646D01*
X325735646Y-113370147D01*
X325883216Y-113271544D01*
X326047188Y-113203624D01*
X326196488Y-113173927D01*
X326221258Y-113169000D01*
X326398742Y-113169000D01*
X326423512Y-113173927D01*
G37*
G36*
X361983512Y-113173927D02*
G01*
X362132812Y-113203624D01*
X362296784Y-113271544D01*
X362444354Y-113370147D01*
X362569853Y-113495646D01*
X362668456Y-113643216D01*
X362736376Y-113807188D01*
X362771000Y-113981259D01*
X362771000Y-114158741D01*
X362736376Y-114332812D01*
X362668456Y-114496784D01*
X362569853Y-114644354D01*
X362444354Y-114769853D01*
X362296784Y-114868456D01*
X362132812Y-114936376D01*
X361983512Y-114966073D01*
X361958742Y-114971000D01*
X361781258Y-114971000D01*
X361756488Y-114966073D01*
X361607188Y-114936376D01*
X361443216Y-114868456D01*
X361295646Y-114769853D01*
X361170147Y-114644354D01*
X361071544Y-114496784D01*
X361003624Y-114332812D01*
X360969000Y-114158741D01*
X360969000Y-113981259D01*
X361003624Y-113807188D01*
X361071544Y-113643216D01*
X361170147Y-113495646D01*
X361295646Y-113370147D01*
X361443216Y-113271544D01*
X361607188Y-113203624D01*
X361756488Y-113173927D01*
X361781258Y-113169000D01*
X361958742Y-113169000D01*
X361983512Y-113173927D01*
G37*
G36*
X359443512Y-113173927D02*
G01*
X359592812Y-113203624D01*
X359756784Y-113271544D01*
X359904354Y-113370147D01*
X360029853Y-113495646D01*
X360128456Y-113643216D01*
X360196376Y-113807188D01*
X360231000Y-113981259D01*
X360231000Y-114158741D01*
X360196376Y-114332812D01*
X360128456Y-114496784D01*
X360029853Y-114644354D01*
X359904354Y-114769853D01*
X359756784Y-114868456D01*
X359592812Y-114936376D01*
X359443512Y-114966073D01*
X359418742Y-114971000D01*
X359241258Y-114971000D01*
X359216488Y-114966073D01*
X359067188Y-114936376D01*
X358903216Y-114868456D01*
X358755646Y-114769853D01*
X358630147Y-114644354D01*
X358531544Y-114496784D01*
X358463624Y-114332812D01*
X358429000Y-114158741D01*
X358429000Y-113981259D01*
X358463624Y-113807188D01*
X358531544Y-113643216D01*
X358630147Y-113495646D01*
X358755646Y-113370147D01*
X358903216Y-113271544D01*
X359067188Y-113203624D01*
X359216488Y-113173927D01*
X359241258Y-113169000D01*
X359418742Y-113169000D01*
X359443512Y-113173927D01*
G37*
G36*
X356903512Y-113173927D02*
G01*
X357052812Y-113203624D01*
X357216784Y-113271544D01*
X357364354Y-113370147D01*
X357489853Y-113495646D01*
X357588456Y-113643216D01*
X357656376Y-113807188D01*
X357691000Y-113981259D01*
X357691000Y-114158741D01*
X357656376Y-114332812D01*
X357588456Y-114496784D01*
X357489853Y-114644354D01*
X357364354Y-114769853D01*
X357216784Y-114868456D01*
X357052812Y-114936376D01*
X356903512Y-114966073D01*
X356878742Y-114971000D01*
X356701258Y-114971000D01*
X356676488Y-114966073D01*
X356527188Y-114936376D01*
X356363216Y-114868456D01*
X356215646Y-114769853D01*
X356090147Y-114644354D01*
X355991544Y-114496784D01*
X355923624Y-114332812D01*
X355889000Y-114158741D01*
X355889000Y-113981259D01*
X355923624Y-113807188D01*
X355991544Y-113643216D01*
X356090147Y-113495646D01*
X356215646Y-113370147D01*
X356363216Y-113271544D01*
X356527188Y-113203624D01*
X356676488Y-113173927D01*
X356701258Y-113169000D01*
X356878742Y-113169000D01*
X356903512Y-113173927D01*
G37*
G36*
X323883512Y-113173927D02*
G01*
X324032812Y-113203624D01*
X324196784Y-113271544D01*
X324344354Y-113370147D01*
X324469853Y-113495646D01*
X324568456Y-113643216D01*
X324636376Y-113807188D01*
X324671000Y-113981259D01*
X324671000Y-114158741D01*
X324636376Y-114332812D01*
X324568456Y-114496784D01*
X324469853Y-114644354D01*
X324344354Y-114769853D01*
X324196784Y-114868456D01*
X324032812Y-114936376D01*
X323883512Y-114966073D01*
X323858742Y-114971000D01*
X323681258Y-114971000D01*
X323656488Y-114966073D01*
X323507188Y-114936376D01*
X323343216Y-114868456D01*
X323195646Y-114769853D01*
X323070147Y-114644354D01*
X322971544Y-114496784D01*
X322903624Y-114332812D01*
X322869000Y-114158741D01*
X322869000Y-113981259D01*
X322903624Y-113807188D01*
X322971544Y-113643216D01*
X323070147Y-113495646D01*
X323195646Y-113370147D01*
X323343216Y-113271544D01*
X323507188Y-113203624D01*
X323656488Y-113173927D01*
X323681258Y-113169000D01*
X323858742Y-113169000D01*
X323883512Y-113173927D01*
G37*
G36*
X344203512Y-113173927D02*
G01*
X344352812Y-113203624D01*
X344516784Y-113271544D01*
X344664354Y-113370147D01*
X344789853Y-113495646D01*
X344888456Y-113643216D01*
X344956376Y-113807188D01*
X344991000Y-113981259D01*
X344991000Y-114158741D01*
X344956376Y-114332812D01*
X344888456Y-114496784D01*
X344789853Y-114644354D01*
X344664354Y-114769853D01*
X344516784Y-114868456D01*
X344352812Y-114936376D01*
X344203512Y-114966073D01*
X344178742Y-114971000D01*
X344001258Y-114971000D01*
X343976488Y-114966073D01*
X343827188Y-114936376D01*
X343663216Y-114868456D01*
X343515646Y-114769853D01*
X343390147Y-114644354D01*
X343291544Y-114496784D01*
X343223624Y-114332812D01*
X343189000Y-114158741D01*
X343189000Y-113981259D01*
X343223624Y-113807188D01*
X343291544Y-113643216D01*
X343390147Y-113495646D01*
X343515646Y-113370147D01*
X343663216Y-113271544D01*
X343827188Y-113203624D01*
X343976488Y-113173927D01*
X344001258Y-113169000D01*
X344178742Y-113169000D01*
X344203512Y-113173927D01*
G37*
G36*
X354363512Y-113173927D02*
G01*
X354512812Y-113203624D01*
X354676784Y-113271544D01*
X354824354Y-113370147D01*
X354949853Y-113495646D01*
X355048456Y-113643216D01*
X355116376Y-113807188D01*
X355151000Y-113981259D01*
X355151000Y-114158741D01*
X355116376Y-114332812D01*
X355048456Y-114496784D01*
X354949853Y-114644354D01*
X354824354Y-114769853D01*
X354676784Y-114868456D01*
X354512812Y-114936376D01*
X354363512Y-114966073D01*
X354338742Y-114971000D01*
X354161258Y-114971000D01*
X354136488Y-114966073D01*
X353987188Y-114936376D01*
X353823216Y-114868456D01*
X353675646Y-114769853D01*
X353550147Y-114644354D01*
X353451544Y-114496784D01*
X353383624Y-114332812D01*
X353349000Y-114158741D01*
X353349000Y-113981259D01*
X353383624Y-113807188D01*
X353451544Y-113643216D01*
X353550147Y-113495646D01*
X353675646Y-113370147D01*
X353823216Y-113271544D01*
X353987188Y-113203624D01*
X354136488Y-113173927D01*
X354161258Y-113169000D01*
X354338742Y-113169000D01*
X354363512Y-113173927D01*
G37*
G36*
X349283512Y-113173927D02*
G01*
X349432812Y-113203624D01*
X349596784Y-113271544D01*
X349744354Y-113370147D01*
X349869853Y-113495646D01*
X349968456Y-113643216D01*
X350036376Y-113807188D01*
X350071000Y-113981259D01*
X350071000Y-114158741D01*
X350036376Y-114332812D01*
X349968456Y-114496784D01*
X349869853Y-114644354D01*
X349744354Y-114769853D01*
X349596784Y-114868456D01*
X349432812Y-114936376D01*
X349283512Y-114966073D01*
X349258742Y-114971000D01*
X349081258Y-114971000D01*
X349056488Y-114966073D01*
X348907188Y-114936376D01*
X348743216Y-114868456D01*
X348595646Y-114769853D01*
X348470147Y-114644354D01*
X348371544Y-114496784D01*
X348303624Y-114332812D01*
X348269000Y-114158741D01*
X348269000Y-113981259D01*
X348303624Y-113807188D01*
X348371544Y-113643216D01*
X348470147Y-113495646D01*
X348595646Y-113370147D01*
X348743216Y-113271544D01*
X348907188Y-113203624D01*
X349056488Y-113173927D01*
X349081258Y-113169000D01*
X349258742Y-113169000D01*
X349283512Y-113173927D01*
G37*
G36*
X351823512Y-113173927D02*
G01*
X351972812Y-113203624D01*
X352136784Y-113271544D01*
X352284354Y-113370147D01*
X352409853Y-113495646D01*
X352508456Y-113643216D01*
X352576376Y-113807188D01*
X352611000Y-113981259D01*
X352611000Y-114158741D01*
X352576376Y-114332812D01*
X352508456Y-114496784D01*
X352409853Y-114644354D01*
X352284354Y-114769853D01*
X352136784Y-114868456D01*
X351972812Y-114936376D01*
X351823512Y-114966073D01*
X351798742Y-114971000D01*
X351621258Y-114971000D01*
X351596488Y-114966073D01*
X351447188Y-114936376D01*
X351283216Y-114868456D01*
X351135646Y-114769853D01*
X351010147Y-114644354D01*
X350911544Y-114496784D01*
X350843624Y-114332812D01*
X350809000Y-114158741D01*
X350809000Y-113981259D01*
X350843624Y-113807188D01*
X350911544Y-113643216D01*
X351010147Y-113495646D01*
X351135646Y-113370147D01*
X351283216Y-113271544D01*
X351447188Y-113203624D01*
X351596488Y-113173927D01*
X351621258Y-113169000D01*
X351798742Y-113169000D01*
X351823512Y-113173927D01*
G37*
G36*
X346743512Y-113173927D02*
G01*
X346892812Y-113203624D01*
X347056784Y-113271544D01*
X347204354Y-113370147D01*
X347329853Y-113495646D01*
X347428456Y-113643216D01*
X347496376Y-113807188D01*
X347531000Y-113981259D01*
X347531000Y-114158741D01*
X347496376Y-114332812D01*
X347428456Y-114496784D01*
X347329853Y-114644354D01*
X347204354Y-114769853D01*
X347056784Y-114868456D01*
X346892812Y-114936376D01*
X346743512Y-114966073D01*
X346718742Y-114971000D01*
X346541258Y-114971000D01*
X346516488Y-114966073D01*
X346367188Y-114936376D01*
X346203216Y-114868456D01*
X346055646Y-114769853D01*
X345930147Y-114644354D01*
X345831544Y-114496784D01*
X345763624Y-114332812D01*
X345729000Y-114158741D01*
X345729000Y-113981259D01*
X345763624Y-113807188D01*
X345831544Y-113643216D01*
X345930147Y-113495646D01*
X346055646Y-113370147D01*
X346203216Y-113271544D01*
X346367188Y-113203624D01*
X346516488Y-113173927D01*
X346541258Y-113169000D01*
X346718742Y-113169000D01*
X346743512Y-113173927D01*
G37*
G36*
X364523512Y-113173927D02*
G01*
X364672812Y-113203624D01*
X364836784Y-113271544D01*
X364984354Y-113370147D01*
X365109853Y-113495646D01*
X365208456Y-113643216D01*
X365276376Y-113807188D01*
X365311000Y-113981259D01*
X365311000Y-114158741D01*
X365276376Y-114332812D01*
X365208456Y-114496784D01*
X365109853Y-114644354D01*
X364984354Y-114769853D01*
X364836784Y-114868456D01*
X364672812Y-114936376D01*
X364523512Y-114966073D01*
X364498742Y-114971000D01*
X364321258Y-114971000D01*
X364296488Y-114966073D01*
X364147188Y-114936376D01*
X363983216Y-114868456D01*
X363835646Y-114769853D01*
X363710147Y-114644354D01*
X363611544Y-114496784D01*
X363543624Y-114332812D01*
X363509000Y-114158741D01*
X363509000Y-113981259D01*
X363543624Y-113807188D01*
X363611544Y-113643216D01*
X363710147Y-113495646D01*
X363835646Y-113370147D01*
X363983216Y-113271544D01*
X364147188Y-113203624D01*
X364296488Y-113173927D01*
X364321258Y-113169000D01*
X364498742Y-113169000D01*
X364523512Y-113173927D01*
G37*
G36*
X414551000Y-106631000D02*
G01*
X412849000Y-106631000D01*
X412849000Y-104929000D01*
X414551000Y-104929000D01*
X414551000Y-106631000D01*
G37*
G36*
X433581000Y-106631000D02*
G01*
X431879000Y-106631000D01*
X431879000Y-104929000D01*
X433581000Y-104929000D01*
X433581000Y-106631000D01*
G37*
G36*
X232710088Y-106631000D02*
G01*
X231008088Y-106631000D01*
X231008088Y-104929000D01*
X232710088Y-104929000D01*
X232710088Y-106631000D01*
G37*
G36*
X452601000Y-106631000D02*
G01*
X450899000Y-106631000D01*
X450899000Y-104929000D01*
X452601000Y-104929000D01*
X452601000Y-106631000D01*
G37*
G36*
X80521000Y-106631000D02*
G01*
X78819000Y-106631000D01*
X78819000Y-104929000D01*
X80521000Y-104929000D01*
X80521000Y-106631000D01*
G37*
G36*
X99544636Y-106631000D02*
G01*
X97842636Y-106631000D01*
X97842636Y-104929000D01*
X99544636Y-104929000D01*
X99544636Y-106631000D01*
G37*
G36*
X156615544Y-106631000D02*
G01*
X154913544Y-106631000D01*
X154913544Y-104929000D01*
X156615544Y-104929000D01*
X156615544Y-106631000D01*
G37*
G36*
X137591908Y-106631000D02*
G01*
X135889908Y-106631000D01*
X135889908Y-104929000D01*
X137591908Y-104929000D01*
X137591908Y-106631000D01*
G37*
G36*
X118568272Y-106631000D02*
G01*
X116866272Y-106631000D01*
X116866272Y-104929000D01*
X118568272Y-104929000D01*
X118568272Y-106631000D01*
G37*
G36*
X194662816Y-106631000D02*
G01*
X192960816Y-106631000D01*
X192960816Y-104929000D01*
X194662816Y-104929000D01*
X194662816Y-106631000D01*
G37*
G36*
X347571000Y-106631000D02*
G01*
X345869000Y-106631000D01*
X345869000Y-104929000D01*
X347571000Y-104929000D01*
X347571000Y-106631000D01*
G37*
G36*
X289781000Y-106631000D02*
G01*
X288079000Y-106631000D01*
X288079000Y-104929000D01*
X289781000Y-104929000D01*
X289781000Y-106631000D01*
G37*
G36*
X56821000Y-106631000D02*
G01*
X55119000Y-106631000D01*
X55119000Y-104929000D01*
X56821000Y-104929000D01*
X56821000Y-106631000D01*
G37*
G36*
X270757360Y-106631000D02*
G01*
X269055360Y-106631000D01*
X269055360Y-104929000D01*
X270757360Y-104929000D01*
X270757360Y-106631000D01*
G37*
G36*
X385681000Y-106631000D02*
G01*
X383979000Y-106631000D01*
X383979000Y-104929000D01*
X385681000Y-104929000D01*
X385681000Y-106631000D01*
G37*
G36*
X366621000Y-106631000D02*
G01*
X364919000Y-106631000D01*
X364919000Y-104929000D01*
X366621000Y-104929000D01*
X366621000Y-106631000D01*
G37*
G36*
X175639180Y-106631000D02*
G01*
X173937180Y-106631000D01*
X173937180Y-104929000D01*
X175639180Y-104929000D01*
X175639180Y-106631000D01*
G37*
G36*
X251733724Y-106631000D02*
G01*
X250031724Y-106631000D01*
X250031724Y-104929000D01*
X251733724Y-104929000D01*
X251733724Y-106631000D01*
G37*
G36*
X213686452Y-106631000D02*
G01*
X211984452Y-106631000D01*
X211984452Y-104929000D01*
X213686452Y-104929000D01*
X213686452Y-106631000D01*
G37*
G36*
X465241000Y-103691000D02*
G01*
X463539000Y-103691000D01*
X463539000Y-101989000D01*
X465241000Y-101989000D01*
X465241000Y-103691000D01*
G37*
G36*
X457018228Y-102021703D02*
G01*
X457173100Y-102085853D01*
X457312481Y-102178985D01*
X457431015Y-102297519D01*
X457524147Y-102436900D01*
X457588297Y-102591772D01*
X457621000Y-102756184D01*
X457621000Y-102923816D01*
X457588297Y-103088228D01*
X457524147Y-103243100D01*
X457431015Y-103382481D01*
X457312481Y-103501015D01*
X457173100Y-103594147D01*
X457018228Y-103658297D01*
X456853816Y-103691000D01*
X456686184Y-103691000D01*
X456521772Y-103658297D01*
X456366900Y-103594147D01*
X456227519Y-103501015D01*
X456108985Y-103382481D01*
X456015853Y-103243100D01*
X455951703Y-103088228D01*
X455919000Y-102923816D01*
X455919000Y-102756184D01*
X455951703Y-102591772D01*
X456015853Y-102436900D01*
X456108985Y-102297519D01*
X456227519Y-102178985D01*
X456366900Y-102085853D01*
X456521772Y-102021703D01*
X456686184Y-101989000D01*
X456853816Y-101989000D01*
X457018228Y-102021703D01*
G37*
G36*
X79918228Y-97341703D02*
G01*
X80073100Y-97405853D01*
X80212481Y-97498985D01*
X80331015Y-97617519D01*
X80424147Y-97756900D01*
X80488297Y-97911772D01*
X80521000Y-98076184D01*
X80521000Y-98243816D01*
X80488297Y-98408228D01*
X80424147Y-98563100D01*
X80331015Y-98702481D01*
X80212481Y-98821015D01*
X80073100Y-98914147D01*
X79918228Y-98978297D01*
X79753816Y-99011000D01*
X79586184Y-99011000D01*
X79421772Y-98978297D01*
X79266900Y-98914147D01*
X79127519Y-98821015D01*
X79008985Y-98702481D01*
X78915853Y-98563100D01*
X78851703Y-98408228D01*
X78819000Y-98243816D01*
X78819000Y-98076184D01*
X78851703Y-97911772D01*
X78915853Y-97756900D01*
X79008985Y-97617519D01*
X79127519Y-97498985D01*
X79266900Y-97405853D01*
X79421772Y-97341703D01*
X79586184Y-97309000D01*
X79753816Y-97309000D01*
X79918228Y-97341703D01*
G37*
G36*
X366018228Y-97341703D02*
G01*
X366173100Y-97405853D01*
X366312481Y-97498985D01*
X366431015Y-97617519D01*
X366524147Y-97756900D01*
X366588297Y-97911772D01*
X366621000Y-98076184D01*
X366621000Y-98243816D01*
X366588297Y-98408228D01*
X366524147Y-98563100D01*
X366431015Y-98702481D01*
X366312481Y-98821015D01*
X366173100Y-98914147D01*
X366018228Y-98978297D01*
X365853816Y-99011000D01*
X365686184Y-99011000D01*
X365521772Y-98978297D01*
X365366900Y-98914147D01*
X365227519Y-98821015D01*
X365108985Y-98702481D01*
X365015853Y-98563100D01*
X364951703Y-98408228D01*
X364919000Y-98243816D01*
X364919000Y-98076184D01*
X364951703Y-97911772D01*
X365015853Y-97756900D01*
X365108985Y-97617519D01*
X365227519Y-97498985D01*
X365366900Y-97405853D01*
X365521772Y-97341703D01*
X365686184Y-97309000D01*
X365853816Y-97309000D01*
X366018228Y-97341703D01*
G37*
G36*
X346968228Y-97341703D02*
G01*
X347123100Y-97405853D01*
X347262481Y-97498985D01*
X347381015Y-97617519D01*
X347474147Y-97756900D01*
X347538297Y-97911772D01*
X347571000Y-98076184D01*
X347571000Y-98243816D01*
X347538297Y-98408228D01*
X347474147Y-98563100D01*
X347381015Y-98702481D01*
X347262481Y-98821015D01*
X347123100Y-98914147D01*
X346968228Y-98978297D01*
X346803816Y-99011000D01*
X346636184Y-99011000D01*
X346471772Y-98978297D01*
X346316900Y-98914147D01*
X346177519Y-98821015D01*
X346058985Y-98702481D01*
X345965853Y-98563100D01*
X345901703Y-98408228D01*
X345869000Y-98243816D01*
X345869000Y-98076184D01*
X345901703Y-97911772D01*
X345965853Y-97756900D01*
X346058985Y-97617519D01*
X346177519Y-97498985D01*
X346316900Y-97405853D01*
X346471772Y-97341703D01*
X346636184Y-97309000D01*
X346803816Y-97309000D01*
X346968228Y-97341703D01*
G37*
G36*
X413948228Y-97341703D02*
G01*
X414103100Y-97405853D01*
X414242481Y-97498985D01*
X414361015Y-97617519D01*
X414454147Y-97756900D01*
X414518297Y-97911772D01*
X414551000Y-98076184D01*
X414551000Y-98243816D01*
X414518297Y-98408228D01*
X414454147Y-98563100D01*
X414361015Y-98702481D01*
X414242481Y-98821015D01*
X414103100Y-98914147D01*
X413948228Y-98978297D01*
X413783816Y-99011000D01*
X413616184Y-99011000D01*
X413451772Y-98978297D01*
X413296900Y-98914147D01*
X413157519Y-98821015D01*
X413038985Y-98702481D01*
X412945853Y-98563100D01*
X412881703Y-98408228D01*
X412849000Y-98243816D01*
X412849000Y-98076184D01*
X412881703Y-97911772D01*
X412945853Y-97756900D01*
X413038985Y-97617519D01*
X413157519Y-97498985D01*
X413296900Y-97405853D01*
X413451772Y-97341703D01*
X413616184Y-97309000D01*
X413783816Y-97309000D01*
X413948228Y-97341703D01*
G37*
G36*
X251130952Y-97341703D02*
G01*
X251285824Y-97405853D01*
X251425205Y-97498985D01*
X251543739Y-97617519D01*
X251636871Y-97756900D01*
X251701021Y-97911772D01*
X251733724Y-98076184D01*
X251733724Y-98243816D01*
X251701021Y-98408228D01*
X251636871Y-98563100D01*
X251543739Y-98702481D01*
X251425205Y-98821015D01*
X251285824Y-98914147D01*
X251130952Y-98978297D01*
X250966540Y-99011000D01*
X250798908Y-99011000D01*
X250634496Y-98978297D01*
X250479624Y-98914147D01*
X250340243Y-98821015D01*
X250221709Y-98702481D01*
X250128577Y-98563100D01*
X250064427Y-98408228D01*
X250031724Y-98243816D01*
X250031724Y-98076184D01*
X250064427Y-97911772D01*
X250128577Y-97756900D01*
X250221709Y-97617519D01*
X250340243Y-97498985D01*
X250479624Y-97405853D01*
X250634496Y-97341703D01*
X250798908Y-97309000D01*
X250966540Y-97309000D01*
X251130952Y-97341703D01*
G37*
G36*
X270154588Y-97341703D02*
G01*
X270309460Y-97405853D01*
X270448841Y-97498985D01*
X270567375Y-97617519D01*
X270660507Y-97756900D01*
X270724657Y-97911772D01*
X270757360Y-98076184D01*
X270757360Y-98243816D01*
X270724657Y-98408228D01*
X270660507Y-98563100D01*
X270567375Y-98702481D01*
X270448841Y-98821015D01*
X270309460Y-98914147D01*
X270154588Y-98978297D01*
X269990176Y-99011000D01*
X269822544Y-99011000D01*
X269658132Y-98978297D01*
X269503260Y-98914147D01*
X269363879Y-98821015D01*
X269245345Y-98702481D01*
X269152213Y-98563100D01*
X269088063Y-98408228D01*
X269055360Y-98243816D01*
X269055360Y-98076184D01*
X269088063Y-97911772D01*
X269152213Y-97756900D01*
X269245345Y-97617519D01*
X269363879Y-97498985D01*
X269503260Y-97405853D01*
X269658132Y-97341703D01*
X269822544Y-97309000D01*
X269990176Y-97309000D01*
X270154588Y-97341703D01*
G37*
G36*
X289178228Y-97341703D02*
G01*
X289333100Y-97405853D01*
X289472481Y-97498985D01*
X289591015Y-97617519D01*
X289684147Y-97756900D01*
X289748297Y-97911772D01*
X289781000Y-98076184D01*
X289781000Y-98243816D01*
X289748297Y-98408228D01*
X289684147Y-98563100D01*
X289591015Y-98702481D01*
X289472481Y-98821015D01*
X289333100Y-98914147D01*
X289178228Y-98978297D01*
X289013816Y-99011000D01*
X288846184Y-99011000D01*
X288681772Y-98978297D01*
X288526900Y-98914147D01*
X288387519Y-98821015D01*
X288268985Y-98702481D01*
X288175853Y-98563100D01*
X288111703Y-98408228D01*
X288079000Y-98243816D01*
X288079000Y-98076184D01*
X288111703Y-97911772D01*
X288175853Y-97756900D01*
X288268985Y-97617519D01*
X288387519Y-97498985D01*
X288526900Y-97405853D01*
X288681772Y-97341703D01*
X288846184Y-97309000D01*
X289013816Y-97309000D01*
X289178228Y-97341703D01*
G37*
G36*
X451998228Y-97341703D02*
G01*
X452153100Y-97405853D01*
X452292481Y-97498985D01*
X452411015Y-97617519D01*
X452504147Y-97756900D01*
X452568297Y-97911772D01*
X452601000Y-98076184D01*
X452601000Y-98243816D01*
X452568297Y-98408228D01*
X452504147Y-98563100D01*
X452411015Y-98702481D01*
X452292481Y-98821015D01*
X452153100Y-98914147D01*
X451998228Y-98978297D01*
X451833816Y-99011000D01*
X451666184Y-99011000D01*
X451501772Y-98978297D01*
X451346900Y-98914147D01*
X451207519Y-98821015D01*
X451088985Y-98702481D01*
X450995853Y-98563100D01*
X450931703Y-98408228D01*
X450899000Y-98243816D01*
X450899000Y-98076184D01*
X450931703Y-97911772D01*
X450995853Y-97756900D01*
X451088985Y-97617519D01*
X451207519Y-97498985D01*
X451346900Y-97405853D01*
X451501772Y-97341703D01*
X451666184Y-97309000D01*
X451833816Y-97309000D01*
X451998228Y-97341703D01*
G37*
G36*
X432978228Y-97341703D02*
G01*
X433133100Y-97405853D01*
X433272481Y-97498985D01*
X433391015Y-97617519D01*
X433484147Y-97756900D01*
X433548297Y-97911772D01*
X433581000Y-98076184D01*
X433581000Y-98243816D01*
X433548297Y-98408228D01*
X433484147Y-98563100D01*
X433391015Y-98702481D01*
X433272481Y-98821015D01*
X433133100Y-98914147D01*
X432978228Y-98978297D01*
X432813816Y-99011000D01*
X432646184Y-99011000D01*
X432481772Y-98978297D01*
X432326900Y-98914147D01*
X432187519Y-98821015D01*
X432068985Y-98702481D01*
X431975853Y-98563100D01*
X431911703Y-98408228D01*
X431879000Y-98243816D01*
X431879000Y-98076184D01*
X431911703Y-97911772D01*
X431975853Y-97756900D01*
X432068985Y-97617519D01*
X432187519Y-97498985D01*
X432326900Y-97405853D01*
X432481772Y-97341703D01*
X432646184Y-97309000D01*
X432813816Y-97309000D01*
X432978228Y-97341703D01*
G37*
G36*
X117965500Y-97341703D02*
G01*
X118120372Y-97405853D01*
X118259753Y-97498985D01*
X118378287Y-97617519D01*
X118471419Y-97756900D01*
X118535569Y-97911772D01*
X118568272Y-98076184D01*
X118568272Y-98243816D01*
X118535569Y-98408228D01*
X118471419Y-98563100D01*
X118378287Y-98702481D01*
X118259753Y-98821015D01*
X118120372Y-98914147D01*
X117965500Y-98978297D01*
X117801088Y-99011000D01*
X117633456Y-99011000D01*
X117469044Y-98978297D01*
X117314172Y-98914147D01*
X117174791Y-98821015D01*
X117056257Y-98702481D01*
X116963125Y-98563100D01*
X116898975Y-98408228D01*
X116866272Y-98243816D01*
X116866272Y-98076184D01*
X116898975Y-97911772D01*
X116963125Y-97756900D01*
X117056257Y-97617519D01*
X117174791Y-97498985D01*
X117314172Y-97405853D01*
X117469044Y-97341703D01*
X117633456Y-97309000D01*
X117801088Y-97309000D01*
X117965500Y-97341703D01*
G37*
G36*
X213083680Y-97341703D02*
G01*
X213238552Y-97405853D01*
X213377933Y-97498985D01*
X213496467Y-97617519D01*
X213589599Y-97756900D01*
X213653749Y-97911772D01*
X213686452Y-98076184D01*
X213686452Y-98243816D01*
X213653749Y-98408228D01*
X213589599Y-98563100D01*
X213496467Y-98702481D01*
X213377933Y-98821015D01*
X213238552Y-98914147D01*
X213083680Y-98978297D01*
X212919268Y-99011000D01*
X212751636Y-99011000D01*
X212587224Y-98978297D01*
X212432352Y-98914147D01*
X212292971Y-98821015D01*
X212174437Y-98702481D01*
X212081305Y-98563100D01*
X212017155Y-98408228D01*
X211984452Y-98243816D01*
X211984452Y-98076184D01*
X212017155Y-97911772D01*
X212081305Y-97756900D01*
X212174437Y-97617519D01*
X212292971Y-97498985D01*
X212432352Y-97405853D01*
X212587224Y-97341703D01*
X212751636Y-97309000D01*
X212919268Y-97309000D01*
X213083680Y-97341703D01*
G37*
G36*
X98941864Y-97341703D02*
G01*
X99096736Y-97405853D01*
X99236117Y-97498985D01*
X99354651Y-97617519D01*
X99447783Y-97756900D01*
X99511933Y-97911772D01*
X99544636Y-98076184D01*
X99544636Y-98243816D01*
X99511933Y-98408228D01*
X99447783Y-98563100D01*
X99354651Y-98702481D01*
X99236117Y-98821015D01*
X99096736Y-98914147D01*
X98941864Y-98978297D01*
X98777452Y-99011000D01*
X98609820Y-99011000D01*
X98445408Y-98978297D01*
X98290536Y-98914147D01*
X98151155Y-98821015D01*
X98032621Y-98702481D01*
X97939489Y-98563100D01*
X97875339Y-98408228D01*
X97842636Y-98243816D01*
X97842636Y-98076184D01*
X97875339Y-97911772D01*
X97939489Y-97756900D01*
X98032621Y-97617519D01*
X98151155Y-97498985D01*
X98290536Y-97405853D01*
X98445408Y-97341703D01*
X98609820Y-97309000D01*
X98777452Y-97309000D01*
X98941864Y-97341703D01*
G37*
G36*
X194060044Y-97341703D02*
G01*
X194214916Y-97405853D01*
X194354297Y-97498985D01*
X194472831Y-97617519D01*
X194565963Y-97756900D01*
X194630113Y-97911772D01*
X194662816Y-98076184D01*
X194662816Y-98243816D01*
X194630113Y-98408228D01*
X194565963Y-98563100D01*
X194472831Y-98702481D01*
X194354297Y-98821015D01*
X194214916Y-98914147D01*
X194060044Y-98978297D01*
X193895632Y-99011000D01*
X193728000Y-99011000D01*
X193563588Y-98978297D01*
X193408716Y-98914147D01*
X193269335Y-98821015D01*
X193150801Y-98702481D01*
X193057669Y-98563100D01*
X192993519Y-98408228D01*
X192960816Y-98243816D01*
X192960816Y-98076184D01*
X192993519Y-97911772D01*
X193057669Y-97756900D01*
X193150801Y-97617519D01*
X193269335Y-97498985D01*
X193408716Y-97405853D01*
X193563588Y-97341703D01*
X193728000Y-97309000D01*
X193895632Y-97309000D01*
X194060044Y-97341703D01*
G37*
G36*
X175036408Y-97341703D02*
G01*
X175191280Y-97405853D01*
X175330661Y-97498985D01*
X175449195Y-97617519D01*
X175542327Y-97756900D01*
X175606477Y-97911772D01*
X175639180Y-98076184D01*
X175639180Y-98243816D01*
X175606477Y-98408228D01*
X175542327Y-98563100D01*
X175449195Y-98702481D01*
X175330661Y-98821015D01*
X175191280Y-98914147D01*
X175036408Y-98978297D01*
X174871996Y-99011000D01*
X174704364Y-99011000D01*
X174539952Y-98978297D01*
X174385080Y-98914147D01*
X174245699Y-98821015D01*
X174127165Y-98702481D01*
X174034033Y-98563100D01*
X173969883Y-98408228D01*
X173937180Y-98243816D01*
X173937180Y-98076184D01*
X173969883Y-97911772D01*
X174034033Y-97756900D01*
X174127165Y-97617519D01*
X174245699Y-97498985D01*
X174385080Y-97405853D01*
X174539952Y-97341703D01*
X174704364Y-97309000D01*
X174871996Y-97309000D01*
X175036408Y-97341703D01*
G37*
G36*
X56218228Y-97341703D02*
G01*
X56373100Y-97405853D01*
X56512481Y-97498985D01*
X56631015Y-97617519D01*
X56724147Y-97756900D01*
X56788297Y-97911772D01*
X56821000Y-98076184D01*
X56821000Y-98243816D01*
X56788297Y-98408228D01*
X56724147Y-98563100D01*
X56631015Y-98702481D01*
X56512481Y-98821015D01*
X56373100Y-98914147D01*
X56218228Y-98978297D01*
X56053816Y-99011000D01*
X55886184Y-99011000D01*
X55721772Y-98978297D01*
X55566900Y-98914147D01*
X55427519Y-98821015D01*
X55308985Y-98702481D01*
X55215853Y-98563100D01*
X55151703Y-98408228D01*
X55119000Y-98243816D01*
X55119000Y-98076184D01*
X55151703Y-97911772D01*
X55215853Y-97756900D01*
X55308985Y-97617519D01*
X55427519Y-97498985D01*
X55566900Y-97405853D01*
X55721772Y-97341703D01*
X55886184Y-97309000D01*
X56053816Y-97309000D01*
X56218228Y-97341703D01*
G37*
G36*
X385078228Y-97341703D02*
G01*
X385233100Y-97405853D01*
X385372481Y-97498985D01*
X385491015Y-97617519D01*
X385584147Y-97756900D01*
X385648297Y-97911772D01*
X385681000Y-98076184D01*
X385681000Y-98243816D01*
X385648297Y-98408228D01*
X385584147Y-98563100D01*
X385491015Y-98702481D01*
X385372481Y-98821015D01*
X385233100Y-98914147D01*
X385078228Y-98978297D01*
X384913816Y-99011000D01*
X384746184Y-99011000D01*
X384581772Y-98978297D01*
X384426900Y-98914147D01*
X384287519Y-98821015D01*
X384168985Y-98702481D01*
X384075853Y-98563100D01*
X384011703Y-98408228D01*
X383979000Y-98243816D01*
X383979000Y-98076184D01*
X384011703Y-97911772D01*
X384075853Y-97756900D01*
X384168985Y-97617519D01*
X384287519Y-97498985D01*
X384426900Y-97405853D01*
X384581772Y-97341703D01*
X384746184Y-97309000D01*
X384913816Y-97309000D01*
X385078228Y-97341703D01*
G37*
G36*
X232107316Y-97341703D02*
G01*
X232262188Y-97405853D01*
X232401569Y-97498985D01*
X232520103Y-97617519D01*
X232613235Y-97756900D01*
X232677385Y-97911772D01*
X232710088Y-98076184D01*
X232710088Y-98243816D01*
X232677385Y-98408228D01*
X232613235Y-98563100D01*
X232520103Y-98702481D01*
X232401569Y-98821015D01*
X232262188Y-98914147D01*
X232107316Y-98978297D01*
X231942904Y-99011000D01*
X231775272Y-99011000D01*
X231610860Y-98978297D01*
X231455988Y-98914147D01*
X231316607Y-98821015D01*
X231198073Y-98702481D01*
X231104941Y-98563100D01*
X231040791Y-98408228D01*
X231008088Y-98243816D01*
X231008088Y-98076184D01*
X231040791Y-97911772D01*
X231104941Y-97756900D01*
X231198073Y-97617519D01*
X231316607Y-97498985D01*
X231455988Y-97405853D01*
X231610860Y-97341703D01*
X231775272Y-97309000D01*
X231942904Y-97309000D01*
X232107316Y-97341703D01*
G37*
G36*
X156012772Y-97341703D02*
G01*
X156167644Y-97405853D01*
X156307025Y-97498985D01*
X156425559Y-97617519D01*
X156518691Y-97756900D01*
X156582841Y-97911772D01*
X156615544Y-98076184D01*
X156615544Y-98243816D01*
X156582841Y-98408228D01*
X156518691Y-98563100D01*
X156425559Y-98702481D01*
X156307025Y-98821015D01*
X156167644Y-98914147D01*
X156012772Y-98978297D01*
X155848360Y-99011000D01*
X155680728Y-99011000D01*
X155516316Y-98978297D01*
X155361444Y-98914147D01*
X155222063Y-98821015D01*
X155103529Y-98702481D01*
X155010397Y-98563100D01*
X154946247Y-98408228D01*
X154913544Y-98243816D01*
X154913544Y-98076184D01*
X154946247Y-97911772D01*
X155010397Y-97756900D01*
X155103529Y-97617519D01*
X155222063Y-97498985D01*
X155361444Y-97405853D01*
X155516316Y-97341703D01*
X155680728Y-97309000D01*
X155848360Y-97309000D01*
X156012772Y-97341703D01*
G37*
G36*
X136989136Y-97341703D02*
G01*
X137144008Y-97405853D01*
X137283389Y-97498985D01*
X137401923Y-97617519D01*
X137495055Y-97756900D01*
X137559205Y-97911772D01*
X137591908Y-98076184D01*
X137591908Y-98243816D01*
X137559205Y-98408228D01*
X137495055Y-98563100D01*
X137401923Y-98702481D01*
X137283389Y-98821015D01*
X137144008Y-98914147D01*
X136989136Y-98978297D01*
X136824724Y-99011000D01*
X136657092Y-99011000D01*
X136492680Y-98978297D01*
X136337808Y-98914147D01*
X136198427Y-98821015D01*
X136079893Y-98702481D01*
X135986761Y-98563100D01*
X135922611Y-98408228D01*
X135889908Y-98243816D01*
X135889908Y-98076184D01*
X135922611Y-97911772D01*
X135986761Y-97756900D01*
X136079893Y-97617519D01*
X136198427Y-97498985D01*
X136337808Y-97405853D01*
X136492680Y-97341703D01*
X136657092Y-97309000D01*
X136824724Y-97309000D01*
X136989136Y-97341703D01*
G37*
G36*
X464018228Y-92341703D02*
G01*
X464173100Y-92405853D01*
X464312481Y-92498985D01*
X464431015Y-92617519D01*
X464524147Y-92756900D01*
X464588297Y-92911772D01*
X464621000Y-93076184D01*
X464621000Y-93243816D01*
X464588297Y-93408228D01*
X464524147Y-93563100D01*
X464431015Y-93702481D01*
X464312481Y-93821015D01*
X464173100Y-93914147D01*
X464018228Y-93978297D01*
X463853816Y-94011000D01*
X463686184Y-94011000D01*
X463521772Y-93978297D01*
X463366900Y-93914147D01*
X463227519Y-93821015D01*
X463108985Y-93702481D01*
X463015853Y-93563100D01*
X462951703Y-93408228D01*
X462919000Y-93243816D01*
X462919000Y-93076184D01*
X462951703Y-92911772D01*
X463015853Y-92756900D01*
X463108985Y-92617519D01*
X463227519Y-92498985D01*
X463366900Y-92405853D01*
X463521772Y-92341703D01*
X463686184Y-92309000D01*
X463853816Y-92309000D01*
X464018228Y-92341703D01*
G37*
G36*
X457001000Y-94011000D02*
G01*
X455299000Y-94011000D01*
X455299000Y-92309000D01*
X457001000Y-92309000D01*
X457001000Y-94011000D01*
G37*
G36*
X128272428Y-87601000D02*
G01*
X126570428Y-87601000D01*
X126570428Y-85899000D01*
X128272428Y-85899000D01*
X128272428Y-87601000D01*
G37*
G36*
X109254571Y-87601000D02*
G01*
X107552571Y-87601000D01*
X107552571Y-85899000D01*
X109254571Y-85899000D01*
X109254571Y-87601000D01*
G37*
G36*
X90236714Y-87601000D02*
G01*
X88534714Y-87601000D01*
X88534714Y-85899000D01*
X90236714Y-85899000D01*
X90236714Y-87601000D01*
G37*
G36*
X71218857Y-87601000D02*
G01*
X69516857Y-87601000D01*
X69516857Y-85899000D01*
X71218857Y-85899000D01*
X71218857Y-87601000D01*
G37*
G36*
X414551000Y-87601000D02*
G01*
X412849000Y-87601000D01*
X412849000Y-85899000D01*
X414551000Y-85899000D01*
X414551000Y-87601000D01*
G37*
G36*
X347581000Y-87601000D02*
G01*
X345879000Y-87601000D01*
X345879000Y-85899000D01*
X347581000Y-85899000D01*
X347581000Y-87601000D01*
G37*
G36*
X318451000Y-87601000D02*
G01*
X316749000Y-87601000D01*
X316749000Y-85899000D01*
X318451000Y-85899000D01*
X318451000Y-87601000D01*
G37*
G36*
X452601000Y-87601000D02*
G01*
X450899000Y-87601000D01*
X450899000Y-85899000D01*
X452601000Y-85899000D01*
X452601000Y-87601000D01*
G37*
G36*
X385671000Y-87601000D02*
G01*
X383969000Y-87601000D01*
X383969000Y-85899000D01*
X385671000Y-85899000D01*
X385671000Y-87601000D01*
G37*
G36*
X366621000Y-87601000D02*
G01*
X364919000Y-87601000D01*
X364919000Y-85899000D01*
X366621000Y-85899000D01*
X366621000Y-87601000D01*
G37*
G36*
X261397427Y-87601000D02*
G01*
X259695427Y-87601000D01*
X259695427Y-85899000D01*
X261397427Y-85899000D01*
X261397427Y-87601000D01*
G37*
G36*
X185325999Y-87601000D02*
G01*
X183623999Y-87601000D01*
X183623999Y-85899000D01*
X185325999Y-85899000D01*
X185325999Y-87601000D01*
G37*
G36*
X204343856Y-87601000D02*
G01*
X202641856Y-87601000D01*
X202641856Y-85899000D01*
X204343856Y-85899000D01*
X204343856Y-87601000D01*
G37*
G36*
X433581000Y-87601000D02*
G01*
X431879000Y-87601000D01*
X431879000Y-85899000D01*
X433581000Y-85899000D01*
X433581000Y-87601000D01*
G37*
G36*
X242379570Y-87601000D02*
G01*
X240677570Y-87601000D01*
X240677570Y-85899000D01*
X242379570Y-85899000D01*
X242379570Y-87601000D01*
G37*
G36*
X223361713Y-87601000D02*
G01*
X221659713Y-87601000D01*
X221659713Y-85899000D01*
X223361713Y-85899000D01*
X223361713Y-87601000D01*
G37*
G36*
X166308142Y-87601000D02*
G01*
X164606142Y-87601000D01*
X164606142Y-85899000D01*
X166308142Y-85899000D01*
X166308142Y-87601000D01*
G37*
G36*
X52201000Y-87601000D02*
G01*
X50499000Y-87601000D01*
X50499000Y-85899000D01*
X52201000Y-85899000D01*
X52201000Y-87601000D01*
G37*
G36*
X299433141Y-87601000D02*
G01*
X297731141Y-87601000D01*
X297731141Y-85899000D01*
X299433141Y-85899000D01*
X299433141Y-87601000D01*
G37*
G36*
X280415284Y-87601000D02*
G01*
X278713284Y-87601000D01*
X278713284Y-85899000D01*
X280415284Y-85899000D01*
X280415284Y-87601000D01*
G37*
G36*
X147290285Y-87601000D02*
G01*
X145588285Y-87601000D01*
X145588285Y-85899000D01*
X147290285Y-85899000D01*
X147290285Y-87601000D01*
G37*
G36*
X70616085Y-78311703D02*
G01*
X70770957Y-78375853D01*
X70910338Y-78468985D01*
X71028872Y-78587519D01*
X71122004Y-78726900D01*
X71186154Y-78881772D01*
X71218857Y-79046184D01*
X71218857Y-79213816D01*
X71186154Y-79378228D01*
X71122004Y-79533100D01*
X71028872Y-79672481D01*
X70910338Y-79791015D01*
X70770957Y-79884147D01*
X70616085Y-79948297D01*
X70451673Y-79981000D01*
X70284041Y-79981000D01*
X70119629Y-79948297D01*
X69964757Y-79884147D01*
X69825376Y-79791015D01*
X69706842Y-79672481D01*
X69613710Y-79533100D01*
X69549560Y-79378228D01*
X69516857Y-79213816D01*
X69516857Y-79046184D01*
X69549560Y-78881772D01*
X69613710Y-78726900D01*
X69706842Y-78587519D01*
X69825376Y-78468985D01*
X69964757Y-78375853D01*
X70119629Y-78311703D01*
X70284041Y-78279000D01*
X70451673Y-78279000D01*
X70616085Y-78311703D01*
G37*
G36*
X51598228Y-78311703D02*
G01*
X51753100Y-78375853D01*
X51892481Y-78468985D01*
X52011015Y-78587519D01*
X52104147Y-78726900D01*
X52168297Y-78881772D01*
X52201000Y-79046184D01*
X52201000Y-79213816D01*
X52168297Y-79378228D01*
X52104147Y-79533100D01*
X52011015Y-79672481D01*
X51892481Y-79791015D01*
X51753100Y-79884147D01*
X51598228Y-79948297D01*
X51433816Y-79981000D01*
X51266184Y-79981000D01*
X51101772Y-79948297D01*
X50946900Y-79884147D01*
X50807519Y-79791015D01*
X50688985Y-79672481D01*
X50595853Y-79533100D01*
X50531703Y-79378228D01*
X50499000Y-79213816D01*
X50499000Y-79046184D01*
X50531703Y-78881772D01*
X50595853Y-78726900D01*
X50688985Y-78587519D01*
X50807519Y-78468985D01*
X50946900Y-78375853D01*
X51101772Y-78311703D01*
X51266184Y-78279000D01*
X51433816Y-78279000D01*
X51598228Y-78311703D01*
G37*
G36*
X279812512Y-78311703D02*
G01*
X279967384Y-78375853D01*
X280106765Y-78468985D01*
X280225299Y-78587519D01*
X280318431Y-78726900D01*
X280382581Y-78881772D01*
X280415284Y-79046184D01*
X280415284Y-79213816D01*
X280382581Y-79378228D01*
X280318431Y-79533100D01*
X280225299Y-79672481D01*
X280106765Y-79791015D01*
X279967384Y-79884147D01*
X279812512Y-79948297D01*
X279648100Y-79981000D01*
X279480468Y-79981000D01*
X279316056Y-79948297D01*
X279161184Y-79884147D01*
X279021803Y-79791015D01*
X278903269Y-79672481D01*
X278810137Y-79533100D01*
X278745987Y-79378228D01*
X278713284Y-79213816D01*
X278713284Y-79046184D01*
X278745987Y-78881772D01*
X278810137Y-78726900D01*
X278903269Y-78587519D01*
X279021803Y-78468985D01*
X279161184Y-78375853D01*
X279316056Y-78311703D01*
X279480468Y-78279000D01*
X279648100Y-78279000D01*
X279812512Y-78311703D01*
G37*
G36*
X165705370Y-78311703D02*
G01*
X165860242Y-78375853D01*
X165999623Y-78468985D01*
X166118157Y-78587519D01*
X166211289Y-78726900D01*
X166275439Y-78881772D01*
X166308142Y-79046184D01*
X166308142Y-79213816D01*
X166275439Y-79378228D01*
X166211289Y-79533100D01*
X166118157Y-79672481D01*
X165999623Y-79791015D01*
X165860242Y-79884147D01*
X165705370Y-79948297D01*
X165540958Y-79981000D01*
X165373326Y-79981000D01*
X165208914Y-79948297D01*
X165054042Y-79884147D01*
X164914661Y-79791015D01*
X164796127Y-79672481D01*
X164702995Y-79533100D01*
X164638845Y-79378228D01*
X164606142Y-79213816D01*
X164606142Y-79046184D01*
X164638845Y-78881772D01*
X164702995Y-78726900D01*
X164796127Y-78587519D01*
X164914661Y-78468985D01*
X165054042Y-78375853D01*
X165208914Y-78311703D01*
X165373326Y-78279000D01*
X165540958Y-78279000D01*
X165705370Y-78311703D01*
G37*
G36*
X366018228Y-78311703D02*
G01*
X366173100Y-78375853D01*
X366312481Y-78468985D01*
X366431015Y-78587519D01*
X366524147Y-78726900D01*
X366588297Y-78881772D01*
X366621000Y-79046184D01*
X366621000Y-79213816D01*
X366588297Y-79378228D01*
X366524147Y-79533100D01*
X366431015Y-79672481D01*
X366312481Y-79791015D01*
X366173100Y-79884147D01*
X366018228Y-79948297D01*
X365853816Y-79981000D01*
X365686184Y-79981000D01*
X365521772Y-79948297D01*
X365366900Y-79884147D01*
X365227519Y-79791015D01*
X365108985Y-79672481D01*
X365015853Y-79533100D01*
X364951703Y-79378228D01*
X364919000Y-79213816D01*
X364919000Y-79046184D01*
X364951703Y-78881772D01*
X365015853Y-78726900D01*
X365108985Y-78587519D01*
X365227519Y-78468985D01*
X365366900Y-78375853D01*
X365521772Y-78311703D01*
X365686184Y-78279000D01*
X365853816Y-78279000D01*
X366018228Y-78311703D01*
G37*
G36*
X385068228Y-78311703D02*
G01*
X385223100Y-78375853D01*
X385362481Y-78468985D01*
X385481015Y-78587519D01*
X385574147Y-78726900D01*
X385638297Y-78881772D01*
X385671000Y-79046184D01*
X385671000Y-79213816D01*
X385638297Y-79378228D01*
X385574147Y-79533100D01*
X385481015Y-79672481D01*
X385362481Y-79791015D01*
X385223100Y-79884147D01*
X385068228Y-79948297D01*
X384903816Y-79981000D01*
X384736184Y-79981000D01*
X384571772Y-79948297D01*
X384416900Y-79884147D01*
X384277519Y-79791015D01*
X384158985Y-79672481D01*
X384065853Y-79533100D01*
X384001703Y-79378228D01*
X383969000Y-79213816D01*
X383969000Y-79046184D01*
X384001703Y-78881772D01*
X384065853Y-78726900D01*
X384158985Y-78587519D01*
X384277519Y-78468985D01*
X384416900Y-78375853D01*
X384571772Y-78311703D01*
X384736184Y-78279000D01*
X384903816Y-78279000D01*
X385068228Y-78311703D01*
G37*
G36*
X413948228Y-78311703D02*
G01*
X414103100Y-78375853D01*
X414242481Y-78468985D01*
X414361015Y-78587519D01*
X414454147Y-78726900D01*
X414518297Y-78881772D01*
X414551000Y-79046184D01*
X414551000Y-79213816D01*
X414518297Y-79378228D01*
X414454147Y-79533100D01*
X414361015Y-79672481D01*
X414242481Y-79791015D01*
X414103100Y-79884147D01*
X413948228Y-79948297D01*
X413783816Y-79981000D01*
X413616184Y-79981000D01*
X413451772Y-79948297D01*
X413296900Y-79884147D01*
X413157519Y-79791015D01*
X413038985Y-79672481D01*
X412945853Y-79533100D01*
X412881703Y-79378228D01*
X412849000Y-79213816D01*
X412849000Y-79046184D01*
X412881703Y-78881772D01*
X412945853Y-78726900D01*
X413038985Y-78587519D01*
X413157519Y-78468985D01*
X413296900Y-78375853D01*
X413451772Y-78311703D01*
X413616184Y-78279000D01*
X413783816Y-78279000D01*
X413948228Y-78311703D01*
G37*
G36*
X127669656Y-78311703D02*
G01*
X127824528Y-78375853D01*
X127963909Y-78468985D01*
X128082443Y-78587519D01*
X128175575Y-78726900D01*
X128239725Y-78881772D01*
X128272428Y-79046184D01*
X128272428Y-79213816D01*
X128239725Y-79378228D01*
X128175575Y-79533100D01*
X128082443Y-79672481D01*
X127963909Y-79791015D01*
X127824528Y-79884147D01*
X127669656Y-79948297D01*
X127505244Y-79981000D01*
X127337612Y-79981000D01*
X127173200Y-79948297D01*
X127018328Y-79884147D01*
X126878947Y-79791015D01*
X126760413Y-79672481D01*
X126667281Y-79533100D01*
X126603131Y-79378228D01*
X126570428Y-79213816D01*
X126570428Y-79046184D01*
X126603131Y-78881772D01*
X126667281Y-78726900D01*
X126760413Y-78587519D01*
X126878947Y-78468985D01*
X127018328Y-78375853D01*
X127173200Y-78311703D01*
X127337612Y-78279000D01*
X127505244Y-78279000D01*
X127669656Y-78311703D01*
G37*
G36*
X298830369Y-78311703D02*
G01*
X298985241Y-78375853D01*
X299124622Y-78468985D01*
X299243156Y-78587519D01*
X299336288Y-78726900D01*
X299400438Y-78881772D01*
X299433141Y-79046184D01*
X299433141Y-79213816D01*
X299400438Y-79378228D01*
X299336288Y-79533100D01*
X299243156Y-79672481D01*
X299124622Y-79791015D01*
X298985241Y-79884147D01*
X298830369Y-79948297D01*
X298665957Y-79981000D01*
X298498325Y-79981000D01*
X298333913Y-79948297D01*
X298179041Y-79884147D01*
X298039660Y-79791015D01*
X297921126Y-79672481D01*
X297827994Y-79533100D01*
X297763844Y-79378228D01*
X297731141Y-79213816D01*
X297731141Y-79046184D01*
X297763844Y-78881772D01*
X297827994Y-78726900D01*
X297921126Y-78587519D01*
X298039660Y-78468985D01*
X298179041Y-78375853D01*
X298333913Y-78311703D01*
X298498325Y-78279000D01*
X298665957Y-78279000D01*
X298830369Y-78311703D01*
G37*
G36*
X317848228Y-78311703D02*
G01*
X318003100Y-78375853D01*
X318142481Y-78468985D01*
X318261015Y-78587519D01*
X318354147Y-78726900D01*
X318418297Y-78881772D01*
X318451000Y-79046184D01*
X318451000Y-79213816D01*
X318418297Y-79378228D01*
X318354147Y-79533100D01*
X318261015Y-79672481D01*
X318142481Y-79791015D01*
X318003100Y-79884147D01*
X317848228Y-79948297D01*
X317683816Y-79981000D01*
X317516184Y-79981000D01*
X317351772Y-79948297D01*
X317196900Y-79884147D01*
X317057519Y-79791015D01*
X316938985Y-79672481D01*
X316845853Y-79533100D01*
X316781703Y-79378228D01*
X316749000Y-79213816D01*
X316749000Y-79046184D01*
X316781703Y-78881772D01*
X316845853Y-78726900D01*
X316938985Y-78587519D01*
X317057519Y-78468985D01*
X317196900Y-78375853D01*
X317351772Y-78311703D01*
X317516184Y-78279000D01*
X317683816Y-78279000D01*
X317848228Y-78311703D01*
G37*
G36*
X184723227Y-78311703D02*
G01*
X184878099Y-78375853D01*
X185017480Y-78468985D01*
X185136014Y-78587519D01*
X185229146Y-78726900D01*
X185293296Y-78881772D01*
X185325999Y-79046184D01*
X185325999Y-79213816D01*
X185293296Y-79378228D01*
X185229146Y-79533100D01*
X185136014Y-79672481D01*
X185017480Y-79791015D01*
X184878099Y-79884147D01*
X184723227Y-79948297D01*
X184558815Y-79981000D01*
X184391183Y-79981000D01*
X184226771Y-79948297D01*
X184071899Y-79884147D01*
X183932518Y-79791015D01*
X183813984Y-79672481D01*
X183720852Y-79533100D01*
X183656702Y-79378228D01*
X183623999Y-79213816D01*
X183623999Y-79046184D01*
X183656702Y-78881772D01*
X183720852Y-78726900D01*
X183813984Y-78587519D01*
X183932518Y-78468985D01*
X184071899Y-78375853D01*
X184226771Y-78311703D01*
X184391183Y-78279000D01*
X184558815Y-78279000D01*
X184723227Y-78311703D01*
G37*
G36*
X108651799Y-78311703D02*
G01*
X108806671Y-78375853D01*
X108946052Y-78468985D01*
X109064586Y-78587519D01*
X109157718Y-78726900D01*
X109221868Y-78881772D01*
X109254571Y-79046184D01*
X109254571Y-79213816D01*
X109221868Y-79378228D01*
X109157718Y-79533100D01*
X109064586Y-79672481D01*
X108946052Y-79791015D01*
X108806671Y-79884147D01*
X108651799Y-79948297D01*
X108487387Y-79981000D01*
X108319755Y-79981000D01*
X108155343Y-79948297D01*
X108000471Y-79884147D01*
X107861090Y-79791015D01*
X107742556Y-79672481D01*
X107649424Y-79533100D01*
X107585274Y-79378228D01*
X107552571Y-79213816D01*
X107552571Y-79046184D01*
X107585274Y-78881772D01*
X107649424Y-78726900D01*
X107742556Y-78587519D01*
X107861090Y-78468985D01*
X108000471Y-78375853D01*
X108155343Y-78311703D01*
X108319755Y-78279000D01*
X108487387Y-78279000D01*
X108651799Y-78311703D01*
G37*
G36*
X432978228Y-78311703D02*
G01*
X433133100Y-78375853D01*
X433272481Y-78468985D01*
X433391015Y-78587519D01*
X433484147Y-78726900D01*
X433548297Y-78881772D01*
X433581000Y-79046184D01*
X433581000Y-79213816D01*
X433548297Y-79378228D01*
X433484147Y-79533100D01*
X433391015Y-79672481D01*
X433272481Y-79791015D01*
X433133100Y-79884147D01*
X432978228Y-79948297D01*
X432813816Y-79981000D01*
X432646184Y-79981000D01*
X432481772Y-79948297D01*
X432326900Y-79884147D01*
X432187519Y-79791015D01*
X432068985Y-79672481D01*
X431975853Y-79533100D01*
X431911703Y-79378228D01*
X431879000Y-79213816D01*
X431879000Y-79046184D01*
X431911703Y-78881772D01*
X431975853Y-78726900D01*
X432068985Y-78587519D01*
X432187519Y-78468985D01*
X432326900Y-78375853D01*
X432481772Y-78311703D01*
X432646184Y-78279000D01*
X432813816Y-78279000D01*
X432978228Y-78311703D01*
G37*
G36*
X451998228Y-78311703D02*
G01*
X452153100Y-78375853D01*
X452292481Y-78468985D01*
X452411015Y-78587519D01*
X452504147Y-78726900D01*
X452568297Y-78881772D01*
X452601000Y-79046184D01*
X452601000Y-79213816D01*
X452568297Y-79378228D01*
X452504147Y-79533100D01*
X452411015Y-79672481D01*
X452292481Y-79791015D01*
X452153100Y-79884147D01*
X451998228Y-79948297D01*
X451833816Y-79981000D01*
X451666184Y-79981000D01*
X451501772Y-79948297D01*
X451346900Y-79884147D01*
X451207519Y-79791015D01*
X451088985Y-79672481D01*
X450995853Y-79533100D01*
X450931703Y-79378228D01*
X450899000Y-79213816D01*
X450899000Y-79046184D01*
X450931703Y-78881772D01*
X450995853Y-78726900D01*
X451088985Y-78587519D01*
X451207519Y-78468985D01*
X451346900Y-78375853D01*
X451501772Y-78311703D01*
X451666184Y-78279000D01*
X451833816Y-78279000D01*
X451998228Y-78311703D01*
G37*
G36*
X241776798Y-78311703D02*
G01*
X241931670Y-78375853D01*
X242071051Y-78468985D01*
X242189585Y-78587519D01*
X242282717Y-78726900D01*
X242346867Y-78881772D01*
X242379570Y-79046184D01*
X242379570Y-79213816D01*
X242346867Y-79378228D01*
X242282717Y-79533100D01*
X242189585Y-79672481D01*
X242071051Y-79791015D01*
X241931670Y-79884147D01*
X241776798Y-79948297D01*
X241612386Y-79981000D01*
X241444754Y-79981000D01*
X241280342Y-79948297D01*
X241125470Y-79884147D01*
X240986089Y-79791015D01*
X240867555Y-79672481D01*
X240774423Y-79533100D01*
X240710273Y-79378228D01*
X240677570Y-79213816D01*
X240677570Y-79046184D01*
X240710273Y-78881772D01*
X240774423Y-78726900D01*
X240867555Y-78587519D01*
X240986089Y-78468985D01*
X241125470Y-78375853D01*
X241280342Y-78311703D01*
X241444754Y-78279000D01*
X241612386Y-78279000D01*
X241776798Y-78311703D01*
G37*
G36*
X346978228Y-78311703D02*
G01*
X347133100Y-78375853D01*
X347272481Y-78468985D01*
X347391015Y-78587519D01*
X347484147Y-78726900D01*
X347548297Y-78881772D01*
X347581000Y-79046184D01*
X347581000Y-79213816D01*
X347548297Y-79378228D01*
X347484147Y-79533100D01*
X347391015Y-79672481D01*
X347272481Y-79791015D01*
X347133100Y-79884147D01*
X346978228Y-79948297D01*
X346813816Y-79981000D01*
X346646184Y-79981000D01*
X346481772Y-79948297D01*
X346326900Y-79884147D01*
X346187519Y-79791015D01*
X346068985Y-79672481D01*
X345975853Y-79533100D01*
X345911703Y-79378228D01*
X345879000Y-79213816D01*
X345879000Y-79046184D01*
X345911703Y-78881772D01*
X345975853Y-78726900D01*
X346068985Y-78587519D01*
X346187519Y-78468985D01*
X346326900Y-78375853D01*
X346481772Y-78311703D01*
X346646184Y-78279000D01*
X346813816Y-78279000D01*
X346978228Y-78311703D01*
G37*
G36*
X203741084Y-78311703D02*
G01*
X203895956Y-78375853D01*
X204035337Y-78468985D01*
X204153871Y-78587519D01*
X204247003Y-78726900D01*
X204311153Y-78881772D01*
X204343856Y-79046184D01*
X204343856Y-79213816D01*
X204311153Y-79378228D01*
X204247003Y-79533100D01*
X204153871Y-79672481D01*
X204035337Y-79791015D01*
X203895956Y-79884147D01*
X203741084Y-79948297D01*
X203576672Y-79981000D01*
X203409040Y-79981000D01*
X203244628Y-79948297D01*
X203089756Y-79884147D01*
X202950375Y-79791015D01*
X202831841Y-79672481D01*
X202738709Y-79533100D01*
X202674559Y-79378228D01*
X202641856Y-79213816D01*
X202641856Y-79046184D01*
X202674559Y-78881772D01*
X202738709Y-78726900D01*
X202831841Y-78587519D01*
X202950375Y-78468985D01*
X203089756Y-78375853D01*
X203244628Y-78311703D01*
X203409040Y-78279000D01*
X203576672Y-78279000D01*
X203741084Y-78311703D01*
G37*
G36*
X260794655Y-78311703D02*
G01*
X260949527Y-78375853D01*
X261088908Y-78468985D01*
X261207442Y-78587519D01*
X261300574Y-78726900D01*
X261364724Y-78881772D01*
X261397427Y-79046184D01*
X261397427Y-79213816D01*
X261364724Y-79378228D01*
X261300574Y-79533100D01*
X261207442Y-79672481D01*
X261088908Y-79791015D01*
X260949527Y-79884147D01*
X260794655Y-79948297D01*
X260630243Y-79981000D01*
X260462611Y-79981000D01*
X260298199Y-79948297D01*
X260143327Y-79884147D01*
X260003946Y-79791015D01*
X259885412Y-79672481D01*
X259792280Y-79533100D01*
X259728130Y-79378228D01*
X259695427Y-79213816D01*
X259695427Y-79046184D01*
X259728130Y-78881772D01*
X259792280Y-78726900D01*
X259885412Y-78587519D01*
X260003946Y-78468985D01*
X260143327Y-78375853D01*
X260298199Y-78311703D01*
X260462611Y-78279000D01*
X260630243Y-78279000D01*
X260794655Y-78311703D01*
G37*
G36*
X146687513Y-78311703D02*
G01*
X146842385Y-78375853D01*
X146981766Y-78468985D01*
X147100300Y-78587519D01*
X147193432Y-78726900D01*
X147257582Y-78881772D01*
X147290285Y-79046184D01*
X147290285Y-79213816D01*
X147257582Y-79378228D01*
X147193432Y-79533100D01*
X147100300Y-79672481D01*
X146981766Y-79791015D01*
X146842385Y-79884147D01*
X146687513Y-79948297D01*
X146523101Y-79981000D01*
X146355469Y-79981000D01*
X146191057Y-79948297D01*
X146036185Y-79884147D01*
X145896804Y-79791015D01*
X145778270Y-79672481D01*
X145685138Y-79533100D01*
X145620988Y-79378228D01*
X145588285Y-79213816D01*
X145588285Y-79046184D01*
X145620988Y-78881772D01*
X145685138Y-78726900D01*
X145778270Y-78587519D01*
X145896804Y-78468985D01*
X146036185Y-78375853D01*
X146191057Y-78311703D01*
X146355469Y-78279000D01*
X146523101Y-78279000D01*
X146687513Y-78311703D01*
G37*
G36*
X222758941Y-78311703D02*
G01*
X222913813Y-78375853D01*
X223053194Y-78468985D01*
X223171728Y-78587519D01*
X223264860Y-78726900D01*
X223329010Y-78881772D01*
X223361713Y-79046184D01*
X223361713Y-79213816D01*
X223329010Y-79378228D01*
X223264860Y-79533100D01*
X223171728Y-79672481D01*
X223053194Y-79791015D01*
X222913813Y-79884147D01*
X222758941Y-79948297D01*
X222594529Y-79981000D01*
X222426897Y-79981000D01*
X222262485Y-79948297D01*
X222107613Y-79884147D01*
X221968232Y-79791015D01*
X221849698Y-79672481D01*
X221756566Y-79533100D01*
X221692416Y-79378228D01*
X221659713Y-79213816D01*
X221659713Y-79046184D01*
X221692416Y-78881772D01*
X221756566Y-78726900D01*
X221849698Y-78587519D01*
X221968232Y-78468985D01*
X222107613Y-78375853D01*
X222262485Y-78311703D01*
X222426897Y-78279000D01*
X222594529Y-78279000D01*
X222758941Y-78311703D01*
G37*
G36*
X89633942Y-78311703D02*
G01*
X89788814Y-78375853D01*
X89928195Y-78468985D01*
X90046729Y-78587519D01*
X90139861Y-78726900D01*
X90204011Y-78881772D01*
X90236714Y-79046184D01*
X90236714Y-79213816D01*
X90204011Y-79378228D01*
X90139861Y-79533100D01*
X90046729Y-79672481D01*
X89928195Y-79791015D01*
X89788814Y-79884147D01*
X89633942Y-79948297D01*
X89469530Y-79981000D01*
X89301898Y-79981000D01*
X89137486Y-79948297D01*
X88982614Y-79884147D01*
X88843233Y-79791015D01*
X88724699Y-79672481D01*
X88631567Y-79533100D01*
X88567417Y-79378228D01*
X88534714Y-79213816D01*
X88534714Y-79046184D01*
X88567417Y-78881772D01*
X88631567Y-78726900D01*
X88724699Y-78587519D01*
X88843233Y-78468985D01*
X88982614Y-78375853D01*
X89137486Y-78311703D01*
X89301898Y-78279000D01*
X89469530Y-78279000D01*
X89633942Y-78311703D01*
G37*
G36*
X432928228Y-66931703D02*
G01*
X433083100Y-66995853D01*
X433222481Y-67088985D01*
X433341015Y-67207519D01*
X433434147Y-67346900D01*
X433498297Y-67501772D01*
X433531000Y-67666184D01*
X433531000Y-67833816D01*
X433498297Y-67998228D01*
X433434147Y-68153100D01*
X433341015Y-68292481D01*
X433222481Y-68411015D01*
X433083100Y-68504147D01*
X432928228Y-68568297D01*
X432763816Y-68601000D01*
X432596184Y-68601000D01*
X432431772Y-68568297D01*
X432276900Y-68504147D01*
X432137519Y-68411015D01*
X432018985Y-68292481D01*
X431925853Y-68153100D01*
X431861703Y-67998228D01*
X431829000Y-67833816D01*
X431829000Y-67666184D01*
X431861703Y-67501772D01*
X431925853Y-67346900D01*
X432018985Y-67207519D01*
X432137519Y-67088985D01*
X432276900Y-66995853D01*
X432431772Y-66931703D01*
X432596184Y-66899000D01*
X432763816Y-66899000D01*
X432928228Y-66931703D01*
G37*
G36*
X456128228Y-66931703D02*
G01*
X456283100Y-66995853D01*
X456422481Y-67088985D01*
X456541015Y-67207519D01*
X456634147Y-67346900D01*
X456698297Y-67501772D01*
X456731000Y-67666184D01*
X456731000Y-67833816D01*
X456698297Y-67998228D01*
X456634147Y-68153100D01*
X456541015Y-68292481D01*
X456422481Y-68411015D01*
X456283100Y-68504147D01*
X456128228Y-68568297D01*
X455963816Y-68601000D01*
X455796184Y-68601000D01*
X455631772Y-68568297D01*
X455476900Y-68504147D01*
X455337519Y-68411015D01*
X455218985Y-68292481D01*
X455125853Y-68153100D01*
X455061703Y-67998228D01*
X455029000Y-67833816D01*
X455029000Y-67666184D01*
X455061703Y-67501772D01*
X455125853Y-67346900D01*
X455218985Y-67207519D01*
X455337519Y-67088985D01*
X455476900Y-66995853D01*
X455631772Y-66931703D01*
X455796184Y-66899000D01*
X455963816Y-66899000D01*
X456128228Y-66931703D01*
G37*
G36*
X448508228Y-66931703D02*
G01*
X448663100Y-66995853D01*
X448802481Y-67088985D01*
X448921015Y-67207519D01*
X449014147Y-67346900D01*
X449078297Y-67501772D01*
X449111000Y-67666184D01*
X449111000Y-67833816D01*
X449078297Y-67998228D01*
X449014147Y-68153100D01*
X448921015Y-68292481D01*
X448802481Y-68411015D01*
X448663100Y-68504147D01*
X448508228Y-68568297D01*
X448343816Y-68601000D01*
X448176184Y-68601000D01*
X448011772Y-68568297D01*
X447856900Y-68504147D01*
X447717519Y-68411015D01*
X447598985Y-68292481D01*
X447505853Y-68153100D01*
X447441703Y-67998228D01*
X447409000Y-67833816D01*
X447409000Y-67666184D01*
X447441703Y-67501772D01*
X447505853Y-67346900D01*
X447598985Y-67207519D01*
X447717519Y-67088985D01*
X447856900Y-66995853D01*
X448011772Y-66931703D01*
X448176184Y-66899000D01*
X448343816Y-66899000D01*
X448508228Y-66931703D01*
G37*
G36*
X425308228Y-66931703D02*
G01*
X425463100Y-66995853D01*
X425602481Y-67088985D01*
X425721015Y-67207519D01*
X425814147Y-67346900D01*
X425878297Y-67501772D01*
X425911000Y-67666184D01*
X425911000Y-67833816D01*
X425878297Y-67998228D01*
X425814147Y-68153100D01*
X425721015Y-68292481D01*
X425602481Y-68411015D01*
X425463100Y-68504147D01*
X425308228Y-68568297D01*
X425143816Y-68601000D01*
X424976184Y-68601000D01*
X424811772Y-68568297D01*
X424656900Y-68504147D01*
X424517519Y-68411015D01*
X424398985Y-68292481D01*
X424305853Y-68153100D01*
X424241703Y-67998228D01*
X424209000Y-67833816D01*
X424209000Y-67666184D01*
X424241703Y-67501772D01*
X424305853Y-67346900D01*
X424398985Y-67207519D01*
X424517519Y-67088985D01*
X424656900Y-66995853D01*
X424811772Y-66931703D01*
X424976184Y-66899000D01*
X425143816Y-66899000D01*
X425308228Y-66931703D01*
G37*
G36*
X409728228Y-66931703D02*
G01*
X409883100Y-66995853D01*
X410022481Y-67088985D01*
X410141015Y-67207519D01*
X410234147Y-67346900D01*
X410298297Y-67501772D01*
X410331000Y-67666184D01*
X410331000Y-67833816D01*
X410298297Y-67998228D01*
X410234147Y-68153100D01*
X410141015Y-68292481D01*
X410022481Y-68411015D01*
X409883100Y-68504147D01*
X409728228Y-68568297D01*
X409563816Y-68601000D01*
X409396184Y-68601000D01*
X409231772Y-68568297D01*
X409076900Y-68504147D01*
X408937519Y-68411015D01*
X408818985Y-68292481D01*
X408725853Y-68153100D01*
X408661703Y-67998228D01*
X408629000Y-67833816D01*
X408629000Y-67666184D01*
X408661703Y-67501772D01*
X408725853Y-67346900D01*
X408818985Y-67207519D01*
X408937519Y-67088985D01*
X409076900Y-66995853D01*
X409231772Y-66931703D01*
X409396184Y-66899000D01*
X409563816Y-66899000D01*
X409728228Y-66931703D01*
G37*
G36*
X402108228Y-66931703D02*
G01*
X402263100Y-66995853D01*
X402402481Y-67088985D01*
X402521015Y-67207519D01*
X402614147Y-67346900D01*
X402678297Y-67501772D01*
X402711000Y-67666184D01*
X402711000Y-67833816D01*
X402678297Y-67998228D01*
X402614147Y-68153100D01*
X402521015Y-68292481D01*
X402402481Y-68411015D01*
X402263100Y-68504147D01*
X402108228Y-68568297D01*
X401943816Y-68601000D01*
X401776184Y-68601000D01*
X401611772Y-68568297D01*
X401456900Y-68504147D01*
X401317519Y-68411015D01*
X401198985Y-68292481D01*
X401105853Y-68153100D01*
X401041703Y-67998228D01*
X401009000Y-67833816D01*
X401009000Y-67666184D01*
X401041703Y-67501772D01*
X401105853Y-67346900D01*
X401198985Y-67207519D01*
X401317519Y-67088985D01*
X401456900Y-66995853D01*
X401611772Y-66931703D01*
X401776184Y-66899000D01*
X401943816Y-66899000D01*
X402108228Y-66931703D01*
G37*
G36*
X366631000Y-67321000D02*
G01*
X364929000Y-67321000D01*
X364929000Y-65619000D01*
X366631000Y-65619000D01*
X366631000Y-67321000D01*
G37*
G36*
X347581000Y-67321000D02*
G01*
X345879000Y-67321000D01*
X345879000Y-65619000D01*
X347581000Y-65619000D01*
X347581000Y-67321000D01*
G37*
G36*
X280407666Y-67321000D02*
G01*
X278705666Y-67321000D01*
X278705666Y-65619000D01*
X280407666Y-65619000D01*
X280407666Y-67321000D01*
G37*
G36*
X328521000Y-67321000D02*
G01*
X326819000Y-67321000D01*
X326819000Y-65619000D01*
X328521000Y-65619000D01*
X328521000Y-67321000D01*
G37*
G36*
X299431000Y-67321000D02*
G01*
X297729000Y-67321000D01*
X297729000Y-65619000D01*
X299431000Y-65619000D01*
X299431000Y-67321000D01*
G37*
G36*
X261384333Y-67321000D02*
G01*
X259682333Y-67321000D01*
X259682333Y-65619000D01*
X261384333Y-65619000D01*
X261384333Y-67321000D01*
G37*
G36*
X44098228Y-65651703D02*
G01*
X44253100Y-65715853D01*
X44392481Y-65808985D01*
X44511015Y-65927519D01*
X44604147Y-66066900D01*
X44668297Y-66221772D01*
X44701000Y-66386184D01*
X44701000Y-66553816D01*
X44668297Y-66718228D01*
X44604147Y-66873100D01*
X44511015Y-67012481D01*
X44392481Y-67131015D01*
X44253100Y-67224147D01*
X44098228Y-67288297D01*
X43933816Y-67321000D01*
X43766184Y-67321000D01*
X43601772Y-67288297D01*
X43446900Y-67224147D01*
X43307519Y-67131015D01*
X43188985Y-67012481D01*
X43095853Y-66873100D01*
X43031703Y-66718228D01*
X42999000Y-66553816D01*
X42999000Y-66386184D01*
X43031703Y-66221772D01*
X43095853Y-66066900D01*
X43188985Y-65927519D01*
X43307519Y-65808985D01*
X43446900Y-65715853D01*
X43601772Y-65651703D01*
X43766184Y-65619000D01*
X43933816Y-65619000D01*
X44098228Y-65651703D01*
G37*
G36*
X127761000Y-67321000D02*
G01*
X126059000Y-67321000D01*
X126059000Y-65619000D01*
X127761000Y-65619000D01*
X127761000Y-67321000D01*
G37*
G36*
X52321000Y-67321000D02*
G01*
X50619000Y-67321000D01*
X50619000Y-65619000D01*
X52321000Y-65619000D01*
X52321000Y-67321000D01*
G37*
G36*
X194467666Y-67321000D02*
G01*
X192765666Y-67321000D01*
X192765666Y-65619000D01*
X194467666Y-65619000D01*
X194467666Y-67321000D01*
G37*
G36*
X70691000Y-67321000D02*
G01*
X68989000Y-67321000D01*
X68989000Y-65619000D01*
X70691000Y-65619000D01*
X70691000Y-67321000D01*
G37*
G36*
X89714333Y-67321000D02*
G01*
X88012333Y-67321000D01*
X88012333Y-65619000D01*
X89714333Y-65619000D01*
X89714333Y-67321000D01*
G37*
G36*
X213491000Y-67321000D02*
G01*
X211789000Y-67321000D01*
X211789000Y-65619000D01*
X213491000Y-65619000D01*
X213491000Y-67321000D01*
G37*
G36*
X242361000Y-67321000D02*
G01*
X240659000Y-67321000D01*
X240659000Y-65619000D01*
X242361000Y-65619000D01*
X242361000Y-67321000D01*
G37*
G36*
X108737666Y-67321000D02*
G01*
X107035666Y-67321000D01*
X107035666Y-65619000D01*
X108737666Y-65619000D01*
X108737666Y-67321000D01*
G37*
G36*
X156421000Y-67321000D02*
G01*
X154719000Y-67321000D01*
X154719000Y-65619000D01*
X156421000Y-65619000D01*
X156421000Y-67321000D01*
G37*
G36*
X175444333Y-67321000D02*
G01*
X173742333Y-67321000D01*
X173742333Y-65619000D01*
X175444333Y-65619000D01*
X175444333Y-67321000D01*
G37*
G36*
X393213512Y-59003927D02*
G01*
X393362812Y-59033624D01*
X393526784Y-59101544D01*
X393674354Y-59200147D01*
X393799853Y-59325646D01*
X393898456Y-59473216D01*
X393966376Y-59637188D01*
X394001000Y-59811259D01*
X394001000Y-59988741D01*
X393966376Y-60162812D01*
X393898456Y-60326784D01*
X393799853Y-60474354D01*
X393674354Y-60599853D01*
X393526784Y-60698456D01*
X393381771Y-60758523D01*
X393360171Y-60770068D01*
X393341229Y-60785613D01*
X393325684Y-60804555D01*
X393314133Y-60826166D01*
X393307020Y-60849615D01*
X393304618Y-60874001D01*
X393307020Y-60898387D01*
X393314133Y-60921836D01*
X393325684Y-60943447D01*
X393341229Y-60962389D01*
X393360171Y-60977934D01*
X393381782Y-60989485D01*
X393405231Y-60996598D01*
X393429617Y-60999000D01*
X394001000Y-60999000D01*
X394001000Y-62801000D01*
X392199000Y-62801000D01*
X392199000Y-60999000D01*
X392770383Y-60999000D01*
X392794769Y-60996598D01*
X392818218Y-60989485D01*
X392839829Y-60977934D01*
X392858771Y-60962389D01*
X392874316Y-60943447D01*
X392885867Y-60921836D01*
X392892980Y-60898387D01*
X392895382Y-60874001D01*
X392892980Y-60849615D01*
X392885867Y-60826166D01*
X392874316Y-60804555D01*
X392858771Y-60785613D01*
X392839829Y-60770068D01*
X392818229Y-60758523D01*
X392673216Y-60698456D01*
X392525646Y-60599853D01*
X392400147Y-60474354D01*
X392301544Y-60326784D01*
X392233624Y-60162812D01*
X392199000Y-59988741D01*
X392199000Y-59811259D01*
X392233624Y-59637188D01*
X392301544Y-59473216D01*
X392400147Y-59325646D01*
X392525646Y-59200147D01*
X392673216Y-59101544D01*
X392837188Y-59033624D01*
X392986488Y-59003927D01*
X393011258Y-58999000D01*
X393188742Y-58999000D01*
X393213512Y-59003927D01*
G37*
G36*
X390713512Y-59003927D02*
G01*
X390862812Y-59033624D01*
X391026784Y-59101544D01*
X391174354Y-59200147D01*
X391299853Y-59325646D01*
X391398456Y-59473216D01*
X391466376Y-59637188D01*
X391501000Y-59811259D01*
X391501000Y-59988741D01*
X391466376Y-60162812D01*
X391398456Y-60326784D01*
X391299853Y-60474354D01*
X391174354Y-60599853D01*
X391026784Y-60698456D01*
X390862812Y-60766376D01*
X390807362Y-60777405D01*
X390783922Y-60784516D01*
X390762311Y-60796067D01*
X390743369Y-60811613D01*
X390727824Y-60830555D01*
X390716273Y-60852165D01*
X390709160Y-60875614D01*
X390706758Y-60900000D01*
X390709160Y-60924387D01*
X390716273Y-60947835D01*
X390727824Y-60969446D01*
X390743370Y-60988388D01*
X390762312Y-61003933D01*
X390783922Y-61015484D01*
X390807362Y-61022595D01*
X390862812Y-61033624D01*
X391026784Y-61101544D01*
X391174354Y-61200147D01*
X391299853Y-61325646D01*
X391398456Y-61473216D01*
X391466376Y-61637188D01*
X391501000Y-61811259D01*
X391501000Y-61988741D01*
X391466376Y-62162812D01*
X391398456Y-62326784D01*
X391299853Y-62474354D01*
X391174354Y-62599853D01*
X391026784Y-62698456D01*
X390862812Y-62766376D01*
X390713512Y-62796073D01*
X390688742Y-62801000D01*
X390511258Y-62801000D01*
X390486488Y-62796073D01*
X390337188Y-62766376D01*
X390173216Y-62698456D01*
X390025646Y-62599853D01*
X389900147Y-62474354D01*
X389801544Y-62326784D01*
X389733624Y-62162812D01*
X389699000Y-61988741D01*
X389699000Y-61811259D01*
X389733624Y-61637188D01*
X389801544Y-61473216D01*
X389900147Y-61325646D01*
X390025646Y-61200147D01*
X390173216Y-61101544D01*
X390337188Y-61033624D01*
X390392638Y-61022595D01*
X390416078Y-61015484D01*
X390437689Y-61003933D01*
X390456631Y-60988387D01*
X390472176Y-60969445D01*
X390483727Y-60947835D01*
X390490840Y-60924386D01*
X390493242Y-60900000D01*
X390490840Y-60875613D01*
X390483727Y-60852165D01*
X390472176Y-60830554D01*
X390456630Y-60811612D01*
X390437688Y-60796067D01*
X390416078Y-60784516D01*
X390392638Y-60777405D01*
X390337188Y-60766376D01*
X390173216Y-60698456D01*
X390025646Y-60599853D01*
X389900147Y-60474354D01*
X389801544Y-60326784D01*
X389733624Y-60162812D01*
X389699000Y-59988741D01*
X389699000Y-59811259D01*
X389733624Y-59637188D01*
X389801544Y-59473216D01*
X389900147Y-59325646D01*
X390025646Y-59200147D01*
X390173216Y-59101544D01*
X390337188Y-59033624D01*
X390486488Y-59003927D01*
X390511258Y-58999000D01*
X390688742Y-58999000D01*
X390713512Y-59003927D01*
G37*
G36*
X449211000Y-60461000D02*
G01*
X447309000Y-60461000D01*
X447309000Y-58559000D01*
X449211000Y-58559000D01*
X449211000Y-60461000D01*
G37*
G36*
X402811000Y-60461000D02*
G01*
X400909000Y-60461000D01*
X400909000Y-58559000D01*
X402811000Y-58559000D01*
X402811000Y-60461000D01*
G37*
G36*
X404677395Y-58595546D02*
G01*
X404850466Y-58667234D01*
X404850467Y-58667235D01*
X405006227Y-58771310D01*
X405138690Y-58903773D01*
X405138691Y-58903775D01*
X405242766Y-59059534D01*
X405314454Y-59232605D01*
X405351000Y-59416333D01*
X405351000Y-59603667D01*
X405314454Y-59787395D01*
X405242766Y-59960466D01*
X405191081Y-60037818D01*
X405138690Y-60116227D01*
X405006227Y-60248690D01*
X404927818Y-60301081D01*
X404850466Y-60352766D01*
X404677395Y-60424454D01*
X404493667Y-60461000D01*
X404306333Y-60461000D01*
X404122605Y-60424454D01*
X403949534Y-60352766D01*
X403872182Y-60301081D01*
X403793773Y-60248690D01*
X403661310Y-60116227D01*
X403608919Y-60037818D01*
X403557234Y-59960466D01*
X403485546Y-59787395D01*
X403449000Y-59603667D01*
X403449000Y-59416333D01*
X403485546Y-59232605D01*
X403557234Y-59059534D01*
X403661309Y-58903775D01*
X403661310Y-58903773D01*
X403793773Y-58771310D01*
X403949533Y-58667235D01*
X403949534Y-58667234D01*
X404122605Y-58595546D01*
X404306333Y-58559000D01*
X404493667Y-58559000D01*
X404677395Y-58595546D01*
G37*
G36*
X426011000Y-60461000D02*
G01*
X424109000Y-60461000D01*
X424109000Y-58559000D01*
X426011000Y-58559000D01*
X426011000Y-60461000D01*
G37*
G36*
X427877395Y-58595546D02*
G01*
X428050466Y-58667234D01*
X428050467Y-58667235D01*
X428206227Y-58771310D01*
X428338690Y-58903773D01*
X428338691Y-58903775D01*
X428442766Y-59059534D01*
X428514454Y-59232605D01*
X428551000Y-59416333D01*
X428551000Y-59603667D01*
X428514454Y-59787395D01*
X428442766Y-59960466D01*
X428391081Y-60037818D01*
X428338690Y-60116227D01*
X428206227Y-60248690D01*
X428127818Y-60301081D01*
X428050466Y-60352766D01*
X427877395Y-60424454D01*
X427693667Y-60461000D01*
X427506333Y-60461000D01*
X427322605Y-60424454D01*
X427149534Y-60352766D01*
X427072182Y-60301081D01*
X426993773Y-60248690D01*
X426861310Y-60116227D01*
X426808919Y-60037818D01*
X426757234Y-59960466D01*
X426685546Y-59787395D01*
X426649000Y-59603667D01*
X426649000Y-59416333D01*
X426685546Y-59232605D01*
X426757234Y-59059534D01*
X426861309Y-58903775D01*
X426861310Y-58903773D01*
X426993773Y-58771310D01*
X427149533Y-58667235D01*
X427149534Y-58667234D01*
X427322605Y-58595546D01*
X427506333Y-58559000D01*
X427693667Y-58559000D01*
X427877395Y-58595546D01*
G37*
G36*
X451077395Y-58595546D02*
G01*
X451250466Y-58667234D01*
X451250467Y-58667235D01*
X451406227Y-58771310D01*
X451538690Y-58903773D01*
X451538691Y-58903775D01*
X451642766Y-59059534D01*
X451714454Y-59232605D01*
X451751000Y-59416333D01*
X451751000Y-59603667D01*
X451714454Y-59787395D01*
X451642766Y-59960466D01*
X451591081Y-60037818D01*
X451538690Y-60116227D01*
X451406227Y-60248690D01*
X451327818Y-60301081D01*
X451250466Y-60352766D01*
X451077395Y-60424454D01*
X450893667Y-60461000D01*
X450706333Y-60461000D01*
X450522605Y-60424454D01*
X450349534Y-60352766D01*
X450272182Y-60301081D01*
X450193773Y-60248690D01*
X450061310Y-60116227D01*
X450008919Y-60037818D01*
X449957234Y-59960466D01*
X449885546Y-59787395D01*
X449849000Y-59603667D01*
X449849000Y-59416333D01*
X449885546Y-59232605D01*
X449957234Y-59059534D01*
X450061309Y-58903775D01*
X450061310Y-58903773D01*
X450193773Y-58771310D01*
X450349533Y-58667235D01*
X450349534Y-58667234D01*
X450522605Y-58595546D01*
X450706333Y-58559000D01*
X450893667Y-58559000D01*
X451077395Y-58595546D01*
G37*
G36*
X70088228Y-58031703D02*
G01*
X70243100Y-58095853D01*
X70382481Y-58188985D01*
X70501015Y-58307519D01*
X70594147Y-58446900D01*
X70658297Y-58601772D01*
X70691000Y-58766184D01*
X70691000Y-58933816D01*
X70658297Y-59098228D01*
X70594147Y-59253100D01*
X70501015Y-59392481D01*
X70382481Y-59511015D01*
X70243100Y-59604147D01*
X70088228Y-59668297D01*
X69923816Y-59701000D01*
X69756184Y-59701000D01*
X69591772Y-59668297D01*
X69436900Y-59604147D01*
X69297519Y-59511015D01*
X69178985Y-59392481D01*
X69085853Y-59253100D01*
X69021703Y-59098228D01*
X68989000Y-58933816D01*
X68989000Y-58766184D01*
X69021703Y-58601772D01*
X69085853Y-58446900D01*
X69178985Y-58307519D01*
X69297519Y-58188985D01*
X69436900Y-58095853D01*
X69591772Y-58031703D01*
X69756184Y-57999000D01*
X69923816Y-57999000D01*
X70088228Y-58031703D01*
G37*
G36*
X89111561Y-58031703D02*
G01*
X89266433Y-58095853D01*
X89405814Y-58188985D01*
X89524348Y-58307519D01*
X89617480Y-58446900D01*
X89681630Y-58601772D01*
X89714333Y-58766184D01*
X89714333Y-58933816D01*
X89681630Y-59098228D01*
X89617480Y-59253100D01*
X89524348Y-59392481D01*
X89405814Y-59511015D01*
X89266433Y-59604147D01*
X89111561Y-59668297D01*
X88947149Y-59701000D01*
X88779517Y-59701000D01*
X88615105Y-59668297D01*
X88460233Y-59604147D01*
X88320852Y-59511015D01*
X88202318Y-59392481D01*
X88109186Y-59253100D01*
X88045036Y-59098228D01*
X88012333Y-58933816D01*
X88012333Y-58766184D01*
X88045036Y-58601772D01*
X88109186Y-58446900D01*
X88202318Y-58307519D01*
X88320852Y-58188985D01*
X88460233Y-58095853D01*
X88615105Y-58031703D01*
X88779517Y-57999000D01*
X88947149Y-57999000D01*
X89111561Y-58031703D01*
G37*
G36*
X108134894Y-58031703D02*
G01*
X108289766Y-58095853D01*
X108429147Y-58188985D01*
X108547681Y-58307519D01*
X108640813Y-58446900D01*
X108704963Y-58601772D01*
X108737666Y-58766184D01*
X108737666Y-58933816D01*
X108704963Y-59098228D01*
X108640813Y-59253100D01*
X108547681Y-59392481D01*
X108429147Y-59511015D01*
X108289766Y-59604147D01*
X108134894Y-59668297D01*
X107970482Y-59701000D01*
X107802850Y-59701000D01*
X107638438Y-59668297D01*
X107483566Y-59604147D01*
X107344185Y-59511015D01*
X107225651Y-59392481D01*
X107132519Y-59253100D01*
X107068369Y-59098228D01*
X107035666Y-58933816D01*
X107035666Y-58766184D01*
X107068369Y-58601772D01*
X107132519Y-58446900D01*
X107225651Y-58307519D01*
X107344185Y-58188985D01*
X107483566Y-58095853D01*
X107638438Y-58031703D01*
X107802850Y-57999000D01*
X107970482Y-57999000D01*
X108134894Y-58031703D01*
G37*
G36*
X298828228Y-58031703D02*
G01*
X298983100Y-58095853D01*
X299122481Y-58188985D01*
X299241015Y-58307519D01*
X299334147Y-58446900D01*
X299398297Y-58601772D01*
X299431000Y-58766184D01*
X299431000Y-58933816D01*
X299398297Y-59098228D01*
X299334147Y-59253100D01*
X299241015Y-59392481D01*
X299122481Y-59511015D01*
X298983100Y-59604147D01*
X298828228Y-59668297D01*
X298663816Y-59701000D01*
X298496184Y-59701000D01*
X298331772Y-59668297D01*
X298176900Y-59604147D01*
X298037519Y-59511015D01*
X297918985Y-59392481D01*
X297825853Y-59253100D01*
X297761703Y-59098228D01*
X297729000Y-58933816D01*
X297729000Y-58766184D01*
X297761703Y-58601772D01*
X297825853Y-58446900D01*
X297918985Y-58307519D01*
X298037519Y-58188985D01*
X298176900Y-58095853D01*
X298331772Y-58031703D01*
X298496184Y-57999000D01*
X298663816Y-57999000D01*
X298828228Y-58031703D01*
G37*
G36*
X127158228Y-58031703D02*
G01*
X127313100Y-58095853D01*
X127452481Y-58188985D01*
X127571015Y-58307519D01*
X127664147Y-58446900D01*
X127728297Y-58601772D01*
X127761000Y-58766184D01*
X127761000Y-58933816D01*
X127728297Y-59098228D01*
X127664147Y-59253100D01*
X127571015Y-59392481D01*
X127452481Y-59511015D01*
X127313100Y-59604147D01*
X127158228Y-59668297D01*
X126993816Y-59701000D01*
X126826184Y-59701000D01*
X126661772Y-59668297D01*
X126506900Y-59604147D01*
X126367519Y-59511015D01*
X126248985Y-59392481D01*
X126155853Y-59253100D01*
X126091703Y-59098228D01*
X126059000Y-58933816D01*
X126059000Y-58766184D01*
X126091703Y-58601772D01*
X126155853Y-58446900D01*
X126248985Y-58307519D01*
X126367519Y-58188985D01*
X126506900Y-58095853D01*
X126661772Y-58031703D01*
X126826184Y-57999000D01*
X126993816Y-57999000D01*
X127158228Y-58031703D01*
G37*
G36*
X155818228Y-58031703D02*
G01*
X155973100Y-58095853D01*
X156112481Y-58188985D01*
X156231015Y-58307519D01*
X156324147Y-58446900D01*
X156388297Y-58601772D01*
X156421000Y-58766184D01*
X156421000Y-58933816D01*
X156388297Y-59098228D01*
X156324147Y-59253100D01*
X156231015Y-59392481D01*
X156112481Y-59511015D01*
X155973100Y-59604147D01*
X155818228Y-59668297D01*
X155653816Y-59701000D01*
X155486184Y-59701000D01*
X155321772Y-59668297D01*
X155166900Y-59604147D01*
X155027519Y-59511015D01*
X154908985Y-59392481D01*
X154815853Y-59253100D01*
X154751703Y-59098228D01*
X154719000Y-58933816D01*
X154719000Y-58766184D01*
X154751703Y-58601772D01*
X154815853Y-58446900D01*
X154908985Y-58307519D01*
X155027519Y-58188985D01*
X155166900Y-58095853D01*
X155321772Y-58031703D01*
X155486184Y-57999000D01*
X155653816Y-57999000D01*
X155818228Y-58031703D01*
G37*
G36*
X174841561Y-58031703D02*
G01*
X174996433Y-58095853D01*
X175135814Y-58188985D01*
X175254348Y-58307519D01*
X175347480Y-58446900D01*
X175411630Y-58601772D01*
X175444333Y-58766184D01*
X175444333Y-58933816D01*
X175411630Y-59098228D01*
X175347480Y-59253100D01*
X175254348Y-59392481D01*
X175135814Y-59511015D01*
X174996433Y-59604147D01*
X174841561Y-59668297D01*
X174677149Y-59701000D01*
X174509517Y-59701000D01*
X174345105Y-59668297D01*
X174190233Y-59604147D01*
X174050852Y-59511015D01*
X173932318Y-59392481D01*
X173839186Y-59253100D01*
X173775036Y-59098228D01*
X173742333Y-58933816D01*
X173742333Y-58766184D01*
X173775036Y-58601772D01*
X173839186Y-58446900D01*
X173932318Y-58307519D01*
X174050852Y-58188985D01*
X174190233Y-58095853D01*
X174345105Y-58031703D01*
X174509517Y-57999000D01*
X174677149Y-57999000D01*
X174841561Y-58031703D01*
G37*
G36*
X193864894Y-58031703D02*
G01*
X194019766Y-58095853D01*
X194159147Y-58188985D01*
X194277681Y-58307519D01*
X194370813Y-58446900D01*
X194434963Y-58601772D01*
X194467666Y-58766184D01*
X194467666Y-58933816D01*
X194434963Y-59098228D01*
X194370813Y-59253100D01*
X194277681Y-59392481D01*
X194159147Y-59511015D01*
X194019766Y-59604147D01*
X193864894Y-59668297D01*
X193700482Y-59701000D01*
X193532850Y-59701000D01*
X193368438Y-59668297D01*
X193213566Y-59604147D01*
X193074185Y-59511015D01*
X192955651Y-59392481D01*
X192862519Y-59253100D01*
X192798369Y-59098228D01*
X192765666Y-58933816D01*
X192765666Y-58766184D01*
X192798369Y-58601772D01*
X192862519Y-58446900D01*
X192955651Y-58307519D01*
X193074185Y-58188985D01*
X193213566Y-58095853D01*
X193368438Y-58031703D01*
X193532850Y-57999000D01*
X193700482Y-57999000D01*
X193864894Y-58031703D01*
G37*
G36*
X212888228Y-58031703D02*
G01*
X213043100Y-58095853D01*
X213182481Y-58188985D01*
X213301015Y-58307519D01*
X213394147Y-58446900D01*
X213458297Y-58601772D01*
X213491000Y-58766184D01*
X213491000Y-58933816D01*
X213458297Y-59098228D01*
X213394147Y-59253100D01*
X213301015Y-59392481D01*
X213182481Y-59511015D01*
X213043100Y-59604147D01*
X212888228Y-59668297D01*
X212723816Y-59701000D01*
X212556184Y-59701000D01*
X212391772Y-59668297D01*
X212236900Y-59604147D01*
X212097519Y-59511015D01*
X211978985Y-59392481D01*
X211885853Y-59253100D01*
X211821703Y-59098228D01*
X211789000Y-58933816D01*
X211789000Y-58766184D01*
X211821703Y-58601772D01*
X211885853Y-58446900D01*
X211978985Y-58307519D01*
X212097519Y-58188985D01*
X212236900Y-58095853D01*
X212391772Y-58031703D01*
X212556184Y-57999000D01*
X212723816Y-57999000D01*
X212888228Y-58031703D01*
G37*
G36*
X279804894Y-58031703D02*
G01*
X279959766Y-58095853D01*
X280099147Y-58188985D01*
X280217681Y-58307519D01*
X280310813Y-58446900D01*
X280374963Y-58601772D01*
X280407666Y-58766184D01*
X280407666Y-58933816D01*
X280374963Y-59098228D01*
X280310813Y-59253100D01*
X280217681Y-59392481D01*
X280099147Y-59511015D01*
X279959766Y-59604147D01*
X279804894Y-59668297D01*
X279640482Y-59701000D01*
X279472850Y-59701000D01*
X279308438Y-59668297D01*
X279153566Y-59604147D01*
X279014185Y-59511015D01*
X278895651Y-59392481D01*
X278802519Y-59253100D01*
X278738369Y-59098228D01*
X278705666Y-58933816D01*
X278705666Y-58766184D01*
X278738369Y-58601772D01*
X278802519Y-58446900D01*
X278895651Y-58307519D01*
X279014185Y-58188985D01*
X279153566Y-58095853D01*
X279308438Y-58031703D01*
X279472850Y-57999000D01*
X279640482Y-57999000D01*
X279804894Y-58031703D01*
G37*
G36*
X346978228Y-58031703D02*
G01*
X347133100Y-58095853D01*
X347272481Y-58188985D01*
X347391015Y-58307519D01*
X347484147Y-58446900D01*
X347548297Y-58601772D01*
X347581000Y-58766184D01*
X347581000Y-58933816D01*
X347548297Y-59098228D01*
X347484147Y-59253100D01*
X347391015Y-59392481D01*
X347272481Y-59511015D01*
X347133100Y-59604147D01*
X346978228Y-59668297D01*
X346813816Y-59701000D01*
X346646184Y-59701000D01*
X346481772Y-59668297D01*
X346326900Y-59604147D01*
X346187519Y-59511015D01*
X346068985Y-59392481D01*
X345975853Y-59253100D01*
X345911703Y-59098228D01*
X345879000Y-58933816D01*
X345879000Y-58766184D01*
X345911703Y-58601772D01*
X345975853Y-58446900D01*
X346068985Y-58307519D01*
X346187519Y-58188985D01*
X346326900Y-58095853D01*
X346481772Y-58031703D01*
X346646184Y-57999000D01*
X346813816Y-57999000D01*
X346978228Y-58031703D01*
G37*
G36*
X241758228Y-58031703D02*
G01*
X241913100Y-58095853D01*
X242052481Y-58188985D01*
X242171015Y-58307519D01*
X242264147Y-58446900D01*
X242328297Y-58601772D01*
X242361000Y-58766184D01*
X242361000Y-58933816D01*
X242328297Y-59098228D01*
X242264147Y-59253100D01*
X242171015Y-59392481D01*
X242052481Y-59511015D01*
X241913100Y-59604147D01*
X241758228Y-59668297D01*
X241593816Y-59701000D01*
X241426184Y-59701000D01*
X241261772Y-59668297D01*
X241106900Y-59604147D01*
X240967519Y-59511015D01*
X240848985Y-59392481D01*
X240755853Y-59253100D01*
X240691703Y-59098228D01*
X240659000Y-58933816D01*
X240659000Y-58766184D01*
X240691703Y-58601772D01*
X240755853Y-58446900D01*
X240848985Y-58307519D01*
X240967519Y-58188985D01*
X241106900Y-58095853D01*
X241261772Y-58031703D01*
X241426184Y-57999000D01*
X241593816Y-57999000D01*
X241758228Y-58031703D01*
G37*
G36*
X260781561Y-58031703D02*
G01*
X260936433Y-58095853D01*
X261075814Y-58188985D01*
X261194348Y-58307519D01*
X261287480Y-58446900D01*
X261351630Y-58601772D01*
X261384333Y-58766184D01*
X261384333Y-58933816D01*
X261351630Y-59098228D01*
X261287480Y-59253100D01*
X261194348Y-59392481D01*
X261075814Y-59511015D01*
X260936433Y-59604147D01*
X260781561Y-59668297D01*
X260617149Y-59701000D01*
X260449517Y-59701000D01*
X260285105Y-59668297D01*
X260130233Y-59604147D01*
X259990852Y-59511015D01*
X259872318Y-59392481D01*
X259779186Y-59253100D01*
X259715036Y-59098228D01*
X259682333Y-58933816D01*
X259682333Y-58766184D01*
X259715036Y-58601772D01*
X259779186Y-58446900D01*
X259872318Y-58307519D01*
X259990852Y-58188985D01*
X260130233Y-58095853D01*
X260285105Y-58031703D01*
X260449517Y-57999000D01*
X260617149Y-57999000D01*
X260781561Y-58031703D01*
G37*
G36*
X327918228Y-58031703D02*
G01*
X328073100Y-58095853D01*
X328212481Y-58188985D01*
X328331015Y-58307519D01*
X328424147Y-58446900D01*
X328488297Y-58601772D01*
X328521000Y-58766184D01*
X328521000Y-58933816D01*
X328488297Y-59098228D01*
X328424147Y-59253100D01*
X328331015Y-59392481D01*
X328212481Y-59511015D01*
X328073100Y-59604147D01*
X327918228Y-59668297D01*
X327753816Y-59701000D01*
X327586184Y-59701000D01*
X327421772Y-59668297D01*
X327266900Y-59604147D01*
X327127519Y-59511015D01*
X327008985Y-59392481D01*
X326915853Y-59253100D01*
X326851703Y-59098228D01*
X326819000Y-58933816D01*
X326819000Y-58766184D01*
X326851703Y-58601772D01*
X326915853Y-58446900D01*
X327008985Y-58307519D01*
X327127519Y-58188985D01*
X327266900Y-58095853D01*
X327421772Y-58031703D01*
X327586184Y-57999000D01*
X327753816Y-57999000D01*
X327918228Y-58031703D01*
G37*
G36*
X366028228Y-58031703D02*
G01*
X366183100Y-58095853D01*
X366322481Y-58188985D01*
X366441015Y-58307519D01*
X366534147Y-58446900D01*
X366598297Y-58601772D01*
X366631000Y-58766184D01*
X366631000Y-58933816D01*
X366598297Y-59098228D01*
X366534147Y-59253100D01*
X366441015Y-59392481D01*
X366322481Y-59511015D01*
X366183100Y-59604147D01*
X366028228Y-59668297D01*
X365863816Y-59701000D01*
X365696184Y-59701000D01*
X365531772Y-59668297D01*
X365376900Y-59604147D01*
X365237519Y-59511015D01*
X365118985Y-59392481D01*
X365025853Y-59253100D01*
X364961703Y-59098228D01*
X364929000Y-58933816D01*
X364929000Y-58766184D01*
X364961703Y-58601772D01*
X365025853Y-58446900D01*
X365118985Y-58307519D01*
X365237519Y-58188985D01*
X365376900Y-58095853D01*
X365531772Y-58031703D01*
X365696184Y-57999000D01*
X365863816Y-57999000D01*
X366028228Y-58031703D01*
G37*
G36*
X386355331Y-55458211D02*
G01*
X386683092Y-55593974D01*
X386978070Y-55791072D01*
X387228928Y-56041930D01*
X387426026Y-56336908D01*
X387561789Y-56664669D01*
X387631000Y-57012616D01*
X387631000Y-57367384D01*
X387561789Y-57715331D01*
X387426026Y-58043092D01*
X387228928Y-58338070D01*
X386978070Y-58588928D01*
X386683092Y-58786026D01*
X386355331Y-58921789D01*
X386007384Y-58991000D01*
X385652616Y-58991000D01*
X385304669Y-58921789D01*
X384976908Y-58786026D01*
X384681930Y-58588928D01*
X384431072Y-58338070D01*
X384233974Y-58043092D01*
X384098211Y-57715331D01*
X384029000Y-57367384D01*
X384029000Y-57012616D01*
X384098211Y-56664669D01*
X384233974Y-56336908D01*
X384431072Y-56041930D01*
X384681930Y-55791072D01*
X384976908Y-55593974D01*
X385304669Y-55458211D01*
X385652616Y-55389000D01*
X386007384Y-55389000D01*
X386355331Y-55458211D01*
G37*
G36*
X398395331Y-55458211D02*
G01*
X398723092Y-55593974D01*
X399018070Y-55791072D01*
X399268928Y-56041930D01*
X399466026Y-56336908D01*
X399601789Y-56664669D01*
X399671000Y-57012616D01*
X399671000Y-57367384D01*
X399601789Y-57715331D01*
X399466026Y-58043092D01*
X399268928Y-58338070D01*
X399018070Y-58588928D01*
X398723092Y-58786026D01*
X398395331Y-58921789D01*
X398047384Y-58991000D01*
X397692616Y-58991000D01*
X397344669Y-58921789D01*
X397016908Y-58786026D01*
X396721930Y-58588928D01*
X396471072Y-58338070D01*
X396273974Y-58043092D01*
X396138211Y-57715331D01*
X396069000Y-57367384D01*
X396069000Y-57012616D01*
X396138211Y-56664669D01*
X396273974Y-56336908D01*
X396471072Y-56041930D01*
X396721930Y-55791072D01*
X397016908Y-55593974D01*
X397344669Y-55458211D01*
X397692616Y-55389000D01*
X398047384Y-55389000D01*
X398395331Y-55458211D01*
G37*
M02*
