M48
; DRILL file {KiCad 5.1.5+dfsg1-2build2} date Sat 25 Dec 2021 05:25:10 PM CET
; FORMAT={-:-/ absolute / inch / decimal}
; #@! TF.CreationDate,2021-12-25T17:25:10+01:00
; #@! TF.GenerationSoftware,Kicad,Pcbnew,5.1.5+dfsg1-2build2
; #@! TF.FileFunction,Plated,1,2,PTH
FMAT,2
INCH
T1C0.0157
T2C0.0315
T3C0.0354
T4C0.0362
T5C0.0394
T6C0.0579
T7C0.0917
%
G90
G05
T1
X12.1102Y-4.2067
X12.2165Y-4.3602
X12.2756Y-4.7598
X12.2933Y-4.3898
X12.811Y-4.7224
X12.8465Y-3.6535
X12.9469Y-3.6535
X13.0472Y-3.6535
X13.0551Y-5.1988
X13.0906Y-3.9823
X13.1004Y-3.4154
X13.1457Y-4.0689
X13.185Y-4.1358
X13.2461Y-4.1161
X13.3563Y-4.2598
X13.5157Y-2.7697
X13.5157Y-2.8189
X13.5157Y-2.8661
X14.687Y-4.9587
X14.8169Y-4.9587
X14.874Y-4.8268
X14.8917Y-4.7362
X15.3465Y-4.0886
X15.3543Y-3.689
X15.3957Y-4.0886
T2
X3.1366Y-3.8646
X3.1366Y-4.1646
X16.2874Y-5.3643
X16.2874Y-5.6643
X2.0217Y-3.1154
X2.0217Y-3.4154
X16.2874Y-4.6142
X16.2874Y-4.9142
X4.4663Y-5.3642
X4.4663Y-5.6642
X9.8773Y-3.8646
X9.8773Y-4.1646
X8.2157Y-5.3642
X8.2157Y-5.6642
X16.2874Y-3.8646
X16.2874Y-4.1646
X3.3272Y-4.6142
X3.3272Y-4.9142
X17.7854Y-3.1154
X17.7854Y-3.4154
X3.5191Y-3.1154
X3.5191Y-3.4154
X9.5083Y-2.3169
X9.5083Y-2.6169
X11.8642Y-5.3642
X11.8642Y-5.6642
X13.6508Y-2.3169
X13.6508Y-2.6169
X6.8814Y-3.8646
X6.8814Y-4.1646
X12.3181Y-5.9819
X12.3181Y-6.2819
X10.6262Y-3.8646
X10.6262Y-4.1646
X16.7346Y-2.6673
X17.0346Y-2.6673
X9.509Y-3.1154
X9.509Y-3.4154
X17.0366Y-4.6142
X17.0366Y-4.9142
X16.2874Y-3.1154
X16.2874Y-3.4154
X5.574Y-4.6142
X5.574Y-4.9142
X1.7264Y-2.6169
X2.0264Y-2.6169
X12.5039Y-3.1154
X12.5039Y-3.4154
X7.6227Y-2.3169
X7.6227Y-2.6169
X15.1504Y-3.1154
X15.1504Y-3.4154
X13.6504Y-3.8646
X13.6504Y-4.1646
X9.1283Y-3.8646
X9.1283Y-4.1646
X15.8213Y-2.6673
X16.1213Y-2.6673
X2.1161Y-5.3642
X2.1161Y-5.6642
X8.0115Y-3.1154
X8.0115Y-3.4154
X2.9665Y-5.3642
X2.9665Y-5.6642
X5.2162Y-5.3642
X5.2162Y-5.6642
X4.2679Y-3.1154
X4.2679Y-3.4154
X6.5141Y-3.1154
X6.5141Y-3.4154
X4.0761Y-4.6142
X4.0761Y-4.9142
X17.9587Y-3.6677
X18.2587Y-3.6677
X3.4986Y-2.3169
X3.4986Y-2.6169
X6.1248Y-2.3169
X6.1248Y-2.6169
X7.2598Y-5.9819
X7.2598Y-6.2819
X7.6304Y-3.8646
X7.6304Y-4.1646
X14.4008Y-5.9823
X14.4008Y-6.2823
X11.0065Y-3.1154
X11.0065Y-3.4154
X7.8209Y-4.6142
X7.8209Y-4.9142
X14.4004Y-3.1154
X14.4004Y-3.4154
X3.8856Y-3.8646
X3.8856Y-4.1646
X14.4008Y-2.3169
X14.4008Y-2.6169
X9.7155Y-5.3642
X9.7155Y-5.6642
X17.9831Y-4.0488
X18.2831Y-4.0488
X12.9004Y-2.3169
X12.9004Y-2.6169
X17.983Y-5.5453
X18.283Y-5.5453
X10.8173Y-4.6142
X10.8173Y-4.9142
X6.1325Y-3.8646
X6.1325Y-4.1646
X6.7159Y-5.3642
X6.7159Y-5.6642
X10.4654Y-5.3642
X10.4654Y-5.6642
X11.7552Y-3.1154
X11.7552Y-3.4154
X4.9965Y-2.3169
X4.9965Y-2.6169
X10.2572Y-2.3169
X10.2572Y-2.6169
X13.6508Y-5.9819
X13.6508Y-6.2819
X8.3717Y-2.3169
X8.3717Y-2.6169
X2.7704Y-3.1154
X2.7704Y-3.4154
X17.037Y-5.3642
X17.037Y-5.6642
X8.9656Y-5.3642
X8.9656Y-5.6642
X10.2577Y-3.1154
X10.2577Y-3.4154
X17.648Y-2.6673
X17.948Y-2.6673
X12.0343Y-4.6142
X12.0343Y-4.9142
X2.2945Y-4.6142
X2.2945Y-4.9142
X4.8251Y-4.6142
X4.8251Y-4.9142
X6.8738Y-2.3169
X6.8738Y-2.6169
X10.4378Y-5.9819
X10.4378Y-6.2819
X9.3188Y-4.6142
X9.3188Y-4.9142
X4.6345Y-3.8646
X4.6345Y-4.1646
X13.6508Y-3.1154
X13.6508Y-3.4154
X17.7854Y-4.6142
X17.7854Y-4.9142
X3.7164Y-5.3642
X3.7164Y-5.6642
X8.7603Y-3.1154
X8.7603Y-3.4154
X14.4004Y-3.8646
X14.4004Y-4.1646
X17.0366Y-3.1154
X17.0366Y-3.4154
X6.323Y-4.6142
X6.323Y-4.9142
X15.1508Y-5.9819
X15.1508Y-6.2819
X17.0366Y-3.8646
X17.0366Y-4.1646
X11.0062Y-2.3169
X11.0062Y-2.6169
X2.7496Y-2.3169
X2.7496Y-2.6169
X11.7551Y-2.3169
X11.7551Y-2.6169
X8.3793Y-3.8646
X8.3793Y-4.1646
X16.6551Y-5.9819
X16.6551Y-6.2819
X5.0166Y-3.1154
X5.0166Y-3.4154
X7.4658Y-5.3642
X7.4658Y-5.6642
X2.2035Y-3.8646
X2.2035Y-4.1646
X17.7862Y-5.3643
X17.7862Y-5.6643
X5.9661Y-5.3642
X5.9661Y-5.6642
X11.3752Y-3.8646
X11.3752Y-4.1646
X7.2628Y-3.1154
X7.2628Y-3.4154
X17.7854Y-3.8646
X17.7854Y-4.1646
X10.0677Y-4.6142
X10.0677Y-4.9142
X8.5698Y-4.6142
X8.5698Y-4.9142
X2.2146Y-5.9819
X2.2146Y-6.2819
X4.0815Y-5.9819
X4.0815Y-6.2819
X5.3835Y-3.8646
X5.3835Y-4.1646
X15.1508Y-3.8646
X15.1508Y-4.1646
X17.7858Y-5.9815
X17.7858Y-6.2815
X5.7653Y-3.1154
X5.7653Y-3.4154
X4.2475Y-2.3169
X4.2475Y-2.6169
X14.4008Y-5.3642
X14.4008Y-5.6642
X7.0719Y-4.6142
X7.0719Y-4.9142
T3
X16.7346Y-2.3429
X17.648Y-2.3429
X17.748Y-2.3429
X15.8213Y-2.3429
X15.9213Y-2.3429
X16.8346Y-2.3429
T4
X15.378Y-2.3583
X15.378Y-2.437
X15.4764Y-2.3583
X15.4764Y-2.437
T5
X12.5469Y-4.4909
X12.5469Y-5.0909
X12.6469Y-4.4909
X12.6469Y-5.0909
X12.6969Y-4.641
X12.6969Y-4.741
X12.6969Y-4.841
X12.6969Y-4.941
X12.7469Y-4.4909
X12.7469Y-5.0909
X12.8469Y-4.4909
X12.8469Y-5.0909
X12.9469Y-4.4909
X12.9469Y-5.0909
X13.0469Y-4.4909
X13.0469Y-5.0909
X13.1469Y-4.4909
X13.1469Y-5.0909
X13.2469Y-4.4909
X13.2469Y-5.0909
X13.3469Y-4.4909
X13.3469Y-5.0909
X13.4469Y-4.4909
X13.4469Y-5.0909
X13.5469Y-4.4909
X13.5469Y-5.0909
X13.6469Y-4.4909
X13.6469Y-5.0909
X13.7469Y-4.4909
X13.7469Y-5.0909
X13.8469Y-4.4909
X13.8469Y-5.0909
X13.9469Y-4.4909
X13.9469Y-5.0909
X14.0469Y-4.4909
X14.0469Y-5.0909
X14.1469Y-4.4909
X14.1469Y-5.0909
X14.2469Y-4.4909
X14.2469Y-5.0909
X14.3469Y-4.4909
X14.3469Y-5.0909
X14.4469Y-4.4909
X14.4469Y-5.0909
T6
X8.8457Y-4.6339
X9.0426Y-4.6142
X7.5382Y-3.135
X7.7351Y-3.1154
X17.983Y-5.8219
X18.0027Y-6.0188
X6.5988Y-4.6339
X6.7957Y-4.6142
X5.2922Y-3.135
X5.4891Y-3.1154
X7.899Y-2.3169
X8.0958Y-2.2972
X5.1009Y-4.6339
X5.2977Y-4.6142
X17.3126Y-3.8843
X17.5095Y-3.8646
X18.0617Y-3.135
X18.2586Y-3.1154
X3.6029Y-4.6339
X3.7998Y-4.6142
X17.3126Y-3.135
X17.5095Y-3.1154
X13.9272Y-6.1379
X14.1241Y-6.1182
X13.1772Y-6.1379
X13.374Y-6.1182
X10.3437Y-4.6339
X10.5406Y-4.6142
X3.0462Y-3.135
X3.243Y-3.1154
X15.8143Y-3.8843
X16.0112Y-3.8646
X8.6476Y-2.3169
X8.8445Y-2.2972
X3.4127Y-3.8843
X3.6095Y-3.8646
X16.5636Y-3.135
X16.7605Y-3.1154
X15.8143Y-3.135
X16.0112Y-3.1154
X8.6549Y-3.8843
X8.8518Y-3.8646
X3.7748Y-2.3169
X3.9717Y-2.2972
X14.6772Y-3.8843
X14.874Y-3.8646
X10.1527Y-3.8843
X10.3495Y-3.8646
X1.5528Y-2.3169
X1.7496Y-2.2972
X7.1571Y-3.8843
X7.354Y-3.8646
X4.5435Y-3.135
X4.7404Y-3.1154
X3.026Y-2.3169
X3.2228Y-2.2972
X11.2816Y-3.135
X11.4785Y-3.1154
X1.7303Y-3.8843
X1.9272Y-3.8646
X16.5636Y-3.8843
X16.7605Y-3.8646
X17.9831Y-4.3252
X18.0028Y-4.522
X6.0409Y-3.135
X6.2377Y-3.1154
X9.0356Y-3.135
X9.2325Y-3.1154
X4.1616Y-3.8843
X4.3584Y-3.8646
X10.9016Y-3.8843
X11.0984Y-3.8646
X5.4929Y-5.384
X5.6897Y-5.3643
X16.5636Y-4.6339
X16.7605Y-4.6142
X9.4038Y-3.8843
X9.6006Y-3.8646
X5.8498Y-4.6339
X6.0467Y-4.6142
X14.6772Y-2.3169
X14.874Y-2.2972
X4.3519Y-4.6339
X4.5487Y-4.6142
X7.7425Y-5.384
X7.9393Y-5.3643
X17.3126Y-4.6339
X17.5095Y-4.6142
X14.6772Y-6.1379
X14.874Y-6.1182
X13.9272Y-3.135
X14.1241Y-3.1154
X13.9272Y-2.3169
X14.1241Y-2.2972
X8.2869Y-3.135
X8.4838Y-3.1154
X1.8213Y-4.6339
X2.0181Y-4.6142
X5.6593Y-3.8843
X5.8562Y-3.8646
X3.9931Y-5.384
X4.19Y-5.3643
X9.7843Y-3.135
X9.9811Y-3.1154
X13.1772Y-3.135
X13.374Y-3.1154
X14.6772Y-3.135
X14.874Y-3.1154
X6.2427Y-5.384
X6.4396Y-5.3643
X4.5236Y-2.3169
X4.7205Y-2.2972
X2.2975Y-3.135
X2.4943Y-3.1154
X13.9272Y-3.8843
X14.1241Y-3.8646
X12.0303Y-3.135
X12.2272Y-3.1154
X1.5488Y-3.135
X1.7457Y-3.1154
X15.8143Y-5.384
X16.0112Y-5.3643
X2.4933Y-5.384
X2.6902Y-5.3643
X3.2432Y-5.384
X3.4401Y-5.3643
X2.8539Y-4.6339
X3.0508Y-4.6142
X11.5606Y-4.6339
X11.7575Y-4.6142
X10.5337Y-2.3169
X10.7306Y-2.2972
X13.1772Y-3.8843
X13.374Y-3.8646
X10.533Y-3.135
X10.7298Y-3.1154
X6.4082Y-3.8843
X6.6051Y-3.8646
X6.9926Y-5.384
X7.1895Y-5.3643
X15.8143Y-4.6339
X16.0112Y-4.6142
X6.7896Y-3.135
X6.9864Y-3.1154
X9.9646Y-6.1378
X10.1614Y-6.1181
X17.3126Y-6.1378
X17.5095Y-6.1181
X7.3478Y-4.6339
X7.5446Y-4.6142
X11.2824Y-2.3169
X11.4793Y-2.2972
X9.5947Y-4.6339
X9.7916Y-4.6142
X13.9272Y-5.384
X14.1241Y-5.3643
X9.2422Y-5.384
X9.4391Y-5.3643
X1.6417Y-5.384
X1.8386Y-5.3643
X5.2724Y-2.3169
X5.4693Y-2.2972
X4.743Y-5.384
X4.9398Y-5.3643
X11.8445Y-6.1378
X12.0413Y-6.1181
X8.4924Y-5.384
X8.6892Y-5.3643
X12.0311Y-2.3169
X12.228Y-2.2972
X9.785Y-2.3169
X9.9819Y-2.2972
X16.5636Y-5.384
X16.7605Y-5.3643
X6.4016Y-2.3169
X6.5984Y-2.2972
X1.7411Y-6.1378
X1.938Y-6.1181
X3.7949Y-3.135
X3.9917Y-3.1154
X16.1817Y-6.1378
X16.3786Y-6.1181
X2.6638Y-3.8843
X2.8606Y-3.8646
X7.1503Y-2.3169
X7.3471Y-2.2972
X11.3907Y-5.384
X11.5876Y-5.3643
X3.6083Y-6.1378
X3.8051Y-6.1181
X17.3126Y-5.384
X17.5095Y-5.3643
X6.7864Y-6.1378
X6.9833Y-6.1181
X8.0968Y-4.6339
X8.2936Y-4.6142
X4.9105Y-3.8843
X5.1073Y-3.8646
X9.9921Y-5.384
X10.189Y-5.3643
X7.906Y-3.8843
X8.1029Y-3.8646
X13.1772Y-2.3169
X13.374Y-2.2972
T7
X15.1902Y-2.2516
X15.6642Y-2.2516
T0
M30
